%FSLAX45Y45*%
G04 Gerber Fmt 4.5, Leading zero omitted, Abs format (unit mm)*
G04 Created by KiCad (PCBNEW (6.0.0)) date 2022-01-21 00:34:08*
%MOMM*%
%LPD*%
G01*
G04 APERTURE LIST*
%TA.AperFunction,Profile*%
%ADD10C,0.050000*%
%TD*%
%ADD11C,0.200000*%
%ADD12C,0.040000*%
%ADD13C,0.050000*%
%ADD14C,0.080000*%
%ADD15C,0.100000*%
%ADD16C,0.110000*%
%ADD17C,0.130000*%
%ADD18C,0.350000*%
G04 APERTURE END LIST*
D10*
X9017000Y-16294100D02*
X9017000Y-13995400D01*
X9017000Y-13995400D02*
X9017000Y-13995400D01*
X9017000Y-13995400D02*
X9017000Y-13995400D01*
X9017000Y-13335000D02*
X9017000Y-9220200D01*
X9017000Y-6515100D02*
X9016838Y-5785958D01*
X9494358Y-5308438D02*
G75*
G03*
X9016838Y-5785958I0J-477520D01*
G01*
X15201900Y-16764000D02*
X9486900Y-16764000D01*
X15201900Y-16764000D02*
X15201900Y-16764000D01*
X9867900Y-9220200D02*
X9017000Y-9220200D01*
X9494358Y-5308438D02*
X15214600Y-5308600D01*
X9017000Y-16294100D02*
G75*
G03*
X9486900Y-16764000I469900J0D01*
G01*
X15100300Y-14770100D02*
X15748000Y-14770100D01*
X9867900Y-13995400D02*
X9017000Y-13995400D01*
X9017000Y-6515100D02*
X9867900Y-6515100D01*
X15201900Y-16764000D02*
G75*
G03*
X15748000Y-16217900I0J546100D01*
G01*
X9867900Y-13335000D02*
X9867900Y-13995400D01*
X15748000Y-5842000D02*
G75*
G03*
X15214600Y-5308600I-533400J0D01*
G01*
X15748000Y-14770100D02*
X15748000Y-16217900D01*
X15748000Y-5842000D02*
X15748000Y-13601700D01*
X15748000Y-5842000D02*
X15748000Y-5842000D01*
X9867900Y-6515100D02*
X9867900Y-9220200D01*
X15748000Y-13601700D02*
X15100300Y-13601700D01*
X9017000Y-13335000D02*
X9867900Y-13335000D01*
X15100300Y-13601700D02*
X15100300Y-14770100D01*
D11*
D12*
X13137200Y-6396670D02*
X13177200Y-6436670D01*
X13177200Y-6396670D02*
X13137200Y-6436670D01*
X13137200Y-7806920D02*
X13177200Y-7846920D01*
X13177200Y-7806920D02*
X13137200Y-7846920D01*
X13137200Y-12225470D02*
X13177200Y-12265470D01*
X13177200Y-12225470D02*
X13137200Y-12265470D01*
X13137200Y-12887900D02*
X13177200Y-12927900D01*
X13177200Y-12887900D02*
X13137200Y-12927900D01*
X13180100Y-11007950D02*
X13220100Y-11047950D01*
X13220100Y-11007950D02*
X13180100Y-11047950D01*
X13284540Y-10758760D02*
X13324540Y-10798760D01*
X13324540Y-10758760D02*
X13284540Y-10798760D01*
X14035900Y-10897150D02*
X14075900Y-10937150D01*
X14075900Y-10897150D02*
X14035900Y-10937150D01*
X14435300Y-13120750D02*
X14475300Y-13160750D01*
X14475300Y-13120750D02*
X14435300Y-13160750D01*
X14610390Y-7042890D02*
X14650390Y-7082890D01*
X14650390Y-7042890D02*
X14610390Y-7082890D01*
D13*
X9257020Y-5826760D02*
G75*
G03*
X9257020Y-5826760I-25000J0D01*
G01*
X9257020Y-16304260D02*
G75*
G03*
X9257020Y-16304260I-25000J0D01*
G01*
X9333905Y-5641144D02*
G75*
G03*
X9333905Y-5641144I-25000J0D01*
G01*
X9333905Y-6012375D02*
G75*
G03*
X9333905Y-6012375I-25000J0D01*
G01*
X9333905Y-16118644D02*
G75*
G03*
X9333905Y-16118644I-25000J0D01*
G01*
X9333905Y-16489875D02*
G75*
G03*
X9333905Y-16489875I-25000J0D01*
G01*
X9519520Y-5564260D02*
G75*
G03*
X9519520Y-5564260I-25000J0D01*
G01*
X9519520Y-6089260D02*
G75*
G03*
X9519520Y-6089260I-25000J0D01*
G01*
X9519520Y-16041760D02*
G75*
G03*
X9519520Y-16041760I-25000J0D01*
G01*
X9519520Y-16566760D02*
G75*
G03*
X9519520Y-16566760I-25000J0D01*
G01*
X9705136Y-5641144D02*
G75*
G03*
X9705136Y-5641144I-25000J0D01*
G01*
X9705136Y-6012375D02*
G75*
G03*
X9705136Y-6012375I-25000J0D01*
G01*
X9705136Y-16118644D02*
G75*
G03*
X9705136Y-16118644I-25000J0D01*
G01*
X9705136Y-16489875D02*
G75*
G03*
X9705136Y-16489875I-25000J0D01*
G01*
X9782020Y-5826760D02*
G75*
G03*
X9782020Y-5826760I-25000J0D01*
G01*
X9782020Y-16304260D02*
G75*
G03*
X9782020Y-16304260I-25000J0D01*
G01*
X14979200Y-16301900D02*
G75*
G03*
X14979200Y-16301900I-25000J0D01*
G01*
X14979640Y-5819140D02*
G75*
G03*
X14979640Y-5819140I-25000J0D01*
G01*
X15056084Y-16116284D02*
G75*
G03*
X15056084Y-16116284I-25000J0D01*
G01*
X15056084Y-16487515D02*
G75*
G03*
X15056084Y-16487515I-25000J0D01*
G01*
X15056524Y-5633524D02*
G75*
G03*
X15056524Y-5633524I-25000J0D01*
G01*
X15056524Y-6004755D02*
G75*
G03*
X15056524Y-6004755I-25000J0D01*
G01*
X15241700Y-16039400D02*
G75*
G03*
X15241700Y-16039400I-25000J0D01*
G01*
X15241700Y-16564400D02*
G75*
G03*
X15241700Y-16564400I-25000J0D01*
G01*
X15242140Y-5556640D02*
G75*
G03*
X15242140Y-5556640I-25000J0D01*
G01*
X15242140Y-6081640D02*
G75*
G03*
X15242140Y-6081640I-25000J0D01*
G01*
X15427315Y-16116284D02*
G75*
G03*
X15427315Y-16116284I-25000J0D01*
G01*
X15427315Y-16487515D02*
G75*
G03*
X15427315Y-16487515I-25000J0D01*
G01*
X15427755Y-5633524D02*
G75*
G03*
X15427755Y-5633524I-25000J0D01*
G01*
X15427755Y-6004755D02*
G75*
G03*
X15427755Y-6004755I-25000J0D01*
G01*
X15504200Y-16301900D02*
G75*
G03*
X15504200Y-16301900I-25000J0D01*
G01*
X15504640Y-5819140D02*
G75*
G03*
X15504640Y-5819140I-25000J0D01*
G01*
D14*
X13265200Y-9186550D02*
X13265200Y-9266550D01*
X13225200Y-9226550D02*
X13305200Y-9226550D01*
X13265200Y-9674550D02*
X13265200Y-9754550D01*
X13225200Y-9714550D02*
X13305200Y-9714550D01*
X13684800Y-7258050D02*
X13684800Y-7338050D01*
X13644800Y-7298050D02*
X13724800Y-7298050D01*
X13684800Y-7512050D02*
X13684800Y-7592050D01*
X13644800Y-7552050D02*
X13724800Y-7552050D01*
X13684800Y-7766050D02*
X13684800Y-7846050D01*
X13644800Y-7806050D02*
X13724800Y-7806050D01*
X13684800Y-8020050D02*
X13684800Y-8100050D01*
X13644800Y-8060050D02*
X13724800Y-8060050D01*
X13684800Y-8274050D02*
X13684800Y-8354050D01*
X13644800Y-8314050D02*
X13724800Y-8314050D01*
X13684800Y-8528050D02*
X13684800Y-8608050D01*
X13644800Y-8568050D02*
X13724800Y-8568050D01*
X13684800Y-8782050D02*
X13684800Y-8862050D01*
X13644800Y-8822050D02*
X13724800Y-8822050D01*
X13684800Y-9036050D02*
X13684800Y-9116050D01*
X13644800Y-9076050D02*
X13724800Y-9076050D01*
X13684800Y-9290050D02*
X13684800Y-9370050D01*
X13644800Y-9330050D02*
X13724800Y-9330050D01*
X13684800Y-9544050D02*
X13684800Y-9624050D01*
X13644800Y-9584050D02*
X13724800Y-9584050D01*
X13684800Y-9798050D02*
X13684800Y-9878050D01*
X13644800Y-9838050D02*
X13724800Y-9838050D01*
X13684800Y-10052050D02*
X13684800Y-10132050D01*
X13644800Y-10092050D02*
X13724800Y-10092050D01*
X13684800Y-10306050D02*
X13684800Y-10386050D01*
X13644800Y-10346050D02*
X13724800Y-10346050D01*
X13684800Y-10560050D02*
X13684800Y-10640050D01*
X13644800Y-10600050D02*
X13724800Y-10600050D01*
X13804900Y-11580500D02*
X13804900Y-11660500D01*
X13764900Y-11620500D02*
X13844900Y-11620500D01*
X13804900Y-12342500D02*
X13804900Y-12422500D01*
X13764900Y-12382500D02*
X13844900Y-12382500D01*
X13804900Y-12685400D02*
X13804900Y-12765400D01*
X13764900Y-12725400D02*
X13844900Y-12725400D01*
X13804900Y-13447400D02*
X13804900Y-13527400D01*
X13764900Y-13487400D02*
X13844900Y-13487400D01*
X13804900Y-13777600D02*
X13804900Y-13857600D01*
X13764900Y-13817600D02*
X13844900Y-13817600D01*
X13804900Y-14539600D02*
X13804900Y-14619600D01*
X13764900Y-14579600D02*
X13844900Y-14579600D01*
X14058900Y-11580500D02*
X14058900Y-11660500D01*
X14018900Y-11620500D02*
X14098900Y-11620500D01*
X14058900Y-12342500D02*
X14058900Y-12422500D01*
X14018900Y-12382500D02*
X14098900Y-12382500D01*
X14058900Y-12685400D02*
X14058900Y-12765400D01*
X14018900Y-12725400D02*
X14098900Y-12725400D01*
X14058900Y-13447400D02*
X14058900Y-13527400D01*
X14018900Y-13487400D02*
X14098900Y-13487400D01*
X14058900Y-13777600D02*
X14058900Y-13857600D01*
X14018900Y-13817600D02*
X14098900Y-13817600D01*
X14058900Y-14539600D02*
X14058900Y-14619600D01*
X14018900Y-14579600D02*
X14098900Y-14579600D01*
X14446800Y-7258050D02*
X14446800Y-7338050D01*
X14406800Y-7298050D02*
X14486800Y-7298050D01*
X14446800Y-7512050D02*
X14446800Y-7592050D01*
X14406800Y-7552050D02*
X14486800Y-7552050D01*
X14446800Y-7766050D02*
X14446800Y-7846050D01*
X14406800Y-7806050D02*
X14486800Y-7806050D01*
X14446800Y-8020050D02*
X14446800Y-8100050D01*
X14406800Y-8060050D02*
X14486800Y-8060050D01*
X14446800Y-8274050D02*
X14446800Y-8354050D01*
X14406800Y-8314050D02*
X14486800Y-8314050D01*
X14446800Y-8528050D02*
X14446800Y-8608050D01*
X14406800Y-8568050D02*
X14486800Y-8568050D01*
X14446800Y-8782050D02*
X14446800Y-8862050D01*
X14406800Y-8822050D02*
X14486800Y-8822050D01*
X14446800Y-9036050D02*
X14446800Y-9116050D01*
X14406800Y-9076050D02*
X14486800Y-9076050D01*
X14446800Y-9290050D02*
X14446800Y-9370050D01*
X14406800Y-9330050D02*
X14486800Y-9330050D01*
X14446800Y-9544050D02*
X14446800Y-9624050D01*
X14406800Y-9584050D02*
X14486800Y-9584050D01*
X14446800Y-9798050D02*
X14446800Y-9878050D01*
X14406800Y-9838050D02*
X14486800Y-9838050D01*
X14446800Y-10052050D02*
X14446800Y-10132050D01*
X14406800Y-10092050D02*
X14486800Y-10092050D01*
X14446800Y-10306050D02*
X14446800Y-10386050D01*
X14406800Y-10346050D02*
X14486800Y-10346050D01*
X14446800Y-10560050D02*
X14446800Y-10640050D01*
X14406800Y-10600050D02*
X14486800Y-10600050D01*
D15*
X9346356Y-12235556D02*
X9346356Y-12164844D01*
X9275644Y-12164844D01*
X9275644Y-12235556D01*
X9346356Y-12235556D01*
X10089256Y-13570556D02*
X10089256Y-13499844D01*
X10018544Y-13499844D01*
X10018544Y-13570556D01*
X10089256Y-13570556D01*
X10089256Y-13824556D02*
X10089256Y-13753844D01*
X10018544Y-13753844D01*
X10018544Y-13824556D01*
X10089256Y-13824556D01*
X10106456Y-6753656D02*
X10106456Y-6682944D01*
X10035744Y-6682944D01*
X10035744Y-6753656D01*
X10106456Y-6753656D01*
X10106456Y-7007656D02*
X10106456Y-6936944D01*
X10035744Y-6936944D01*
X10035744Y-7007656D01*
X10106456Y-7007656D01*
X10106456Y-7261656D02*
X10106456Y-7190944D01*
X10035744Y-7190944D01*
X10035744Y-7261656D01*
X10106456Y-7261656D01*
X10106456Y-7515656D02*
X10106456Y-7444944D01*
X10035744Y-7444944D01*
X10035744Y-7515656D01*
X10106456Y-7515656D01*
X10106456Y-7769656D02*
X10106456Y-7698944D01*
X10035744Y-7698944D01*
X10035744Y-7769656D01*
X10106456Y-7769656D01*
X10106456Y-8023656D02*
X10106456Y-7952944D01*
X10035744Y-7952944D01*
X10035744Y-8023656D01*
X10106456Y-8023656D01*
X10106456Y-8277656D02*
X10106456Y-8206944D01*
X10035744Y-8206944D01*
X10035744Y-8277656D01*
X10106456Y-8277656D01*
X10106456Y-8531656D02*
X10106456Y-8460944D01*
X10035744Y-8460944D01*
X10035744Y-8531656D01*
X10106456Y-8531656D01*
X10106456Y-8785656D02*
X10106456Y-8714944D01*
X10035744Y-8714944D01*
X10035744Y-8785656D01*
X10106456Y-8785656D01*
X10106456Y-9039656D02*
X10106456Y-8968944D01*
X10035744Y-8968944D01*
X10035744Y-9039656D01*
X10106456Y-9039656D01*
X10546356Y-12235556D02*
X10546356Y-12164844D01*
X10475644Y-12164844D01*
X10475644Y-12235556D01*
X10546356Y-12235556D01*
X10781256Y-16483606D02*
X10781256Y-16412894D01*
X10710544Y-16412894D01*
X10710544Y-16483606D01*
X10781256Y-16483606D01*
X11381256Y-13123606D02*
X11381256Y-13052894D01*
X11310544Y-13052894D01*
X11310544Y-13123606D01*
X11381256Y-13123606D01*
X11981256Y-13123606D02*
X11981256Y-13052894D01*
X11910544Y-13052894D01*
X11910544Y-13123606D01*
X11981256Y-13123606D01*
X12214656Y-5686856D02*
X12214656Y-5616144D01*
X12143944Y-5616144D01*
X12143944Y-5686856D01*
X12214656Y-5686856D01*
X12463256Y-7825056D02*
X12463256Y-7754344D01*
X12392544Y-7754344D01*
X12392544Y-7825056D01*
X12463256Y-7825056D01*
X12463256Y-9025056D02*
X12463256Y-8954344D01*
X12392544Y-8954344D01*
X12392544Y-9025056D01*
X12463256Y-9025056D01*
X12464156Y-6173356D02*
X12464156Y-6102644D01*
X12393444Y-6102644D01*
X12393444Y-6173356D01*
X12464156Y-6173356D01*
X12464156Y-7373356D02*
X12464156Y-7302644D01*
X12393444Y-7302644D01*
X12393444Y-7373356D01*
X12464156Y-7373356D01*
X12468656Y-5686856D02*
X12468656Y-5616144D01*
X12397944Y-5616144D01*
X12397944Y-5686856D01*
X12468656Y-5686856D01*
X12474356Y-9488756D02*
X12474356Y-9418044D01*
X12403644Y-9418044D01*
X12403644Y-9488756D01*
X12474356Y-9488756D01*
X12474356Y-10688756D02*
X12474356Y-10618044D01*
X12403644Y-10618044D01*
X12403644Y-10688756D01*
X12474356Y-10688756D01*
X12475956Y-11152456D02*
X12475956Y-11081744D01*
X12405244Y-11081744D01*
X12405244Y-11152456D01*
X12475956Y-11152456D01*
X12475956Y-12352456D02*
X12475956Y-12281744D01*
X12405244Y-12281744D01*
X12405244Y-12352456D01*
X12475956Y-12352456D01*
X12581256Y-16483606D02*
X12581256Y-16412894D01*
X12510544Y-16412894D01*
X12510544Y-16483606D01*
X12581256Y-16483606D01*
X12722656Y-5686856D02*
X12722656Y-5616144D01*
X12651944Y-5616144D01*
X12651944Y-5686856D01*
X12722656Y-5686856D01*
X12976656Y-5686856D02*
X12976656Y-5616144D01*
X12905944Y-5616144D01*
X12905944Y-5686856D01*
X12976656Y-5686856D01*
X13418506Y-15474556D02*
X13418506Y-15403844D01*
X13347794Y-15403844D01*
X13347794Y-15474556D01*
X13418506Y-15474556D01*
X13637056Y-5686856D02*
X13637056Y-5616144D01*
X13566344Y-5616144D01*
X13566344Y-5686856D01*
X13637056Y-5686856D01*
X13672506Y-15474556D02*
X13672506Y-15403844D01*
X13601794Y-15403844D01*
X13601794Y-15474556D01*
X13672506Y-15474556D01*
X13891056Y-5686856D02*
X13891056Y-5616144D01*
X13820344Y-5616144D01*
X13820344Y-5686856D01*
X13891056Y-5686856D01*
X14145056Y-5686856D02*
X14145056Y-5616144D01*
X14074344Y-5616144D01*
X14074344Y-5686856D01*
X14145056Y-5686856D01*
X14180506Y-15474556D02*
X14180506Y-15403844D01*
X14109794Y-15403844D01*
X14109794Y-15474556D01*
X14180506Y-15474556D01*
X14399056Y-5686856D02*
X14399056Y-5616144D01*
X14328344Y-5616144D01*
X14328344Y-5686856D01*
X14399056Y-5686856D01*
X14688506Y-15474556D02*
X14688506Y-15403844D01*
X14617794Y-15403844D01*
X14617794Y-15474556D01*
X14688506Y-15474556D01*
X14987756Y-13844256D02*
X14987756Y-13773544D01*
X14917044Y-13773544D01*
X14917044Y-13844256D01*
X14987756Y-13844256D01*
X14987756Y-14098256D02*
X14987756Y-14027544D01*
X14917044Y-14027544D01*
X14917044Y-14098256D01*
X14987756Y-14098256D01*
X14987756Y-14352256D02*
X14987756Y-14281544D01*
X14917044Y-14281544D01*
X14917044Y-14352256D01*
X14987756Y-14352256D01*
X14987756Y-14606256D02*
X14987756Y-14535544D01*
X14917044Y-14535544D01*
X14917044Y-14606256D01*
X14987756Y-14606256D01*
X15237256Y-6677456D02*
X15237256Y-6606744D01*
X15166544Y-6606744D01*
X15166544Y-6677456D01*
X15237256Y-6677456D01*
X15237256Y-6931456D02*
X15237256Y-6860744D01*
X15166544Y-6860744D01*
X15166544Y-6931456D01*
X15237256Y-6931456D01*
X15237256Y-7185456D02*
X15237256Y-7114744D01*
X15166544Y-7114744D01*
X15166544Y-7185456D01*
X15237256Y-7185456D01*
X15237256Y-7439456D02*
X15237256Y-7368744D01*
X15166544Y-7368744D01*
X15166544Y-7439456D01*
X15237256Y-7439456D01*
X15237256Y-8010956D02*
X15237256Y-7940244D01*
X15166544Y-7940244D01*
X15166544Y-8010956D01*
X15237256Y-8010956D01*
X15237256Y-8264956D02*
X15237256Y-8194244D01*
X15166544Y-8194244D01*
X15166544Y-8264956D01*
X15237256Y-8264956D01*
X15237256Y-8518956D02*
X15237256Y-8448244D01*
X15166544Y-8448244D01*
X15166544Y-8518956D01*
X15237256Y-8518956D01*
X15237256Y-8772956D02*
X15237256Y-8702244D01*
X15166544Y-8702244D01*
X15166544Y-8772956D01*
X15237256Y-8772956D01*
X15249956Y-9319056D02*
X15249956Y-9248344D01*
X15179244Y-9248344D01*
X15179244Y-9319056D01*
X15249956Y-9319056D01*
X15249956Y-9573056D02*
X15249956Y-9502344D01*
X15179244Y-9502344D01*
X15179244Y-9573056D01*
X15249956Y-9573056D01*
X15249956Y-9827056D02*
X15249956Y-9756344D01*
X15179244Y-9756344D01*
X15179244Y-9827056D01*
X15249956Y-9827056D01*
X15249956Y-10081056D02*
X15249956Y-10010344D01*
X15179244Y-10010344D01*
X15179244Y-10081056D01*
X15249956Y-10081056D01*
X15249956Y-10335056D02*
X15249956Y-10264344D01*
X15179244Y-10264344D01*
X15179244Y-10335056D01*
X15249956Y-10335056D01*
X15249956Y-10589056D02*
X15249956Y-10518344D01*
X15179244Y-10518344D01*
X15179244Y-10589056D01*
X15249956Y-10589056D01*
D16*
X13732800Y-6532850D02*
X13787800Y-6477850D01*
X13732800Y-6422850D01*
X13677800Y-6477850D01*
X13732800Y-6532850D01*
X13732800Y-6982850D02*
X13787800Y-6927850D01*
X13732800Y-6872850D01*
X13677800Y-6927850D01*
X13732800Y-6982850D01*
X14382800Y-6532850D02*
X14437800Y-6477850D01*
X14382800Y-6422850D01*
X14327800Y-6477850D01*
X14382800Y-6532850D01*
X14382800Y-6982850D02*
X14437800Y-6927850D01*
X14382800Y-6872850D01*
X14327800Y-6927850D01*
X14382800Y-6982850D01*
D17*
X9241000Y-10910200D02*
X9371000Y-11040200D01*
X9371000Y-10910200D02*
X9241000Y-11040200D01*
X9371000Y-10975200D02*
G75*
G03*
X9371000Y-10975200I-65000J0D01*
G01*
X9841000Y-12330200D02*
X9971000Y-12460200D01*
X9971000Y-12330200D02*
X9841000Y-12460200D01*
X9971000Y-12395200D02*
G75*
G03*
X9971000Y-12395200I-65000J0D01*
G01*
X10446000Y-10915200D02*
X10576000Y-11045200D01*
X10576000Y-10915200D02*
X10446000Y-11045200D01*
X10576000Y-10980200D02*
G75*
G03*
X10576000Y-10980200I-65000J0D01*
G01*
X11137900Y-8929700D02*
X11267900Y-9059700D01*
X11267900Y-8929700D02*
X11137900Y-9059700D01*
X11267900Y-8994700D02*
G75*
G03*
X11267900Y-8994700I-65000J0D01*
G01*
X11138800Y-7278000D02*
X11268800Y-7408000D01*
X11268800Y-7278000D02*
X11138800Y-7408000D01*
X11268800Y-7343000D02*
G75*
G03*
X11268800Y-7343000I-65000J0D01*
G01*
X11142900Y-7724700D02*
X11272900Y-7854700D01*
X11272900Y-7724700D02*
X11142900Y-7854700D01*
X11272900Y-7789700D02*
G75*
G03*
X11272900Y-7789700I-65000J0D01*
G01*
X11143800Y-6073000D02*
X11273800Y-6203000D01*
X11273800Y-6073000D02*
X11143800Y-6203000D01*
X11273800Y-6138000D02*
G75*
G03*
X11273800Y-6138000I-65000J0D01*
G01*
X11149000Y-10593400D02*
X11279000Y-10723400D01*
X11279000Y-10593400D02*
X11149000Y-10723400D01*
X11279000Y-10658400D02*
G75*
G03*
X11279000Y-10658400I-65000J0D01*
G01*
X11150600Y-12257100D02*
X11280600Y-12387100D01*
X11280600Y-12257100D02*
X11150600Y-12387100D01*
X11280600Y-12322100D02*
G75*
G03*
X11280600Y-12322100I-65000J0D01*
G01*
X11154000Y-9388400D02*
X11284000Y-9518400D01*
X11284000Y-9388400D02*
X11154000Y-9518400D01*
X11284000Y-9453400D02*
G75*
G03*
X11284000Y-9453400I-65000J0D01*
G01*
X11155600Y-11052100D02*
X11285600Y-11182100D01*
X11285600Y-11052100D02*
X11155600Y-11182100D01*
X11285600Y-11117100D02*
G75*
G03*
X11285600Y-11117100I-65000J0D01*
G01*
X12557900Y-8329700D02*
X12687900Y-8459700D01*
X12687900Y-8329700D02*
X12557900Y-8459700D01*
X12687900Y-8394700D02*
G75*
G03*
X12687900Y-8394700I-65000J0D01*
G01*
X12558800Y-6678000D02*
X12688800Y-6808000D01*
X12688800Y-6678000D02*
X12558800Y-6808000D01*
X12688800Y-6743000D02*
G75*
G03*
X12688800Y-6743000I-65000J0D01*
G01*
X12569000Y-9993400D02*
X12699000Y-10123400D01*
X12699000Y-9993400D02*
X12569000Y-10123400D01*
X12699000Y-10058400D02*
G75*
G03*
X12699000Y-10058400I-65000J0D01*
G01*
X12570600Y-11657100D02*
X12700600Y-11787100D01*
X12700600Y-11657100D02*
X12570600Y-11787100D01*
X12700600Y-11722100D02*
G75*
G03*
X12700600Y-11722100I-65000J0D01*
G01*
D18*
X9319520Y-5651760D02*
X9669520Y-6001760D01*
X9669520Y-5651760D02*
X9319520Y-6001760D01*
X9494520Y-5651760D02*
X9494520Y-6001760D01*
X9319520Y-5826760D02*
X9669520Y-5826760D01*
X9319520Y-16129260D02*
X9669520Y-16479260D01*
X9669520Y-16129260D02*
X9319520Y-16479260D01*
X9494520Y-16129260D02*
X9494520Y-16479260D01*
X9319520Y-16304260D02*
X9669520Y-16304260D01*
X15041700Y-16126900D02*
X15391700Y-16476900D01*
X15391700Y-16126900D02*
X15041700Y-16476900D01*
X15216700Y-16126900D02*
X15216700Y-16476900D01*
X15041700Y-16301900D02*
X15391700Y-16301900D01*
X15042140Y-5644140D02*
X15392140Y-5994140D01*
X15392140Y-5644140D02*
X15042140Y-5994140D01*
X15217140Y-5644140D02*
X15217140Y-5994140D01*
X15042140Y-5819140D02*
X15392140Y-5819140D01*
D11*
X9271957Y-17076976D02*
X9271957Y-16876976D01*
X9319576Y-16876976D01*
X9348147Y-16886500D01*
X9367195Y-16905548D01*
X9376719Y-16924595D01*
X9386242Y-16962690D01*
X9386242Y-16991262D01*
X9376719Y-17029357D01*
X9367195Y-17048405D01*
X9348147Y-17067452D01*
X9319576Y-17076976D01*
X9271957Y-17076976D01*
X9471957Y-17076976D02*
X9471957Y-16943643D01*
X9471957Y-16981738D02*
X9481480Y-16962690D01*
X9491004Y-16953167D01*
X9510052Y-16943643D01*
X9529100Y-16943643D01*
X9595766Y-17076976D02*
X9595766Y-16943643D01*
X9595766Y-16876976D02*
X9586242Y-16886500D01*
X9595766Y-16896024D01*
X9605290Y-16886500D01*
X9595766Y-16876976D01*
X9595766Y-16896024D01*
X9719576Y-17076976D02*
X9700528Y-17067452D01*
X9691004Y-17048405D01*
X9691004Y-16876976D01*
X9824338Y-17076976D02*
X9805290Y-17067452D01*
X9795766Y-17048405D01*
X9795766Y-16876976D01*
X10052909Y-17076976D02*
X10052909Y-16876976D01*
X10119576Y-17019833D01*
X10186242Y-16876976D01*
X10186242Y-17076976D01*
X10367195Y-17076976D02*
X10367195Y-16972214D01*
X10357671Y-16953167D01*
X10338623Y-16943643D01*
X10300528Y-16943643D01*
X10281480Y-16953167D01*
X10367195Y-17067452D02*
X10348147Y-17076976D01*
X10300528Y-17076976D01*
X10281480Y-17067452D01*
X10271957Y-17048405D01*
X10271957Y-17029357D01*
X10281480Y-17010310D01*
X10300528Y-17000786D01*
X10348147Y-17000786D01*
X10367195Y-16991262D01*
X10462433Y-16943643D02*
X10462433Y-17143643D01*
X10462433Y-16953167D02*
X10481480Y-16943643D01*
X10519576Y-16943643D01*
X10538623Y-16953167D01*
X10548147Y-16962690D01*
X10557671Y-16981738D01*
X10557671Y-17038881D01*
X10548147Y-17057929D01*
X10538623Y-17067452D01*
X10519576Y-17076976D01*
X10481480Y-17076976D01*
X10462433Y-17067452D01*
X10643385Y-17057929D02*
X10652909Y-17067452D01*
X10643385Y-17076976D01*
X10633861Y-17067452D01*
X10643385Y-17057929D01*
X10643385Y-17076976D01*
X10643385Y-16953167D02*
X10652909Y-16962690D01*
X10643385Y-16972214D01*
X10633861Y-16962690D01*
X10643385Y-16953167D01*
X10643385Y-16972214D01*
D12*
X8974338Y-17386500D02*
X9014338Y-17426500D01*
X9014338Y-17386500D02*
X8974338Y-17426500D01*
D11*
X9310052Y-17296976D02*
X9329100Y-17296976D01*
X9348147Y-17306500D01*
X9357671Y-17316024D01*
X9367195Y-17335071D01*
X9376719Y-17373167D01*
X9376719Y-17420786D01*
X9367195Y-17458881D01*
X9357671Y-17477929D01*
X9348147Y-17487452D01*
X9329100Y-17496976D01*
X9310052Y-17496976D01*
X9291004Y-17487452D01*
X9281480Y-17477929D01*
X9271957Y-17458881D01*
X9262433Y-17420786D01*
X9262433Y-17373167D01*
X9271957Y-17335071D01*
X9281480Y-17316024D01*
X9291004Y-17306500D01*
X9310052Y-17296976D01*
X9462433Y-17477929D02*
X9471957Y-17487452D01*
X9462433Y-17496976D01*
X9452909Y-17487452D01*
X9462433Y-17477929D01*
X9462433Y-17496976D01*
X9643385Y-17363643D02*
X9643385Y-17496976D01*
X9595766Y-17287452D02*
X9548147Y-17430310D01*
X9671957Y-17430310D01*
X9786242Y-17296976D02*
X9805290Y-17296976D01*
X9824338Y-17306500D01*
X9833861Y-17316024D01*
X9843385Y-17335071D01*
X9852909Y-17373167D01*
X9852909Y-17420786D01*
X9843385Y-17458881D01*
X9833861Y-17477929D01*
X9824338Y-17487452D01*
X9805290Y-17496976D01*
X9786242Y-17496976D01*
X9767195Y-17487452D01*
X9757671Y-17477929D01*
X9748147Y-17458881D01*
X9738623Y-17420786D01*
X9738623Y-17373167D01*
X9748147Y-17335071D01*
X9757671Y-17316024D01*
X9767195Y-17306500D01*
X9786242Y-17296976D01*
X9976719Y-17296976D02*
X9995766Y-17296976D01*
X10014814Y-17306500D01*
X10024338Y-17316024D01*
X10033861Y-17335071D01*
X10043385Y-17373167D01*
X10043385Y-17420786D01*
X10033861Y-17458881D01*
X10024338Y-17477929D01*
X10014814Y-17487452D01*
X9995766Y-17496976D01*
X9976719Y-17496976D01*
X9957671Y-17487452D01*
X9948147Y-17477929D01*
X9938623Y-17458881D01*
X9929100Y-17420786D01*
X9929100Y-17373167D01*
X9938623Y-17335071D01*
X9948147Y-17316024D01*
X9957671Y-17306500D01*
X9976719Y-17296976D01*
X10129100Y-17496976D02*
X10129100Y-17363643D01*
X10129100Y-17382690D02*
X10138623Y-17373167D01*
X10157671Y-17363643D01*
X10186242Y-17363643D01*
X10205290Y-17373167D01*
X10214814Y-17392214D01*
X10214814Y-17496976D01*
X10214814Y-17392214D02*
X10224338Y-17373167D01*
X10243385Y-17363643D01*
X10271957Y-17363643D01*
X10291004Y-17373167D01*
X10300528Y-17392214D01*
X10300528Y-17496976D01*
X10395766Y-17496976D02*
X10395766Y-17363643D01*
X10395766Y-17382690D02*
X10405290Y-17373167D01*
X10424338Y-17363643D01*
X10452909Y-17363643D01*
X10471957Y-17373167D01*
X10481480Y-17392214D01*
X10481480Y-17496976D01*
X10481480Y-17392214D02*
X10491004Y-17373167D01*
X10510052Y-17363643D01*
X10538623Y-17363643D01*
X10557671Y-17373167D01*
X10567195Y-17392214D01*
X10567195Y-17496976D01*
X10957671Y-17287452D02*
X10786242Y-17544595D01*
X11214814Y-17296976D02*
X11233861Y-17296976D01*
X11252909Y-17306500D01*
X11262433Y-17316024D01*
X11271957Y-17335071D01*
X11281480Y-17373167D01*
X11281480Y-17420786D01*
X11271957Y-17458881D01*
X11262433Y-17477929D01*
X11252909Y-17487452D01*
X11233861Y-17496976D01*
X11214814Y-17496976D01*
X11195766Y-17487452D01*
X11186242Y-17477929D01*
X11176719Y-17458881D01*
X11167195Y-17420786D01*
X11167195Y-17373167D01*
X11176719Y-17335071D01*
X11186242Y-17316024D01*
X11195766Y-17306500D01*
X11214814Y-17296976D01*
X11367195Y-17477929D02*
X11376718Y-17487452D01*
X11367195Y-17496976D01*
X11357671Y-17487452D01*
X11367195Y-17477929D01*
X11367195Y-17496976D01*
X11500528Y-17296976D02*
X11519576Y-17296976D01*
X11538623Y-17306500D01*
X11548147Y-17316024D01*
X11557671Y-17335071D01*
X11567195Y-17373167D01*
X11567195Y-17420786D01*
X11557671Y-17458881D01*
X11548147Y-17477929D01*
X11538623Y-17487452D01*
X11519576Y-17496976D01*
X11500528Y-17496976D01*
X11481480Y-17487452D01*
X11471957Y-17477929D01*
X11462433Y-17458881D01*
X11452909Y-17420786D01*
X11452909Y-17373167D01*
X11462433Y-17335071D01*
X11471957Y-17316024D01*
X11481480Y-17306500D01*
X11500528Y-17296976D01*
X11757671Y-17496976D02*
X11643385Y-17496976D01*
X11700528Y-17496976D02*
X11700528Y-17296976D01*
X11681480Y-17325548D01*
X11662433Y-17344595D01*
X11643385Y-17354119D01*
X11938623Y-17296976D02*
X11843385Y-17296976D01*
X11833861Y-17392214D01*
X11843385Y-17382690D01*
X11862433Y-17373167D01*
X11910052Y-17373167D01*
X11929099Y-17382690D01*
X11938623Y-17392214D01*
X11948147Y-17411262D01*
X11948147Y-17458881D01*
X11938623Y-17477929D01*
X11929099Y-17487452D01*
X11910052Y-17496976D01*
X11862433Y-17496976D01*
X11843385Y-17487452D01*
X11833861Y-17477929D01*
X12014814Y-17296976D02*
X12148147Y-17296976D01*
X12062433Y-17496976D01*
X12214814Y-17296976D02*
X12214814Y-17335071D01*
X12291004Y-17296976D02*
X12291004Y-17335071D01*
X12586242Y-17573167D02*
X12576718Y-17563643D01*
X12557671Y-17535071D01*
X12548147Y-17516024D01*
X12538623Y-17487452D01*
X12529099Y-17439833D01*
X12529099Y-17401738D01*
X12538623Y-17354119D01*
X12548147Y-17325548D01*
X12557671Y-17306500D01*
X12576718Y-17277929D01*
X12586242Y-17268405D01*
X12671957Y-17496976D02*
X12710052Y-17496976D01*
X12729099Y-17487452D01*
X12738623Y-17477929D01*
X12757671Y-17449357D01*
X12767195Y-17411262D01*
X12767195Y-17335071D01*
X12757671Y-17316024D01*
X12748147Y-17306500D01*
X12729099Y-17296976D01*
X12691004Y-17296976D01*
X12671957Y-17306500D01*
X12662433Y-17316024D01*
X12652909Y-17335071D01*
X12652909Y-17382690D01*
X12662433Y-17401738D01*
X12671957Y-17411262D01*
X12691004Y-17420786D01*
X12729099Y-17420786D01*
X12748147Y-17411262D01*
X12757671Y-17401738D01*
X12767195Y-17382690D01*
X13005290Y-17496976D02*
X13005290Y-17296976D01*
X13091004Y-17496976D02*
X13091004Y-17392214D01*
X13081480Y-17373167D01*
X13062433Y-17363643D01*
X13033861Y-17363643D01*
X13014814Y-17373167D01*
X13005290Y-17382690D01*
X13214814Y-17496976D02*
X13195766Y-17487452D01*
X13186242Y-17477929D01*
X13176718Y-17458881D01*
X13176718Y-17401738D01*
X13186242Y-17382690D01*
X13195766Y-17373167D01*
X13214814Y-17363643D01*
X13243385Y-17363643D01*
X13262433Y-17373167D01*
X13271957Y-17382690D01*
X13281480Y-17401738D01*
X13281480Y-17458881D01*
X13271957Y-17477929D01*
X13262433Y-17487452D01*
X13243385Y-17496976D01*
X13214814Y-17496976D01*
X13395766Y-17496976D02*
X13376718Y-17487452D01*
X13367195Y-17468405D01*
X13367195Y-17296976D01*
X13548147Y-17487452D02*
X13529099Y-17496976D01*
X13491004Y-17496976D01*
X13471957Y-17487452D01*
X13462433Y-17468405D01*
X13462433Y-17392214D01*
X13471957Y-17373167D01*
X13491004Y-17363643D01*
X13529099Y-17363643D01*
X13548147Y-17373167D01*
X13557671Y-17392214D01*
X13557671Y-17411262D01*
X13462433Y-17430310D01*
X13633861Y-17487452D02*
X13652909Y-17496976D01*
X13691004Y-17496976D01*
X13710052Y-17487452D01*
X13719576Y-17468405D01*
X13719576Y-17458881D01*
X13710052Y-17439833D01*
X13691004Y-17430310D01*
X13662433Y-17430310D01*
X13643385Y-17420786D01*
X13633861Y-17401738D01*
X13633861Y-17392214D01*
X13643385Y-17373167D01*
X13662433Y-17363643D01*
X13691004Y-17363643D01*
X13710052Y-17373167D01*
X13786242Y-17573167D02*
X13795766Y-17563643D01*
X13814814Y-17535071D01*
X13824337Y-17516024D01*
X13833861Y-17487452D01*
X13843385Y-17439833D01*
X13843385Y-17401738D01*
X13833861Y-17354119D01*
X13824337Y-17325548D01*
X13814814Y-17306500D01*
X13795766Y-17277929D01*
X13786242Y-17268405D01*
D13*
X9014338Y-17670500D02*
G75*
G03*
X9014338Y-17670500I-25000J0D01*
G01*
D11*
X9310052Y-17560976D02*
X9329100Y-17560976D01*
X9348147Y-17570500D01*
X9357671Y-17580024D01*
X9367195Y-17599071D01*
X9376719Y-17637167D01*
X9376719Y-17684786D01*
X9367195Y-17722881D01*
X9357671Y-17741929D01*
X9348147Y-17751452D01*
X9329100Y-17760976D01*
X9310052Y-17760976D01*
X9291004Y-17751452D01*
X9281480Y-17741929D01*
X9271957Y-17722881D01*
X9262433Y-17684786D01*
X9262433Y-17637167D01*
X9271957Y-17599071D01*
X9281480Y-17580024D01*
X9291004Y-17570500D01*
X9310052Y-17560976D01*
X9462433Y-17741929D02*
X9471957Y-17751452D01*
X9462433Y-17760976D01*
X9452909Y-17751452D01*
X9462433Y-17741929D01*
X9462433Y-17760976D01*
X9652909Y-17560976D02*
X9557671Y-17560976D01*
X9548147Y-17656214D01*
X9557671Y-17646690D01*
X9576719Y-17637167D01*
X9624338Y-17637167D01*
X9643385Y-17646690D01*
X9652909Y-17656214D01*
X9662433Y-17675262D01*
X9662433Y-17722881D01*
X9652909Y-17741929D01*
X9643385Y-17751452D01*
X9624338Y-17760976D01*
X9576719Y-17760976D01*
X9557671Y-17751452D01*
X9548147Y-17741929D01*
X9786242Y-17560976D02*
X9805290Y-17560976D01*
X9824338Y-17570500D01*
X9833861Y-17580024D01*
X9843385Y-17599071D01*
X9852909Y-17637167D01*
X9852909Y-17684786D01*
X9843385Y-17722881D01*
X9833861Y-17741929D01*
X9824338Y-17751452D01*
X9805290Y-17760976D01*
X9786242Y-17760976D01*
X9767195Y-17751452D01*
X9757671Y-17741929D01*
X9748147Y-17722881D01*
X9738623Y-17684786D01*
X9738623Y-17637167D01*
X9748147Y-17599071D01*
X9757671Y-17580024D01*
X9767195Y-17570500D01*
X9786242Y-17560976D01*
X9976719Y-17560976D02*
X9995766Y-17560976D01*
X10014814Y-17570500D01*
X10024338Y-17580024D01*
X10033861Y-17599071D01*
X10043385Y-17637167D01*
X10043385Y-17684786D01*
X10033861Y-17722881D01*
X10024338Y-17741929D01*
X10014814Y-17751452D01*
X9995766Y-17760976D01*
X9976719Y-17760976D01*
X9957671Y-17751452D01*
X9948147Y-17741929D01*
X9938623Y-17722881D01*
X9929100Y-17684786D01*
X9929100Y-17637167D01*
X9938623Y-17599071D01*
X9948147Y-17580024D01*
X9957671Y-17570500D01*
X9976719Y-17560976D01*
X10129100Y-17760976D02*
X10129100Y-17627643D01*
X10129100Y-17646690D02*
X10138623Y-17637167D01*
X10157671Y-17627643D01*
X10186242Y-17627643D01*
X10205290Y-17637167D01*
X10214814Y-17656214D01*
X10214814Y-17760976D01*
X10214814Y-17656214D02*
X10224338Y-17637167D01*
X10243385Y-17627643D01*
X10271957Y-17627643D01*
X10291004Y-17637167D01*
X10300528Y-17656214D01*
X10300528Y-17760976D01*
X10395766Y-17760976D02*
X10395766Y-17627643D01*
X10395766Y-17646690D02*
X10405290Y-17637167D01*
X10424338Y-17627643D01*
X10452909Y-17627643D01*
X10471957Y-17637167D01*
X10481480Y-17656214D01*
X10481480Y-17760976D01*
X10481480Y-17656214D02*
X10491004Y-17637167D01*
X10510052Y-17627643D01*
X10538623Y-17627643D01*
X10557671Y-17637167D01*
X10567195Y-17656214D01*
X10567195Y-17760976D01*
X10957671Y-17551452D02*
X10786242Y-17808595D01*
X11214814Y-17560976D02*
X11233861Y-17560976D01*
X11252909Y-17570500D01*
X11262433Y-17580024D01*
X11271957Y-17599071D01*
X11281480Y-17637167D01*
X11281480Y-17684786D01*
X11271957Y-17722881D01*
X11262433Y-17741929D01*
X11252909Y-17751452D01*
X11233861Y-17760976D01*
X11214814Y-17760976D01*
X11195766Y-17751452D01*
X11186242Y-17741929D01*
X11176719Y-17722881D01*
X11167195Y-17684786D01*
X11167195Y-17637167D01*
X11176719Y-17599071D01*
X11186242Y-17580024D01*
X11195766Y-17570500D01*
X11214814Y-17560976D01*
X11367195Y-17741929D02*
X11376718Y-17751452D01*
X11367195Y-17760976D01*
X11357671Y-17751452D01*
X11367195Y-17741929D01*
X11367195Y-17760976D01*
X11500528Y-17560976D02*
X11519576Y-17560976D01*
X11538623Y-17570500D01*
X11548147Y-17580024D01*
X11557671Y-17599071D01*
X11567195Y-17637167D01*
X11567195Y-17684786D01*
X11557671Y-17722881D01*
X11548147Y-17741929D01*
X11538623Y-17751452D01*
X11519576Y-17760976D01*
X11500528Y-17760976D01*
X11481480Y-17751452D01*
X11471957Y-17741929D01*
X11462433Y-17722881D01*
X11452909Y-17684786D01*
X11452909Y-17637167D01*
X11462433Y-17599071D01*
X11471957Y-17580024D01*
X11481480Y-17570500D01*
X11500528Y-17560976D01*
X11757671Y-17760976D02*
X11643385Y-17760976D01*
X11700528Y-17760976D02*
X11700528Y-17560976D01*
X11681480Y-17589548D01*
X11662433Y-17608595D01*
X11643385Y-17618119D01*
X11852909Y-17760976D02*
X11891004Y-17760976D01*
X11910052Y-17751452D01*
X11919576Y-17741929D01*
X11938623Y-17713357D01*
X11948147Y-17675262D01*
X11948147Y-17599071D01*
X11938623Y-17580024D01*
X11929099Y-17570500D01*
X11910052Y-17560976D01*
X11871957Y-17560976D01*
X11852909Y-17570500D01*
X11843385Y-17580024D01*
X11833861Y-17599071D01*
X11833861Y-17646690D01*
X11843385Y-17665738D01*
X11852909Y-17675262D01*
X11871957Y-17684786D01*
X11910052Y-17684786D01*
X11929099Y-17675262D01*
X11938623Y-17665738D01*
X11948147Y-17646690D01*
X12014814Y-17560976D02*
X12148147Y-17560976D01*
X12062433Y-17760976D01*
X12214814Y-17560976D02*
X12214814Y-17599071D01*
X12291004Y-17560976D02*
X12291004Y-17599071D01*
X12586242Y-17837167D02*
X12576718Y-17827643D01*
X12557671Y-17799071D01*
X12548147Y-17780024D01*
X12538623Y-17751452D01*
X12529099Y-17703833D01*
X12529099Y-17665738D01*
X12538623Y-17618119D01*
X12548147Y-17589548D01*
X12557671Y-17570500D01*
X12576718Y-17541929D01*
X12586242Y-17532405D01*
X12643385Y-17560976D02*
X12767195Y-17560976D01*
X12700528Y-17637167D01*
X12729099Y-17637167D01*
X12748147Y-17646690D01*
X12757671Y-17656214D01*
X12767195Y-17675262D01*
X12767195Y-17722881D01*
X12757671Y-17741929D01*
X12748147Y-17751452D01*
X12729099Y-17760976D01*
X12671957Y-17760976D01*
X12652909Y-17751452D01*
X12643385Y-17741929D01*
X12843385Y-17580024D02*
X12852909Y-17570500D01*
X12871957Y-17560976D01*
X12919576Y-17560976D01*
X12938623Y-17570500D01*
X12948147Y-17580024D01*
X12957671Y-17599071D01*
X12957671Y-17618119D01*
X12948147Y-17646690D01*
X12833861Y-17760976D01*
X12957671Y-17760976D01*
X13195766Y-17760976D02*
X13195766Y-17560976D01*
X13281480Y-17760976D02*
X13281480Y-17656214D01*
X13271957Y-17637167D01*
X13252909Y-17627643D01*
X13224337Y-17627643D01*
X13205290Y-17637167D01*
X13195766Y-17646690D01*
X13405290Y-17760976D02*
X13386242Y-17751452D01*
X13376718Y-17741929D01*
X13367195Y-17722881D01*
X13367195Y-17665738D01*
X13376718Y-17646690D01*
X13386242Y-17637167D01*
X13405290Y-17627643D01*
X13433861Y-17627643D01*
X13452909Y-17637167D01*
X13462433Y-17646690D01*
X13471957Y-17665738D01*
X13471957Y-17722881D01*
X13462433Y-17741929D01*
X13452909Y-17751452D01*
X13433861Y-17760976D01*
X13405290Y-17760976D01*
X13586242Y-17760976D02*
X13567195Y-17751452D01*
X13557671Y-17732405D01*
X13557671Y-17560976D01*
X13738623Y-17751452D02*
X13719576Y-17760976D01*
X13681480Y-17760976D01*
X13662433Y-17751452D01*
X13652909Y-17732405D01*
X13652909Y-17656214D01*
X13662433Y-17637167D01*
X13681480Y-17627643D01*
X13719576Y-17627643D01*
X13738623Y-17637167D01*
X13748147Y-17656214D01*
X13748147Y-17675262D01*
X13652909Y-17694310D01*
X13824337Y-17751452D02*
X13843385Y-17760976D01*
X13881480Y-17760976D01*
X13900528Y-17751452D01*
X13910052Y-17732405D01*
X13910052Y-17722881D01*
X13900528Y-17703833D01*
X13881480Y-17694310D01*
X13852909Y-17694310D01*
X13833861Y-17684786D01*
X13824337Y-17665738D01*
X13824337Y-17656214D01*
X13833861Y-17637167D01*
X13852909Y-17627643D01*
X13881480Y-17627643D01*
X13900528Y-17637167D01*
X13976718Y-17837167D02*
X13986242Y-17827643D01*
X14005290Y-17799071D01*
X14014814Y-17780024D01*
X14024337Y-17751452D01*
X14033861Y-17703833D01*
X14033861Y-17665738D01*
X14024337Y-17618119D01*
X14014814Y-17589548D01*
X14005290Y-17570500D01*
X13986242Y-17541929D01*
X13976718Y-17532405D01*
D14*
X8974338Y-17894500D02*
X8974338Y-17974500D01*
X8934338Y-17934500D02*
X9014338Y-17934500D01*
D11*
X9310052Y-17824976D02*
X9329100Y-17824976D01*
X9348147Y-17834500D01*
X9357671Y-17844024D01*
X9367195Y-17863071D01*
X9376719Y-17901167D01*
X9376719Y-17948786D01*
X9367195Y-17986881D01*
X9357671Y-18005929D01*
X9348147Y-18015452D01*
X9329100Y-18024976D01*
X9310052Y-18024976D01*
X9291004Y-18015452D01*
X9281480Y-18005929D01*
X9271957Y-17986881D01*
X9262433Y-17948786D01*
X9262433Y-17901167D01*
X9271957Y-17863071D01*
X9281480Y-17844024D01*
X9291004Y-17834500D01*
X9310052Y-17824976D01*
X9462433Y-18005929D02*
X9471957Y-18015452D01*
X9462433Y-18024976D01*
X9452909Y-18015452D01*
X9462433Y-18005929D01*
X9462433Y-18024976D01*
X9586242Y-17910690D02*
X9567195Y-17901167D01*
X9557671Y-17891643D01*
X9548147Y-17872595D01*
X9548147Y-17863071D01*
X9557671Y-17844024D01*
X9567195Y-17834500D01*
X9586242Y-17824976D01*
X9624338Y-17824976D01*
X9643385Y-17834500D01*
X9652909Y-17844024D01*
X9662433Y-17863071D01*
X9662433Y-17872595D01*
X9652909Y-17891643D01*
X9643385Y-17901167D01*
X9624338Y-17910690D01*
X9586242Y-17910690D01*
X9567195Y-17920214D01*
X9557671Y-17929738D01*
X9548147Y-17948786D01*
X9548147Y-17986881D01*
X9557671Y-18005929D01*
X9567195Y-18015452D01*
X9586242Y-18024976D01*
X9624338Y-18024976D01*
X9643385Y-18015452D01*
X9652909Y-18005929D01*
X9662433Y-17986881D01*
X9662433Y-17948786D01*
X9652909Y-17929738D01*
X9643385Y-17920214D01*
X9624338Y-17910690D01*
X9786242Y-17824976D02*
X9805290Y-17824976D01*
X9824338Y-17834500D01*
X9833861Y-17844024D01*
X9843385Y-17863071D01*
X9852909Y-17901167D01*
X9852909Y-17948786D01*
X9843385Y-17986881D01*
X9833861Y-18005929D01*
X9824338Y-18015452D01*
X9805290Y-18024976D01*
X9786242Y-18024976D01*
X9767195Y-18015452D01*
X9757671Y-18005929D01*
X9748147Y-17986881D01*
X9738623Y-17948786D01*
X9738623Y-17901167D01*
X9748147Y-17863071D01*
X9757671Y-17844024D01*
X9767195Y-17834500D01*
X9786242Y-17824976D01*
X9976719Y-17824976D02*
X9995766Y-17824976D01*
X10014814Y-17834500D01*
X10024338Y-17844024D01*
X10033861Y-17863071D01*
X10043385Y-17901167D01*
X10043385Y-17948786D01*
X10033861Y-17986881D01*
X10024338Y-18005929D01*
X10014814Y-18015452D01*
X9995766Y-18024976D01*
X9976719Y-18024976D01*
X9957671Y-18015452D01*
X9948147Y-18005929D01*
X9938623Y-17986881D01*
X9929100Y-17948786D01*
X9929100Y-17901167D01*
X9938623Y-17863071D01*
X9948147Y-17844024D01*
X9957671Y-17834500D01*
X9976719Y-17824976D01*
X10129100Y-18024976D02*
X10129100Y-17891643D01*
X10129100Y-17910690D02*
X10138623Y-17901167D01*
X10157671Y-17891643D01*
X10186242Y-17891643D01*
X10205290Y-17901167D01*
X10214814Y-17920214D01*
X10214814Y-18024976D01*
X10214814Y-17920214D02*
X10224338Y-17901167D01*
X10243385Y-17891643D01*
X10271957Y-17891643D01*
X10291004Y-17901167D01*
X10300528Y-17920214D01*
X10300528Y-18024976D01*
X10395766Y-18024976D02*
X10395766Y-17891643D01*
X10395766Y-17910690D02*
X10405290Y-17901167D01*
X10424338Y-17891643D01*
X10452909Y-17891643D01*
X10471957Y-17901167D01*
X10481480Y-17920214D01*
X10481480Y-18024976D01*
X10481480Y-17920214D02*
X10491004Y-17901167D01*
X10510052Y-17891643D01*
X10538623Y-17891643D01*
X10557671Y-17901167D01*
X10567195Y-17920214D01*
X10567195Y-18024976D01*
X10957671Y-17815452D02*
X10786242Y-18072595D01*
X11214814Y-17824976D02*
X11233861Y-17824976D01*
X11252909Y-17834500D01*
X11262433Y-17844024D01*
X11271957Y-17863071D01*
X11281480Y-17901167D01*
X11281480Y-17948786D01*
X11271957Y-17986881D01*
X11262433Y-18005929D01*
X11252909Y-18015452D01*
X11233861Y-18024976D01*
X11214814Y-18024976D01*
X11195766Y-18015452D01*
X11186242Y-18005929D01*
X11176719Y-17986881D01*
X11167195Y-17948786D01*
X11167195Y-17901167D01*
X11176719Y-17863071D01*
X11186242Y-17844024D01*
X11195766Y-17834500D01*
X11214814Y-17824976D01*
X11367195Y-18005929D02*
X11376718Y-18015452D01*
X11367195Y-18024976D01*
X11357671Y-18015452D01*
X11367195Y-18005929D01*
X11367195Y-18024976D01*
X11500528Y-17824976D02*
X11519576Y-17824976D01*
X11538623Y-17834500D01*
X11548147Y-17844024D01*
X11557671Y-17863071D01*
X11567195Y-17901167D01*
X11567195Y-17948786D01*
X11557671Y-17986881D01*
X11548147Y-18005929D01*
X11538623Y-18015452D01*
X11519576Y-18024976D01*
X11500528Y-18024976D01*
X11481480Y-18015452D01*
X11471957Y-18005929D01*
X11462433Y-17986881D01*
X11452909Y-17948786D01*
X11452909Y-17901167D01*
X11462433Y-17863071D01*
X11471957Y-17844024D01*
X11481480Y-17834500D01*
X11500528Y-17824976D01*
X11633861Y-17824976D02*
X11757671Y-17824976D01*
X11691004Y-17901167D01*
X11719576Y-17901167D01*
X11738623Y-17910690D01*
X11748147Y-17920214D01*
X11757671Y-17939262D01*
X11757671Y-17986881D01*
X11748147Y-18005929D01*
X11738623Y-18015452D01*
X11719576Y-18024976D01*
X11662433Y-18024976D01*
X11643385Y-18015452D01*
X11633861Y-18005929D01*
X11948147Y-18024976D02*
X11833861Y-18024976D01*
X11891004Y-18024976D02*
X11891004Y-17824976D01*
X11871957Y-17853548D01*
X11852909Y-17872595D01*
X11833861Y-17882119D01*
X12129099Y-17824976D02*
X12033861Y-17824976D01*
X12024337Y-17920214D01*
X12033861Y-17910690D01*
X12052909Y-17901167D01*
X12100528Y-17901167D01*
X12119576Y-17910690D01*
X12129099Y-17920214D01*
X12138623Y-17939262D01*
X12138623Y-17986881D01*
X12129099Y-18005929D01*
X12119576Y-18015452D01*
X12100528Y-18024976D01*
X12052909Y-18024976D01*
X12033861Y-18015452D01*
X12024337Y-18005929D01*
X12214814Y-17824976D02*
X12214814Y-17863071D01*
X12291004Y-17824976D02*
X12291004Y-17863071D01*
X12586242Y-18101167D02*
X12576718Y-18091643D01*
X12557671Y-18063071D01*
X12548147Y-18044024D01*
X12538623Y-18015452D01*
X12529099Y-17967833D01*
X12529099Y-17929738D01*
X12538623Y-17882119D01*
X12548147Y-17853548D01*
X12557671Y-17834500D01*
X12576718Y-17805929D01*
X12586242Y-17796405D01*
X12748147Y-17891643D02*
X12748147Y-18024976D01*
X12700528Y-17815452D02*
X12652909Y-17958310D01*
X12776718Y-17958310D01*
X12843385Y-17844024D02*
X12852909Y-17834500D01*
X12871957Y-17824976D01*
X12919576Y-17824976D01*
X12938623Y-17834500D01*
X12948147Y-17844024D01*
X12957671Y-17863071D01*
X12957671Y-17882119D01*
X12948147Y-17910690D01*
X12833861Y-18024976D01*
X12957671Y-18024976D01*
X13195766Y-18024976D02*
X13195766Y-17824976D01*
X13281480Y-18024976D02*
X13281480Y-17920214D01*
X13271957Y-17901167D01*
X13252909Y-17891643D01*
X13224337Y-17891643D01*
X13205290Y-17901167D01*
X13195766Y-17910690D01*
X13405290Y-18024976D02*
X13386242Y-18015452D01*
X13376718Y-18005929D01*
X13367195Y-17986881D01*
X13367195Y-17929738D01*
X13376718Y-17910690D01*
X13386242Y-17901167D01*
X13405290Y-17891643D01*
X13433861Y-17891643D01*
X13452909Y-17901167D01*
X13462433Y-17910690D01*
X13471957Y-17929738D01*
X13471957Y-17986881D01*
X13462433Y-18005929D01*
X13452909Y-18015452D01*
X13433861Y-18024976D01*
X13405290Y-18024976D01*
X13586242Y-18024976D02*
X13567195Y-18015452D01*
X13557671Y-17996405D01*
X13557671Y-17824976D01*
X13738623Y-18015452D02*
X13719576Y-18024976D01*
X13681480Y-18024976D01*
X13662433Y-18015452D01*
X13652909Y-17996405D01*
X13652909Y-17920214D01*
X13662433Y-17901167D01*
X13681480Y-17891643D01*
X13719576Y-17891643D01*
X13738623Y-17901167D01*
X13748147Y-17920214D01*
X13748147Y-17939262D01*
X13652909Y-17958310D01*
X13824337Y-18015452D02*
X13843385Y-18024976D01*
X13881480Y-18024976D01*
X13900528Y-18015452D01*
X13910052Y-17996405D01*
X13910052Y-17986881D01*
X13900528Y-17967833D01*
X13881480Y-17958310D01*
X13852909Y-17958310D01*
X13833861Y-17948786D01*
X13824337Y-17929738D01*
X13824337Y-17920214D01*
X13833861Y-17901167D01*
X13852909Y-17891643D01*
X13881480Y-17891643D01*
X13900528Y-17901167D01*
X13976718Y-18101167D02*
X13986242Y-18091643D01*
X14005290Y-18063071D01*
X14014814Y-18044024D01*
X14024337Y-18015452D01*
X14033861Y-17967833D01*
X14033861Y-17929738D01*
X14024337Y-17882119D01*
X14014814Y-17853548D01*
X14005290Y-17834500D01*
X13986242Y-17805929D01*
X13976718Y-17796405D01*
D15*
X8999693Y-18233856D02*
X8999693Y-18163144D01*
X8928982Y-18163144D01*
X8928982Y-18233856D01*
X8999693Y-18233856D01*
D11*
X9376719Y-18288976D02*
X9262433Y-18288976D01*
X9319576Y-18288976D02*
X9319576Y-18088976D01*
X9300528Y-18117548D01*
X9281480Y-18136595D01*
X9262433Y-18146119D01*
X9462433Y-18269929D02*
X9471957Y-18279452D01*
X9462433Y-18288976D01*
X9452909Y-18279452D01*
X9462433Y-18269929D01*
X9462433Y-18288976D01*
X9595766Y-18088976D02*
X9614814Y-18088976D01*
X9633861Y-18098500D01*
X9643385Y-18108024D01*
X9652909Y-18127071D01*
X9662433Y-18165167D01*
X9662433Y-18212786D01*
X9652909Y-18250881D01*
X9643385Y-18269929D01*
X9633861Y-18279452D01*
X9614814Y-18288976D01*
X9595766Y-18288976D01*
X9576719Y-18279452D01*
X9567195Y-18269929D01*
X9557671Y-18250881D01*
X9548147Y-18212786D01*
X9548147Y-18165167D01*
X9557671Y-18127071D01*
X9567195Y-18108024D01*
X9576719Y-18098500D01*
X9595766Y-18088976D01*
X9786242Y-18088976D02*
X9805290Y-18088976D01*
X9824338Y-18098500D01*
X9833861Y-18108024D01*
X9843385Y-18127071D01*
X9852909Y-18165167D01*
X9852909Y-18212786D01*
X9843385Y-18250881D01*
X9833861Y-18269929D01*
X9824338Y-18279452D01*
X9805290Y-18288976D01*
X9786242Y-18288976D01*
X9767195Y-18279452D01*
X9757671Y-18269929D01*
X9748147Y-18250881D01*
X9738623Y-18212786D01*
X9738623Y-18165167D01*
X9748147Y-18127071D01*
X9757671Y-18108024D01*
X9767195Y-18098500D01*
X9786242Y-18088976D01*
X9976719Y-18088976D02*
X9995766Y-18088976D01*
X10014814Y-18098500D01*
X10024338Y-18108024D01*
X10033861Y-18127071D01*
X10043385Y-18165167D01*
X10043385Y-18212786D01*
X10033861Y-18250881D01*
X10024338Y-18269929D01*
X10014814Y-18279452D01*
X9995766Y-18288976D01*
X9976719Y-18288976D01*
X9957671Y-18279452D01*
X9948147Y-18269929D01*
X9938623Y-18250881D01*
X9929100Y-18212786D01*
X9929100Y-18165167D01*
X9938623Y-18127071D01*
X9948147Y-18108024D01*
X9957671Y-18098500D01*
X9976719Y-18088976D01*
X10129100Y-18288976D02*
X10129100Y-18155643D01*
X10129100Y-18174690D02*
X10138623Y-18165167D01*
X10157671Y-18155643D01*
X10186242Y-18155643D01*
X10205290Y-18165167D01*
X10214814Y-18184214D01*
X10214814Y-18288976D01*
X10214814Y-18184214D02*
X10224338Y-18165167D01*
X10243385Y-18155643D01*
X10271957Y-18155643D01*
X10291004Y-18165167D01*
X10300528Y-18184214D01*
X10300528Y-18288976D01*
X10395766Y-18288976D02*
X10395766Y-18155643D01*
X10395766Y-18174690D02*
X10405290Y-18165167D01*
X10424338Y-18155643D01*
X10452909Y-18155643D01*
X10471957Y-18165167D01*
X10481480Y-18184214D01*
X10481480Y-18288976D01*
X10481480Y-18184214D02*
X10491004Y-18165167D01*
X10510052Y-18155643D01*
X10538623Y-18155643D01*
X10557671Y-18165167D01*
X10567195Y-18184214D01*
X10567195Y-18288976D01*
X10957671Y-18079452D02*
X10786242Y-18336595D01*
X11214814Y-18088976D02*
X11233861Y-18088976D01*
X11252909Y-18098500D01*
X11262433Y-18108024D01*
X11271957Y-18127071D01*
X11281480Y-18165167D01*
X11281480Y-18212786D01*
X11271957Y-18250881D01*
X11262433Y-18269929D01*
X11252909Y-18279452D01*
X11233861Y-18288976D01*
X11214814Y-18288976D01*
X11195766Y-18279452D01*
X11186242Y-18269929D01*
X11176719Y-18250881D01*
X11167195Y-18212786D01*
X11167195Y-18165167D01*
X11176719Y-18127071D01*
X11186242Y-18108024D01*
X11195766Y-18098500D01*
X11214814Y-18088976D01*
X11367195Y-18269929D02*
X11376718Y-18279452D01*
X11367195Y-18288976D01*
X11357671Y-18279452D01*
X11367195Y-18269929D01*
X11367195Y-18288976D01*
X11500528Y-18088976D02*
X11519576Y-18088976D01*
X11538623Y-18098500D01*
X11548147Y-18108024D01*
X11557671Y-18127071D01*
X11567195Y-18165167D01*
X11567195Y-18212786D01*
X11557671Y-18250881D01*
X11548147Y-18269929D01*
X11538623Y-18279452D01*
X11519576Y-18288976D01*
X11500528Y-18288976D01*
X11481480Y-18279452D01*
X11471957Y-18269929D01*
X11462433Y-18250881D01*
X11452909Y-18212786D01*
X11452909Y-18165167D01*
X11462433Y-18127071D01*
X11471957Y-18108024D01*
X11481480Y-18098500D01*
X11500528Y-18088976D01*
X11633861Y-18088976D02*
X11757671Y-18088976D01*
X11691004Y-18165167D01*
X11719576Y-18165167D01*
X11738623Y-18174690D01*
X11748147Y-18184214D01*
X11757671Y-18203262D01*
X11757671Y-18250881D01*
X11748147Y-18269929D01*
X11738623Y-18279452D01*
X11719576Y-18288976D01*
X11662433Y-18288976D01*
X11643385Y-18279452D01*
X11633861Y-18269929D01*
X11852909Y-18288976D02*
X11891004Y-18288976D01*
X11910052Y-18279452D01*
X11919576Y-18269929D01*
X11938623Y-18241357D01*
X11948147Y-18203262D01*
X11948147Y-18127071D01*
X11938623Y-18108024D01*
X11929099Y-18098500D01*
X11910052Y-18088976D01*
X11871957Y-18088976D01*
X11852909Y-18098500D01*
X11843385Y-18108024D01*
X11833861Y-18127071D01*
X11833861Y-18174690D01*
X11843385Y-18193738D01*
X11852909Y-18203262D01*
X11871957Y-18212786D01*
X11910052Y-18212786D01*
X11929099Y-18203262D01*
X11938623Y-18193738D01*
X11948147Y-18174690D01*
X12119576Y-18155643D02*
X12119576Y-18288976D01*
X12071957Y-18079452D02*
X12024337Y-18222310D01*
X12148147Y-18222310D01*
X12214814Y-18088976D02*
X12214814Y-18127071D01*
X12291004Y-18088976D02*
X12291004Y-18127071D01*
X12586242Y-18365167D02*
X12576718Y-18355643D01*
X12557671Y-18327071D01*
X12548147Y-18308024D01*
X12538623Y-18279452D01*
X12529099Y-18231833D01*
X12529099Y-18193738D01*
X12538623Y-18146119D01*
X12548147Y-18117548D01*
X12557671Y-18098500D01*
X12576718Y-18069929D01*
X12586242Y-18060405D01*
X12757671Y-18088976D02*
X12662433Y-18088976D01*
X12652909Y-18184214D01*
X12662433Y-18174690D01*
X12681480Y-18165167D01*
X12729099Y-18165167D01*
X12748147Y-18174690D01*
X12757671Y-18184214D01*
X12767195Y-18203262D01*
X12767195Y-18250881D01*
X12757671Y-18269929D01*
X12748147Y-18279452D01*
X12729099Y-18288976D01*
X12681480Y-18288976D01*
X12662433Y-18279452D01*
X12652909Y-18269929D01*
X12938623Y-18088976D02*
X12900528Y-18088976D01*
X12881480Y-18098500D01*
X12871957Y-18108024D01*
X12852909Y-18136595D01*
X12843385Y-18174690D01*
X12843385Y-18250881D01*
X12852909Y-18269929D01*
X12862433Y-18279452D01*
X12881480Y-18288976D01*
X12919576Y-18288976D01*
X12938623Y-18279452D01*
X12948147Y-18269929D01*
X12957671Y-18250881D01*
X12957671Y-18203262D01*
X12948147Y-18184214D01*
X12938623Y-18174690D01*
X12919576Y-18165167D01*
X12881480Y-18165167D01*
X12862433Y-18174690D01*
X12852909Y-18184214D01*
X12843385Y-18203262D01*
X13195766Y-18288976D02*
X13195766Y-18088976D01*
X13281480Y-18288976D02*
X13281480Y-18184214D01*
X13271957Y-18165167D01*
X13252909Y-18155643D01*
X13224337Y-18155643D01*
X13205290Y-18165167D01*
X13195766Y-18174690D01*
X13405290Y-18288976D02*
X13386242Y-18279452D01*
X13376718Y-18269929D01*
X13367195Y-18250881D01*
X13367195Y-18193738D01*
X13376718Y-18174690D01*
X13386242Y-18165167D01*
X13405290Y-18155643D01*
X13433861Y-18155643D01*
X13452909Y-18165167D01*
X13462433Y-18174690D01*
X13471957Y-18193738D01*
X13471957Y-18250881D01*
X13462433Y-18269929D01*
X13452909Y-18279452D01*
X13433861Y-18288976D01*
X13405290Y-18288976D01*
X13586242Y-18288976D02*
X13567195Y-18279452D01*
X13557671Y-18260405D01*
X13557671Y-18088976D01*
X13738623Y-18279452D02*
X13719576Y-18288976D01*
X13681480Y-18288976D01*
X13662433Y-18279452D01*
X13652909Y-18260405D01*
X13652909Y-18184214D01*
X13662433Y-18165167D01*
X13681480Y-18155643D01*
X13719576Y-18155643D01*
X13738623Y-18165167D01*
X13748147Y-18184214D01*
X13748147Y-18203262D01*
X13652909Y-18222310D01*
X13824337Y-18279452D02*
X13843385Y-18288976D01*
X13881480Y-18288976D01*
X13900528Y-18279452D01*
X13910052Y-18260405D01*
X13910052Y-18250881D01*
X13900528Y-18231833D01*
X13881480Y-18222310D01*
X13852909Y-18222310D01*
X13833861Y-18212786D01*
X13824337Y-18193738D01*
X13824337Y-18184214D01*
X13833861Y-18165167D01*
X13852909Y-18155643D01*
X13881480Y-18155643D01*
X13900528Y-18165167D01*
X13976718Y-18365167D02*
X13986242Y-18355643D01*
X14005290Y-18327071D01*
X14014814Y-18308024D01*
X14024337Y-18279452D01*
X14033861Y-18231833D01*
X14033861Y-18193738D01*
X14024337Y-18146119D01*
X14014814Y-18117548D01*
X14005290Y-18098500D01*
X13986242Y-18069929D01*
X13976718Y-18060405D01*
D16*
X8959338Y-18517500D02*
X9014338Y-18462500D01*
X8959338Y-18407500D01*
X8904338Y-18462500D01*
X8959338Y-18517500D01*
D11*
X9376719Y-18552976D02*
X9262433Y-18552976D01*
X9319576Y-18552976D02*
X9319576Y-18352976D01*
X9300528Y-18381548D01*
X9281480Y-18400595D01*
X9262433Y-18410119D01*
X9462433Y-18533929D02*
X9471957Y-18543452D01*
X9462433Y-18552976D01*
X9452909Y-18543452D01*
X9462433Y-18533929D01*
X9462433Y-18552976D01*
X9662433Y-18552976D02*
X9548147Y-18552976D01*
X9605290Y-18552976D02*
X9605290Y-18352976D01*
X9586242Y-18381548D01*
X9567195Y-18400595D01*
X9548147Y-18410119D01*
X9786242Y-18352976D02*
X9805290Y-18352976D01*
X9824338Y-18362500D01*
X9833861Y-18372024D01*
X9843385Y-18391071D01*
X9852909Y-18429167D01*
X9852909Y-18476786D01*
X9843385Y-18514881D01*
X9833861Y-18533929D01*
X9824338Y-18543452D01*
X9805290Y-18552976D01*
X9786242Y-18552976D01*
X9767195Y-18543452D01*
X9757671Y-18533929D01*
X9748147Y-18514881D01*
X9738623Y-18476786D01*
X9738623Y-18429167D01*
X9748147Y-18391071D01*
X9757671Y-18372024D01*
X9767195Y-18362500D01*
X9786242Y-18352976D01*
X9976719Y-18352976D02*
X9995766Y-18352976D01*
X10014814Y-18362500D01*
X10024338Y-18372024D01*
X10033861Y-18391071D01*
X10043385Y-18429167D01*
X10043385Y-18476786D01*
X10033861Y-18514881D01*
X10024338Y-18533929D01*
X10014814Y-18543452D01*
X9995766Y-18552976D01*
X9976719Y-18552976D01*
X9957671Y-18543452D01*
X9948147Y-18533929D01*
X9938623Y-18514881D01*
X9929100Y-18476786D01*
X9929100Y-18429167D01*
X9938623Y-18391071D01*
X9948147Y-18372024D01*
X9957671Y-18362500D01*
X9976719Y-18352976D01*
X10129100Y-18552976D02*
X10129100Y-18419643D01*
X10129100Y-18438690D02*
X10138623Y-18429167D01*
X10157671Y-18419643D01*
X10186242Y-18419643D01*
X10205290Y-18429167D01*
X10214814Y-18448214D01*
X10214814Y-18552976D01*
X10214814Y-18448214D02*
X10224338Y-18429167D01*
X10243385Y-18419643D01*
X10271957Y-18419643D01*
X10291004Y-18429167D01*
X10300528Y-18448214D01*
X10300528Y-18552976D01*
X10395766Y-18552976D02*
X10395766Y-18419643D01*
X10395766Y-18438690D02*
X10405290Y-18429167D01*
X10424338Y-18419643D01*
X10452909Y-18419643D01*
X10471957Y-18429167D01*
X10481480Y-18448214D01*
X10481480Y-18552976D01*
X10481480Y-18448214D02*
X10491004Y-18429167D01*
X10510052Y-18419643D01*
X10538623Y-18419643D01*
X10557671Y-18429167D01*
X10567195Y-18448214D01*
X10567195Y-18552976D01*
X10957671Y-18343452D02*
X10786242Y-18600595D01*
X11214814Y-18352976D02*
X11233861Y-18352976D01*
X11252909Y-18362500D01*
X11262433Y-18372024D01*
X11271957Y-18391071D01*
X11281480Y-18429167D01*
X11281480Y-18476786D01*
X11271957Y-18514881D01*
X11262433Y-18533929D01*
X11252909Y-18543452D01*
X11233861Y-18552976D01*
X11214814Y-18552976D01*
X11195766Y-18543452D01*
X11186242Y-18533929D01*
X11176719Y-18514881D01*
X11167195Y-18476786D01*
X11167195Y-18429167D01*
X11176719Y-18391071D01*
X11186242Y-18372024D01*
X11195766Y-18362500D01*
X11214814Y-18352976D01*
X11367195Y-18533929D02*
X11376718Y-18543452D01*
X11367195Y-18552976D01*
X11357671Y-18543452D01*
X11367195Y-18533929D01*
X11367195Y-18552976D01*
X11500528Y-18352976D02*
X11519576Y-18352976D01*
X11538623Y-18362500D01*
X11548147Y-18372024D01*
X11557671Y-18391071D01*
X11567195Y-18429167D01*
X11567195Y-18476786D01*
X11557671Y-18514881D01*
X11548147Y-18533929D01*
X11538623Y-18543452D01*
X11519576Y-18552976D01*
X11500528Y-18552976D01*
X11481480Y-18543452D01*
X11471957Y-18533929D01*
X11462433Y-18514881D01*
X11452909Y-18476786D01*
X11452909Y-18429167D01*
X11462433Y-18391071D01*
X11471957Y-18372024D01*
X11481480Y-18362500D01*
X11500528Y-18352976D01*
X11738623Y-18419643D02*
X11738623Y-18552976D01*
X11691004Y-18343452D02*
X11643385Y-18486310D01*
X11767195Y-18486310D01*
X11824338Y-18352976D02*
X11948147Y-18352976D01*
X11881480Y-18429167D01*
X11910052Y-18429167D01*
X11929099Y-18438690D01*
X11938623Y-18448214D01*
X11948147Y-18467262D01*
X11948147Y-18514881D01*
X11938623Y-18533929D01*
X11929099Y-18543452D01*
X11910052Y-18552976D01*
X11852909Y-18552976D01*
X11833861Y-18543452D01*
X11824338Y-18533929D01*
X12014814Y-18352976D02*
X12138623Y-18352976D01*
X12071957Y-18429167D01*
X12100528Y-18429167D01*
X12119576Y-18438690D01*
X12129099Y-18448214D01*
X12138623Y-18467262D01*
X12138623Y-18514881D01*
X12129099Y-18533929D01*
X12119576Y-18543452D01*
X12100528Y-18552976D01*
X12043385Y-18552976D01*
X12024337Y-18543452D01*
X12014814Y-18533929D01*
X12214814Y-18352976D02*
X12214814Y-18391071D01*
X12291004Y-18352976D02*
X12291004Y-18391071D01*
X12586242Y-18629167D02*
X12576718Y-18619643D01*
X12557671Y-18591071D01*
X12548147Y-18572024D01*
X12538623Y-18543452D01*
X12529099Y-18495833D01*
X12529099Y-18457738D01*
X12538623Y-18410119D01*
X12548147Y-18381548D01*
X12557671Y-18362500D01*
X12576718Y-18333929D01*
X12586242Y-18324405D01*
X12748147Y-18419643D02*
X12748147Y-18552976D01*
X12700528Y-18343452D02*
X12652909Y-18486310D01*
X12776718Y-18486310D01*
X13005290Y-18552976D02*
X13005290Y-18352976D01*
X13091004Y-18552976D02*
X13091004Y-18448214D01*
X13081480Y-18429167D01*
X13062433Y-18419643D01*
X13033861Y-18419643D01*
X13014814Y-18429167D01*
X13005290Y-18438690D01*
X13214814Y-18552976D02*
X13195766Y-18543452D01*
X13186242Y-18533929D01*
X13176718Y-18514881D01*
X13176718Y-18457738D01*
X13186242Y-18438690D01*
X13195766Y-18429167D01*
X13214814Y-18419643D01*
X13243385Y-18419643D01*
X13262433Y-18429167D01*
X13271957Y-18438690D01*
X13281480Y-18457738D01*
X13281480Y-18514881D01*
X13271957Y-18533929D01*
X13262433Y-18543452D01*
X13243385Y-18552976D01*
X13214814Y-18552976D01*
X13395766Y-18552976D02*
X13376718Y-18543452D01*
X13367195Y-18524405D01*
X13367195Y-18352976D01*
X13548147Y-18543452D02*
X13529099Y-18552976D01*
X13491004Y-18552976D01*
X13471957Y-18543452D01*
X13462433Y-18524405D01*
X13462433Y-18448214D01*
X13471957Y-18429167D01*
X13491004Y-18419643D01*
X13529099Y-18419643D01*
X13548147Y-18429167D01*
X13557671Y-18448214D01*
X13557671Y-18467262D01*
X13462433Y-18486310D01*
X13633861Y-18543452D02*
X13652909Y-18552976D01*
X13691004Y-18552976D01*
X13710052Y-18543452D01*
X13719576Y-18524405D01*
X13719576Y-18514881D01*
X13710052Y-18495833D01*
X13691004Y-18486310D01*
X13662433Y-18486310D01*
X13643385Y-18476786D01*
X13633861Y-18457738D01*
X13633861Y-18448214D01*
X13643385Y-18429167D01*
X13662433Y-18419643D01*
X13691004Y-18419643D01*
X13710052Y-18429167D01*
X13786242Y-18629167D02*
X13795766Y-18619643D01*
X13814814Y-18591071D01*
X13824337Y-18572024D01*
X13833861Y-18543452D01*
X13843385Y-18495833D01*
X13843385Y-18457738D01*
X13833861Y-18410119D01*
X13824337Y-18381548D01*
X13814814Y-18362500D01*
X13795766Y-18333929D01*
X13786242Y-18324405D01*
D17*
X8884338Y-18661500D02*
X9014338Y-18791500D01*
X9014338Y-18661500D02*
X8884338Y-18791500D01*
X9014338Y-18726500D02*
G75*
G03*
X9014338Y-18726500I-65000J0D01*
G01*
D11*
X9376719Y-18816976D02*
X9262433Y-18816976D01*
X9319576Y-18816976D02*
X9319576Y-18616976D01*
X9300528Y-18645548D01*
X9281480Y-18664595D01*
X9262433Y-18674119D01*
X9462433Y-18797929D02*
X9471957Y-18807452D01*
X9462433Y-18816976D01*
X9452909Y-18807452D01*
X9462433Y-18797929D01*
X9462433Y-18816976D01*
X9538623Y-18616976D02*
X9662433Y-18616976D01*
X9595766Y-18693167D01*
X9624338Y-18693167D01*
X9643385Y-18702690D01*
X9652909Y-18712214D01*
X9662433Y-18731262D01*
X9662433Y-18778881D01*
X9652909Y-18797929D01*
X9643385Y-18807452D01*
X9624338Y-18816976D01*
X9567195Y-18816976D01*
X9548147Y-18807452D01*
X9538623Y-18797929D01*
X9786242Y-18616976D02*
X9805290Y-18616976D01*
X9824338Y-18626500D01*
X9833861Y-18636024D01*
X9843385Y-18655071D01*
X9852909Y-18693167D01*
X9852909Y-18740786D01*
X9843385Y-18778881D01*
X9833861Y-18797929D01*
X9824338Y-18807452D01*
X9805290Y-18816976D01*
X9786242Y-18816976D01*
X9767195Y-18807452D01*
X9757671Y-18797929D01*
X9748147Y-18778881D01*
X9738623Y-18740786D01*
X9738623Y-18693167D01*
X9748147Y-18655071D01*
X9757671Y-18636024D01*
X9767195Y-18626500D01*
X9786242Y-18616976D01*
X9976719Y-18616976D02*
X9995766Y-18616976D01*
X10014814Y-18626500D01*
X10024338Y-18636024D01*
X10033861Y-18655071D01*
X10043385Y-18693167D01*
X10043385Y-18740786D01*
X10033861Y-18778881D01*
X10024338Y-18797929D01*
X10014814Y-18807452D01*
X9995766Y-18816976D01*
X9976719Y-18816976D01*
X9957671Y-18807452D01*
X9948147Y-18797929D01*
X9938623Y-18778881D01*
X9929100Y-18740786D01*
X9929100Y-18693167D01*
X9938623Y-18655071D01*
X9948147Y-18636024D01*
X9957671Y-18626500D01*
X9976719Y-18616976D01*
X10129100Y-18816976D02*
X10129100Y-18683643D01*
X10129100Y-18702690D02*
X10138623Y-18693167D01*
X10157671Y-18683643D01*
X10186242Y-18683643D01*
X10205290Y-18693167D01*
X10214814Y-18712214D01*
X10214814Y-18816976D01*
X10214814Y-18712214D02*
X10224338Y-18693167D01*
X10243385Y-18683643D01*
X10271957Y-18683643D01*
X10291004Y-18693167D01*
X10300528Y-18712214D01*
X10300528Y-18816976D01*
X10395766Y-18816976D02*
X10395766Y-18683643D01*
X10395766Y-18702690D02*
X10405290Y-18693167D01*
X10424338Y-18683643D01*
X10452909Y-18683643D01*
X10471957Y-18693167D01*
X10481480Y-18712214D01*
X10481480Y-18816976D01*
X10481480Y-18712214D02*
X10491004Y-18693167D01*
X10510052Y-18683643D01*
X10538623Y-18683643D01*
X10557671Y-18693167D01*
X10567195Y-18712214D01*
X10567195Y-18816976D01*
X10957671Y-18607452D02*
X10786242Y-18864595D01*
X11214814Y-18616976D02*
X11233861Y-18616976D01*
X11252909Y-18626500D01*
X11262433Y-18636024D01*
X11271957Y-18655071D01*
X11281480Y-18693167D01*
X11281480Y-18740786D01*
X11271957Y-18778881D01*
X11262433Y-18797929D01*
X11252909Y-18807452D01*
X11233861Y-18816976D01*
X11214814Y-18816976D01*
X11195766Y-18807452D01*
X11186242Y-18797929D01*
X11176719Y-18778881D01*
X11167195Y-18740786D01*
X11167195Y-18693167D01*
X11176719Y-18655071D01*
X11186242Y-18636024D01*
X11195766Y-18626500D01*
X11214814Y-18616976D01*
X11367195Y-18797929D02*
X11376718Y-18807452D01*
X11367195Y-18816976D01*
X11357671Y-18807452D01*
X11367195Y-18797929D01*
X11367195Y-18816976D01*
X11500528Y-18616976D02*
X11519576Y-18616976D01*
X11538623Y-18626500D01*
X11548147Y-18636024D01*
X11557671Y-18655071D01*
X11567195Y-18693167D01*
X11567195Y-18740786D01*
X11557671Y-18778881D01*
X11548147Y-18797929D01*
X11538623Y-18807452D01*
X11519576Y-18816976D01*
X11500528Y-18816976D01*
X11481480Y-18807452D01*
X11471957Y-18797929D01*
X11462433Y-18778881D01*
X11452909Y-18740786D01*
X11452909Y-18693167D01*
X11462433Y-18655071D01*
X11471957Y-18636024D01*
X11481480Y-18626500D01*
X11500528Y-18616976D01*
X11748147Y-18616976D02*
X11652909Y-18616976D01*
X11643385Y-18712214D01*
X11652909Y-18702690D01*
X11671957Y-18693167D01*
X11719576Y-18693167D01*
X11738623Y-18702690D01*
X11748147Y-18712214D01*
X11757671Y-18731262D01*
X11757671Y-18778881D01*
X11748147Y-18797929D01*
X11738623Y-18807452D01*
X11719576Y-18816976D01*
X11671957Y-18816976D01*
X11652909Y-18807452D01*
X11643385Y-18797929D01*
X11948147Y-18816976D02*
X11833861Y-18816976D01*
X11891004Y-18816976D02*
X11891004Y-18616976D01*
X11871957Y-18645548D01*
X11852909Y-18664595D01*
X11833861Y-18674119D01*
X12024337Y-18636024D02*
X12033861Y-18626500D01*
X12052909Y-18616976D01*
X12100528Y-18616976D01*
X12119576Y-18626500D01*
X12129099Y-18636024D01*
X12138623Y-18655071D01*
X12138623Y-18674119D01*
X12129099Y-18702690D01*
X12014814Y-18816976D01*
X12138623Y-18816976D01*
X12214814Y-18616976D02*
X12214814Y-18655071D01*
X12291004Y-18616976D02*
X12291004Y-18655071D01*
X12586242Y-18893167D02*
X12576718Y-18883643D01*
X12557671Y-18855071D01*
X12548147Y-18836024D01*
X12538623Y-18807452D01*
X12529099Y-18759833D01*
X12529099Y-18721738D01*
X12538623Y-18674119D01*
X12548147Y-18645548D01*
X12557671Y-18626500D01*
X12576718Y-18597929D01*
X12586242Y-18588405D01*
X12767195Y-18816976D02*
X12652909Y-18816976D01*
X12710052Y-18816976D02*
X12710052Y-18616976D01*
X12691004Y-18645548D01*
X12671957Y-18664595D01*
X12652909Y-18674119D01*
X12948147Y-18616976D02*
X12852909Y-18616976D01*
X12843385Y-18712214D01*
X12852909Y-18702690D01*
X12871957Y-18693167D01*
X12919576Y-18693167D01*
X12938623Y-18702690D01*
X12948147Y-18712214D01*
X12957671Y-18731262D01*
X12957671Y-18778881D01*
X12948147Y-18797929D01*
X12938623Y-18807452D01*
X12919576Y-18816976D01*
X12871957Y-18816976D01*
X12852909Y-18807452D01*
X12843385Y-18797929D01*
X13195766Y-18816976D02*
X13195766Y-18616976D01*
X13281480Y-18816976D02*
X13281480Y-18712214D01*
X13271957Y-18693167D01*
X13252909Y-18683643D01*
X13224337Y-18683643D01*
X13205290Y-18693167D01*
X13195766Y-18702690D01*
X13405290Y-18816976D02*
X13386242Y-18807452D01*
X13376718Y-18797929D01*
X13367195Y-18778881D01*
X13367195Y-18721738D01*
X13376718Y-18702690D01*
X13386242Y-18693167D01*
X13405290Y-18683643D01*
X13433861Y-18683643D01*
X13452909Y-18693167D01*
X13462433Y-18702690D01*
X13471957Y-18721738D01*
X13471957Y-18778881D01*
X13462433Y-18797929D01*
X13452909Y-18807452D01*
X13433861Y-18816976D01*
X13405290Y-18816976D01*
X13586242Y-18816976D02*
X13567195Y-18807452D01*
X13557671Y-18788405D01*
X13557671Y-18616976D01*
X13738623Y-18807452D02*
X13719576Y-18816976D01*
X13681480Y-18816976D01*
X13662433Y-18807452D01*
X13652909Y-18788405D01*
X13652909Y-18712214D01*
X13662433Y-18693167D01*
X13681480Y-18683643D01*
X13719576Y-18683643D01*
X13738623Y-18693167D01*
X13748147Y-18712214D01*
X13748147Y-18731262D01*
X13652909Y-18750310D01*
X13824337Y-18807452D02*
X13843385Y-18816976D01*
X13881480Y-18816976D01*
X13900528Y-18807452D01*
X13910052Y-18788405D01*
X13910052Y-18778881D01*
X13900528Y-18759833D01*
X13881480Y-18750310D01*
X13852909Y-18750310D01*
X13833861Y-18740786D01*
X13824337Y-18721738D01*
X13824337Y-18712214D01*
X13833861Y-18693167D01*
X13852909Y-18683643D01*
X13881480Y-18683643D01*
X13900528Y-18693167D01*
X13976718Y-18893167D02*
X13986242Y-18883643D01*
X14005290Y-18855071D01*
X14014814Y-18836024D01*
X14024337Y-18807452D01*
X14033861Y-18759833D01*
X14033861Y-18721738D01*
X14024337Y-18674119D01*
X14014814Y-18645548D01*
X14005290Y-18626500D01*
X13986242Y-18597929D01*
X13976718Y-18588405D01*
X8814338Y-18890500D02*
X9014338Y-19090500D01*
X9014338Y-18890500D02*
X8814338Y-19090500D01*
X8914338Y-18890500D02*
X8914338Y-19090500D01*
X8814338Y-18990500D02*
X9014338Y-18990500D01*
X9252909Y-18880976D02*
X9376719Y-18880976D01*
X9310052Y-18957167D01*
X9338623Y-18957167D01*
X9357671Y-18966690D01*
X9367195Y-18976214D01*
X9376719Y-18995262D01*
X9376719Y-19042881D01*
X9367195Y-19061929D01*
X9357671Y-19071452D01*
X9338623Y-19080976D01*
X9281480Y-19080976D01*
X9262433Y-19071452D01*
X9252909Y-19061929D01*
X9462433Y-19061929D02*
X9471957Y-19071452D01*
X9462433Y-19080976D01*
X9452909Y-19071452D01*
X9462433Y-19061929D01*
X9462433Y-19080976D01*
X9652909Y-18880976D02*
X9557671Y-18880976D01*
X9548147Y-18976214D01*
X9557671Y-18966690D01*
X9576719Y-18957167D01*
X9624338Y-18957167D01*
X9643385Y-18966690D01*
X9652909Y-18976214D01*
X9662433Y-18995262D01*
X9662433Y-19042881D01*
X9652909Y-19061929D01*
X9643385Y-19071452D01*
X9624338Y-19080976D01*
X9576719Y-19080976D01*
X9557671Y-19071452D01*
X9548147Y-19061929D01*
X9786242Y-18880976D02*
X9805290Y-18880976D01*
X9824338Y-18890500D01*
X9833861Y-18900024D01*
X9843385Y-18919071D01*
X9852909Y-18957167D01*
X9852909Y-19004786D01*
X9843385Y-19042881D01*
X9833861Y-19061929D01*
X9824338Y-19071452D01*
X9805290Y-19080976D01*
X9786242Y-19080976D01*
X9767195Y-19071452D01*
X9757671Y-19061929D01*
X9748147Y-19042881D01*
X9738623Y-19004786D01*
X9738623Y-18957167D01*
X9748147Y-18919071D01*
X9757671Y-18900024D01*
X9767195Y-18890500D01*
X9786242Y-18880976D01*
X9976719Y-18880976D02*
X9995766Y-18880976D01*
X10014814Y-18890500D01*
X10024338Y-18900024D01*
X10033861Y-18919071D01*
X10043385Y-18957167D01*
X10043385Y-19004786D01*
X10033861Y-19042881D01*
X10024338Y-19061929D01*
X10014814Y-19071452D01*
X9995766Y-19080976D01*
X9976719Y-19080976D01*
X9957671Y-19071452D01*
X9948147Y-19061929D01*
X9938623Y-19042881D01*
X9929100Y-19004786D01*
X9929100Y-18957167D01*
X9938623Y-18919071D01*
X9948147Y-18900024D01*
X9957671Y-18890500D01*
X9976719Y-18880976D01*
X10129100Y-19080976D02*
X10129100Y-18947643D01*
X10129100Y-18966690D02*
X10138623Y-18957167D01*
X10157671Y-18947643D01*
X10186242Y-18947643D01*
X10205290Y-18957167D01*
X10214814Y-18976214D01*
X10214814Y-19080976D01*
X10214814Y-18976214D02*
X10224338Y-18957167D01*
X10243385Y-18947643D01*
X10271957Y-18947643D01*
X10291004Y-18957167D01*
X10300528Y-18976214D01*
X10300528Y-19080976D01*
X10395766Y-19080976D02*
X10395766Y-18947643D01*
X10395766Y-18966690D02*
X10405290Y-18957167D01*
X10424338Y-18947643D01*
X10452909Y-18947643D01*
X10471957Y-18957167D01*
X10481480Y-18976214D01*
X10481480Y-19080976D01*
X10481480Y-18976214D02*
X10491004Y-18957167D01*
X10510052Y-18947643D01*
X10538623Y-18947643D01*
X10557671Y-18957167D01*
X10567195Y-18976214D01*
X10567195Y-19080976D01*
X10957671Y-18871452D02*
X10786242Y-19128595D01*
X11214814Y-18880976D02*
X11233861Y-18880976D01*
X11252909Y-18890500D01*
X11262433Y-18900024D01*
X11271957Y-18919071D01*
X11281480Y-18957167D01*
X11281480Y-19004786D01*
X11271957Y-19042881D01*
X11262433Y-19061929D01*
X11252909Y-19071452D01*
X11233861Y-19080976D01*
X11214814Y-19080976D01*
X11195766Y-19071452D01*
X11186242Y-19061929D01*
X11176719Y-19042881D01*
X11167195Y-19004786D01*
X11167195Y-18957167D01*
X11176719Y-18919071D01*
X11186242Y-18900024D01*
X11195766Y-18890500D01*
X11214814Y-18880976D01*
X11367195Y-19061929D02*
X11376718Y-19071452D01*
X11367195Y-19080976D01*
X11357671Y-19071452D01*
X11367195Y-19061929D01*
X11367195Y-19080976D01*
X11567195Y-19080976D02*
X11452909Y-19080976D01*
X11510052Y-19080976D02*
X11510052Y-18880976D01*
X11491004Y-18909548D01*
X11471957Y-18928595D01*
X11452909Y-18938119D01*
X11633861Y-18880976D02*
X11757671Y-18880976D01*
X11691004Y-18957167D01*
X11719576Y-18957167D01*
X11738623Y-18966690D01*
X11748147Y-18976214D01*
X11757671Y-18995262D01*
X11757671Y-19042881D01*
X11748147Y-19061929D01*
X11738623Y-19071452D01*
X11719576Y-19080976D01*
X11662433Y-19080976D01*
X11643385Y-19071452D01*
X11633861Y-19061929D01*
X11824338Y-18880976D02*
X11957671Y-18880976D01*
X11871957Y-19080976D01*
X12062433Y-18966690D02*
X12043385Y-18957167D01*
X12033861Y-18947643D01*
X12024337Y-18928595D01*
X12024337Y-18919071D01*
X12033861Y-18900024D01*
X12043385Y-18890500D01*
X12062433Y-18880976D01*
X12100528Y-18880976D01*
X12119576Y-18890500D01*
X12129099Y-18900024D01*
X12138623Y-18919071D01*
X12138623Y-18928595D01*
X12129099Y-18947643D01*
X12119576Y-18957167D01*
X12100528Y-18966690D01*
X12062433Y-18966690D01*
X12043385Y-18976214D01*
X12033861Y-18985738D01*
X12024337Y-19004786D01*
X12024337Y-19042881D01*
X12033861Y-19061929D01*
X12043385Y-19071452D01*
X12062433Y-19080976D01*
X12100528Y-19080976D01*
X12119576Y-19071452D01*
X12129099Y-19061929D01*
X12138623Y-19042881D01*
X12138623Y-19004786D01*
X12129099Y-18985738D01*
X12119576Y-18976214D01*
X12100528Y-18966690D01*
X12214814Y-18880976D02*
X12214814Y-18919071D01*
X12291004Y-18880976D02*
X12291004Y-18919071D01*
X12586242Y-19157167D02*
X12576718Y-19147643D01*
X12557671Y-19119071D01*
X12548147Y-19100024D01*
X12538623Y-19071452D01*
X12529099Y-19023833D01*
X12529099Y-18985738D01*
X12538623Y-18938119D01*
X12548147Y-18909548D01*
X12557671Y-18890500D01*
X12576718Y-18861929D01*
X12586242Y-18852405D01*
X12748147Y-18947643D02*
X12748147Y-19080976D01*
X12700528Y-18871452D02*
X12652909Y-19014310D01*
X12776718Y-19014310D01*
X13005290Y-19080976D02*
X13005290Y-18880976D01*
X13091004Y-19080976D02*
X13091004Y-18976214D01*
X13081480Y-18957167D01*
X13062433Y-18947643D01*
X13033861Y-18947643D01*
X13014814Y-18957167D01*
X13005290Y-18966690D01*
X13214814Y-19080976D02*
X13195766Y-19071452D01*
X13186242Y-19061929D01*
X13176718Y-19042881D01*
X13176718Y-18985738D01*
X13186242Y-18966690D01*
X13195766Y-18957167D01*
X13214814Y-18947643D01*
X13243385Y-18947643D01*
X13262433Y-18957167D01*
X13271957Y-18966690D01*
X13281480Y-18985738D01*
X13281480Y-19042881D01*
X13271957Y-19061929D01*
X13262433Y-19071452D01*
X13243385Y-19080976D01*
X13214814Y-19080976D01*
X13395766Y-19080976D02*
X13376718Y-19071452D01*
X13367195Y-19052405D01*
X13367195Y-18880976D01*
X13548147Y-19071452D02*
X13529099Y-19080976D01*
X13491004Y-19080976D01*
X13471957Y-19071452D01*
X13462433Y-19052405D01*
X13462433Y-18976214D01*
X13471957Y-18957167D01*
X13491004Y-18947643D01*
X13529099Y-18947643D01*
X13548147Y-18957167D01*
X13557671Y-18976214D01*
X13557671Y-18995262D01*
X13462433Y-19014310D01*
X13633861Y-19071452D02*
X13652909Y-19080976D01*
X13691004Y-19080976D01*
X13710052Y-19071452D01*
X13719576Y-19052405D01*
X13719576Y-19042881D01*
X13710052Y-19023833D01*
X13691004Y-19014310D01*
X13662433Y-19014310D01*
X13643385Y-19004786D01*
X13633861Y-18985738D01*
X13633861Y-18976214D01*
X13643385Y-18957167D01*
X13662433Y-18947643D01*
X13691004Y-18947643D01*
X13710052Y-18957167D01*
X13786242Y-19157167D02*
X13795766Y-19147643D01*
X13814814Y-19119071D01*
X13824337Y-19100024D01*
X13833861Y-19071452D01*
X13843385Y-19023833D01*
X13843385Y-18985738D01*
X13833861Y-18938119D01*
X13824337Y-18909548D01*
X13814814Y-18890500D01*
X13795766Y-18861929D01*
X13786242Y-18852405D01*
M02*
