G04 #@! TF.GenerationSoftware,KiCad,Pcbnew,(5.1.10)-1*
G04 #@! TF.CreationDate,2021-12-06T14:15:13+01:00*
G04 #@! TF.ProjectId,LuciCameraLettoRoma,4c756369-4361-46d6-9572-614c6574746f,rev?*
G04 #@! TF.SameCoordinates,Original*
G04 #@! TF.FileFunction,Paste,Bot*
G04 #@! TF.FilePolarity,Positive*
%FSLAX46Y46*%
G04 Gerber Fmt 4.6, Leading zero omitted, Abs format (unit mm)*
G04 Created by KiCad (PCBNEW (5.1.10)-1) date 2021-12-06 14:15:13*
%MOMM*%
%LPD*%
G01*
G04 APERTURE LIST*
%ADD10R,0.800000X0.900000*%
%ADD11R,0.900000X0.800000*%
G04 APERTURE END LIST*
D10*
X144780000Y-115316000D03*
X145730000Y-113316000D03*
X143830000Y-113316000D03*
X144653000Y-132461000D03*
X143703000Y-134461000D03*
X145603000Y-134461000D03*
G36*
G01*
X132197001Y-124195000D02*
X130946999Y-124195000D01*
G75*
G02*
X130697000Y-123945001I0J249999D01*
G01*
X130697000Y-123319999D01*
G75*
G02*
X130946999Y-123070000I249999J0D01*
G01*
X132197001Y-123070000D01*
G75*
G02*
X132447000Y-123319999I0J-249999D01*
G01*
X132447000Y-123945001D01*
G75*
G02*
X132197001Y-124195000I-249999J0D01*
G01*
G37*
G36*
G01*
X132197001Y-127120000D02*
X130946999Y-127120000D01*
G75*
G02*
X130697000Y-126870001I0J249999D01*
G01*
X130697000Y-126244999D01*
G75*
G02*
X130946999Y-125995000I249999J0D01*
G01*
X132197001Y-125995000D01*
G75*
G02*
X132447000Y-126244999I0J-249999D01*
G01*
X132447000Y-126870001D01*
G75*
G02*
X132197001Y-127120000I-249999J0D01*
G01*
G37*
G36*
G01*
X133300000Y-112766001D02*
X133300000Y-111515999D01*
G75*
G02*
X133549999Y-111266000I249999J0D01*
G01*
X134175001Y-111266000D01*
G75*
G02*
X134425000Y-111515999I0J-249999D01*
G01*
X134425000Y-112766001D01*
G75*
G02*
X134175001Y-113016000I-249999J0D01*
G01*
X133549999Y-113016000D01*
G75*
G02*
X133300000Y-112766001I0J249999D01*
G01*
G37*
G36*
G01*
X130375000Y-112766001D02*
X130375000Y-111515999D01*
G75*
G02*
X130624999Y-111266000I249999J0D01*
G01*
X131250001Y-111266000D01*
G75*
G02*
X131500000Y-111515999I0J-249999D01*
G01*
X131500000Y-112766001D01*
G75*
G02*
X131250001Y-113016000I-249999J0D01*
G01*
X130624999Y-113016000D01*
G75*
G02*
X130375000Y-112766001I0J249999D01*
G01*
G37*
G36*
G01*
X133361000Y-109718001D02*
X133361000Y-108467999D01*
G75*
G02*
X133610999Y-108218000I249999J0D01*
G01*
X134236001Y-108218000D01*
G75*
G02*
X134486000Y-108467999I0J-249999D01*
G01*
X134486000Y-109718001D01*
G75*
G02*
X134236001Y-109968000I-249999J0D01*
G01*
X133610999Y-109968000D01*
G75*
G02*
X133361000Y-109718001I0J249999D01*
G01*
G37*
G36*
G01*
X130436000Y-109718001D02*
X130436000Y-108467999D01*
G75*
G02*
X130685999Y-108218000I249999J0D01*
G01*
X131311001Y-108218000D01*
G75*
G02*
X131561000Y-108467999I0J-249999D01*
G01*
X131561000Y-109718001D01*
G75*
G02*
X131311001Y-109968000I-249999J0D01*
G01*
X130685999Y-109968000D01*
G75*
G02*
X130436000Y-109718001I0J249999D01*
G01*
G37*
G36*
G01*
X132197001Y-79999000D02*
X130946999Y-79999000D01*
G75*
G02*
X130697000Y-79749001I0J249999D01*
G01*
X130697000Y-79123999D01*
G75*
G02*
X130946999Y-78874000I249999J0D01*
G01*
X132197001Y-78874000D01*
G75*
G02*
X132447000Y-79123999I0J-249999D01*
G01*
X132447000Y-79749001D01*
G75*
G02*
X132197001Y-79999000I-249999J0D01*
G01*
G37*
G36*
G01*
X132197001Y-82924000D02*
X130946999Y-82924000D01*
G75*
G02*
X130697000Y-82674001I0J249999D01*
G01*
X130697000Y-82048999D01*
G75*
G02*
X130946999Y-81799000I249999J0D01*
G01*
X132197001Y-81799000D01*
G75*
G02*
X132447000Y-82048999I0J-249999D01*
G01*
X132447000Y-82674001D01*
G75*
G02*
X132197001Y-82924000I-249999J0D01*
G01*
G37*
G36*
G01*
X132197001Y-65840500D02*
X130946999Y-65840500D01*
G75*
G02*
X130697000Y-65590501I0J249999D01*
G01*
X130697000Y-64965499D01*
G75*
G02*
X130946999Y-64715500I249999J0D01*
G01*
X132197001Y-64715500D01*
G75*
G02*
X132447000Y-64965499I0J-249999D01*
G01*
X132447000Y-65590501D01*
G75*
G02*
X132197001Y-65840500I-249999J0D01*
G01*
G37*
G36*
G01*
X132197001Y-68765500D02*
X130946999Y-68765500D01*
G75*
G02*
X130697000Y-68515501I0J249999D01*
G01*
X130697000Y-67890499D01*
G75*
G02*
X130946999Y-67640500I249999J0D01*
G01*
X132197001Y-67640500D01*
G75*
G02*
X132447000Y-67890499I0J-249999D01*
G01*
X132447000Y-68515501D01*
G75*
G02*
X132197001Y-68765500I-249999J0D01*
G01*
G37*
G36*
G01*
X145024001Y-119369000D02*
X143773999Y-119369000D01*
G75*
G02*
X143524000Y-119119001I0J249999D01*
G01*
X143524000Y-118493999D01*
G75*
G02*
X143773999Y-118244000I249999J0D01*
G01*
X145024001Y-118244000D01*
G75*
G02*
X145274000Y-118493999I0J-249999D01*
G01*
X145274000Y-119119001D01*
G75*
G02*
X145024001Y-119369000I-249999J0D01*
G01*
G37*
G36*
G01*
X145024001Y-122294000D02*
X143773999Y-122294000D01*
G75*
G02*
X143524000Y-122044001I0J249999D01*
G01*
X143524000Y-121418999D01*
G75*
G02*
X143773999Y-121169000I249999J0D01*
G01*
X145024001Y-121169000D01*
G75*
G02*
X145274000Y-121418999I0J-249999D01*
G01*
X145274000Y-122044001D01*
G75*
G02*
X145024001Y-122294000I-249999J0D01*
G01*
G37*
G36*
G01*
X140092000Y-119497001D02*
X140092000Y-118246999D01*
G75*
G02*
X140341999Y-117997000I249999J0D01*
G01*
X140967001Y-117997000D01*
G75*
G02*
X141217000Y-118246999I0J-249999D01*
G01*
X141217000Y-119497001D01*
G75*
G02*
X140967001Y-119747000I-249999J0D01*
G01*
X140341999Y-119747000D01*
G75*
G02*
X140092000Y-119497001I0J249999D01*
G01*
G37*
G36*
G01*
X137167000Y-119497001D02*
X137167000Y-118246999D01*
G75*
G02*
X137416999Y-117997000I249999J0D01*
G01*
X138042001Y-117997000D01*
G75*
G02*
X138292000Y-118246999I0J-249999D01*
G01*
X138292000Y-119497001D01*
G75*
G02*
X138042001Y-119747000I-249999J0D01*
G01*
X137416999Y-119747000D01*
G75*
G02*
X137167000Y-119497001I0J249999D01*
G01*
G37*
G36*
G01*
X145151001Y-127878000D02*
X143900999Y-127878000D01*
G75*
G02*
X143651000Y-127628001I0J249999D01*
G01*
X143651000Y-127002999D01*
G75*
G02*
X143900999Y-126753000I249999J0D01*
G01*
X145151001Y-126753000D01*
G75*
G02*
X145401000Y-127002999I0J-249999D01*
G01*
X145401000Y-127628001D01*
G75*
G02*
X145151001Y-127878000I-249999J0D01*
G01*
G37*
G36*
G01*
X145151001Y-130803000D02*
X143900999Y-130803000D01*
G75*
G02*
X143651000Y-130553001I0J249999D01*
G01*
X143651000Y-129927999D01*
G75*
G02*
X143900999Y-129678000I249999J0D01*
G01*
X145151001Y-129678000D01*
G75*
G02*
X145401000Y-129927999I0J-249999D01*
G01*
X145401000Y-130553001D01*
G75*
G02*
X145151001Y-130803000I-249999J0D01*
G01*
G37*
G36*
G01*
X140280000Y-130673001D02*
X140280000Y-129422999D01*
G75*
G02*
X140529999Y-129173000I249999J0D01*
G01*
X141155001Y-129173000D01*
G75*
G02*
X141405000Y-129422999I0J-249999D01*
G01*
X141405000Y-130673001D01*
G75*
G02*
X141155001Y-130923000I-249999J0D01*
G01*
X140529999Y-130923000D01*
G75*
G02*
X140280000Y-130673001I0J249999D01*
G01*
G37*
G36*
G01*
X137355000Y-130673001D02*
X137355000Y-129422999D01*
G75*
G02*
X137604999Y-129173000I249999J0D01*
G01*
X138230001Y-129173000D01*
G75*
G02*
X138480000Y-129422999I0J-249999D01*
G01*
X138480000Y-130673001D01*
G75*
G02*
X138230001Y-130923000I-249999J0D01*
G01*
X137604999Y-130923000D01*
G75*
G02*
X137355000Y-130673001I0J249999D01*
G01*
G37*
G36*
G01*
X145024001Y-141467000D02*
X143773999Y-141467000D01*
G75*
G02*
X143524000Y-141217001I0J249999D01*
G01*
X143524000Y-140591999D01*
G75*
G02*
X143773999Y-140342000I249999J0D01*
G01*
X145024001Y-140342000D01*
G75*
G02*
X145274000Y-140591999I0J-249999D01*
G01*
X145274000Y-141217001D01*
G75*
G02*
X145024001Y-141467000I-249999J0D01*
G01*
G37*
G36*
G01*
X145024001Y-144392000D02*
X143773999Y-144392000D01*
G75*
G02*
X143524000Y-144142001I0J249999D01*
G01*
X143524000Y-143516999D01*
G75*
G02*
X143773999Y-143267000I249999J0D01*
G01*
X145024001Y-143267000D01*
G75*
G02*
X145274000Y-143516999I0J-249999D01*
G01*
X145274000Y-144142001D01*
G75*
G02*
X145024001Y-144392000I-249999J0D01*
G01*
G37*
G36*
G01*
X140346000Y-141595001D02*
X140346000Y-140344999D01*
G75*
G02*
X140595999Y-140095000I249999J0D01*
G01*
X141221001Y-140095000D01*
G75*
G02*
X141471000Y-140344999I0J-249999D01*
G01*
X141471000Y-141595001D01*
G75*
G02*
X141221001Y-141845000I-249999J0D01*
G01*
X140595999Y-141845000D01*
G75*
G02*
X140346000Y-141595001I0J249999D01*
G01*
G37*
G36*
G01*
X137421000Y-141595001D02*
X137421000Y-140344999D01*
G75*
G02*
X137670999Y-140095000I249999J0D01*
G01*
X138296001Y-140095000D01*
G75*
G02*
X138546000Y-140344999I0J-249999D01*
G01*
X138546000Y-141595001D01*
G75*
G02*
X138296001Y-141845000I-249999J0D01*
G01*
X137670999Y-141845000D01*
G75*
G02*
X137421000Y-141595001I0J249999D01*
G01*
G37*
D11*
X130445000Y-104013000D03*
X132445000Y-104963000D03*
X132445000Y-103063000D03*
G36*
G01*
X133277001Y-93842000D02*
X132026999Y-93842000D01*
G75*
G02*
X131777000Y-93592001I0J249999D01*
G01*
X131777000Y-92966999D01*
G75*
G02*
X132026999Y-92717000I249999J0D01*
G01*
X133277001Y-92717000D01*
G75*
G02*
X133527000Y-92966999I0J-249999D01*
G01*
X133527000Y-93592001D01*
G75*
G02*
X133277001Y-93842000I-249999J0D01*
G01*
G37*
G36*
G01*
X133277001Y-96767000D02*
X132026999Y-96767000D01*
G75*
G02*
X131777000Y-96517001I0J249999D01*
G01*
X131777000Y-95891999D01*
G75*
G02*
X132026999Y-95642000I249999J0D01*
G01*
X133277001Y-95642000D01*
G75*
G02*
X133527000Y-95891999I0J-249999D01*
G01*
X133527000Y-96517001D01*
G75*
G02*
X133277001Y-96767000I-249999J0D01*
G01*
G37*
G36*
G01*
X139816000Y-108467999D02*
X139816000Y-109718001D01*
G75*
G02*
X139566001Y-109968000I-249999J0D01*
G01*
X138940999Y-109968000D01*
G75*
G02*
X138691000Y-109718001I0J249999D01*
G01*
X138691000Y-108467999D01*
G75*
G02*
X138940999Y-108218000I249999J0D01*
G01*
X139566001Y-108218000D01*
G75*
G02*
X139816000Y-108467999I0J-249999D01*
G01*
G37*
G36*
G01*
X142741000Y-108467999D02*
X142741000Y-109718001D01*
G75*
G02*
X142491001Y-109968000I-249999J0D01*
G01*
X141865999Y-109968000D01*
G75*
G02*
X141616000Y-109718001I0J249999D01*
G01*
X141616000Y-108467999D01*
G75*
G02*
X141865999Y-108218000I249999J0D01*
G01*
X142491001Y-108218000D01*
G75*
G02*
X142741000Y-108467999I0J-249999D01*
G01*
G37*
G36*
G01*
X141489000Y-71135001D02*
X141489000Y-69834999D01*
G75*
G02*
X141738999Y-69585000I249999J0D01*
G01*
X142389001Y-69585000D01*
G75*
G02*
X142639000Y-69834999I0J-249999D01*
G01*
X142639000Y-71135001D01*
G75*
G02*
X142389001Y-71385000I-249999J0D01*
G01*
X141738999Y-71385000D01*
G75*
G02*
X141489000Y-71135001I0J249999D01*
G01*
G37*
G36*
G01*
X138539000Y-71135001D02*
X138539000Y-69834999D01*
G75*
G02*
X138788999Y-69585000I249999J0D01*
G01*
X139439001Y-69585000D01*
G75*
G02*
X139689000Y-69834999I0J-249999D01*
G01*
X139689000Y-71135001D01*
G75*
G02*
X139439001Y-71385000I-249999J0D01*
G01*
X138788999Y-71385000D01*
G75*
G02*
X138539000Y-71135001I0J249999D01*
G01*
G37*
G36*
G01*
X141766000Y-83631001D02*
X141766000Y-82230999D01*
G75*
G02*
X142015999Y-81981000I249999J0D01*
G01*
X142566001Y-81981000D01*
G75*
G02*
X142816000Y-82230999I0J-249999D01*
G01*
X142816000Y-83631001D01*
G75*
G02*
X142566001Y-83881000I-249999J0D01*
G01*
X142015999Y-83881000D01*
G75*
G02*
X141766000Y-83631001I0J249999D01*
G01*
G37*
G36*
G01*
X138616000Y-83631001D02*
X138616000Y-82230999D01*
G75*
G02*
X138865999Y-81981000I249999J0D01*
G01*
X139416001Y-81981000D01*
G75*
G02*
X139666000Y-82230999I0J-249999D01*
G01*
X139666000Y-83631001D01*
G75*
G02*
X139416001Y-83881000I-249999J0D01*
G01*
X138865999Y-83881000D01*
G75*
G02*
X138616000Y-83631001I0J249999D01*
G01*
G37*
G36*
G01*
X141766000Y-86298001D02*
X141766000Y-84897999D01*
G75*
G02*
X142015999Y-84648000I249999J0D01*
G01*
X142566001Y-84648000D01*
G75*
G02*
X142816000Y-84897999I0J-249999D01*
G01*
X142816000Y-86298001D01*
G75*
G02*
X142566001Y-86548000I-249999J0D01*
G01*
X142015999Y-86548000D01*
G75*
G02*
X141766000Y-86298001I0J249999D01*
G01*
G37*
G36*
G01*
X138616000Y-86298001D02*
X138616000Y-84897999D01*
G75*
G02*
X138865999Y-84648000I249999J0D01*
G01*
X139416001Y-84648000D01*
G75*
G02*
X139666000Y-84897999I0J-249999D01*
G01*
X139666000Y-86298001D01*
G75*
G02*
X139416001Y-86548000I-249999J0D01*
G01*
X138865999Y-86548000D01*
G75*
G02*
X138616000Y-86298001I0J249999D01*
G01*
G37*
G36*
G01*
X139752000Y-90091499D02*
X139752000Y-91391501D01*
G75*
G02*
X139502001Y-91641500I-249999J0D01*
G01*
X138851999Y-91641500D01*
G75*
G02*
X138602000Y-91391501I0J249999D01*
G01*
X138602000Y-90091499D01*
G75*
G02*
X138851999Y-89841500I249999J0D01*
G01*
X139502001Y-89841500D01*
G75*
G02*
X139752000Y-90091499I0J-249999D01*
G01*
G37*
G36*
G01*
X142702000Y-90091499D02*
X142702000Y-91391501D01*
G75*
G02*
X142452001Y-91641500I-249999J0D01*
G01*
X141801999Y-91641500D01*
G75*
G02*
X141552000Y-91391501I0J249999D01*
G01*
X141552000Y-90091499D01*
G75*
G02*
X141801999Y-89841500I249999J0D01*
G01*
X142452001Y-89841500D01*
G75*
G02*
X142702000Y-90091499I0J-249999D01*
G01*
G37*
G36*
G01*
X139752000Y-72399999D02*
X139752000Y-73650001D01*
G75*
G02*
X139502001Y-73900000I-249999J0D01*
G01*
X138876999Y-73900000D01*
G75*
G02*
X138627000Y-73650001I0J249999D01*
G01*
X138627000Y-72399999D01*
G75*
G02*
X138876999Y-72150000I249999J0D01*
G01*
X139502001Y-72150000D01*
G75*
G02*
X139752000Y-72399999I0J-249999D01*
G01*
G37*
G36*
G01*
X142677000Y-72399999D02*
X142677000Y-73650001D01*
G75*
G02*
X142427001Y-73900000I-249999J0D01*
G01*
X141801999Y-73900000D01*
G75*
G02*
X141552000Y-73650001I0J249999D01*
G01*
X141552000Y-72399999D01*
G75*
G02*
X141801999Y-72150000I249999J0D01*
G01*
X142427001Y-72150000D01*
G75*
G02*
X142677000Y-72399999I0J-249999D01*
G01*
G37*
G36*
G01*
X138795999Y-67907000D02*
X140096001Y-67907000D01*
G75*
G02*
X140346000Y-68156999I0J-249999D01*
G01*
X140346000Y-68807001D01*
G75*
G02*
X140096001Y-69057000I-249999J0D01*
G01*
X138795999Y-69057000D01*
G75*
G02*
X138546000Y-68807001I0J249999D01*
G01*
X138546000Y-68156999D01*
G75*
G02*
X138795999Y-67907000I249999J0D01*
G01*
G37*
G36*
G01*
X138795999Y-64957000D02*
X140096001Y-64957000D01*
G75*
G02*
X140346000Y-65206999I0J-249999D01*
G01*
X140346000Y-65857001D01*
G75*
G02*
X140096001Y-66107000I-249999J0D01*
G01*
X138795999Y-66107000D01*
G75*
G02*
X138546000Y-65857001I0J249999D01*
G01*
X138546000Y-65206999D01*
G75*
G02*
X138795999Y-64957000I249999J0D01*
G01*
G37*
G36*
G01*
X139752000Y-95234999D02*
X139752000Y-96535001D01*
G75*
G02*
X139502001Y-96785000I-249999J0D01*
G01*
X138851999Y-96785000D01*
G75*
G02*
X138602000Y-96535001I0J249999D01*
G01*
X138602000Y-95234999D01*
G75*
G02*
X138851999Y-94985000I249999J0D01*
G01*
X139502001Y-94985000D01*
G75*
G02*
X139752000Y-95234999I0J-249999D01*
G01*
G37*
G36*
G01*
X142702000Y-95234999D02*
X142702000Y-96535001D01*
G75*
G02*
X142452001Y-96785000I-249999J0D01*
G01*
X141801999Y-96785000D01*
G75*
G02*
X141552000Y-96535001I0J249999D01*
G01*
X141552000Y-95234999D01*
G75*
G02*
X141801999Y-94985000I249999J0D01*
G01*
X142452001Y-94985000D01*
G75*
G02*
X142702000Y-95234999I0J-249999D01*
G01*
G37*
G36*
G01*
X139767000Y-92631499D02*
X139767000Y-93931501D01*
G75*
G02*
X139517001Y-94181500I-249999J0D01*
G01*
X138866999Y-94181500D01*
G75*
G02*
X138617000Y-93931501I0J249999D01*
G01*
X138617000Y-92631499D01*
G75*
G02*
X138866999Y-92381500I249999J0D01*
G01*
X139517001Y-92381500D01*
G75*
G02*
X139767000Y-92631499I0J-249999D01*
G01*
G37*
G36*
G01*
X142717000Y-92631499D02*
X142717000Y-93931501D01*
G75*
G02*
X142467001Y-94181500I-249999J0D01*
G01*
X141816999Y-94181500D01*
G75*
G02*
X141567000Y-93931501I0J249999D01*
G01*
X141567000Y-92631499D01*
G75*
G02*
X141816999Y-92381500I249999J0D01*
G01*
X142467001Y-92381500D01*
G75*
G02*
X142717000Y-92631499I0J-249999D01*
G01*
G37*
G36*
G01*
X139767000Y-87551499D02*
X139767000Y-88851501D01*
G75*
G02*
X139517001Y-89101500I-249999J0D01*
G01*
X138866999Y-89101500D01*
G75*
G02*
X138617000Y-88851501I0J249999D01*
G01*
X138617000Y-87551499D01*
G75*
G02*
X138866999Y-87301500I249999J0D01*
G01*
X139517001Y-87301500D01*
G75*
G02*
X139767000Y-87551499I0J-249999D01*
G01*
G37*
G36*
G01*
X142717000Y-87551499D02*
X142717000Y-88851501D01*
G75*
G02*
X142467001Y-89101500I-249999J0D01*
G01*
X141816999Y-89101500D01*
G75*
G02*
X141567000Y-88851501I0J249999D01*
G01*
X141567000Y-87551499D01*
G75*
G02*
X141816999Y-87301500I249999J0D01*
G01*
X142467001Y-87301500D01*
G75*
G02*
X142717000Y-87551499I0J-249999D01*
G01*
G37*
M02*
