%TF.GenerationSoftware,KiCad,Pcbnew,(6.0.0)*%
%TF.CreationDate,2022-01-21T00:33:54+01:00*%
%TF.ProjectId,LuciCameraLettoRoma,4c756369-4361-46d6-9572-614c6574746f,rev?*%
%TF.SameCoordinates,Original*%
%TF.FileFunction,Paste,Bot*%
%TF.FilePolarity,Positive*%
%FSLAX46Y46*%
G04 Gerber Fmt 4.6, Leading zero omitted, Abs format (unit mm)*
G04 Created by KiCad (PCBNEW (6.0.0)) date 2022-01-21 00:33:54*
%MOMM*%
%LPD*%
G01*
G04 APERTURE LIST*
G04 Aperture macros list*
%AMRoundRect*
0 Rectangle with rounded corners*
0 $1 Rounding radius*
0 $2 $3 $4 $5 $6 $7 $8 $9 X,Y pos of 4 corners*
0 Add a 4 corners polygon primitive as box body*
4,1,4,$2,$3,$4,$5,$6,$7,$8,$9,$2,$3,0*
0 Add four circle primitives for the rounded corners*
1,1,$1+$1,$2,$3*
1,1,$1+$1,$4,$5*
1,1,$1+$1,$6,$7*
1,1,$1+$1,$8,$9*
0 Add four rect primitives between the rounded corners*
20,1,$1+$1,$2,$3,$4,$5,0*
20,1,$1+$1,$4,$5,$6,$7,0*
20,1,$1+$1,$6,$7,$8,$9,0*
20,1,$1+$1,$8,$9,$2,$3,0*%
G04 Aperture macros list end*
%ADD10RoundRect,0.249999X0.325001X0.650001X-0.325001X0.650001X-0.325001X-0.650001X0.325001X-0.650001X0*%
%ADD11RoundRect,0.249999X-0.325001X-0.650001X0.325001X-0.650001X0.325001X0.650001X-0.325001X0.650001X0*%
%ADD12RoundRect,0.249999X-0.650001X0.325001X-0.650001X-0.325001X0.650001X-0.325001X0.650001X0.325001X0*%
%ADD13RoundRect,0.249999X-0.275001X-0.700001X0.275001X-0.700001X0.275001X0.700001X-0.275001X0.700001X0*%
%ADD14RoundRect,0.249999X-0.700001X0.275001X-0.700001X-0.275001X0.700001X-0.275001X0.700001X0.275001X0*%
%ADD15RoundRect,0.249999X0.312501X0.625001X-0.312501X0.625001X-0.312501X-0.625001X0.312501X-0.625001X0*%
%ADD16RoundRect,0.249999X0.625001X-0.312501X0.625001X0.312501X-0.625001X0.312501X-0.625001X-0.312501X0*%
%ADD17R,0.900000X0.800000*%
%ADD18RoundRect,0.249999X-0.312501X-0.625001X0.312501X-0.625001X0.312501X0.625001X-0.312501X0.625001X0*%
%ADD19R,0.800000X0.900000*%
G04 APERTURE END LIST*
D10*
X142142000Y-88201500D03*
X139192000Y-88201500D03*
X142142000Y-93281500D03*
X139192000Y-93281500D03*
X142127000Y-95885000D03*
X139177000Y-95885000D03*
D11*
X138860000Y-61976000D03*
X141810000Y-61976000D03*
D12*
X147701000Y-88187000D03*
X147701000Y-91137000D03*
D13*
X139141000Y-85598000D03*
X142291000Y-85598000D03*
D14*
X147701000Y-93116000D03*
X147701000Y-96266000D03*
D11*
X138860000Y-59563000D03*
X141810000Y-59563000D03*
D15*
X142178500Y-109093000D03*
X139253500Y-109093000D03*
D16*
X132652000Y-96204500D03*
X132652000Y-93279500D03*
D17*
X132445000Y-103063000D03*
X132445000Y-104963000D03*
X130445000Y-104013000D03*
D18*
X137729500Y-118872000D03*
X140654500Y-118872000D03*
D16*
X144399000Y-121731500D03*
X144399000Y-118806500D03*
X144526000Y-130240500D03*
X144526000Y-127315500D03*
D18*
X137917500Y-130048000D03*
X140842500Y-130048000D03*
D16*
X144399000Y-143829500D03*
X144399000Y-140904500D03*
D18*
X137983500Y-140970000D03*
X140908500Y-140970000D03*
D19*
X145603000Y-134461000D03*
X143703000Y-134461000D03*
X144653000Y-132461000D03*
D16*
X131572000Y-68264500D03*
X131572000Y-65339500D03*
X131572000Y-82361500D03*
X131572000Y-79436500D03*
D18*
X130998500Y-109093000D03*
X133923500Y-109093000D03*
X130937500Y-112141000D03*
X133862500Y-112141000D03*
D16*
X131572000Y-126557500D03*
X131572000Y-123632500D03*
M02*
