%TF.GenerationSoftware,KiCad,Pcbnew,(6.0.0)*%
%TF.CreationDate,2022-01-21T00:33:54+01:00*%
%TF.ProjectId,LuciCameraLettoRoma,4c756369-4361-46d6-9572-614c6574746f,rev?*%
%TF.SameCoordinates,Original*%
%TF.FileFunction,Profile,NP*%
%FSLAX46Y46*%
G04 Gerber Fmt 4.6, Leading zero omitted, Abs format (unit mm)*
G04 Created by KiCad (PCBNEW (6.0.0)) date 2022-01-21 00:33:54*
%MOMM*%
%LPD*%
G01*
G04 APERTURE LIST*
%TA.AperFunction,Profile*%
%ADD10C,0.050000*%
%TD*%
G04 APERTURE END LIST*
D10*
X90170000Y-162941000D02*
X90170000Y-139954000D01*
X90170000Y-139954000D02*
X90170000Y-139954000D01*
X90170000Y-139954000D02*
X90170000Y-139954000D01*
X90170000Y-133350000D02*
X90170000Y-92202000D01*
X90170000Y-65151000D02*
X90168376Y-57859576D01*
X94943576Y-53084376D02*
G75*
G03*
X90168376Y-57859576I1J-4775201D01*
G01*
X152019000Y-167640000D02*
X94869000Y-167640000D01*
X152019000Y-167640000D02*
X152019000Y-167640000D01*
X98679000Y-92202000D02*
X90170000Y-92202000D01*
X94943576Y-53084376D02*
X152146000Y-53086000D01*
X90170000Y-162941000D02*
G75*
G03*
X94869000Y-167640000I4698999J-1D01*
G01*
X151003000Y-147701000D02*
X157480000Y-147701000D01*
X98679000Y-139954000D02*
X90170000Y-139954000D01*
X90170000Y-65151000D02*
X98679000Y-65151000D01*
X152019000Y-167640000D02*
G75*
G03*
X157480000Y-162179000I0J5461000D01*
G01*
X98679000Y-133350000D02*
X98679000Y-139954000D01*
X157480000Y-58420000D02*
G75*
G03*
X152146000Y-53086000I-5333999J1D01*
G01*
X157480000Y-147701000D02*
X157480000Y-162179000D01*
X157480000Y-58420000D02*
X157480000Y-136017000D01*
X157480000Y-58420000D02*
X157480000Y-58420000D01*
X98679000Y-65151000D02*
X98679000Y-92202000D01*
X157480000Y-136017000D02*
X151003000Y-136017000D01*
X90170000Y-133350000D02*
X98679000Y-133350000D01*
X151003000Y-136017000D02*
X151003000Y-147701000D01*
M02*
