G04 #@! TF.GenerationSoftware,KiCad,Pcbnew,(5.1.10)-1*
G04 #@! TF.CreationDate,2021-12-06T14:15:13+01:00*
G04 #@! TF.ProjectId,LuciCameraLettoRoma,4c756369-4361-46d6-9572-614c6574746f,rev?*
G04 #@! TF.SameCoordinates,Original*
G04 #@! TF.FileFunction,Legend,Bot*
G04 #@! TF.FilePolarity,Positive*
%FSLAX46Y46*%
G04 Gerber Fmt 4.6, Leading zero omitted, Abs format (unit mm)*
G04 Created by KiCad (PCBNEW (5.1.10)-1) date 2021-12-06 14:15:13*
%MOMM*%
%LPD*%
G01*
G04 APERTURE LIST*
%ADD10C,0.150000*%
%ADD11C,0.120000*%
%ADD12C,0.010000*%
%ADD13C,0.100000*%
%ADD14R,0.800000X0.900000*%
%ADD15C,7.000000*%
%ADD16C,0.800000*%
%ADD17O,1.700000X1.700000*%
%ADD18R,1.700000X1.700000*%
%ADD19O,1.500000X3.000000*%
%ADD20R,1.500000X3.000000*%
%ADD21O,3.600000X1.800000*%
%ADD22O,1.600000X1.600000*%
%ADD23R,1.600000X1.600000*%
%ADD24O,1.524000X2.000000*%
%ADD25R,1.524000X2.000000*%
%ADD26R,0.900000X0.800000*%
%ADD27O,2.000000X3.000000*%
%ADD28O,3.000000X2.000000*%
%ADD29R,3.000000X2.000000*%
%ADD30C,1.500000*%
%ADD31C,2.000000*%
G04 APERTURE END LIST*
D10*
X115021428Y-56475380D02*
X114688095Y-57475380D01*
X114354761Y-56475380D01*
X113640476Y-57427761D02*
X113735714Y-57475380D01*
X113926190Y-57475380D01*
X114021428Y-57427761D01*
X114069047Y-57332523D01*
X114069047Y-56951571D01*
X114021428Y-56856333D01*
X113926190Y-56808714D01*
X113735714Y-56808714D01*
X113640476Y-56856333D01*
X113592857Y-56951571D01*
X113592857Y-57046809D01*
X114069047Y-57142047D01*
X113164285Y-57475380D02*
X113164285Y-56808714D01*
X113164285Y-56999190D02*
X113116666Y-56903952D01*
X113069047Y-56856333D01*
X112973809Y-56808714D01*
X112878571Y-56808714D01*
X112545238Y-57380142D02*
X112497619Y-57427761D01*
X112545238Y-57475380D01*
X112592857Y-57427761D01*
X112545238Y-57380142D01*
X112545238Y-57475380D01*
X112116666Y-56570619D02*
X112069047Y-56523000D01*
X111973809Y-56475380D01*
X111735714Y-56475380D01*
X111640476Y-56523000D01*
X111592857Y-56570619D01*
X111545238Y-56665857D01*
X111545238Y-56761095D01*
X111592857Y-56903952D01*
X112164285Y-57475380D01*
X111545238Y-57475380D01*
X110926190Y-56475380D02*
X110830952Y-56475380D01*
X110735714Y-56523000D01*
X110688095Y-56570619D01*
X110640476Y-56665857D01*
X110592857Y-56856333D01*
X110592857Y-57094428D01*
X110640476Y-57284904D01*
X110688095Y-57380142D01*
X110735714Y-57427761D01*
X110830952Y-57475380D01*
X110926190Y-57475380D01*
X111021428Y-57427761D01*
X111069047Y-57380142D01*
X111116666Y-57284904D01*
X111164285Y-57094428D01*
X111164285Y-56856333D01*
X111116666Y-56665857D01*
X111069047Y-56570619D01*
X111021428Y-56523000D01*
X110926190Y-56475380D01*
X110211904Y-56570619D02*
X110164285Y-56523000D01*
X110069047Y-56475380D01*
X109830952Y-56475380D01*
X109735714Y-56523000D01*
X109688095Y-56570619D01*
X109640476Y-56665857D01*
X109640476Y-56761095D01*
X109688095Y-56903952D01*
X110259523Y-57475380D01*
X109640476Y-57475380D01*
X108688095Y-57475380D02*
X109259523Y-57475380D01*
X108973809Y-57475380D02*
X108973809Y-56475380D01*
X109069047Y-56618238D01*
X109164285Y-56713476D01*
X109259523Y-56761095D01*
X108259523Y-57094428D02*
X107497619Y-57094428D01*
X107021428Y-57475380D02*
X107021428Y-56475380D01*
X106783333Y-56475380D01*
X106640476Y-56523000D01*
X106545238Y-56618238D01*
X106497619Y-56713476D01*
X106450000Y-56903952D01*
X106450000Y-57046809D01*
X106497619Y-57237285D01*
X106545238Y-57332523D01*
X106640476Y-57427761D01*
X106783333Y-57475380D01*
X107021428Y-57475380D01*
X105640476Y-57427761D02*
X105735714Y-57475380D01*
X105926190Y-57475380D01*
X106021428Y-57427761D01*
X106069047Y-57332523D01*
X106069047Y-56951571D01*
X106021428Y-56856333D01*
X105926190Y-56808714D01*
X105735714Y-56808714D01*
X105640476Y-56856333D01*
X105592857Y-56951571D01*
X105592857Y-57046809D01*
X106069047Y-57142047D01*
X104735714Y-57427761D02*
X104830952Y-57475380D01*
X105021428Y-57475380D01*
X105116666Y-57427761D01*
X105164285Y-57380142D01*
X105211904Y-57284904D01*
X105211904Y-56999190D01*
X105164285Y-56903952D01*
X105116666Y-56856333D01*
X105021428Y-56808714D01*
X104830952Y-56808714D01*
X104735714Y-56856333D01*
X104307142Y-57094428D02*
X103545238Y-57094428D01*
X103069047Y-57475380D02*
X103069047Y-56808714D01*
X103069047Y-56999190D02*
X103021428Y-56903952D01*
X102973809Y-56856333D01*
X102878571Y-56808714D01*
X102783333Y-56808714D01*
X102259523Y-56475380D02*
X102164285Y-56475380D01*
X102069047Y-56523000D01*
X102021428Y-56570619D01*
X101973809Y-56665857D01*
X101926190Y-56856333D01*
X101926190Y-57094428D01*
X101973809Y-57284904D01*
X102021428Y-57380142D01*
X102069047Y-57427761D01*
X102164285Y-57475380D01*
X102259523Y-57475380D01*
X102354761Y-57427761D01*
X102402380Y-57380142D01*
X102450000Y-57284904D01*
X102497619Y-57094428D01*
X102497619Y-56856333D01*
X102450000Y-56665857D01*
X102402380Y-56570619D01*
X102354761Y-56523000D01*
X102259523Y-56475380D01*
X100973809Y-57475380D02*
X101545238Y-57475380D01*
X101259523Y-57475380D02*
X101259523Y-56475380D01*
X101354761Y-56618238D01*
X101450000Y-56713476D01*
X101545238Y-56761095D01*
X144008619Y-162520761D02*
X143865761Y-162568380D01*
X143627666Y-162568380D01*
X143532428Y-162520761D01*
X143484809Y-162473142D01*
X143437190Y-162377904D01*
X143437190Y-162282666D01*
X143484809Y-162187428D01*
X143532428Y-162139809D01*
X143627666Y-162092190D01*
X143818142Y-162044571D01*
X143913380Y-161996952D01*
X143961000Y-161949333D01*
X144008619Y-161854095D01*
X144008619Y-161758857D01*
X143961000Y-161663619D01*
X143913380Y-161616000D01*
X143818142Y-161568380D01*
X143580047Y-161568380D01*
X143437190Y-161616000D01*
X143008619Y-162568380D02*
X143008619Y-161901714D01*
X143008619Y-161568380D02*
X143056238Y-161616000D01*
X143008619Y-161663619D01*
X142961000Y-161616000D01*
X143008619Y-161568380D01*
X143008619Y-161663619D01*
X142580047Y-162520761D02*
X142484809Y-162568380D01*
X142294333Y-162568380D01*
X142199095Y-162520761D01*
X142151476Y-162425523D01*
X142151476Y-162377904D01*
X142199095Y-162282666D01*
X142294333Y-162235047D01*
X142437190Y-162235047D01*
X142532428Y-162187428D01*
X142580047Y-162092190D01*
X142580047Y-162044571D01*
X142532428Y-161949333D01*
X142437190Y-161901714D01*
X142294333Y-161901714D01*
X142199095Y-161949333D01*
X141865761Y-161901714D02*
X141484809Y-161901714D01*
X141722904Y-161568380D02*
X141722904Y-162425523D01*
X141675285Y-162520761D01*
X141580047Y-162568380D01*
X141484809Y-162568380D01*
X140770523Y-162520761D02*
X140865761Y-162568380D01*
X141056238Y-162568380D01*
X141151476Y-162520761D01*
X141199095Y-162425523D01*
X141199095Y-162044571D01*
X141151476Y-161949333D01*
X141056238Y-161901714D01*
X140865761Y-161901714D01*
X140770523Y-161949333D01*
X140722904Y-162044571D01*
X140722904Y-162139809D01*
X141199095Y-162235047D01*
X140294333Y-162568380D02*
X140294333Y-161901714D01*
X140294333Y-161996952D02*
X140246714Y-161949333D01*
X140151476Y-161901714D01*
X140008619Y-161901714D01*
X139913380Y-161949333D01*
X139865761Y-162044571D01*
X139865761Y-162568380D01*
X139865761Y-162044571D02*
X139818142Y-161949333D01*
X139722904Y-161901714D01*
X139580047Y-161901714D01*
X139484809Y-161949333D01*
X139437190Y-162044571D01*
X139437190Y-162568380D01*
X138532428Y-162568380D02*
X138532428Y-162044571D01*
X138580047Y-161949333D01*
X138675285Y-161901714D01*
X138865761Y-161901714D01*
X138961000Y-161949333D01*
X138532428Y-162520761D02*
X138627666Y-162568380D01*
X138865761Y-162568380D01*
X138961000Y-162520761D01*
X139008619Y-162425523D01*
X139008619Y-162330285D01*
X138961000Y-162235047D01*
X138865761Y-162187428D01*
X138627666Y-162187428D01*
X138532428Y-162139809D01*
X136865761Y-162568380D02*
X136865761Y-161568380D01*
X136865761Y-162520761D02*
X136961000Y-162568380D01*
X137151476Y-162568380D01*
X137246714Y-162520761D01*
X137294333Y-162473142D01*
X137341952Y-162377904D01*
X137341952Y-162092190D01*
X137294333Y-161996952D01*
X137246714Y-161949333D01*
X137151476Y-161901714D01*
X136961000Y-161901714D01*
X136865761Y-161949333D01*
X136389571Y-162568380D02*
X136389571Y-161901714D01*
X136389571Y-161568380D02*
X136437190Y-161616000D01*
X136389571Y-161663619D01*
X136341952Y-161616000D01*
X136389571Y-161568380D01*
X136389571Y-161663619D01*
X134722904Y-161901714D02*
X134722904Y-162711238D01*
X134770523Y-162806476D01*
X134818142Y-162854095D01*
X134913380Y-162901714D01*
X135056238Y-162901714D01*
X135151476Y-162854095D01*
X134722904Y-162520761D02*
X134818142Y-162568380D01*
X135008619Y-162568380D01*
X135103857Y-162520761D01*
X135151476Y-162473142D01*
X135199095Y-162377904D01*
X135199095Y-162092190D01*
X135151476Y-161996952D01*
X135103857Y-161949333D01*
X135008619Y-161901714D01*
X134818142Y-161901714D01*
X134722904Y-161949333D01*
X133865761Y-162520761D02*
X133961000Y-162568380D01*
X134151476Y-162568380D01*
X134246714Y-162520761D01*
X134294333Y-162425523D01*
X134294333Y-162044571D01*
X134246714Y-161949333D01*
X134151476Y-161901714D01*
X133961000Y-161901714D01*
X133865761Y-161949333D01*
X133818142Y-162044571D01*
X133818142Y-162139809D01*
X134294333Y-162235047D01*
X133437190Y-162520761D02*
X133341952Y-162568380D01*
X133151476Y-162568380D01*
X133056238Y-162520761D01*
X133008619Y-162425523D01*
X133008619Y-162377904D01*
X133056238Y-162282666D01*
X133151476Y-162235047D01*
X133294333Y-162235047D01*
X133389571Y-162187428D01*
X133437190Y-162092190D01*
X133437190Y-162044571D01*
X133389571Y-161949333D01*
X133294333Y-161901714D01*
X133151476Y-161901714D01*
X133056238Y-161949333D01*
X132722904Y-161901714D02*
X132341952Y-161901714D01*
X132580047Y-161568380D02*
X132580047Y-162425523D01*
X132532428Y-162520761D01*
X132437190Y-162568380D01*
X132341952Y-162568380D01*
X132008619Y-162568380D02*
X132008619Y-161901714D01*
X132008619Y-161568380D02*
X132056238Y-161616000D01*
X132008619Y-161663619D01*
X131961000Y-161616000D01*
X132008619Y-161568380D01*
X132008619Y-161663619D01*
X131389571Y-162568380D02*
X131484809Y-162520761D01*
X131532428Y-162473142D01*
X131580047Y-162377904D01*
X131580047Y-162092190D01*
X131532428Y-161996952D01*
X131484809Y-161949333D01*
X131389571Y-161901714D01*
X131246714Y-161901714D01*
X131151476Y-161949333D01*
X131103857Y-161996952D01*
X131056238Y-162092190D01*
X131056238Y-162377904D01*
X131103857Y-162473142D01*
X131151476Y-162520761D01*
X131246714Y-162568380D01*
X131389571Y-162568380D01*
X130627666Y-161901714D02*
X130627666Y-162568380D01*
X130627666Y-161996952D02*
X130580047Y-161949333D01*
X130484809Y-161901714D01*
X130341952Y-161901714D01*
X130246714Y-161949333D01*
X130199095Y-162044571D01*
X130199095Y-162568380D01*
X129341952Y-162520761D02*
X129437190Y-162568380D01*
X129627666Y-162568380D01*
X129722904Y-162520761D01*
X129770523Y-162425523D01*
X129770523Y-162044571D01*
X129722904Y-161949333D01*
X129627666Y-161901714D01*
X129437190Y-161901714D01*
X129341952Y-161949333D01*
X129294333Y-162044571D01*
X129294333Y-162139809D01*
X129770523Y-162235047D01*
X127675285Y-162568380D02*
X127675285Y-161568380D01*
X127675285Y-162520761D02*
X127770523Y-162568380D01*
X127961000Y-162568380D01*
X128056238Y-162520761D01*
X128103857Y-162473142D01*
X128151476Y-162377904D01*
X128151476Y-162092190D01*
X128103857Y-161996952D01*
X128056238Y-161949333D01*
X127961000Y-161901714D01*
X127770523Y-161901714D01*
X127675285Y-161949333D01*
X127199095Y-162568380D02*
X127199095Y-161901714D01*
X127199095Y-161568380D02*
X127246714Y-161616000D01*
X127199095Y-161663619D01*
X127151476Y-161616000D01*
X127199095Y-161568380D01*
X127199095Y-161663619D01*
X125484809Y-161568380D02*
X125961000Y-161568380D01*
X126008619Y-162044571D01*
X125961000Y-161996952D01*
X125865761Y-161949333D01*
X125627666Y-161949333D01*
X125532428Y-161996952D01*
X125484809Y-162044571D01*
X125437190Y-162139809D01*
X125437190Y-162377904D01*
X125484809Y-162473142D01*
X125532428Y-162520761D01*
X125627666Y-162568380D01*
X125865761Y-162568380D01*
X125961000Y-162520761D01*
X126008619Y-162473142D01*
X124246714Y-161901714D02*
X124246714Y-162901714D01*
X124246714Y-161949333D02*
X124151476Y-161901714D01*
X123961000Y-161901714D01*
X123865761Y-161949333D01*
X123818142Y-161996952D01*
X123770523Y-162092190D01*
X123770523Y-162377904D01*
X123818142Y-162473142D01*
X123865761Y-162520761D01*
X123961000Y-162568380D01*
X124151476Y-162568380D01*
X124246714Y-162520761D01*
X122913380Y-161901714D02*
X122913380Y-162568380D01*
X123341952Y-161901714D02*
X123341952Y-162425523D01*
X123294333Y-162520761D01*
X123199095Y-162568380D01*
X123056238Y-162568380D01*
X122961000Y-162520761D01*
X122913380Y-162473142D01*
X122437190Y-161901714D02*
X122437190Y-162568380D01*
X122437190Y-161996952D02*
X122389571Y-161949333D01*
X122294333Y-161901714D01*
X122151476Y-161901714D01*
X122056238Y-161949333D01*
X122008619Y-162044571D01*
X122008619Y-162568380D01*
X121675285Y-161901714D02*
X121294333Y-161901714D01*
X121532428Y-161568380D02*
X121532428Y-162425523D01*
X121484809Y-162520761D01*
X121389571Y-162568380D01*
X121294333Y-162568380D01*
X120961000Y-162568380D02*
X120961000Y-161901714D01*
X120961000Y-161568380D02*
X121008619Y-161616000D01*
X120961000Y-161663619D01*
X120913380Y-161616000D01*
X120961000Y-161568380D01*
X120961000Y-161663619D01*
X140937190Y-164218380D02*
X141032428Y-164170761D01*
X141080047Y-164075523D01*
X141080047Y-163218380D01*
X140127666Y-163551714D02*
X140127666Y-164218380D01*
X140556238Y-163551714D02*
X140556238Y-164075523D01*
X140508619Y-164170761D01*
X140413380Y-164218380D01*
X140270523Y-164218380D01*
X140175285Y-164170761D01*
X140127666Y-164123142D01*
X139222904Y-164170761D02*
X139318142Y-164218380D01*
X139508619Y-164218380D01*
X139603857Y-164170761D01*
X139651476Y-164123142D01*
X139699095Y-164027904D01*
X139699095Y-163742190D01*
X139651476Y-163646952D01*
X139603857Y-163599333D01*
X139508619Y-163551714D01*
X139318142Y-163551714D01*
X139222904Y-163599333D01*
X138413380Y-164170761D02*
X138508619Y-164218380D01*
X138699095Y-164218380D01*
X138794333Y-164170761D01*
X138841952Y-164075523D01*
X138841952Y-163694571D01*
X138794333Y-163599333D01*
X138699095Y-163551714D01*
X138508619Y-163551714D01*
X138413380Y-163599333D01*
X138365761Y-163694571D01*
X138365761Y-163789809D01*
X138841952Y-163885047D01*
X137318142Y-163551714D02*
X136937190Y-163551714D01*
X137175285Y-163218380D02*
X137175285Y-164075523D01*
X137127666Y-164170761D01*
X137032428Y-164218380D01*
X136937190Y-164218380D01*
X136603857Y-164218380D02*
X136603857Y-163551714D01*
X136603857Y-163742190D02*
X136556238Y-163646952D01*
X136508619Y-163599333D01*
X136413380Y-163551714D01*
X136318142Y-163551714D01*
X135556238Y-164218380D02*
X135556238Y-163694571D01*
X135603857Y-163599333D01*
X135699095Y-163551714D01*
X135889571Y-163551714D01*
X135984809Y-163599333D01*
X135556238Y-164170761D02*
X135651476Y-164218380D01*
X135889571Y-164218380D01*
X135984809Y-164170761D01*
X136032428Y-164075523D01*
X136032428Y-163980285D01*
X135984809Y-163885047D01*
X135889571Y-163837428D01*
X135651476Y-163837428D01*
X135556238Y-163789809D01*
X135080047Y-164218380D02*
X135080047Y-163551714D01*
X135080047Y-163646952D02*
X135032428Y-163599333D01*
X134937190Y-163551714D01*
X134794333Y-163551714D01*
X134699095Y-163599333D01*
X134651476Y-163694571D01*
X134651476Y-164218380D01*
X134651476Y-163694571D02*
X134603857Y-163599333D01*
X134508619Y-163551714D01*
X134365761Y-163551714D01*
X134270523Y-163599333D01*
X134222904Y-163694571D01*
X134222904Y-164218380D01*
X133746714Y-164218380D02*
X133746714Y-163551714D01*
X133746714Y-163218380D02*
X133794333Y-163266000D01*
X133746714Y-163313619D01*
X133699095Y-163266000D01*
X133746714Y-163218380D01*
X133746714Y-163313619D01*
X133413380Y-163551714D02*
X133032428Y-163551714D01*
X133270523Y-163218380D02*
X133270523Y-164075523D01*
X133222904Y-164170761D01*
X133127666Y-164218380D01*
X133032428Y-164218380D01*
X132318142Y-164170761D02*
X132413380Y-164218380D01*
X132603857Y-164218380D01*
X132699095Y-164170761D01*
X132746714Y-164075523D01*
X132746714Y-163694571D01*
X132699095Y-163599333D01*
X132603857Y-163551714D01*
X132413380Y-163551714D01*
X132318142Y-163599333D01*
X132270523Y-163694571D01*
X132270523Y-163789809D01*
X132746714Y-163885047D01*
X131175285Y-163218380D02*
X130556238Y-163218380D01*
X130889571Y-163599333D01*
X130746714Y-163599333D01*
X130651476Y-163646952D01*
X130603857Y-163694571D01*
X130556238Y-163789809D01*
X130556238Y-164027904D01*
X130603857Y-164123142D01*
X130651476Y-164170761D01*
X130746714Y-164218380D01*
X131032428Y-164218380D01*
X131127666Y-164170761D01*
X131175285Y-164123142D01*
X129365761Y-163551714D02*
X129365761Y-164551714D01*
X129365761Y-163599333D02*
X129270523Y-163551714D01*
X129080047Y-163551714D01*
X128984809Y-163599333D01*
X128937190Y-163646952D01*
X128889571Y-163742190D01*
X128889571Y-164027904D01*
X128937190Y-164123142D01*
X128984809Y-164170761D01*
X129080047Y-164218380D01*
X129270523Y-164218380D01*
X129365761Y-164170761D01*
X128032428Y-163551714D02*
X128032428Y-164218380D01*
X128461000Y-163551714D02*
X128461000Y-164075523D01*
X128413380Y-164170761D01*
X128318142Y-164218380D01*
X128175285Y-164218380D01*
X128080047Y-164170761D01*
X128032428Y-164123142D01*
X127413380Y-164218380D02*
X127508619Y-164170761D01*
X127556238Y-164075523D01*
X127556238Y-163218380D01*
X127080047Y-164170761D02*
X126984809Y-164218380D01*
X126794333Y-164218380D01*
X126699095Y-164170761D01*
X126651476Y-164075523D01*
X126651476Y-164027904D01*
X126699095Y-163932666D01*
X126794333Y-163885047D01*
X126937190Y-163885047D01*
X127032428Y-163837428D01*
X127080047Y-163742190D01*
X127080047Y-163694571D01*
X127032428Y-163599333D01*
X126937190Y-163551714D01*
X126794333Y-163551714D01*
X126699095Y-163599333D01*
X125794333Y-164218380D02*
X125794333Y-163694571D01*
X125841952Y-163599333D01*
X125937190Y-163551714D01*
X126127666Y-163551714D01*
X126222904Y-163599333D01*
X125794333Y-164170761D02*
X125889571Y-164218380D01*
X126127666Y-164218380D01*
X126222904Y-164170761D01*
X126270523Y-164075523D01*
X126270523Y-163980285D01*
X126222904Y-163885047D01*
X126127666Y-163837428D01*
X125889571Y-163837428D01*
X125794333Y-163789809D01*
X125318142Y-163551714D02*
X125318142Y-164218380D01*
X125318142Y-163646952D02*
X125270523Y-163599333D01*
X125175285Y-163551714D01*
X125032428Y-163551714D01*
X124937190Y-163599333D01*
X124889571Y-163694571D01*
X124889571Y-164218380D01*
X124556238Y-163551714D02*
X124175285Y-163551714D01*
X124413380Y-163218380D02*
X124413380Y-164075523D01*
X124365761Y-164170761D01*
X124270523Y-164218380D01*
X124175285Y-164218380D01*
X123841952Y-164218380D02*
X123841952Y-163551714D01*
X123841952Y-163218380D02*
X123889571Y-163266000D01*
X123841952Y-163313619D01*
X123794333Y-163266000D01*
X123841952Y-163218380D01*
X123841952Y-163313619D01*
X131381047Y-146137761D02*
X131238190Y-146185380D01*
X131000095Y-146185380D01*
X130904857Y-146137761D01*
X130857238Y-146090142D01*
X130809619Y-145994904D01*
X130809619Y-145899666D01*
X130857238Y-145804428D01*
X130904857Y-145756809D01*
X131000095Y-145709190D01*
X131190571Y-145661571D01*
X131285809Y-145613952D01*
X131333428Y-145566333D01*
X131381047Y-145471095D01*
X131381047Y-145375857D01*
X131333428Y-145280619D01*
X131285809Y-145233000D01*
X131190571Y-145185380D01*
X130952476Y-145185380D01*
X130809619Y-145233000D01*
X129952476Y-146185380D02*
X129952476Y-145661571D01*
X130000095Y-145566333D01*
X130095333Y-145518714D01*
X130285809Y-145518714D01*
X130381047Y-145566333D01*
X129952476Y-146137761D02*
X130047714Y-146185380D01*
X130285809Y-146185380D01*
X130381047Y-146137761D01*
X130428666Y-146042523D01*
X130428666Y-145947285D01*
X130381047Y-145852047D01*
X130285809Y-145804428D01*
X130047714Y-145804428D01*
X129952476Y-145756809D01*
X129000095Y-146185380D02*
X129476285Y-146185380D01*
X129476285Y-145185380D01*
X128285809Y-146137761D02*
X128381047Y-146185380D01*
X128571523Y-146185380D01*
X128666761Y-146137761D01*
X128714380Y-146042523D01*
X128714380Y-145661571D01*
X128666761Y-145566333D01*
X128571523Y-145518714D01*
X128381047Y-145518714D01*
X128285809Y-145566333D01*
X128238190Y-145661571D01*
X128238190Y-145756809D01*
X128714380Y-145852047D01*
X127190571Y-145518714D02*
X126809619Y-145518714D01*
X127047714Y-146185380D02*
X127047714Y-145328238D01*
X127000095Y-145233000D01*
X126904857Y-145185380D01*
X126809619Y-145185380D01*
X126095333Y-146137761D02*
X126190571Y-146185380D01*
X126381047Y-146185380D01*
X126476285Y-146137761D01*
X126523904Y-146042523D01*
X126523904Y-145661571D01*
X126476285Y-145566333D01*
X126381047Y-145518714D01*
X126190571Y-145518714D01*
X126095333Y-145566333D01*
X126047714Y-145661571D01*
X126047714Y-145756809D01*
X126523904Y-145852047D01*
X125190571Y-146137761D02*
X125285809Y-146185380D01*
X125476285Y-146185380D01*
X125571523Y-146137761D01*
X125619142Y-146090142D01*
X125666761Y-145994904D01*
X125666761Y-145709190D01*
X125619142Y-145613952D01*
X125571523Y-145566333D01*
X125476285Y-145518714D01*
X125285809Y-145518714D01*
X125190571Y-145566333D01*
X124762000Y-146185380D02*
X124762000Y-145518714D01*
X124762000Y-145185380D02*
X124809619Y-145233000D01*
X124762000Y-145280619D01*
X124714380Y-145233000D01*
X124762000Y-145185380D01*
X124762000Y-145280619D01*
X124428666Y-145518714D02*
X124047714Y-145518714D01*
X124285809Y-145185380D02*
X124285809Y-146042523D01*
X124238190Y-146137761D01*
X124142952Y-146185380D01*
X124047714Y-146185380D01*
X129476285Y-146930619D02*
X129428666Y-146883000D01*
X129333428Y-146835380D01*
X129095333Y-146835380D01*
X129000095Y-146883000D01*
X128952476Y-146930619D01*
X128904857Y-147025857D01*
X128904857Y-147121095D01*
X128952476Y-147263952D01*
X129523904Y-147835380D01*
X128904857Y-147835380D01*
X128285809Y-146835380D02*
X128190571Y-146835380D01*
X128095333Y-146883000D01*
X128047714Y-146930619D01*
X128000095Y-147025857D01*
X127952476Y-147216333D01*
X127952476Y-147454428D01*
X128000095Y-147644904D01*
X128047714Y-147740142D01*
X128095333Y-147787761D01*
X128190571Y-147835380D01*
X128285809Y-147835380D01*
X128381047Y-147787761D01*
X128428666Y-147740142D01*
X128476285Y-147644904D01*
X128523904Y-147454428D01*
X128523904Y-147216333D01*
X128476285Y-147025857D01*
X128428666Y-146930619D01*
X128381047Y-146883000D01*
X128285809Y-146835380D01*
X127571523Y-146930619D02*
X127523904Y-146883000D01*
X127428666Y-146835380D01*
X127190571Y-146835380D01*
X127095333Y-146883000D01*
X127047714Y-146930619D01*
X127000095Y-147025857D01*
X127000095Y-147121095D01*
X127047714Y-147263952D01*
X127619142Y-147835380D01*
X127000095Y-147835380D01*
X126047714Y-147835380D02*
X126619142Y-147835380D01*
X126333428Y-147835380D02*
X126333428Y-146835380D01*
X126428666Y-146978238D01*
X126523904Y-147073476D01*
X126619142Y-147121095D01*
D11*
X146360000Y-115076000D02*
X146360000Y-113616000D01*
X143200000Y-115076000D02*
X143200000Y-112916000D01*
X143200000Y-115076000D02*
X144130000Y-115076000D01*
X146360000Y-115076000D02*
X145430000Y-115076000D01*
X143073000Y-132701000D02*
X143073000Y-134161000D01*
X146233000Y-132701000D02*
X146233000Y-134861000D01*
X146233000Y-132701000D02*
X145303000Y-132701000D01*
X143073000Y-132701000D02*
X144003000Y-132701000D01*
D12*
G36*
X115477570Y-54341848D02*
G01*
X115478189Y-54428931D01*
X115929914Y-54887891D01*
X116381639Y-55346852D01*
X116381968Y-55557471D01*
X116382297Y-55768089D01*
X116657390Y-55768089D01*
X116664478Y-55821530D01*
X116667162Y-55845888D01*
X116671687Y-55891759D01*
X116677809Y-55956405D01*
X116685288Y-56037091D01*
X116693881Y-56131081D01*
X116703346Y-56235637D01*
X116713442Y-56348025D01*
X116723926Y-56465507D01*
X116734556Y-56585348D01*
X116745091Y-56704811D01*
X116755287Y-56821159D01*
X116764905Y-56931657D01*
X116773700Y-57033569D01*
X116781432Y-57124158D01*
X116787858Y-57200687D01*
X116792737Y-57260421D01*
X116795825Y-57300624D01*
X116796883Y-57318559D01*
X116796882Y-57318644D01*
X116789173Y-57333035D01*
X116766019Y-57362748D01*
X116727105Y-57408131D01*
X116672116Y-57469529D01*
X116600736Y-57547288D01*
X116512651Y-57641754D01*
X116407546Y-57753272D01*
X116285105Y-57882188D01*
X116250690Y-57918287D01*
X115704863Y-58490416D01*
X115793119Y-58578436D01*
X115864515Y-58500758D01*
X115890634Y-58472686D01*
X115931434Y-58429274D01*
X115984223Y-58373366D01*
X116046309Y-58307808D01*
X116115000Y-58235441D01*
X116187604Y-58159112D01*
X116231040Y-58113524D01*
X116312584Y-58028119D01*
X116378496Y-57959710D01*
X116430456Y-57907053D01*
X116470145Y-57868905D01*
X116499243Y-57844020D01*
X116519431Y-57831156D01*
X116532390Y-57829068D01*
X116539800Y-57836513D01*
X116543342Y-57852246D01*
X116544697Y-57875023D01*
X116544879Y-57881239D01*
X116554297Y-57924061D01*
X116577503Y-57975819D01*
X116609864Y-58028328D01*
X116646748Y-58073403D01*
X116661507Y-58087328D01*
X116737233Y-58136047D01*
X116825692Y-58163306D01*
X116903900Y-58169773D01*
X116992532Y-58157576D01*
X117074388Y-58121813D01*
X117146836Y-58063722D01*
X117160203Y-58049262D01*
X117209082Y-57993733D01*
X118054674Y-57993733D01*
X118054674Y-58169773D01*
X118281010Y-58169773D01*
X118281010Y-58087531D01*
X118283850Y-58031386D01*
X118293393Y-57992416D01*
X118304991Y-57971219D01*
X118313277Y-57956052D01*
X118320373Y-57934062D01*
X118326748Y-57901987D01*
X118332872Y-57856569D01*
X118339216Y-57794548D01*
X118346250Y-57712662D01*
X118351066Y-57651746D01*
X118373161Y-57366343D01*
X118915565Y-57915805D01*
X119013637Y-58015228D01*
X119107784Y-58110815D01*
X119196285Y-58200810D01*
X119277420Y-58283457D01*
X119349469Y-58357001D01*
X119410712Y-58419684D01*
X119459427Y-58469752D01*
X119493896Y-58505448D01*
X119512379Y-58524995D01*
X119542743Y-58555944D01*
X119568071Y-58577530D01*
X119581695Y-58584723D01*
X119599095Y-58576297D01*
X119624460Y-58555245D01*
X119633058Y-58546671D01*
X119669514Y-58508620D01*
X119468802Y-58304658D01*
X119417596Y-58252699D01*
X119351569Y-58185820D01*
X119273618Y-58106950D01*
X119186638Y-58019014D01*
X119093526Y-57924941D01*
X118997179Y-57827658D01*
X118900492Y-57730093D01*
X118831134Y-57660145D01*
X118725703Y-57553550D01*
X118637129Y-57463307D01*
X118564281Y-57388192D01*
X118506023Y-57326986D01*
X118461225Y-57278466D01*
X118439021Y-57253129D01*
X118260724Y-57253129D01*
X118238401Y-57538555D01*
X118231669Y-57622219D01*
X118225157Y-57698727D01*
X118219234Y-57764081D01*
X118214268Y-57814281D01*
X118210629Y-57845329D01*
X118209458Y-57852273D01*
X118202838Y-57880565D01*
X117253364Y-57880565D01*
X117247026Y-57801606D01*
X117227890Y-57708315D01*
X117187846Y-57625791D01*
X117129418Y-57557038D01*
X117055129Y-57505063D01*
X116971748Y-57473863D01*
X116944698Y-57459228D01*
X116931156Y-57427819D01*
X116930872Y-57426434D01*
X116929247Y-57413174D01*
X116931256Y-57399595D01*
X116938858Y-57383181D01*
X116954016Y-57361411D01*
X116978688Y-57331767D01*
X117014836Y-57291732D01*
X117064420Y-57238785D01*
X117129401Y-57170409D01*
X117133599Y-57166005D01*
X117203493Y-57092611D01*
X117277800Y-57014437D01*
X117351414Y-56936864D01*
X117419229Y-56865275D01*
X117476140Y-56805051D01*
X117488832Y-56791587D01*
X117537487Y-56740820D01*
X117580709Y-56697375D01*
X117615395Y-56664241D01*
X117638444Y-56644405D01*
X117646182Y-56640046D01*
X117657722Y-56649170D01*
X117684710Y-56674200D01*
X117725021Y-56713052D01*
X117776529Y-56763643D01*
X117837109Y-56823888D01*
X117904636Y-56891704D01*
X117959826Y-56947565D01*
X118260724Y-57253129D01*
X118439021Y-57253129D01*
X118428751Y-57241411D01*
X118407471Y-57214599D01*
X118396251Y-57196808D01*
X118393754Y-57188570D01*
X118394700Y-57170590D01*
X118397573Y-57129892D01*
X118402187Y-57068819D01*
X118408358Y-56989713D01*
X118415898Y-56894914D01*
X118424621Y-56786767D01*
X118434343Y-56667612D01*
X118444876Y-56539791D01*
X118453365Y-56437635D01*
X118501396Y-55861674D01*
X118377805Y-55861674D01*
X118377273Y-55874104D01*
X118374769Y-55909110D01*
X118370496Y-55964215D01*
X118364653Y-56036943D01*
X118357443Y-56124814D01*
X118349066Y-56225351D01*
X118339723Y-56336077D01*
X118330758Y-56441205D01*
X118320602Y-56560483D01*
X118311142Y-56673080D01*
X118302596Y-56776305D01*
X118295179Y-56867473D01*
X118289108Y-56943895D01*
X118284601Y-57002883D01*
X118281873Y-57041749D01*
X118281116Y-57056844D01*
X118279935Y-57066238D01*
X118275256Y-57069966D01*
X118265276Y-57066471D01*
X118248190Y-57054199D01*
X118222196Y-57031594D01*
X118185490Y-56997100D01*
X118136267Y-56949162D01*
X118072726Y-56886224D01*
X118005305Y-56818968D01*
X117729601Y-56543477D01*
X117731533Y-56541406D01*
X117549290Y-56541406D01*
X117540984Y-56552780D01*
X117517733Y-56579563D01*
X117481865Y-56619292D01*
X117435713Y-56669507D01*
X117381606Y-56727746D01*
X117321874Y-56791547D01*
X117258848Y-56858449D01*
X117194858Y-56925990D01*
X117132236Y-56991710D01*
X117073310Y-57053146D01*
X117020412Y-57107837D01*
X116975872Y-57153322D01*
X116942020Y-57187138D01*
X116921188Y-57206826D01*
X116915506Y-57210837D01*
X116913634Y-57197891D01*
X116909746Y-57162134D01*
X116904057Y-57105804D01*
X116896781Y-57031140D01*
X116888131Y-56940380D01*
X116878322Y-56835762D01*
X116867566Y-56719526D01*
X116856079Y-56593908D01*
X116846907Y-56492618D01*
X116835174Y-56361279D01*
X116824335Y-56237552D01*
X116814570Y-56123681D01*
X116806063Y-56021911D01*
X116798995Y-55934487D01*
X116793549Y-55863653D01*
X116789908Y-55811653D01*
X116788253Y-55780732D01*
X116788442Y-55772703D01*
X116798334Y-55779854D01*
X116823524Y-55802841D01*
X116861810Y-55839439D01*
X116910989Y-55887422D01*
X116968861Y-55944566D01*
X117033222Y-56008647D01*
X117101871Y-56077438D01*
X117172605Y-56148716D01*
X117243222Y-56220255D01*
X117311520Y-56289830D01*
X117375296Y-56355217D01*
X117432350Y-56414191D01*
X117480478Y-56464527D01*
X117517478Y-56503999D01*
X117541148Y-56530383D01*
X117549290Y-56541406D01*
X117731533Y-56541406D01*
X117832409Y-56433295D01*
X117884768Y-56377377D01*
X117943535Y-56314948D01*
X118006385Y-56248443D01*
X118070995Y-56180298D01*
X118135042Y-56112948D01*
X118196203Y-56048828D01*
X118252153Y-55990372D01*
X118300570Y-55940018D01*
X118339130Y-55900198D01*
X118365509Y-55873350D01*
X118377384Y-55861908D01*
X118377805Y-55861674D01*
X118501396Y-55861674D01*
X118513401Y-55717726D01*
X119113938Y-55086158D01*
X119714475Y-54454589D01*
X119714034Y-54366315D01*
X119713592Y-54278040D01*
X119616583Y-54381666D01*
X119562291Y-54439463D01*
X119498192Y-54507368D01*
X119426016Y-54583572D01*
X119347492Y-54666269D01*
X119264349Y-54753653D01*
X119178319Y-54843915D01*
X119091130Y-54935250D01*
X119004513Y-55025849D01*
X118920197Y-55113907D01*
X118839912Y-55197615D01*
X118765387Y-55275167D01*
X118698354Y-55344757D01*
X118640541Y-55404576D01*
X118593679Y-55452818D01*
X118559496Y-55487676D01*
X118539724Y-55507343D01*
X118535390Y-55511116D01*
X118535092Y-55497992D01*
X118536731Y-55464389D01*
X118540023Y-55414880D01*
X118544682Y-55354037D01*
X118546682Y-55329732D01*
X118561577Y-55151951D01*
X118444955Y-55151951D01*
X118438934Y-55180243D01*
X118435863Y-55202618D01*
X118431548Y-55244717D01*
X118426488Y-55301178D01*
X118421181Y-55366635D01*
X118419344Y-55390862D01*
X118413927Y-55460421D01*
X118408459Y-55525018D01*
X118403488Y-55578548D01*
X118399561Y-55614910D01*
X118398675Y-55621509D01*
X118395334Y-55635056D01*
X118388101Y-55650914D01*
X118375440Y-55670861D01*
X118355811Y-55696673D01*
X118327678Y-55730129D01*
X118289502Y-55773007D01*
X118239746Y-55827083D01*
X118176871Y-55894136D01*
X118099341Y-55975943D01*
X118020251Y-56058950D01*
X117941564Y-56141094D01*
X117868112Y-56217169D01*
X117801724Y-56285325D01*
X117744227Y-56343712D01*
X117697451Y-56390481D01*
X117663224Y-56423782D01*
X117643373Y-56441767D01*
X117639140Y-56444442D01*
X117628003Y-56434741D01*
X117601971Y-56409441D01*
X117563570Y-56371082D01*
X117515328Y-56322200D01*
X117459770Y-56265334D01*
X117419592Y-56223906D01*
X117209831Y-56007000D01*
X117828337Y-56007000D01*
X117828337Y-55768089D01*
X117073881Y-55768089D01*
X117073881Y-55874542D01*
X116935565Y-55736654D01*
X116837447Y-55638840D01*
X116646357Y-55638840D01*
X116644529Y-55654270D01*
X116635277Y-55662867D01*
X116612950Y-55666613D01*
X116571895Y-55667489D01*
X116564624Y-55667495D01*
X116482891Y-55667495D01*
X116482891Y-55448172D01*
X116564624Y-55529179D01*
X116610730Y-55578428D01*
X116638306Y-55616159D01*
X116646357Y-55638840D01*
X116837447Y-55638840D01*
X116797248Y-55598766D01*
X116797248Y-55475952D01*
X116796863Y-55419450D01*
X116795100Y-55383505D01*
X116791050Y-55363530D01*
X116783801Y-55354937D01*
X116772870Y-55353139D01*
X116760712Y-55350498D01*
X116751727Y-55339912D01*
X116744826Y-55317381D01*
X116738924Y-55278909D01*
X116732935Y-55220498D01*
X116731013Y-55199104D01*
X116726852Y-55151951D01*
X118444955Y-55151951D01*
X118561577Y-55151951D01*
X118721109Y-55151951D01*
X118721109Y-55038782D01*
X118653314Y-55038782D01*
X118613662Y-55037696D01*
X118592116Y-55032454D01*
X118589480Y-55029334D01*
X118450616Y-55029334D01*
X118443308Y-55036462D01*
X118417993Y-55038662D01*
X118400908Y-55038782D01*
X118343881Y-55038782D01*
X118131221Y-55038782D01*
X116716698Y-55038782D01*
X116764542Y-54989786D01*
X116838850Y-54929324D01*
X116930816Y-54882691D01*
X117041998Y-54849249D01*
X117152471Y-54830753D01*
X117224773Y-54822122D01*
X117224773Y-54913040D01*
X117803188Y-54913040D01*
X117803188Y-54809893D01*
X117888065Y-54818496D01*
X117947368Y-54825756D01*
X118010551Y-54835379D01*
X118048386Y-54842252D01*
X118123832Y-54857407D01*
X118127526Y-54948095D01*
X118131221Y-55038782D01*
X118343881Y-55038782D01*
X118343881Y-54988485D01*
X118345544Y-54956976D01*
X118349697Y-54939463D01*
X118351371Y-54938188D01*
X118369987Y-54946254D01*
X118397183Y-54965820D01*
X118424448Y-54989944D01*
X118443267Y-55011682D01*
X118444943Y-55014508D01*
X118450616Y-55029334D01*
X118589480Y-55029334D01*
X118581662Y-55020081D01*
X118577442Y-55006604D01*
X118560219Y-54971627D01*
X118527138Y-54929579D01*
X118483893Y-54886356D01*
X118436174Y-54847854D01*
X118404830Y-54827801D01*
X118369123Y-54805851D01*
X118350819Y-54787411D01*
X118344388Y-54765668D01*
X118343894Y-54752718D01*
X118343894Y-54749575D01*
X117702594Y-54749575D01*
X117702594Y-54812446D01*
X117325367Y-54812446D01*
X117325367Y-54749575D01*
X117702594Y-54749575D01*
X118343894Y-54749575D01*
X118343881Y-54711852D01*
X118238048Y-54711852D01*
X118189355Y-54713029D01*
X118151405Y-54716165D01*
X118130308Y-54720671D01*
X118128023Y-54722495D01*
X118114641Y-54725295D01*
X118082074Y-54724148D01*
X118035916Y-54719393D01*
X118004376Y-54715003D01*
X117947188Y-54706378D01*
X117894886Y-54698591D01*
X117855582Y-54692847D01*
X117844055Y-54691215D01*
X117813937Y-54681888D01*
X117803188Y-54667272D01*
X117799920Y-54661320D01*
X117788230Y-54656778D01*
X117765288Y-54653470D01*
X117728265Y-54651215D01*
X117674332Y-54649834D01*
X117600660Y-54649150D01*
X117513980Y-54648980D01*
X117421471Y-54649077D01*
X117351094Y-54649530D01*
X117299836Y-54650590D01*
X117264680Y-54652503D01*
X117242611Y-54655519D01*
X117230615Y-54659885D01*
X117225676Y-54665849D01*
X117224773Y-54672784D01*
X117217079Y-54694795D01*
X117191879Y-54707321D01*
X117145991Y-54711788D01*
X117137736Y-54711852D01*
X117060027Y-54719868D01*
X116971767Y-54741936D01*
X116880915Y-54775084D01*
X116795430Y-54816339D01*
X116723274Y-54862731D01*
X116713928Y-54870082D01*
X116683467Y-54893998D01*
X116665428Y-54903576D01*
X116652831Y-54900480D01*
X116639900Y-54887704D01*
X116601707Y-54862678D01*
X116552002Y-54853071D01*
X116498476Y-54858067D01*
X116448822Y-54876851D01*
X116410733Y-54908606D01*
X116407975Y-54912297D01*
X116379474Y-54971575D01*
X116374172Y-55032934D01*
X116391482Y-55091427D01*
X116430820Y-55142104D01*
X116435630Y-55146289D01*
X116463560Y-55166167D01*
X116491898Y-55174921D01*
X116531737Y-55175553D01*
X116541689Y-55174992D01*
X116580668Y-55173562D01*
X116600746Y-55176839D01*
X116608015Y-55186728D01*
X116608760Y-55195961D01*
X116610284Y-55222744D01*
X116614065Y-55263025D01*
X116616782Y-55287124D01*
X116620723Y-55325401D01*
X116619084Y-55344996D01*
X116609579Y-55352158D01*
X116592649Y-55353139D01*
X116582608Y-55349901D01*
X116566410Y-55339420D01*
X116542855Y-55320548D01*
X116510743Y-55292135D01*
X116468872Y-55253035D01*
X116416043Y-55202097D01*
X116351055Y-55138173D01*
X116272709Y-55060114D01*
X116179803Y-54966772D01*
X116071137Y-54856998D01*
X116018769Y-54803952D01*
X115476951Y-54254767D01*
X115477570Y-54341848D01*
G37*
X115477570Y-54341848D02*
X115478189Y-54428931D01*
X115929914Y-54887891D01*
X116381639Y-55346852D01*
X116381968Y-55557471D01*
X116382297Y-55768089D01*
X116657390Y-55768089D01*
X116664478Y-55821530D01*
X116667162Y-55845888D01*
X116671687Y-55891759D01*
X116677809Y-55956405D01*
X116685288Y-56037091D01*
X116693881Y-56131081D01*
X116703346Y-56235637D01*
X116713442Y-56348025D01*
X116723926Y-56465507D01*
X116734556Y-56585348D01*
X116745091Y-56704811D01*
X116755287Y-56821159D01*
X116764905Y-56931657D01*
X116773700Y-57033569D01*
X116781432Y-57124158D01*
X116787858Y-57200687D01*
X116792737Y-57260421D01*
X116795825Y-57300624D01*
X116796883Y-57318559D01*
X116796882Y-57318644D01*
X116789173Y-57333035D01*
X116766019Y-57362748D01*
X116727105Y-57408131D01*
X116672116Y-57469529D01*
X116600736Y-57547288D01*
X116512651Y-57641754D01*
X116407546Y-57753272D01*
X116285105Y-57882188D01*
X116250690Y-57918287D01*
X115704863Y-58490416D01*
X115793119Y-58578436D01*
X115864515Y-58500758D01*
X115890634Y-58472686D01*
X115931434Y-58429274D01*
X115984223Y-58373366D01*
X116046309Y-58307808D01*
X116115000Y-58235441D01*
X116187604Y-58159112D01*
X116231040Y-58113524D01*
X116312584Y-58028119D01*
X116378496Y-57959710D01*
X116430456Y-57907053D01*
X116470145Y-57868905D01*
X116499243Y-57844020D01*
X116519431Y-57831156D01*
X116532390Y-57829068D01*
X116539800Y-57836513D01*
X116543342Y-57852246D01*
X116544697Y-57875023D01*
X116544879Y-57881239D01*
X116554297Y-57924061D01*
X116577503Y-57975819D01*
X116609864Y-58028328D01*
X116646748Y-58073403D01*
X116661507Y-58087328D01*
X116737233Y-58136047D01*
X116825692Y-58163306D01*
X116903900Y-58169773D01*
X116992532Y-58157576D01*
X117074388Y-58121813D01*
X117146836Y-58063722D01*
X117160203Y-58049262D01*
X117209082Y-57993733D01*
X118054674Y-57993733D01*
X118054674Y-58169773D01*
X118281010Y-58169773D01*
X118281010Y-58087531D01*
X118283850Y-58031386D01*
X118293393Y-57992416D01*
X118304991Y-57971219D01*
X118313277Y-57956052D01*
X118320373Y-57934062D01*
X118326748Y-57901987D01*
X118332872Y-57856569D01*
X118339216Y-57794548D01*
X118346250Y-57712662D01*
X118351066Y-57651746D01*
X118373161Y-57366343D01*
X118915565Y-57915805D01*
X119013637Y-58015228D01*
X119107784Y-58110815D01*
X119196285Y-58200810D01*
X119277420Y-58283457D01*
X119349469Y-58357001D01*
X119410712Y-58419684D01*
X119459427Y-58469752D01*
X119493896Y-58505448D01*
X119512379Y-58524995D01*
X119542743Y-58555944D01*
X119568071Y-58577530D01*
X119581695Y-58584723D01*
X119599095Y-58576297D01*
X119624460Y-58555245D01*
X119633058Y-58546671D01*
X119669514Y-58508620D01*
X119468802Y-58304658D01*
X119417596Y-58252699D01*
X119351569Y-58185820D01*
X119273618Y-58106950D01*
X119186638Y-58019014D01*
X119093526Y-57924941D01*
X118997179Y-57827658D01*
X118900492Y-57730093D01*
X118831134Y-57660145D01*
X118725703Y-57553550D01*
X118637129Y-57463307D01*
X118564281Y-57388192D01*
X118506023Y-57326986D01*
X118461225Y-57278466D01*
X118439021Y-57253129D01*
X118260724Y-57253129D01*
X118238401Y-57538555D01*
X118231669Y-57622219D01*
X118225157Y-57698727D01*
X118219234Y-57764081D01*
X118214268Y-57814281D01*
X118210629Y-57845329D01*
X118209458Y-57852273D01*
X118202838Y-57880565D01*
X117253364Y-57880565D01*
X117247026Y-57801606D01*
X117227890Y-57708315D01*
X117187846Y-57625791D01*
X117129418Y-57557038D01*
X117055129Y-57505063D01*
X116971748Y-57473863D01*
X116944698Y-57459228D01*
X116931156Y-57427819D01*
X116930872Y-57426434D01*
X116929247Y-57413174D01*
X116931256Y-57399595D01*
X116938858Y-57383181D01*
X116954016Y-57361411D01*
X116978688Y-57331767D01*
X117014836Y-57291732D01*
X117064420Y-57238785D01*
X117129401Y-57170409D01*
X117133599Y-57166005D01*
X117203493Y-57092611D01*
X117277800Y-57014437D01*
X117351414Y-56936864D01*
X117419229Y-56865275D01*
X117476140Y-56805051D01*
X117488832Y-56791587D01*
X117537487Y-56740820D01*
X117580709Y-56697375D01*
X117615395Y-56664241D01*
X117638444Y-56644405D01*
X117646182Y-56640046D01*
X117657722Y-56649170D01*
X117684710Y-56674200D01*
X117725021Y-56713052D01*
X117776529Y-56763643D01*
X117837109Y-56823888D01*
X117904636Y-56891704D01*
X117959826Y-56947565D01*
X118260724Y-57253129D01*
X118439021Y-57253129D01*
X118428751Y-57241411D01*
X118407471Y-57214599D01*
X118396251Y-57196808D01*
X118393754Y-57188570D01*
X118394700Y-57170590D01*
X118397573Y-57129892D01*
X118402187Y-57068819D01*
X118408358Y-56989713D01*
X118415898Y-56894914D01*
X118424621Y-56786767D01*
X118434343Y-56667612D01*
X118444876Y-56539791D01*
X118453365Y-56437635D01*
X118501396Y-55861674D01*
X118377805Y-55861674D01*
X118377273Y-55874104D01*
X118374769Y-55909110D01*
X118370496Y-55964215D01*
X118364653Y-56036943D01*
X118357443Y-56124814D01*
X118349066Y-56225351D01*
X118339723Y-56336077D01*
X118330758Y-56441205D01*
X118320602Y-56560483D01*
X118311142Y-56673080D01*
X118302596Y-56776305D01*
X118295179Y-56867473D01*
X118289108Y-56943895D01*
X118284601Y-57002883D01*
X118281873Y-57041749D01*
X118281116Y-57056844D01*
X118279935Y-57066238D01*
X118275256Y-57069966D01*
X118265276Y-57066471D01*
X118248190Y-57054199D01*
X118222196Y-57031594D01*
X118185490Y-56997100D01*
X118136267Y-56949162D01*
X118072726Y-56886224D01*
X118005305Y-56818968D01*
X117729601Y-56543477D01*
X117731533Y-56541406D01*
X117549290Y-56541406D01*
X117540984Y-56552780D01*
X117517733Y-56579563D01*
X117481865Y-56619292D01*
X117435713Y-56669507D01*
X117381606Y-56727746D01*
X117321874Y-56791547D01*
X117258848Y-56858449D01*
X117194858Y-56925990D01*
X117132236Y-56991710D01*
X117073310Y-57053146D01*
X117020412Y-57107837D01*
X116975872Y-57153322D01*
X116942020Y-57187138D01*
X116921188Y-57206826D01*
X116915506Y-57210837D01*
X116913634Y-57197891D01*
X116909746Y-57162134D01*
X116904057Y-57105804D01*
X116896781Y-57031140D01*
X116888131Y-56940380D01*
X116878322Y-56835762D01*
X116867566Y-56719526D01*
X116856079Y-56593908D01*
X116846907Y-56492618D01*
X116835174Y-56361279D01*
X116824335Y-56237552D01*
X116814570Y-56123681D01*
X116806063Y-56021911D01*
X116798995Y-55934487D01*
X116793549Y-55863653D01*
X116789908Y-55811653D01*
X116788253Y-55780732D01*
X116788442Y-55772703D01*
X116798334Y-55779854D01*
X116823524Y-55802841D01*
X116861810Y-55839439D01*
X116910989Y-55887422D01*
X116968861Y-55944566D01*
X117033222Y-56008647D01*
X117101871Y-56077438D01*
X117172605Y-56148716D01*
X117243222Y-56220255D01*
X117311520Y-56289830D01*
X117375296Y-56355217D01*
X117432350Y-56414191D01*
X117480478Y-56464527D01*
X117517478Y-56503999D01*
X117541148Y-56530383D01*
X117549290Y-56541406D01*
X117731533Y-56541406D01*
X117832409Y-56433295D01*
X117884768Y-56377377D01*
X117943535Y-56314948D01*
X118006385Y-56248443D01*
X118070995Y-56180298D01*
X118135042Y-56112948D01*
X118196203Y-56048828D01*
X118252153Y-55990372D01*
X118300570Y-55940018D01*
X118339130Y-55900198D01*
X118365509Y-55873350D01*
X118377384Y-55861908D01*
X118377805Y-55861674D01*
X118501396Y-55861674D01*
X118513401Y-55717726D01*
X119113938Y-55086158D01*
X119714475Y-54454589D01*
X119714034Y-54366315D01*
X119713592Y-54278040D01*
X119616583Y-54381666D01*
X119562291Y-54439463D01*
X119498192Y-54507368D01*
X119426016Y-54583572D01*
X119347492Y-54666269D01*
X119264349Y-54753653D01*
X119178319Y-54843915D01*
X119091130Y-54935250D01*
X119004513Y-55025849D01*
X118920197Y-55113907D01*
X118839912Y-55197615D01*
X118765387Y-55275167D01*
X118698354Y-55344757D01*
X118640541Y-55404576D01*
X118593679Y-55452818D01*
X118559496Y-55487676D01*
X118539724Y-55507343D01*
X118535390Y-55511116D01*
X118535092Y-55497992D01*
X118536731Y-55464389D01*
X118540023Y-55414880D01*
X118544682Y-55354037D01*
X118546682Y-55329732D01*
X118561577Y-55151951D01*
X118444955Y-55151951D01*
X118438934Y-55180243D01*
X118435863Y-55202618D01*
X118431548Y-55244717D01*
X118426488Y-55301178D01*
X118421181Y-55366635D01*
X118419344Y-55390862D01*
X118413927Y-55460421D01*
X118408459Y-55525018D01*
X118403488Y-55578548D01*
X118399561Y-55614910D01*
X118398675Y-55621509D01*
X118395334Y-55635056D01*
X118388101Y-55650914D01*
X118375440Y-55670861D01*
X118355811Y-55696673D01*
X118327678Y-55730129D01*
X118289502Y-55773007D01*
X118239746Y-55827083D01*
X118176871Y-55894136D01*
X118099341Y-55975943D01*
X118020251Y-56058950D01*
X117941564Y-56141094D01*
X117868112Y-56217169D01*
X117801724Y-56285325D01*
X117744227Y-56343712D01*
X117697451Y-56390481D01*
X117663224Y-56423782D01*
X117643373Y-56441767D01*
X117639140Y-56444442D01*
X117628003Y-56434741D01*
X117601971Y-56409441D01*
X117563570Y-56371082D01*
X117515328Y-56322200D01*
X117459770Y-56265334D01*
X117419592Y-56223906D01*
X117209831Y-56007000D01*
X117828337Y-56007000D01*
X117828337Y-55768089D01*
X117073881Y-55768089D01*
X117073881Y-55874542D01*
X116935565Y-55736654D01*
X116837447Y-55638840D01*
X116646357Y-55638840D01*
X116644529Y-55654270D01*
X116635277Y-55662867D01*
X116612950Y-55666613D01*
X116571895Y-55667489D01*
X116564624Y-55667495D01*
X116482891Y-55667495D01*
X116482891Y-55448172D01*
X116564624Y-55529179D01*
X116610730Y-55578428D01*
X116638306Y-55616159D01*
X116646357Y-55638840D01*
X116837447Y-55638840D01*
X116797248Y-55598766D01*
X116797248Y-55475952D01*
X116796863Y-55419450D01*
X116795100Y-55383505D01*
X116791050Y-55363530D01*
X116783801Y-55354937D01*
X116772870Y-55353139D01*
X116760712Y-55350498D01*
X116751727Y-55339912D01*
X116744826Y-55317381D01*
X116738924Y-55278909D01*
X116732935Y-55220498D01*
X116731013Y-55199104D01*
X116726852Y-55151951D01*
X118444955Y-55151951D01*
X118561577Y-55151951D01*
X118721109Y-55151951D01*
X118721109Y-55038782D01*
X118653314Y-55038782D01*
X118613662Y-55037696D01*
X118592116Y-55032454D01*
X118589480Y-55029334D01*
X118450616Y-55029334D01*
X118443308Y-55036462D01*
X118417993Y-55038662D01*
X118400908Y-55038782D01*
X118343881Y-55038782D01*
X118131221Y-55038782D01*
X116716698Y-55038782D01*
X116764542Y-54989786D01*
X116838850Y-54929324D01*
X116930816Y-54882691D01*
X117041998Y-54849249D01*
X117152471Y-54830753D01*
X117224773Y-54822122D01*
X117224773Y-54913040D01*
X117803188Y-54913040D01*
X117803188Y-54809893D01*
X117888065Y-54818496D01*
X117947368Y-54825756D01*
X118010551Y-54835379D01*
X118048386Y-54842252D01*
X118123832Y-54857407D01*
X118127526Y-54948095D01*
X118131221Y-55038782D01*
X118343881Y-55038782D01*
X118343881Y-54988485D01*
X118345544Y-54956976D01*
X118349697Y-54939463D01*
X118351371Y-54938188D01*
X118369987Y-54946254D01*
X118397183Y-54965820D01*
X118424448Y-54989944D01*
X118443267Y-55011682D01*
X118444943Y-55014508D01*
X118450616Y-55029334D01*
X118589480Y-55029334D01*
X118581662Y-55020081D01*
X118577442Y-55006604D01*
X118560219Y-54971627D01*
X118527138Y-54929579D01*
X118483893Y-54886356D01*
X118436174Y-54847854D01*
X118404830Y-54827801D01*
X118369123Y-54805851D01*
X118350819Y-54787411D01*
X118344388Y-54765668D01*
X118343894Y-54752718D01*
X118343894Y-54749575D01*
X117702594Y-54749575D01*
X117702594Y-54812446D01*
X117325367Y-54812446D01*
X117325367Y-54749575D01*
X117702594Y-54749575D01*
X118343894Y-54749575D01*
X118343881Y-54711852D01*
X118238048Y-54711852D01*
X118189355Y-54713029D01*
X118151405Y-54716165D01*
X118130308Y-54720671D01*
X118128023Y-54722495D01*
X118114641Y-54725295D01*
X118082074Y-54724148D01*
X118035916Y-54719393D01*
X118004376Y-54715003D01*
X117947188Y-54706378D01*
X117894886Y-54698591D01*
X117855582Y-54692847D01*
X117844055Y-54691215D01*
X117813937Y-54681888D01*
X117803188Y-54667272D01*
X117799920Y-54661320D01*
X117788230Y-54656778D01*
X117765288Y-54653470D01*
X117728265Y-54651215D01*
X117674332Y-54649834D01*
X117600660Y-54649150D01*
X117513980Y-54648980D01*
X117421471Y-54649077D01*
X117351094Y-54649530D01*
X117299836Y-54650590D01*
X117264680Y-54652503D01*
X117242611Y-54655519D01*
X117230615Y-54659885D01*
X117225676Y-54665849D01*
X117224773Y-54672784D01*
X117217079Y-54694795D01*
X117191879Y-54707321D01*
X117145991Y-54711788D01*
X117137736Y-54711852D01*
X117060027Y-54719868D01*
X116971767Y-54741936D01*
X116880915Y-54775084D01*
X116795430Y-54816339D01*
X116723274Y-54862731D01*
X116713928Y-54870082D01*
X116683467Y-54893998D01*
X116665428Y-54903576D01*
X116652831Y-54900480D01*
X116639900Y-54887704D01*
X116601707Y-54862678D01*
X116552002Y-54853071D01*
X116498476Y-54858067D01*
X116448822Y-54876851D01*
X116410733Y-54908606D01*
X116407975Y-54912297D01*
X116379474Y-54971575D01*
X116374172Y-55032934D01*
X116391482Y-55091427D01*
X116430820Y-55142104D01*
X116435630Y-55146289D01*
X116463560Y-55166167D01*
X116491898Y-55174921D01*
X116531737Y-55175553D01*
X116541689Y-55174992D01*
X116580668Y-55173562D01*
X116600746Y-55176839D01*
X116608015Y-55186728D01*
X116608760Y-55195961D01*
X116610284Y-55222744D01*
X116614065Y-55263025D01*
X116616782Y-55287124D01*
X116620723Y-55325401D01*
X116619084Y-55344996D01*
X116609579Y-55352158D01*
X116592649Y-55353139D01*
X116582608Y-55349901D01*
X116566410Y-55339420D01*
X116542855Y-55320548D01*
X116510743Y-55292135D01*
X116468872Y-55253035D01*
X116416043Y-55202097D01*
X116351055Y-55138173D01*
X116272709Y-55060114D01*
X116179803Y-54966772D01*
X116071137Y-54856998D01*
X116018769Y-54803952D01*
X115476951Y-54254767D01*
X115477570Y-54341848D01*
G36*
X115854178Y-60294822D02*
G01*
X119374971Y-60294822D01*
X119374971Y-59427198D01*
X115854178Y-59427198D01*
X115854178Y-60294822D01*
G37*
X115854178Y-60294822D02*
X119374971Y-60294822D01*
X119374971Y-59427198D01*
X115854178Y-59427198D01*
X115854178Y-60294822D01*
D13*
G36*
X100734000Y-158346000D02*
G01*
X100734000Y-158746000D01*
X100334000Y-158746000D01*
X100334000Y-158346000D01*
X100734000Y-158346000D01*
G37*
G36*
X101134000Y-158346000D02*
G01*
X101134000Y-158746000D01*
X100734000Y-158746000D01*
X100734000Y-158346000D01*
X101134000Y-158346000D01*
G37*
G36*
X101534000Y-158346000D02*
G01*
X101534000Y-158746000D01*
X101134000Y-158746000D01*
X101134000Y-158346000D01*
X101534000Y-158346000D01*
G37*
G36*
X101934000Y-158346000D02*
G01*
X101934000Y-158746000D01*
X101534000Y-158746000D01*
X101534000Y-158346000D01*
X101934000Y-158346000D01*
G37*
G36*
X102334000Y-158346000D02*
G01*
X102334000Y-158746000D01*
X101934000Y-158746000D01*
X101934000Y-158346000D01*
X102334000Y-158346000D01*
G37*
G36*
X102734000Y-158346000D02*
G01*
X102734000Y-158746000D01*
X102334000Y-158746000D01*
X102334000Y-158346000D01*
X102734000Y-158346000D01*
G37*
G36*
X103134000Y-158346000D02*
G01*
X103134000Y-158746000D01*
X102734000Y-158746000D01*
X102734000Y-158346000D01*
X103134000Y-158346000D01*
G37*
G36*
X104334000Y-158346000D02*
G01*
X104334000Y-158746000D01*
X103934000Y-158746000D01*
X103934000Y-158346000D01*
X104334000Y-158346000D01*
G37*
G36*
X104734000Y-158346000D02*
G01*
X104734000Y-158746000D01*
X104334000Y-158746000D01*
X104334000Y-158346000D01*
X104734000Y-158346000D01*
G37*
G36*
X105534000Y-158346000D02*
G01*
X105534000Y-158746000D01*
X105134000Y-158746000D01*
X105134000Y-158346000D01*
X105534000Y-158346000D01*
G37*
G36*
X106734000Y-158346000D02*
G01*
X106734000Y-158746000D01*
X106334000Y-158746000D01*
X106334000Y-158346000D01*
X106734000Y-158346000D01*
G37*
G36*
X107534000Y-158346000D02*
G01*
X107534000Y-158746000D01*
X107134000Y-158746000D01*
X107134000Y-158346000D01*
X107534000Y-158346000D01*
G37*
G36*
X107934000Y-158346000D02*
G01*
X107934000Y-158746000D01*
X107534000Y-158746000D01*
X107534000Y-158346000D01*
X107934000Y-158346000D01*
G37*
G36*
X109534000Y-158346000D02*
G01*
X109534000Y-158746000D01*
X109134000Y-158746000D01*
X109134000Y-158346000D01*
X109534000Y-158346000D01*
G37*
G36*
X109934000Y-158346000D02*
G01*
X109934000Y-158746000D01*
X109534000Y-158746000D01*
X109534000Y-158346000D01*
X109934000Y-158346000D01*
G37*
G36*
X111134000Y-158346000D02*
G01*
X111134000Y-158746000D01*
X110734000Y-158746000D01*
X110734000Y-158346000D01*
X111134000Y-158346000D01*
G37*
G36*
X111534000Y-158346000D02*
G01*
X111534000Y-158746000D01*
X111134000Y-158746000D01*
X111134000Y-158346000D01*
X111534000Y-158346000D01*
G37*
G36*
X111934000Y-158346000D02*
G01*
X111934000Y-158746000D01*
X111534000Y-158746000D01*
X111534000Y-158346000D01*
X111934000Y-158346000D01*
G37*
G36*
X112334000Y-158346000D02*
G01*
X112334000Y-158746000D01*
X111934000Y-158746000D01*
X111934000Y-158346000D01*
X112334000Y-158346000D01*
G37*
G36*
X112734000Y-158346000D02*
G01*
X112734000Y-158746000D01*
X112334000Y-158746000D01*
X112334000Y-158346000D01*
X112734000Y-158346000D01*
G37*
G36*
X113134000Y-158346000D02*
G01*
X113134000Y-158746000D01*
X112734000Y-158746000D01*
X112734000Y-158346000D01*
X113134000Y-158346000D01*
G37*
G36*
X113534000Y-158346000D02*
G01*
X113534000Y-158746000D01*
X113134000Y-158746000D01*
X113134000Y-158346000D01*
X113534000Y-158346000D01*
G37*
G36*
X100734000Y-157946000D02*
G01*
X100734000Y-158346000D01*
X100334000Y-158346000D01*
X100334000Y-157946000D01*
X100734000Y-157946000D01*
G37*
G36*
X103134000Y-157946000D02*
G01*
X103134000Y-158346000D01*
X102734000Y-158346000D01*
X102734000Y-157946000D01*
X103134000Y-157946000D01*
G37*
G36*
X104334000Y-157946000D02*
G01*
X104334000Y-158346000D01*
X103934000Y-158346000D01*
X103934000Y-157946000D01*
X104334000Y-157946000D01*
G37*
G36*
X104734000Y-157946000D02*
G01*
X104734000Y-158346000D01*
X104334000Y-158346000D01*
X104334000Y-157946000D01*
X104734000Y-157946000D01*
G37*
G36*
X105134000Y-157946000D02*
G01*
X105134000Y-158346000D01*
X104734000Y-158346000D01*
X104734000Y-157946000D01*
X105134000Y-157946000D01*
G37*
G36*
X106734000Y-157946000D02*
G01*
X106734000Y-158346000D01*
X106334000Y-158346000D01*
X106334000Y-157946000D01*
X106734000Y-157946000D01*
G37*
G36*
X107534000Y-157946000D02*
G01*
X107534000Y-158346000D01*
X107134000Y-158346000D01*
X107134000Y-157946000D01*
X107534000Y-157946000D01*
G37*
G36*
X108734000Y-157946000D02*
G01*
X108734000Y-158346000D01*
X108334000Y-158346000D01*
X108334000Y-157946000D01*
X108734000Y-157946000D01*
G37*
G36*
X109534000Y-157946000D02*
G01*
X109534000Y-158346000D01*
X109134000Y-158346000D01*
X109134000Y-157946000D01*
X109534000Y-157946000D01*
G37*
G36*
X109934000Y-157946000D02*
G01*
X109934000Y-158346000D01*
X109534000Y-158346000D01*
X109534000Y-157946000D01*
X109934000Y-157946000D01*
G37*
G36*
X110334000Y-157946000D02*
G01*
X110334000Y-158346000D01*
X109934000Y-158346000D01*
X109934000Y-157946000D01*
X110334000Y-157946000D01*
G37*
G36*
X111134000Y-157946000D02*
G01*
X111134000Y-158346000D01*
X110734000Y-158346000D01*
X110734000Y-157946000D01*
X111134000Y-157946000D01*
G37*
G36*
X113534000Y-157946000D02*
G01*
X113534000Y-158346000D01*
X113134000Y-158346000D01*
X113134000Y-157946000D01*
X113534000Y-157946000D01*
G37*
G36*
X100734000Y-157546000D02*
G01*
X100734000Y-157946000D01*
X100334000Y-157946000D01*
X100334000Y-157546000D01*
X100734000Y-157546000D01*
G37*
G36*
X101534000Y-157546000D02*
G01*
X101534000Y-157946000D01*
X101134000Y-157946000D01*
X101134000Y-157546000D01*
X101534000Y-157546000D01*
G37*
G36*
X101934000Y-157546000D02*
G01*
X101934000Y-157946000D01*
X101534000Y-157946000D01*
X101534000Y-157546000D01*
X101934000Y-157546000D01*
G37*
G36*
X102334000Y-157546000D02*
G01*
X102334000Y-157946000D01*
X101934000Y-157946000D01*
X101934000Y-157546000D01*
X102334000Y-157546000D01*
G37*
G36*
X103134000Y-157546000D02*
G01*
X103134000Y-157946000D01*
X102734000Y-157946000D01*
X102734000Y-157546000D01*
X103134000Y-157546000D01*
G37*
G36*
X104334000Y-157546000D02*
G01*
X104334000Y-157946000D01*
X103934000Y-157946000D01*
X103934000Y-157546000D01*
X104334000Y-157546000D01*
G37*
G36*
X104734000Y-157546000D02*
G01*
X104734000Y-157946000D01*
X104334000Y-157946000D01*
X104334000Y-157546000D01*
X104734000Y-157546000D01*
G37*
G36*
X106334000Y-157546000D02*
G01*
X106334000Y-157946000D01*
X105934000Y-157946000D01*
X105934000Y-157546000D01*
X106334000Y-157546000D01*
G37*
G36*
X106734000Y-157546000D02*
G01*
X106734000Y-157946000D01*
X106334000Y-157946000D01*
X106334000Y-157546000D01*
X106734000Y-157546000D01*
G37*
G36*
X107134000Y-157546000D02*
G01*
X107134000Y-157946000D01*
X106734000Y-157946000D01*
X106734000Y-157546000D01*
X107134000Y-157546000D01*
G37*
G36*
X107534000Y-157546000D02*
G01*
X107534000Y-157946000D01*
X107134000Y-157946000D01*
X107134000Y-157546000D01*
X107534000Y-157546000D01*
G37*
G36*
X109934000Y-157546000D02*
G01*
X109934000Y-157946000D01*
X109534000Y-157946000D01*
X109534000Y-157546000D01*
X109934000Y-157546000D01*
G37*
G36*
X111134000Y-157546000D02*
G01*
X111134000Y-157946000D01*
X110734000Y-157946000D01*
X110734000Y-157546000D01*
X111134000Y-157546000D01*
G37*
G36*
X111934000Y-157546000D02*
G01*
X111934000Y-157946000D01*
X111534000Y-157946000D01*
X111534000Y-157546000D01*
X111934000Y-157546000D01*
G37*
G36*
X112334000Y-157546000D02*
G01*
X112334000Y-157946000D01*
X111934000Y-157946000D01*
X111934000Y-157546000D01*
X112334000Y-157546000D01*
G37*
G36*
X112734000Y-157546000D02*
G01*
X112734000Y-157946000D01*
X112334000Y-157946000D01*
X112334000Y-157546000D01*
X112734000Y-157546000D01*
G37*
G36*
X113534000Y-157546000D02*
G01*
X113534000Y-157946000D01*
X113134000Y-157946000D01*
X113134000Y-157546000D01*
X113534000Y-157546000D01*
G37*
G36*
X100734000Y-157146000D02*
G01*
X100734000Y-157546000D01*
X100334000Y-157546000D01*
X100334000Y-157146000D01*
X100734000Y-157146000D01*
G37*
G36*
X101534000Y-157146000D02*
G01*
X101534000Y-157546000D01*
X101134000Y-157546000D01*
X101134000Y-157146000D01*
X101534000Y-157146000D01*
G37*
G36*
X101934000Y-157146000D02*
G01*
X101934000Y-157546000D01*
X101534000Y-157546000D01*
X101534000Y-157146000D01*
X101934000Y-157146000D01*
G37*
G36*
X102334000Y-157146000D02*
G01*
X102334000Y-157546000D01*
X101934000Y-157546000D01*
X101934000Y-157146000D01*
X102334000Y-157146000D01*
G37*
G36*
X103134000Y-157146000D02*
G01*
X103134000Y-157546000D01*
X102734000Y-157546000D01*
X102734000Y-157146000D01*
X103134000Y-157146000D01*
G37*
G36*
X104734000Y-157146000D02*
G01*
X104734000Y-157546000D01*
X104334000Y-157546000D01*
X104334000Y-157146000D01*
X104734000Y-157146000D01*
G37*
G36*
X105934000Y-157146000D02*
G01*
X105934000Y-157546000D01*
X105534000Y-157546000D01*
X105534000Y-157146000D01*
X105934000Y-157146000D01*
G37*
G36*
X106734000Y-157146000D02*
G01*
X106734000Y-157546000D01*
X106334000Y-157546000D01*
X106334000Y-157146000D01*
X106734000Y-157146000D01*
G37*
G36*
X107534000Y-157146000D02*
G01*
X107534000Y-157546000D01*
X107134000Y-157546000D01*
X107134000Y-157146000D01*
X107534000Y-157146000D01*
G37*
G36*
X108334000Y-157146000D02*
G01*
X108334000Y-157546000D01*
X107934000Y-157546000D01*
X107934000Y-157146000D01*
X108334000Y-157146000D01*
G37*
G36*
X109134000Y-157146000D02*
G01*
X109134000Y-157546000D01*
X108734000Y-157546000D01*
X108734000Y-157146000D01*
X109134000Y-157146000D01*
G37*
G36*
X109534000Y-157146000D02*
G01*
X109534000Y-157546000D01*
X109134000Y-157546000D01*
X109134000Y-157146000D01*
X109534000Y-157146000D01*
G37*
G36*
X109934000Y-157146000D02*
G01*
X109934000Y-157546000D01*
X109534000Y-157546000D01*
X109534000Y-157146000D01*
X109934000Y-157146000D01*
G37*
G36*
X110334000Y-157146000D02*
G01*
X110334000Y-157546000D01*
X109934000Y-157546000D01*
X109934000Y-157146000D01*
X110334000Y-157146000D01*
G37*
G36*
X111134000Y-157146000D02*
G01*
X111134000Y-157546000D01*
X110734000Y-157546000D01*
X110734000Y-157146000D01*
X111134000Y-157146000D01*
G37*
G36*
X111934000Y-157146000D02*
G01*
X111934000Y-157546000D01*
X111534000Y-157546000D01*
X111534000Y-157146000D01*
X111934000Y-157146000D01*
G37*
G36*
X112334000Y-157146000D02*
G01*
X112334000Y-157546000D01*
X111934000Y-157546000D01*
X111934000Y-157146000D01*
X112334000Y-157146000D01*
G37*
G36*
X112734000Y-157146000D02*
G01*
X112734000Y-157546000D01*
X112334000Y-157546000D01*
X112334000Y-157146000D01*
X112734000Y-157146000D01*
G37*
G36*
X113534000Y-157146000D02*
G01*
X113534000Y-157546000D01*
X113134000Y-157546000D01*
X113134000Y-157146000D01*
X113534000Y-157146000D01*
G37*
G36*
X100734000Y-156746000D02*
G01*
X100734000Y-157146000D01*
X100334000Y-157146000D01*
X100334000Y-156746000D01*
X100734000Y-156746000D01*
G37*
G36*
X101534000Y-156746000D02*
G01*
X101534000Y-157146000D01*
X101134000Y-157146000D01*
X101134000Y-156746000D01*
X101534000Y-156746000D01*
G37*
G36*
X101934000Y-156746000D02*
G01*
X101934000Y-157146000D01*
X101534000Y-157146000D01*
X101534000Y-156746000D01*
X101934000Y-156746000D01*
G37*
G36*
X102334000Y-156746000D02*
G01*
X102334000Y-157146000D01*
X101934000Y-157146000D01*
X101934000Y-156746000D01*
X102334000Y-156746000D01*
G37*
G36*
X103134000Y-156746000D02*
G01*
X103134000Y-157146000D01*
X102734000Y-157146000D01*
X102734000Y-156746000D01*
X103134000Y-156746000D01*
G37*
G36*
X104334000Y-156746000D02*
G01*
X104334000Y-157146000D01*
X103934000Y-157146000D01*
X103934000Y-156746000D01*
X104334000Y-156746000D01*
G37*
G36*
X104734000Y-156746000D02*
G01*
X104734000Y-157146000D01*
X104334000Y-157146000D01*
X104334000Y-156746000D01*
X104734000Y-156746000D01*
G37*
G36*
X105934000Y-156746000D02*
G01*
X105934000Y-157146000D01*
X105534000Y-157146000D01*
X105534000Y-156746000D01*
X105934000Y-156746000D01*
G37*
G36*
X107134000Y-156746000D02*
G01*
X107134000Y-157146000D01*
X106734000Y-157146000D01*
X106734000Y-156746000D01*
X107134000Y-156746000D01*
G37*
G36*
X107534000Y-156746000D02*
G01*
X107534000Y-157146000D01*
X107134000Y-157146000D01*
X107134000Y-156746000D01*
X107534000Y-156746000D01*
G37*
G36*
X107934000Y-156746000D02*
G01*
X107934000Y-157146000D01*
X107534000Y-157146000D01*
X107534000Y-156746000D01*
X107934000Y-156746000D01*
G37*
G36*
X109534000Y-156746000D02*
G01*
X109534000Y-157146000D01*
X109134000Y-157146000D01*
X109134000Y-156746000D01*
X109534000Y-156746000D01*
G37*
G36*
X109934000Y-156746000D02*
G01*
X109934000Y-157146000D01*
X109534000Y-157146000D01*
X109534000Y-156746000D01*
X109934000Y-156746000D01*
G37*
G36*
X110334000Y-156746000D02*
G01*
X110334000Y-157146000D01*
X109934000Y-157146000D01*
X109934000Y-156746000D01*
X110334000Y-156746000D01*
G37*
G36*
X111134000Y-156746000D02*
G01*
X111134000Y-157146000D01*
X110734000Y-157146000D01*
X110734000Y-156746000D01*
X111134000Y-156746000D01*
G37*
G36*
X111934000Y-156746000D02*
G01*
X111934000Y-157146000D01*
X111534000Y-157146000D01*
X111534000Y-156746000D01*
X111934000Y-156746000D01*
G37*
G36*
X112334000Y-156746000D02*
G01*
X112334000Y-157146000D01*
X111934000Y-157146000D01*
X111934000Y-156746000D01*
X112334000Y-156746000D01*
G37*
G36*
X112734000Y-156746000D02*
G01*
X112734000Y-157146000D01*
X112334000Y-157146000D01*
X112334000Y-156746000D01*
X112734000Y-156746000D01*
G37*
G36*
X113534000Y-156746000D02*
G01*
X113534000Y-157146000D01*
X113134000Y-157146000D01*
X113134000Y-156746000D01*
X113534000Y-156746000D01*
G37*
G36*
X100734000Y-156346000D02*
G01*
X100734000Y-156746000D01*
X100334000Y-156746000D01*
X100334000Y-156346000D01*
X100734000Y-156346000D01*
G37*
G36*
X103134000Y-156346000D02*
G01*
X103134000Y-156746000D01*
X102734000Y-156746000D01*
X102734000Y-156346000D01*
X103134000Y-156346000D01*
G37*
G36*
X103934000Y-156346000D02*
G01*
X103934000Y-156746000D01*
X103534000Y-156746000D01*
X103534000Y-156346000D01*
X103934000Y-156346000D01*
G37*
G36*
X105934000Y-156346000D02*
G01*
X105934000Y-156746000D01*
X105534000Y-156746000D01*
X105534000Y-156346000D01*
X105934000Y-156346000D01*
G37*
G36*
X107934000Y-156346000D02*
G01*
X107934000Y-156746000D01*
X107534000Y-156746000D01*
X107534000Y-156346000D01*
X107934000Y-156346000D01*
G37*
G36*
X108334000Y-156346000D02*
G01*
X108334000Y-156746000D01*
X107934000Y-156746000D01*
X107934000Y-156346000D01*
X108334000Y-156346000D01*
G37*
G36*
X108734000Y-156346000D02*
G01*
X108734000Y-156746000D01*
X108334000Y-156746000D01*
X108334000Y-156346000D01*
X108734000Y-156346000D01*
G37*
G36*
X110334000Y-156346000D02*
G01*
X110334000Y-156746000D01*
X109934000Y-156746000D01*
X109934000Y-156346000D01*
X110334000Y-156346000D01*
G37*
G36*
X111134000Y-156346000D02*
G01*
X111134000Y-156746000D01*
X110734000Y-156746000D01*
X110734000Y-156346000D01*
X111134000Y-156346000D01*
G37*
G36*
X113534000Y-156346000D02*
G01*
X113534000Y-156746000D01*
X113134000Y-156746000D01*
X113134000Y-156346000D01*
X113534000Y-156346000D01*
G37*
G36*
X100734000Y-155946000D02*
G01*
X100734000Y-156346000D01*
X100334000Y-156346000D01*
X100334000Y-155946000D01*
X100734000Y-155946000D01*
G37*
G36*
X101134000Y-155946000D02*
G01*
X101134000Y-156346000D01*
X100734000Y-156346000D01*
X100734000Y-155946000D01*
X101134000Y-155946000D01*
G37*
G36*
X101534000Y-155946000D02*
G01*
X101534000Y-156346000D01*
X101134000Y-156346000D01*
X101134000Y-155946000D01*
X101534000Y-155946000D01*
G37*
G36*
X101934000Y-155946000D02*
G01*
X101934000Y-156346000D01*
X101534000Y-156346000D01*
X101534000Y-155946000D01*
X101934000Y-155946000D01*
G37*
G36*
X102334000Y-155946000D02*
G01*
X102334000Y-156346000D01*
X101934000Y-156346000D01*
X101934000Y-155946000D01*
X102334000Y-155946000D01*
G37*
G36*
X102734000Y-155946000D02*
G01*
X102734000Y-156346000D01*
X102334000Y-156346000D01*
X102334000Y-155946000D01*
X102734000Y-155946000D01*
G37*
G36*
X103134000Y-155946000D02*
G01*
X103134000Y-156346000D01*
X102734000Y-156346000D01*
X102734000Y-155946000D01*
X103134000Y-155946000D01*
G37*
G36*
X103934000Y-155946000D02*
G01*
X103934000Y-156346000D01*
X103534000Y-156346000D01*
X103534000Y-155946000D01*
X103934000Y-155946000D01*
G37*
G36*
X104734000Y-155946000D02*
G01*
X104734000Y-156346000D01*
X104334000Y-156346000D01*
X104334000Y-155946000D01*
X104734000Y-155946000D01*
G37*
G36*
X105534000Y-155946000D02*
G01*
X105534000Y-156346000D01*
X105134000Y-156346000D01*
X105134000Y-155946000D01*
X105534000Y-155946000D01*
G37*
G36*
X106334000Y-155946000D02*
G01*
X106334000Y-156346000D01*
X105934000Y-156346000D01*
X105934000Y-155946000D01*
X106334000Y-155946000D01*
G37*
G36*
X107134000Y-155946000D02*
G01*
X107134000Y-156346000D01*
X106734000Y-156346000D01*
X106734000Y-155946000D01*
X107134000Y-155946000D01*
G37*
G36*
X107934000Y-155946000D02*
G01*
X107934000Y-156346000D01*
X107534000Y-156346000D01*
X107534000Y-155946000D01*
X107934000Y-155946000D01*
G37*
G36*
X108734000Y-155946000D02*
G01*
X108734000Y-156346000D01*
X108334000Y-156346000D01*
X108334000Y-155946000D01*
X108734000Y-155946000D01*
G37*
G36*
X109534000Y-155946000D02*
G01*
X109534000Y-156346000D01*
X109134000Y-156346000D01*
X109134000Y-155946000D01*
X109534000Y-155946000D01*
G37*
G36*
X110334000Y-155946000D02*
G01*
X110334000Y-156346000D01*
X109934000Y-156346000D01*
X109934000Y-155946000D01*
X110334000Y-155946000D01*
G37*
G36*
X111134000Y-155946000D02*
G01*
X111134000Y-156346000D01*
X110734000Y-156346000D01*
X110734000Y-155946000D01*
X111134000Y-155946000D01*
G37*
G36*
X111534000Y-155946000D02*
G01*
X111534000Y-156346000D01*
X111134000Y-156346000D01*
X111134000Y-155946000D01*
X111534000Y-155946000D01*
G37*
G36*
X111934000Y-155946000D02*
G01*
X111934000Y-156346000D01*
X111534000Y-156346000D01*
X111534000Y-155946000D01*
X111934000Y-155946000D01*
G37*
G36*
X112334000Y-155946000D02*
G01*
X112334000Y-156346000D01*
X111934000Y-156346000D01*
X111934000Y-155946000D01*
X112334000Y-155946000D01*
G37*
G36*
X112734000Y-155946000D02*
G01*
X112734000Y-156346000D01*
X112334000Y-156346000D01*
X112334000Y-155946000D01*
X112734000Y-155946000D01*
G37*
G36*
X113134000Y-155946000D02*
G01*
X113134000Y-156346000D01*
X112734000Y-156346000D01*
X112734000Y-155946000D01*
X113134000Y-155946000D01*
G37*
G36*
X113534000Y-155946000D02*
G01*
X113534000Y-156346000D01*
X113134000Y-156346000D01*
X113134000Y-155946000D01*
X113534000Y-155946000D01*
G37*
G36*
X104334000Y-155546000D02*
G01*
X104334000Y-155946000D01*
X103934000Y-155946000D01*
X103934000Y-155546000D01*
X104334000Y-155546000D01*
G37*
G36*
X105134000Y-155546000D02*
G01*
X105134000Y-155946000D01*
X104734000Y-155946000D01*
X104734000Y-155546000D01*
X105134000Y-155546000D01*
G37*
G36*
X107534000Y-155546000D02*
G01*
X107534000Y-155946000D01*
X107134000Y-155946000D01*
X107134000Y-155546000D01*
X107534000Y-155546000D01*
G37*
G36*
X108734000Y-155546000D02*
G01*
X108734000Y-155946000D01*
X108334000Y-155946000D01*
X108334000Y-155546000D01*
X108734000Y-155546000D01*
G37*
G36*
X109134000Y-155546000D02*
G01*
X109134000Y-155946000D01*
X108734000Y-155946000D01*
X108734000Y-155546000D01*
X109134000Y-155546000D01*
G37*
G36*
X109534000Y-155546000D02*
G01*
X109534000Y-155946000D01*
X109134000Y-155946000D01*
X109134000Y-155546000D01*
X109534000Y-155546000D01*
G37*
G36*
X109934000Y-155546000D02*
G01*
X109934000Y-155946000D01*
X109534000Y-155946000D01*
X109534000Y-155546000D01*
X109934000Y-155546000D01*
G37*
G36*
X110334000Y-155546000D02*
G01*
X110334000Y-155946000D01*
X109934000Y-155946000D01*
X109934000Y-155546000D01*
X110334000Y-155546000D01*
G37*
G36*
X100734000Y-155146000D02*
G01*
X100734000Y-155546000D01*
X100334000Y-155546000D01*
X100334000Y-155146000D01*
X100734000Y-155146000D01*
G37*
G36*
X101934000Y-155146000D02*
G01*
X101934000Y-155546000D01*
X101534000Y-155546000D01*
X101534000Y-155146000D01*
X101934000Y-155146000D01*
G37*
G36*
X102734000Y-155146000D02*
G01*
X102734000Y-155546000D01*
X102334000Y-155546000D01*
X102334000Y-155146000D01*
X102734000Y-155146000D01*
G37*
G36*
X103134000Y-155146000D02*
G01*
X103134000Y-155546000D01*
X102734000Y-155546000D01*
X102734000Y-155146000D01*
X103134000Y-155146000D01*
G37*
G36*
X103934000Y-155146000D02*
G01*
X103934000Y-155546000D01*
X103534000Y-155546000D01*
X103534000Y-155146000D01*
X103934000Y-155146000D01*
G37*
G36*
X105134000Y-155146000D02*
G01*
X105134000Y-155546000D01*
X104734000Y-155546000D01*
X104734000Y-155146000D01*
X105134000Y-155146000D01*
G37*
G36*
X105534000Y-155146000D02*
G01*
X105534000Y-155546000D01*
X105134000Y-155546000D01*
X105134000Y-155146000D01*
X105534000Y-155146000D01*
G37*
G36*
X105934000Y-155146000D02*
G01*
X105934000Y-155546000D01*
X105534000Y-155546000D01*
X105534000Y-155146000D01*
X105934000Y-155146000D01*
G37*
G36*
X106334000Y-155146000D02*
G01*
X106334000Y-155546000D01*
X105934000Y-155546000D01*
X105934000Y-155146000D01*
X106334000Y-155146000D01*
G37*
G36*
X106734000Y-155146000D02*
G01*
X106734000Y-155546000D01*
X106334000Y-155546000D01*
X106334000Y-155146000D01*
X106734000Y-155146000D01*
G37*
G36*
X109134000Y-155146000D02*
G01*
X109134000Y-155546000D01*
X108734000Y-155546000D01*
X108734000Y-155146000D01*
X109134000Y-155146000D01*
G37*
G36*
X109534000Y-155146000D02*
G01*
X109534000Y-155546000D01*
X109134000Y-155546000D01*
X109134000Y-155146000D01*
X109534000Y-155146000D01*
G37*
G36*
X109934000Y-155146000D02*
G01*
X109934000Y-155546000D01*
X109534000Y-155546000D01*
X109534000Y-155146000D01*
X109934000Y-155146000D01*
G37*
G36*
X110734000Y-155146000D02*
G01*
X110734000Y-155546000D01*
X110334000Y-155546000D01*
X110334000Y-155146000D01*
X110734000Y-155146000D01*
G37*
G36*
X111534000Y-155146000D02*
G01*
X111534000Y-155546000D01*
X111134000Y-155546000D01*
X111134000Y-155146000D01*
X111534000Y-155146000D01*
G37*
G36*
X102334000Y-154746000D02*
G01*
X102334000Y-155146000D01*
X101934000Y-155146000D01*
X101934000Y-154746000D01*
X102334000Y-154746000D01*
G37*
G36*
X102734000Y-154746000D02*
G01*
X102734000Y-155146000D01*
X102334000Y-155146000D01*
X102334000Y-154746000D01*
X102734000Y-154746000D01*
G37*
G36*
X103934000Y-154746000D02*
G01*
X103934000Y-155146000D01*
X103534000Y-155146000D01*
X103534000Y-154746000D01*
X103934000Y-154746000D01*
G37*
G36*
X104734000Y-154746000D02*
G01*
X104734000Y-155146000D01*
X104334000Y-155146000D01*
X104334000Y-154746000D01*
X104734000Y-154746000D01*
G37*
G36*
X105134000Y-154746000D02*
G01*
X105134000Y-155146000D01*
X104734000Y-155146000D01*
X104734000Y-154746000D01*
X105134000Y-154746000D01*
G37*
G36*
X107134000Y-154746000D02*
G01*
X107134000Y-155146000D01*
X106734000Y-155146000D01*
X106734000Y-154746000D01*
X107134000Y-154746000D01*
G37*
G36*
X108734000Y-154746000D02*
G01*
X108734000Y-155146000D01*
X108334000Y-155146000D01*
X108334000Y-154746000D01*
X108734000Y-154746000D01*
G37*
G36*
X109134000Y-154746000D02*
G01*
X109134000Y-155146000D01*
X108734000Y-155146000D01*
X108734000Y-154746000D01*
X109134000Y-154746000D01*
G37*
G36*
X110334000Y-154746000D02*
G01*
X110334000Y-155146000D01*
X109934000Y-155146000D01*
X109934000Y-154746000D01*
X110334000Y-154746000D01*
G37*
G36*
X110734000Y-154746000D02*
G01*
X110734000Y-155146000D01*
X110334000Y-155146000D01*
X110334000Y-154746000D01*
X110734000Y-154746000D01*
G37*
G36*
X111134000Y-154746000D02*
G01*
X111134000Y-155146000D01*
X110734000Y-155146000D01*
X110734000Y-154746000D01*
X111134000Y-154746000D01*
G37*
G36*
X111534000Y-154746000D02*
G01*
X111534000Y-155146000D01*
X111134000Y-155146000D01*
X111134000Y-154746000D01*
X111534000Y-154746000D01*
G37*
G36*
X113134000Y-154746000D02*
G01*
X113134000Y-155146000D01*
X112734000Y-155146000D01*
X112734000Y-154746000D01*
X113134000Y-154746000D01*
G37*
G36*
X113534000Y-154746000D02*
G01*
X113534000Y-155146000D01*
X113134000Y-155146000D01*
X113134000Y-154746000D01*
X113534000Y-154746000D01*
G37*
G36*
X100734000Y-154346000D02*
G01*
X100734000Y-154746000D01*
X100334000Y-154746000D01*
X100334000Y-154346000D01*
X100734000Y-154346000D01*
G37*
G36*
X101534000Y-154346000D02*
G01*
X101534000Y-154746000D01*
X101134000Y-154746000D01*
X101134000Y-154346000D01*
X101534000Y-154346000D01*
G37*
G36*
X101934000Y-154346000D02*
G01*
X101934000Y-154746000D01*
X101534000Y-154746000D01*
X101534000Y-154346000D01*
X101934000Y-154346000D01*
G37*
G36*
X103134000Y-154346000D02*
G01*
X103134000Y-154746000D01*
X102734000Y-154746000D01*
X102734000Y-154346000D01*
X103134000Y-154346000D01*
G37*
G36*
X103934000Y-154346000D02*
G01*
X103934000Y-154746000D01*
X103534000Y-154746000D01*
X103534000Y-154346000D01*
X103934000Y-154346000D01*
G37*
G36*
X105134000Y-154346000D02*
G01*
X105134000Y-154746000D01*
X104734000Y-154746000D01*
X104734000Y-154346000D01*
X105134000Y-154346000D01*
G37*
G36*
X107134000Y-154346000D02*
G01*
X107134000Y-154746000D01*
X106734000Y-154746000D01*
X106734000Y-154346000D01*
X107134000Y-154346000D01*
G37*
G36*
X107534000Y-154346000D02*
G01*
X107534000Y-154746000D01*
X107134000Y-154746000D01*
X107134000Y-154346000D01*
X107534000Y-154346000D01*
G37*
G36*
X108334000Y-154346000D02*
G01*
X108334000Y-154746000D01*
X107934000Y-154746000D01*
X107934000Y-154346000D01*
X108334000Y-154346000D01*
G37*
G36*
X110334000Y-154346000D02*
G01*
X110334000Y-154746000D01*
X109934000Y-154746000D01*
X109934000Y-154346000D01*
X110334000Y-154346000D01*
G37*
G36*
X111134000Y-154346000D02*
G01*
X111134000Y-154746000D01*
X110734000Y-154746000D01*
X110734000Y-154346000D01*
X111134000Y-154346000D01*
G37*
G36*
X111534000Y-154346000D02*
G01*
X111534000Y-154746000D01*
X111134000Y-154746000D01*
X111134000Y-154346000D01*
X111534000Y-154346000D01*
G37*
G36*
X111934000Y-154346000D02*
G01*
X111934000Y-154746000D01*
X111534000Y-154746000D01*
X111534000Y-154346000D01*
X111934000Y-154346000D01*
G37*
G36*
X112734000Y-154346000D02*
G01*
X112734000Y-154746000D01*
X112334000Y-154746000D01*
X112334000Y-154346000D01*
X112734000Y-154346000D01*
G37*
G36*
X113534000Y-154346000D02*
G01*
X113534000Y-154746000D01*
X113134000Y-154746000D01*
X113134000Y-154346000D01*
X113534000Y-154346000D01*
G37*
G36*
X102734000Y-153946000D02*
G01*
X102734000Y-154346000D01*
X102334000Y-154346000D01*
X102334000Y-153946000D01*
X102734000Y-153946000D01*
G37*
G36*
X105534000Y-153946000D02*
G01*
X105534000Y-154346000D01*
X105134000Y-154346000D01*
X105134000Y-153946000D01*
X105534000Y-153946000D01*
G37*
G36*
X106334000Y-153946000D02*
G01*
X106334000Y-154346000D01*
X105934000Y-154346000D01*
X105934000Y-153946000D01*
X106334000Y-153946000D01*
G37*
G36*
X106734000Y-153946000D02*
G01*
X106734000Y-154346000D01*
X106334000Y-154346000D01*
X106334000Y-153946000D01*
X106734000Y-153946000D01*
G37*
G36*
X107134000Y-153946000D02*
G01*
X107134000Y-154346000D01*
X106734000Y-154346000D01*
X106734000Y-153946000D01*
X107134000Y-153946000D01*
G37*
G36*
X107534000Y-153946000D02*
G01*
X107534000Y-154346000D01*
X107134000Y-154346000D01*
X107134000Y-153946000D01*
X107534000Y-153946000D01*
G37*
G36*
X108734000Y-153946000D02*
G01*
X108734000Y-154346000D01*
X108334000Y-154346000D01*
X108334000Y-153946000D01*
X108734000Y-153946000D01*
G37*
G36*
X109134000Y-153946000D02*
G01*
X109134000Y-154346000D01*
X108734000Y-154346000D01*
X108734000Y-153946000D01*
X109134000Y-153946000D01*
G37*
G36*
X110734000Y-153946000D02*
G01*
X110734000Y-154346000D01*
X110334000Y-154346000D01*
X110334000Y-153946000D01*
X110734000Y-153946000D01*
G37*
G36*
X111134000Y-153946000D02*
G01*
X111134000Y-154346000D01*
X110734000Y-154346000D01*
X110734000Y-153946000D01*
X111134000Y-153946000D01*
G37*
G36*
X111934000Y-153946000D02*
G01*
X111934000Y-154346000D01*
X111534000Y-154346000D01*
X111534000Y-153946000D01*
X111934000Y-153946000D01*
G37*
G36*
X112334000Y-153946000D02*
G01*
X112334000Y-154346000D01*
X111934000Y-154346000D01*
X111934000Y-153946000D01*
X112334000Y-153946000D01*
G37*
G36*
X113134000Y-153946000D02*
G01*
X113134000Y-154346000D01*
X112734000Y-154346000D01*
X112734000Y-153946000D01*
X113134000Y-153946000D01*
G37*
G36*
X101134000Y-153546000D02*
G01*
X101134000Y-153946000D01*
X100734000Y-153946000D01*
X100734000Y-153546000D01*
X101134000Y-153546000D01*
G37*
G36*
X101534000Y-153546000D02*
G01*
X101534000Y-153946000D01*
X101134000Y-153946000D01*
X101134000Y-153546000D01*
X101534000Y-153546000D01*
G37*
G36*
X101934000Y-153546000D02*
G01*
X101934000Y-153946000D01*
X101534000Y-153946000D01*
X101534000Y-153546000D01*
X101934000Y-153546000D01*
G37*
G36*
X102334000Y-153546000D02*
G01*
X102334000Y-153946000D01*
X101934000Y-153946000D01*
X101934000Y-153546000D01*
X102334000Y-153546000D01*
G37*
G36*
X102734000Y-153546000D02*
G01*
X102734000Y-153946000D01*
X102334000Y-153946000D01*
X102334000Y-153546000D01*
X102734000Y-153546000D01*
G37*
G36*
X103134000Y-153546000D02*
G01*
X103134000Y-153946000D01*
X102734000Y-153946000D01*
X102734000Y-153546000D01*
X103134000Y-153546000D01*
G37*
G36*
X103534000Y-153546000D02*
G01*
X103534000Y-153946000D01*
X103134000Y-153946000D01*
X103134000Y-153546000D01*
X103534000Y-153546000D01*
G37*
G36*
X103934000Y-153546000D02*
G01*
X103934000Y-153946000D01*
X103534000Y-153946000D01*
X103534000Y-153546000D01*
X103934000Y-153546000D01*
G37*
G36*
X105134000Y-153546000D02*
G01*
X105134000Y-153946000D01*
X104734000Y-153946000D01*
X104734000Y-153546000D01*
X105134000Y-153546000D01*
G37*
G36*
X105534000Y-153546000D02*
G01*
X105534000Y-153946000D01*
X105134000Y-153946000D01*
X105134000Y-153546000D01*
X105534000Y-153546000D01*
G37*
G36*
X109134000Y-153546000D02*
G01*
X109134000Y-153946000D01*
X108734000Y-153946000D01*
X108734000Y-153546000D01*
X109134000Y-153546000D01*
G37*
G36*
X109934000Y-153546000D02*
G01*
X109934000Y-153946000D01*
X109534000Y-153946000D01*
X109534000Y-153546000D01*
X109934000Y-153546000D01*
G37*
G36*
X110334000Y-153546000D02*
G01*
X110334000Y-153946000D01*
X109934000Y-153946000D01*
X109934000Y-153546000D01*
X110334000Y-153546000D01*
G37*
G36*
X110734000Y-153546000D02*
G01*
X110734000Y-153946000D01*
X110334000Y-153946000D01*
X110334000Y-153546000D01*
X110734000Y-153546000D01*
G37*
G36*
X111134000Y-153546000D02*
G01*
X111134000Y-153946000D01*
X110734000Y-153946000D01*
X110734000Y-153546000D01*
X111134000Y-153546000D01*
G37*
G36*
X111534000Y-153546000D02*
G01*
X111534000Y-153946000D01*
X111134000Y-153946000D01*
X111134000Y-153546000D01*
X111534000Y-153546000D01*
G37*
G36*
X112334000Y-153546000D02*
G01*
X112334000Y-153946000D01*
X111934000Y-153946000D01*
X111934000Y-153546000D01*
X112334000Y-153546000D01*
G37*
G36*
X113134000Y-153546000D02*
G01*
X113134000Y-153946000D01*
X112734000Y-153946000D01*
X112734000Y-153546000D01*
X113134000Y-153546000D01*
G37*
G36*
X100734000Y-153146000D02*
G01*
X100734000Y-153546000D01*
X100334000Y-153546000D01*
X100334000Y-153146000D01*
X100734000Y-153146000D01*
G37*
G36*
X101934000Y-153146000D02*
G01*
X101934000Y-153546000D01*
X101534000Y-153546000D01*
X101534000Y-153146000D01*
X101934000Y-153146000D01*
G37*
G36*
X102734000Y-153146000D02*
G01*
X102734000Y-153546000D01*
X102334000Y-153546000D01*
X102334000Y-153146000D01*
X102734000Y-153146000D01*
G37*
G36*
X103934000Y-153146000D02*
G01*
X103934000Y-153546000D01*
X103534000Y-153546000D01*
X103534000Y-153146000D01*
X103934000Y-153146000D01*
G37*
G36*
X106734000Y-153146000D02*
G01*
X106734000Y-153546000D01*
X106334000Y-153546000D01*
X106334000Y-153146000D01*
X106734000Y-153146000D01*
G37*
G36*
X107134000Y-153146000D02*
G01*
X107134000Y-153546000D01*
X106734000Y-153546000D01*
X106734000Y-153146000D01*
X107134000Y-153146000D01*
G37*
G36*
X107534000Y-153146000D02*
G01*
X107534000Y-153546000D01*
X107134000Y-153546000D01*
X107134000Y-153146000D01*
X107534000Y-153146000D01*
G37*
G36*
X108334000Y-153146000D02*
G01*
X108334000Y-153546000D01*
X107934000Y-153546000D01*
X107934000Y-153146000D01*
X108334000Y-153146000D01*
G37*
G36*
X108734000Y-153146000D02*
G01*
X108734000Y-153546000D01*
X108334000Y-153546000D01*
X108334000Y-153146000D01*
X108734000Y-153146000D01*
G37*
G36*
X110334000Y-153146000D02*
G01*
X110334000Y-153546000D01*
X109934000Y-153546000D01*
X109934000Y-153146000D01*
X110334000Y-153146000D01*
G37*
G36*
X111134000Y-153146000D02*
G01*
X111134000Y-153546000D01*
X110734000Y-153546000D01*
X110734000Y-153146000D01*
X111134000Y-153146000D01*
G37*
G36*
X111934000Y-153146000D02*
G01*
X111934000Y-153546000D01*
X111534000Y-153546000D01*
X111534000Y-153146000D01*
X111934000Y-153146000D01*
G37*
G36*
X113134000Y-153146000D02*
G01*
X113134000Y-153546000D01*
X112734000Y-153546000D01*
X112734000Y-153146000D01*
X113134000Y-153146000D01*
G37*
G36*
X113534000Y-153146000D02*
G01*
X113534000Y-153546000D01*
X113134000Y-153546000D01*
X113134000Y-153146000D01*
X113534000Y-153146000D01*
G37*
G36*
X101134000Y-152746000D02*
G01*
X101134000Y-153146000D01*
X100734000Y-153146000D01*
X100734000Y-152746000D01*
X101134000Y-152746000D01*
G37*
G36*
X102334000Y-152746000D02*
G01*
X102334000Y-153146000D01*
X101934000Y-153146000D01*
X101934000Y-152746000D01*
X102334000Y-152746000D01*
G37*
G36*
X103134000Y-152746000D02*
G01*
X103134000Y-153146000D01*
X102734000Y-153146000D01*
X102734000Y-152746000D01*
X103134000Y-152746000D01*
G37*
G36*
X103534000Y-152746000D02*
G01*
X103534000Y-153146000D01*
X103134000Y-153146000D01*
X103134000Y-152746000D01*
X103534000Y-152746000D01*
G37*
G36*
X104334000Y-152746000D02*
G01*
X104334000Y-153146000D01*
X103934000Y-153146000D01*
X103934000Y-152746000D01*
X104334000Y-152746000D01*
G37*
G36*
X104734000Y-152746000D02*
G01*
X104734000Y-153146000D01*
X104334000Y-153146000D01*
X104334000Y-152746000D01*
X104734000Y-152746000D01*
G37*
G36*
X105134000Y-152746000D02*
G01*
X105134000Y-153146000D01*
X104734000Y-153146000D01*
X104734000Y-152746000D01*
X105134000Y-152746000D01*
G37*
G36*
X106334000Y-152746000D02*
G01*
X106334000Y-153146000D01*
X105934000Y-153146000D01*
X105934000Y-152746000D01*
X106334000Y-152746000D01*
G37*
G36*
X107534000Y-152746000D02*
G01*
X107534000Y-153146000D01*
X107134000Y-153146000D01*
X107134000Y-152746000D01*
X107534000Y-152746000D01*
G37*
G36*
X109134000Y-152746000D02*
G01*
X109134000Y-153146000D01*
X108734000Y-153146000D01*
X108734000Y-152746000D01*
X109134000Y-152746000D01*
G37*
G36*
X109934000Y-152746000D02*
G01*
X109934000Y-153146000D01*
X109534000Y-153146000D01*
X109534000Y-152746000D01*
X109934000Y-152746000D01*
G37*
G36*
X110734000Y-152746000D02*
G01*
X110734000Y-153146000D01*
X110334000Y-153146000D01*
X110334000Y-152746000D01*
X110734000Y-152746000D01*
G37*
G36*
X111134000Y-152746000D02*
G01*
X111134000Y-153146000D01*
X110734000Y-153146000D01*
X110734000Y-152746000D01*
X111134000Y-152746000D01*
G37*
G36*
X112734000Y-152746000D02*
G01*
X112734000Y-153146000D01*
X112334000Y-153146000D01*
X112334000Y-152746000D01*
X112734000Y-152746000D01*
G37*
G36*
X113134000Y-152746000D02*
G01*
X113134000Y-153146000D01*
X112734000Y-153146000D01*
X112734000Y-152746000D01*
X113134000Y-152746000D01*
G37*
G36*
X100734000Y-152346000D02*
G01*
X100734000Y-152746000D01*
X100334000Y-152746000D01*
X100334000Y-152346000D01*
X100734000Y-152346000D01*
G37*
G36*
X101134000Y-152346000D02*
G01*
X101134000Y-152746000D01*
X100734000Y-152746000D01*
X100734000Y-152346000D01*
X101134000Y-152346000D01*
G37*
G36*
X101934000Y-152346000D02*
G01*
X101934000Y-152746000D01*
X101534000Y-152746000D01*
X101534000Y-152346000D01*
X101934000Y-152346000D01*
G37*
G36*
X102334000Y-152346000D02*
G01*
X102334000Y-152746000D01*
X101934000Y-152746000D01*
X101934000Y-152346000D01*
X102334000Y-152346000D01*
G37*
G36*
X102734000Y-152346000D02*
G01*
X102734000Y-152746000D01*
X102334000Y-152746000D01*
X102334000Y-152346000D01*
X102734000Y-152346000D01*
G37*
G36*
X103934000Y-152346000D02*
G01*
X103934000Y-152746000D01*
X103534000Y-152746000D01*
X103534000Y-152346000D01*
X103934000Y-152346000D01*
G37*
G36*
X104734000Y-152346000D02*
G01*
X104734000Y-152746000D01*
X104334000Y-152746000D01*
X104334000Y-152346000D01*
X104734000Y-152346000D01*
G37*
G36*
X105934000Y-152346000D02*
G01*
X105934000Y-152746000D01*
X105534000Y-152746000D01*
X105534000Y-152346000D01*
X105934000Y-152346000D01*
G37*
G36*
X106734000Y-152346000D02*
G01*
X106734000Y-152746000D01*
X106334000Y-152746000D01*
X106334000Y-152346000D01*
X106734000Y-152346000D01*
G37*
G36*
X107534000Y-152346000D02*
G01*
X107534000Y-152746000D01*
X107134000Y-152746000D01*
X107134000Y-152346000D01*
X107534000Y-152346000D01*
G37*
G36*
X107934000Y-152346000D02*
G01*
X107934000Y-152746000D01*
X107534000Y-152746000D01*
X107534000Y-152346000D01*
X107934000Y-152346000D01*
G37*
G36*
X108734000Y-152346000D02*
G01*
X108734000Y-152746000D01*
X108334000Y-152746000D01*
X108334000Y-152346000D01*
X108734000Y-152346000D01*
G37*
G36*
X109134000Y-152346000D02*
G01*
X109134000Y-152746000D01*
X108734000Y-152746000D01*
X108734000Y-152346000D01*
X109134000Y-152346000D01*
G37*
G36*
X111134000Y-152346000D02*
G01*
X111134000Y-152746000D01*
X110734000Y-152746000D01*
X110734000Y-152346000D01*
X111134000Y-152346000D01*
G37*
G36*
X111934000Y-152346000D02*
G01*
X111934000Y-152746000D01*
X111534000Y-152746000D01*
X111534000Y-152346000D01*
X111934000Y-152346000D01*
G37*
G36*
X112334000Y-152346000D02*
G01*
X112334000Y-152746000D01*
X111934000Y-152746000D01*
X111934000Y-152346000D01*
X112334000Y-152346000D01*
G37*
G36*
X113134000Y-152346000D02*
G01*
X113134000Y-152746000D01*
X112734000Y-152746000D01*
X112734000Y-152346000D01*
X113134000Y-152346000D01*
G37*
G36*
X101534000Y-151946000D02*
G01*
X101534000Y-152346000D01*
X101134000Y-152346000D01*
X101134000Y-151946000D01*
X101534000Y-151946000D01*
G37*
G36*
X102334000Y-151946000D02*
G01*
X102334000Y-152346000D01*
X101934000Y-152346000D01*
X101934000Y-151946000D01*
X102334000Y-151946000D01*
G37*
G36*
X103134000Y-151946000D02*
G01*
X103134000Y-152346000D01*
X102734000Y-152346000D01*
X102734000Y-151946000D01*
X103134000Y-151946000D01*
G37*
G36*
X103534000Y-151946000D02*
G01*
X103534000Y-152346000D01*
X103134000Y-152346000D01*
X103134000Y-151946000D01*
X103534000Y-151946000D01*
G37*
G36*
X103934000Y-151946000D02*
G01*
X103934000Y-152346000D01*
X103534000Y-152346000D01*
X103534000Y-151946000D01*
X103934000Y-151946000D01*
G37*
G36*
X104334000Y-151946000D02*
G01*
X104334000Y-152346000D01*
X103934000Y-152346000D01*
X103934000Y-151946000D01*
X104334000Y-151946000D01*
G37*
G36*
X104734000Y-151946000D02*
G01*
X104734000Y-152346000D01*
X104334000Y-152346000D01*
X104334000Y-151946000D01*
X104734000Y-151946000D01*
G37*
G36*
X105534000Y-151946000D02*
G01*
X105534000Y-152346000D01*
X105134000Y-152346000D01*
X105134000Y-151946000D01*
X105534000Y-151946000D01*
G37*
G36*
X107534000Y-151946000D02*
G01*
X107534000Y-152346000D01*
X107134000Y-152346000D01*
X107134000Y-151946000D01*
X107534000Y-151946000D01*
G37*
G36*
X109134000Y-151946000D02*
G01*
X109134000Y-152346000D01*
X108734000Y-152346000D01*
X108734000Y-151946000D01*
X109134000Y-151946000D01*
G37*
G36*
X109534000Y-151946000D02*
G01*
X109534000Y-152346000D01*
X109134000Y-152346000D01*
X109134000Y-151946000D01*
X109534000Y-151946000D01*
G37*
G36*
X110334000Y-151946000D02*
G01*
X110334000Y-152346000D01*
X109934000Y-152346000D01*
X109934000Y-151946000D01*
X110334000Y-151946000D01*
G37*
G36*
X111134000Y-151946000D02*
G01*
X111134000Y-152346000D01*
X110734000Y-152346000D01*
X110734000Y-151946000D01*
X111134000Y-151946000D01*
G37*
G36*
X111934000Y-151946000D02*
G01*
X111934000Y-152346000D01*
X111534000Y-152346000D01*
X111534000Y-151946000D01*
X111934000Y-151946000D01*
G37*
G36*
X112334000Y-151946000D02*
G01*
X112334000Y-152346000D01*
X111934000Y-152346000D01*
X111934000Y-151946000D01*
X112334000Y-151946000D01*
G37*
G36*
X113134000Y-151946000D02*
G01*
X113134000Y-152346000D01*
X112734000Y-152346000D01*
X112734000Y-151946000D01*
X113134000Y-151946000D01*
G37*
G36*
X101134000Y-151546000D02*
G01*
X101134000Y-151946000D01*
X100734000Y-151946000D01*
X100734000Y-151546000D01*
X101134000Y-151546000D01*
G37*
G36*
X101534000Y-151546000D02*
G01*
X101534000Y-151946000D01*
X101134000Y-151946000D01*
X101134000Y-151546000D01*
X101534000Y-151546000D01*
G37*
G36*
X101934000Y-151546000D02*
G01*
X101934000Y-151946000D01*
X101534000Y-151946000D01*
X101534000Y-151546000D01*
X101934000Y-151546000D01*
G37*
G36*
X102334000Y-151546000D02*
G01*
X102334000Y-151946000D01*
X101934000Y-151946000D01*
X101934000Y-151546000D01*
X102334000Y-151546000D01*
G37*
G36*
X104334000Y-151546000D02*
G01*
X104334000Y-151946000D01*
X103934000Y-151946000D01*
X103934000Y-151546000D01*
X104334000Y-151546000D01*
G37*
G36*
X104734000Y-151546000D02*
G01*
X104734000Y-151946000D01*
X104334000Y-151946000D01*
X104334000Y-151546000D01*
X104734000Y-151546000D01*
G37*
G36*
X105934000Y-151546000D02*
G01*
X105934000Y-151946000D01*
X105534000Y-151946000D01*
X105534000Y-151546000D01*
X105934000Y-151546000D01*
G37*
G36*
X106334000Y-151546000D02*
G01*
X106334000Y-151946000D01*
X105934000Y-151946000D01*
X105934000Y-151546000D01*
X106334000Y-151546000D01*
G37*
G36*
X107134000Y-151546000D02*
G01*
X107134000Y-151946000D01*
X106734000Y-151946000D01*
X106734000Y-151546000D01*
X107134000Y-151546000D01*
G37*
G36*
X108334000Y-151546000D02*
G01*
X108334000Y-151946000D01*
X107934000Y-151946000D01*
X107934000Y-151546000D01*
X108334000Y-151546000D01*
G37*
G36*
X109134000Y-151546000D02*
G01*
X109134000Y-151946000D01*
X108734000Y-151946000D01*
X108734000Y-151546000D01*
X109134000Y-151546000D01*
G37*
G36*
X109934000Y-151546000D02*
G01*
X109934000Y-151946000D01*
X109534000Y-151946000D01*
X109534000Y-151546000D01*
X109934000Y-151546000D01*
G37*
G36*
X110334000Y-151546000D02*
G01*
X110334000Y-151946000D01*
X109934000Y-151946000D01*
X109934000Y-151546000D01*
X110334000Y-151546000D01*
G37*
G36*
X110734000Y-151546000D02*
G01*
X110734000Y-151946000D01*
X110334000Y-151946000D01*
X110334000Y-151546000D01*
X110734000Y-151546000D01*
G37*
G36*
X111534000Y-151546000D02*
G01*
X111534000Y-151946000D01*
X111134000Y-151946000D01*
X111134000Y-151546000D01*
X111534000Y-151546000D01*
G37*
G36*
X112334000Y-151546000D02*
G01*
X112334000Y-151946000D01*
X111934000Y-151946000D01*
X111934000Y-151546000D01*
X112334000Y-151546000D01*
G37*
G36*
X113134000Y-151546000D02*
G01*
X113134000Y-151946000D01*
X112734000Y-151946000D01*
X112734000Y-151546000D01*
X113134000Y-151546000D01*
G37*
G36*
X101134000Y-151146000D02*
G01*
X101134000Y-151546000D01*
X100734000Y-151546000D01*
X100734000Y-151146000D01*
X101134000Y-151146000D01*
G37*
G36*
X102334000Y-151146000D02*
G01*
X102334000Y-151546000D01*
X101934000Y-151546000D01*
X101934000Y-151146000D01*
X102334000Y-151146000D01*
G37*
G36*
X103134000Y-151146000D02*
G01*
X103134000Y-151546000D01*
X102734000Y-151546000D01*
X102734000Y-151146000D01*
X103134000Y-151146000D01*
G37*
G36*
X104334000Y-151146000D02*
G01*
X104334000Y-151546000D01*
X103934000Y-151546000D01*
X103934000Y-151146000D01*
X104334000Y-151146000D01*
G37*
G36*
X105934000Y-151146000D02*
G01*
X105934000Y-151546000D01*
X105534000Y-151546000D01*
X105534000Y-151146000D01*
X105934000Y-151146000D01*
G37*
G36*
X107934000Y-151146000D02*
G01*
X107934000Y-151546000D01*
X107534000Y-151546000D01*
X107534000Y-151146000D01*
X107934000Y-151146000D01*
G37*
G36*
X110334000Y-151146000D02*
G01*
X110334000Y-151546000D01*
X109934000Y-151546000D01*
X109934000Y-151146000D01*
X110334000Y-151146000D01*
G37*
G36*
X112734000Y-151146000D02*
G01*
X112734000Y-151546000D01*
X112334000Y-151546000D01*
X112334000Y-151146000D01*
X112734000Y-151146000D01*
G37*
G36*
X113134000Y-151146000D02*
G01*
X113134000Y-151546000D01*
X112734000Y-151546000D01*
X112734000Y-151146000D01*
X113134000Y-151146000D01*
G37*
G36*
X113534000Y-151146000D02*
G01*
X113534000Y-151546000D01*
X113134000Y-151546000D01*
X113134000Y-151146000D01*
X113534000Y-151146000D01*
G37*
G36*
X100734000Y-150746000D02*
G01*
X100734000Y-151146000D01*
X100334000Y-151146000D01*
X100334000Y-150746000D01*
X100734000Y-150746000D01*
G37*
G36*
X101534000Y-150746000D02*
G01*
X101534000Y-151146000D01*
X101134000Y-151146000D01*
X101134000Y-150746000D01*
X101534000Y-150746000D01*
G37*
G36*
X101934000Y-150746000D02*
G01*
X101934000Y-151146000D01*
X101534000Y-151146000D01*
X101534000Y-150746000D01*
X101934000Y-150746000D01*
G37*
G36*
X102734000Y-150746000D02*
G01*
X102734000Y-151146000D01*
X102334000Y-151146000D01*
X102334000Y-150746000D01*
X102734000Y-150746000D01*
G37*
G36*
X103534000Y-150746000D02*
G01*
X103534000Y-151146000D01*
X103134000Y-151146000D01*
X103134000Y-150746000D01*
X103534000Y-150746000D01*
G37*
G36*
X104334000Y-150746000D02*
G01*
X104334000Y-151146000D01*
X103934000Y-151146000D01*
X103934000Y-150746000D01*
X104334000Y-150746000D01*
G37*
G36*
X105534000Y-150746000D02*
G01*
X105534000Y-151146000D01*
X105134000Y-151146000D01*
X105134000Y-150746000D01*
X105534000Y-150746000D01*
G37*
G36*
X105934000Y-150746000D02*
G01*
X105934000Y-151146000D01*
X105534000Y-151146000D01*
X105534000Y-150746000D01*
X105934000Y-150746000D01*
G37*
G36*
X107534000Y-150746000D02*
G01*
X107534000Y-151146000D01*
X107134000Y-151146000D01*
X107134000Y-150746000D01*
X107534000Y-150746000D01*
G37*
G36*
X107934000Y-150746000D02*
G01*
X107934000Y-151146000D01*
X107534000Y-151146000D01*
X107534000Y-150746000D01*
X107934000Y-150746000D01*
G37*
G36*
X108334000Y-150746000D02*
G01*
X108334000Y-151146000D01*
X107934000Y-151146000D01*
X107934000Y-150746000D01*
X108334000Y-150746000D01*
G37*
G36*
X108734000Y-150746000D02*
G01*
X108734000Y-151146000D01*
X108334000Y-151146000D01*
X108334000Y-150746000D01*
X108734000Y-150746000D01*
G37*
G36*
X109134000Y-150746000D02*
G01*
X109134000Y-151146000D01*
X108734000Y-151146000D01*
X108734000Y-150746000D01*
X109134000Y-150746000D01*
G37*
G36*
X109934000Y-150746000D02*
G01*
X109934000Y-151146000D01*
X109534000Y-151146000D01*
X109534000Y-150746000D01*
X109934000Y-150746000D01*
G37*
G36*
X110334000Y-150746000D02*
G01*
X110334000Y-151146000D01*
X109934000Y-151146000D01*
X109934000Y-150746000D01*
X110334000Y-150746000D01*
G37*
G36*
X110734000Y-150746000D02*
G01*
X110734000Y-151146000D01*
X110334000Y-151146000D01*
X110334000Y-150746000D01*
X110734000Y-150746000D01*
G37*
G36*
X111534000Y-150746000D02*
G01*
X111534000Y-151146000D01*
X111134000Y-151146000D01*
X111134000Y-150746000D01*
X111534000Y-150746000D01*
G37*
G36*
X113134000Y-150746000D02*
G01*
X113134000Y-151146000D01*
X112734000Y-151146000D01*
X112734000Y-150746000D01*
X113134000Y-150746000D01*
G37*
G36*
X113534000Y-150746000D02*
G01*
X113534000Y-151146000D01*
X113134000Y-151146000D01*
X113134000Y-150746000D01*
X113534000Y-150746000D01*
G37*
G36*
X100734000Y-150346000D02*
G01*
X100734000Y-150746000D01*
X100334000Y-150746000D01*
X100334000Y-150346000D01*
X100734000Y-150346000D01*
G37*
G36*
X101134000Y-150346000D02*
G01*
X101134000Y-150746000D01*
X100734000Y-150746000D01*
X100734000Y-150346000D01*
X101134000Y-150346000D01*
G37*
G36*
X102734000Y-150346000D02*
G01*
X102734000Y-150746000D01*
X102334000Y-150746000D01*
X102334000Y-150346000D01*
X102734000Y-150346000D01*
G37*
G36*
X103134000Y-150346000D02*
G01*
X103134000Y-150746000D01*
X102734000Y-150746000D01*
X102734000Y-150346000D01*
X103134000Y-150346000D01*
G37*
G36*
X103934000Y-150346000D02*
G01*
X103934000Y-150746000D01*
X103534000Y-150746000D01*
X103534000Y-150346000D01*
X103934000Y-150346000D01*
G37*
G36*
X105134000Y-150346000D02*
G01*
X105134000Y-150746000D01*
X104734000Y-150746000D01*
X104734000Y-150346000D01*
X105134000Y-150346000D01*
G37*
G36*
X105934000Y-150346000D02*
G01*
X105934000Y-150746000D01*
X105534000Y-150746000D01*
X105534000Y-150346000D01*
X105934000Y-150346000D01*
G37*
G36*
X106334000Y-150346000D02*
G01*
X106334000Y-150746000D01*
X105934000Y-150746000D01*
X105934000Y-150346000D01*
X106334000Y-150346000D01*
G37*
G36*
X107134000Y-150346000D02*
G01*
X107134000Y-150746000D01*
X106734000Y-150746000D01*
X106734000Y-150346000D01*
X107134000Y-150346000D01*
G37*
G36*
X107534000Y-150346000D02*
G01*
X107534000Y-150746000D01*
X107134000Y-150746000D01*
X107134000Y-150346000D01*
X107534000Y-150346000D01*
G37*
G36*
X107934000Y-150346000D02*
G01*
X107934000Y-150746000D01*
X107534000Y-150746000D01*
X107534000Y-150346000D01*
X107934000Y-150346000D01*
G37*
G36*
X108334000Y-150346000D02*
G01*
X108334000Y-150746000D01*
X107934000Y-150746000D01*
X107934000Y-150346000D01*
X108334000Y-150346000D01*
G37*
G36*
X109134000Y-150346000D02*
G01*
X109134000Y-150746000D01*
X108734000Y-150746000D01*
X108734000Y-150346000D01*
X109134000Y-150346000D01*
G37*
G36*
X109934000Y-150346000D02*
G01*
X109934000Y-150746000D01*
X109534000Y-150746000D01*
X109534000Y-150346000D01*
X109934000Y-150346000D01*
G37*
G36*
X110334000Y-150346000D02*
G01*
X110334000Y-150746000D01*
X109934000Y-150746000D01*
X109934000Y-150346000D01*
X110334000Y-150346000D01*
G37*
G36*
X110734000Y-150346000D02*
G01*
X110734000Y-150746000D01*
X110334000Y-150746000D01*
X110334000Y-150346000D01*
X110734000Y-150346000D01*
G37*
G36*
X113134000Y-150346000D02*
G01*
X113134000Y-150746000D01*
X112734000Y-150746000D01*
X112734000Y-150346000D01*
X113134000Y-150346000D01*
G37*
G36*
X113534000Y-150346000D02*
G01*
X113534000Y-150746000D01*
X113134000Y-150746000D01*
X113134000Y-150346000D01*
X113534000Y-150346000D01*
G37*
G36*
X101134000Y-149946000D02*
G01*
X101134000Y-150346000D01*
X100734000Y-150346000D01*
X100734000Y-149946000D01*
X101134000Y-149946000D01*
G37*
G36*
X101934000Y-149946000D02*
G01*
X101934000Y-150346000D01*
X101534000Y-150346000D01*
X101534000Y-149946000D01*
X101934000Y-149946000D01*
G37*
G36*
X102734000Y-149946000D02*
G01*
X102734000Y-150346000D01*
X102334000Y-150346000D01*
X102334000Y-149946000D01*
X102734000Y-149946000D01*
G37*
G36*
X103534000Y-149946000D02*
G01*
X103534000Y-150346000D01*
X103134000Y-150346000D01*
X103134000Y-149946000D01*
X103534000Y-149946000D01*
G37*
G36*
X104734000Y-149946000D02*
G01*
X104734000Y-150346000D01*
X104334000Y-150346000D01*
X104334000Y-149946000D01*
X104734000Y-149946000D01*
G37*
G36*
X105534000Y-149946000D02*
G01*
X105534000Y-150346000D01*
X105134000Y-150346000D01*
X105134000Y-149946000D01*
X105534000Y-149946000D01*
G37*
G36*
X105934000Y-149946000D02*
G01*
X105934000Y-150346000D01*
X105534000Y-150346000D01*
X105534000Y-149946000D01*
X105934000Y-149946000D01*
G37*
G36*
X106734000Y-149946000D02*
G01*
X106734000Y-150346000D01*
X106334000Y-150346000D01*
X106334000Y-149946000D01*
X106734000Y-149946000D01*
G37*
G36*
X107134000Y-149946000D02*
G01*
X107134000Y-150346000D01*
X106734000Y-150346000D01*
X106734000Y-149946000D01*
X107134000Y-149946000D01*
G37*
G36*
X107534000Y-149946000D02*
G01*
X107534000Y-150346000D01*
X107134000Y-150346000D01*
X107134000Y-149946000D01*
X107534000Y-149946000D01*
G37*
G36*
X107934000Y-149946000D02*
G01*
X107934000Y-150346000D01*
X107534000Y-150346000D01*
X107534000Y-149946000D01*
X107934000Y-149946000D01*
G37*
G36*
X108734000Y-149946000D02*
G01*
X108734000Y-150346000D01*
X108334000Y-150346000D01*
X108334000Y-149946000D01*
X108734000Y-149946000D01*
G37*
G36*
X109134000Y-149946000D02*
G01*
X109134000Y-150346000D01*
X108734000Y-150346000D01*
X108734000Y-149946000D01*
X109134000Y-149946000D01*
G37*
G36*
X110334000Y-149946000D02*
G01*
X110334000Y-150346000D01*
X109934000Y-150346000D01*
X109934000Y-149946000D01*
X110334000Y-149946000D01*
G37*
G36*
X110734000Y-149946000D02*
G01*
X110734000Y-150346000D01*
X110334000Y-150346000D01*
X110334000Y-149946000D01*
X110734000Y-149946000D01*
G37*
G36*
X113134000Y-149946000D02*
G01*
X113134000Y-150346000D01*
X112734000Y-150346000D01*
X112734000Y-149946000D01*
X113134000Y-149946000D01*
G37*
G36*
X113534000Y-149946000D02*
G01*
X113534000Y-150346000D01*
X113134000Y-150346000D01*
X113134000Y-149946000D01*
X113534000Y-149946000D01*
G37*
G36*
X100734000Y-149546000D02*
G01*
X100734000Y-149946000D01*
X100334000Y-149946000D01*
X100334000Y-149546000D01*
X100734000Y-149546000D01*
G37*
G36*
X101134000Y-149546000D02*
G01*
X101134000Y-149946000D01*
X100734000Y-149946000D01*
X100734000Y-149546000D01*
X101134000Y-149546000D01*
G37*
G36*
X101534000Y-149546000D02*
G01*
X101534000Y-149946000D01*
X101134000Y-149946000D01*
X101134000Y-149546000D01*
X101534000Y-149546000D01*
G37*
G36*
X102334000Y-149546000D02*
G01*
X102334000Y-149946000D01*
X101934000Y-149946000D01*
X101934000Y-149546000D01*
X102334000Y-149546000D01*
G37*
G36*
X103134000Y-149546000D02*
G01*
X103134000Y-149946000D01*
X102734000Y-149946000D01*
X102734000Y-149546000D01*
X103134000Y-149546000D01*
G37*
G36*
X103534000Y-149546000D02*
G01*
X103534000Y-149946000D01*
X103134000Y-149946000D01*
X103134000Y-149546000D01*
X103534000Y-149546000D01*
G37*
G36*
X105534000Y-149546000D02*
G01*
X105534000Y-149946000D01*
X105134000Y-149946000D01*
X105134000Y-149546000D01*
X105534000Y-149546000D01*
G37*
G36*
X106334000Y-149546000D02*
G01*
X106334000Y-149946000D01*
X105934000Y-149946000D01*
X105934000Y-149546000D01*
X106334000Y-149546000D01*
G37*
G36*
X106734000Y-149546000D02*
G01*
X106734000Y-149946000D01*
X106334000Y-149946000D01*
X106334000Y-149546000D01*
X106734000Y-149546000D01*
G37*
G36*
X108334000Y-149546000D02*
G01*
X108334000Y-149946000D01*
X107934000Y-149946000D01*
X107934000Y-149546000D01*
X108334000Y-149546000D01*
G37*
G36*
X109134000Y-149546000D02*
G01*
X109134000Y-149946000D01*
X108734000Y-149946000D01*
X108734000Y-149546000D01*
X109134000Y-149546000D01*
G37*
G36*
X111134000Y-149546000D02*
G01*
X111134000Y-149946000D01*
X110734000Y-149946000D01*
X110734000Y-149546000D01*
X111134000Y-149546000D01*
G37*
G36*
X111534000Y-149546000D02*
G01*
X111534000Y-149946000D01*
X111134000Y-149946000D01*
X111134000Y-149546000D01*
X111534000Y-149546000D01*
G37*
G36*
X112334000Y-149546000D02*
G01*
X112334000Y-149946000D01*
X111934000Y-149946000D01*
X111934000Y-149546000D01*
X112334000Y-149546000D01*
G37*
G36*
X112734000Y-149546000D02*
G01*
X112734000Y-149946000D01*
X112334000Y-149946000D01*
X112334000Y-149546000D01*
X112734000Y-149546000D01*
G37*
G36*
X113534000Y-149546000D02*
G01*
X113534000Y-149946000D01*
X113134000Y-149946000D01*
X113134000Y-149546000D01*
X113534000Y-149546000D01*
G37*
G36*
X101134000Y-149146000D02*
G01*
X101134000Y-149546000D01*
X100734000Y-149546000D01*
X100734000Y-149146000D01*
X101134000Y-149146000D01*
G37*
G36*
X104734000Y-149146000D02*
G01*
X104734000Y-149546000D01*
X104334000Y-149546000D01*
X104334000Y-149146000D01*
X104734000Y-149146000D01*
G37*
G36*
X105134000Y-149146000D02*
G01*
X105134000Y-149546000D01*
X104734000Y-149546000D01*
X104734000Y-149146000D01*
X105134000Y-149146000D01*
G37*
G36*
X105534000Y-149146000D02*
G01*
X105534000Y-149546000D01*
X105134000Y-149546000D01*
X105134000Y-149146000D01*
X105534000Y-149146000D01*
G37*
G36*
X107134000Y-149146000D02*
G01*
X107134000Y-149546000D01*
X106734000Y-149546000D01*
X106734000Y-149146000D01*
X107134000Y-149146000D01*
G37*
G36*
X107934000Y-149146000D02*
G01*
X107934000Y-149546000D01*
X107534000Y-149546000D01*
X107534000Y-149146000D01*
X107934000Y-149146000D01*
G37*
G36*
X108334000Y-149146000D02*
G01*
X108334000Y-149546000D01*
X107934000Y-149546000D01*
X107934000Y-149146000D01*
X108334000Y-149146000D01*
G37*
G36*
X108734000Y-149146000D02*
G01*
X108734000Y-149546000D01*
X108334000Y-149546000D01*
X108334000Y-149146000D01*
X108734000Y-149146000D01*
G37*
G36*
X109134000Y-149146000D02*
G01*
X109134000Y-149546000D01*
X108734000Y-149546000D01*
X108734000Y-149146000D01*
X109134000Y-149146000D01*
G37*
G36*
X109534000Y-149146000D02*
G01*
X109534000Y-149546000D01*
X109134000Y-149546000D01*
X109134000Y-149146000D01*
X109534000Y-149146000D01*
G37*
G36*
X110334000Y-149146000D02*
G01*
X110334000Y-149546000D01*
X109934000Y-149546000D01*
X109934000Y-149146000D01*
X110334000Y-149146000D01*
G37*
G36*
X112334000Y-149146000D02*
G01*
X112334000Y-149546000D01*
X111934000Y-149546000D01*
X111934000Y-149146000D01*
X112334000Y-149146000D01*
G37*
G36*
X113534000Y-149146000D02*
G01*
X113534000Y-149546000D01*
X113134000Y-149546000D01*
X113134000Y-149146000D01*
X113534000Y-149146000D01*
G37*
G36*
X100734000Y-148746000D02*
G01*
X100734000Y-149146000D01*
X100334000Y-149146000D01*
X100334000Y-148746000D01*
X100734000Y-148746000D01*
G37*
G36*
X102334000Y-148746000D02*
G01*
X102334000Y-149146000D01*
X101934000Y-149146000D01*
X101934000Y-148746000D01*
X102334000Y-148746000D01*
G37*
G36*
X103134000Y-148746000D02*
G01*
X103134000Y-149146000D01*
X102734000Y-149146000D01*
X102734000Y-148746000D01*
X103134000Y-148746000D01*
G37*
G36*
X103934000Y-148746000D02*
G01*
X103934000Y-149146000D01*
X103534000Y-149146000D01*
X103534000Y-148746000D01*
X103934000Y-148746000D01*
G37*
G36*
X106334000Y-148746000D02*
G01*
X106334000Y-149146000D01*
X105934000Y-149146000D01*
X105934000Y-148746000D01*
X106334000Y-148746000D01*
G37*
G36*
X106734000Y-148746000D02*
G01*
X106734000Y-149146000D01*
X106334000Y-149146000D01*
X106334000Y-148746000D01*
X106734000Y-148746000D01*
G37*
G36*
X107134000Y-148746000D02*
G01*
X107134000Y-149146000D01*
X106734000Y-149146000D01*
X106734000Y-148746000D01*
X107134000Y-148746000D01*
G37*
G36*
X108734000Y-148746000D02*
G01*
X108734000Y-149146000D01*
X108334000Y-149146000D01*
X108334000Y-148746000D01*
X108734000Y-148746000D01*
G37*
G36*
X109134000Y-148746000D02*
G01*
X109134000Y-149146000D01*
X108734000Y-149146000D01*
X108734000Y-148746000D01*
X109134000Y-148746000D01*
G37*
G36*
X110334000Y-148746000D02*
G01*
X110334000Y-149146000D01*
X109934000Y-149146000D01*
X109934000Y-148746000D01*
X110334000Y-148746000D01*
G37*
G36*
X110734000Y-148746000D02*
G01*
X110734000Y-149146000D01*
X110334000Y-149146000D01*
X110334000Y-148746000D01*
X110734000Y-148746000D01*
G37*
G36*
X111134000Y-148746000D02*
G01*
X111134000Y-149146000D01*
X110734000Y-149146000D01*
X110734000Y-148746000D01*
X111134000Y-148746000D01*
G37*
G36*
X111534000Y-148746000D02*
G01*
X111534000Y-149146000D01*
X111134000Y-149146000D01*
X111134000Y-148746000D01*
X111534000Y-148746000D01*
G37*
G36*
X111934000Y-148746000D02*
G01*
X111934000Y-149146000D01*
X111534000Y-149146000D01*
X111534000Y-148746000D01*
X111934000Y-148746000D01*
G37*
G36*
X112334000Y-148746000D02*
G01*
X112334000Y-149146000D01*
X111934000Y-149146000D01*
X111934000Y-148746000D01*
X112334000Y-148746000D01*
G37*
G36*
X112734000Y-148746000D02*
G01*
X112734000Y-149146000D01*
X112334000Y-149146000D01*
X112334000Y-148746000D01*
X112734000Y-148746000D01*
G37*
G36*
X113134000Y-148746000D02*
G01*
X113134000Y-149146000D01*
X112734000Y-149146000D01*
X112734000Y-148746000D01*
X113134000Y-148746000D01*
G37*
G36*
X113534000Y-148746000D02*
G01*
X113534000Y-149146000D01*
X113134000Y-149146000D01*
X113134000Y-148746000D01*
X113534000Y-148746000D01*
G37*
G36*
X103934000Y-148346000D02*
G01*
X103934000Y-148746000D01*
X103534000Y-148746000D01*
X103534000Y-148346000D01*
X103934000Y-148346000D01*
G37*
G36*
X104334000Y-148346000D02*
G01*
X104334000Y-148746000D01*
X103934000Y-148746000D01*
X103934000Y-148346000D01*
X104334000Y-148346000D01*
G37*
G36*
X105134000Y-148346000D02*
G01*
X105134000Y-148746000D01*
X104734000Y-148746000D01*
X104734000Y-148346000D01*
X105134000Y-148346000D01*
G37*
G36*
X105534000Y-148346000D02*
G01*
X105534000Y-148746000D01*
X105134000Y-148746000D01*
X105134000Y-148346000D01*
X105534000Y-148346000D01*
G37*
G36*
X105934000Y-148346000D02*
G01*
X105934000Y-148746000D01*
X105534000Y-148746000D01*
X105534000Y-148346000D01*
X105934000Y-148346000D01*
G37*
G36*
X106734000Y-148346000D02*
G01*
X106734000Y-148746000D01*
X106334000Y-148746000D01*
X106334000Y-148346000D01*
X106734000Y-148346000D01*
G37*
G36*
X108334000Y-148346000D02*
G01*
X108334000Y-148746000D01*
X107934000Y-148746000D01*
X107934000Y-148346000D01*
X108334000Y-148346000D01*
G37*
G36*
X109534000Y-148346000D02*
G01*
X109534000Y-148746000D01*
X109134000Y-148746000D01*
X109134000Y-148346000D01*
X109534000Y-148346000D01*
G37*
G36*
X110334000Y-148346000D02*
G01*
X110334000Y-148746000D01*
X109934000Y-148746000D01*
X109934000Y-148346000D01*
X110334000Y-148346000D01*
G37*
G36*
X111934000Y-148346000D02*
G01*
X111934000Y-148746000D01*
X111534000Y-148746000D01*
X111534000Y-148346000D01*
X111934000Y-148346000D01*
G37*
G36*
X112334000Y-148346000D02*
G01*
X112334000Y-148746000D01*
X111934000Y-148746000D01*
X111934000Y-148346000D01*
X112334000Y-148346000D01*
G37*
G36*
X113534000Y-148346000D02*
G01*
X113534000Y-148746000D01*
X113134000Y-148746000D01*
X113134000Y-148346000D01*
X113534000Y-148346000D01*
G37*
G36*
X100734000Y-147946000D02*
G01*
X100734000Y-148346000D01*
X100334000Y-148346000D01*
X100334000Y-147946000D01*
X100734000Y-147946000D01*
G37*
G36*
X101134000Y-147946000D02*
G01*
X101134000Y-148346000D01*
X100734000Y-148346000D01*
X100734000Y-147946000D01*
X101134000Y-147946000D01*
G37*
G36*
X101534000Y-147946000D02*
G01*
X101534000Y-148346000D01*
X101134000Y-148346000D01*
X101134000Y-147946000D01*
X101534000Y-147946000D01*
G37*
G36*
X101934000Y-147946000D02*
G01*
X101934000Y-148346000D01*
X101534000Y-148346000D01*
X101534000Y-147946000D01*
X101934000Y-147946000D01*
G37*
G36*
X102334000Y-147946000D02*
G01*
X102334000Y-148346000D01*
X101934000Y-148346000D01*
X101934000Y-147946000D01*
X102334000Y-147946000D01*
G37*
G36*
X102734000Y-147946000D02*
G01*
X102734000Y-148346000D01*
X102334000Y-148346000D01*
X102334000Y-147946000D01*
X102734000Y-147946000D01*
G37*
G36*
X103134000Y-147946000D02*
G01*
X103134000Y-148346000D01*
X102734000Y-148346000D01*
X102734000Y-147946000D01*
X103134000Y-147946000D01*
G37*
G36*
X104734000Y-147946000D02*
G01*
X104734000Y-148346000D01*
X104334000Y-148346000D01*
X104334000Y-147946000D01*
X104734000Y-147946000D01*
G37*
G36*
X105534000Y-147946000D02*
G01*
X105534000Y-148346000D01*
X105134000Y-148346000D01*
X105134000Y-147946000D01*
X105534000Y-147946000D01*
G37*
G36*
X105934000Y-147946000D02*
G01*
X105934000Y-148346000D01*
X105534000Y-148346000D01*
X105534000Y-147946000D01*
X105934000Y-147946000D01*
G37*
G36*
X108734000Y-147946000D02*
G01*
X108734000Y-148346000D01*
X108334000Y-148346000D01*
X108334000Y-147946000D01*
X108734000Y-147946000D01*
G37*
G36*
X110334000Y-147946000D02*
G01*
X110334000Y-148346000D01*
X109934000Y-148346000D01*
X109934000Y-147946000D01*
X110334000Y-147946000D01*
G37*
G36*
X111134000Y-147946000D02*
G01*
X111134000Y-148346000D01*
X110734000Y-148346000D01*
X110734000Y-147946000D01*
X111134000Y-147946000D01*
G37*
G36*
X111934000Y-147946000D02*
G01*
X111934000Y-148346000D01*
X111534000Y-148346000D01*
X111534000Y-147946000D01*
X111934000Y-147946000D01*
G37*
G36*
X112334000Y-147946000D02*
G01*
X112334000Y-148346000D01*
X111934000Y-148346000D01*
X111934000Y-147946000D01*
X112334000Y-147946000D01*
G37*
G36*
X112734000Y-147946000D02*
G01*
X112734000Y-148346000D01*
X112334000Y-148346000D01*
X112334000Y-147946000D01*
X112734000Y-147946000D01*
G37*
G36*
X113134000Y-147946000D02*
G01*
X113134000Y-148346000D01*
X112734000Y-148346000D01*
X112734000Y-147946000D01*
X113134000Y-147946000D01*
G37*
G36*
X100734000Y-147546000D02*
G01*
X100734000Y-147946000D01*
X100334000Y-147946000D01*
X100334000Y-147546000D01*
X100734000Y-147546000D01*
G37*
G36*
X103134000Y-147546000D02*
G01*
X103134000Y-147946000D01*
X102734000Y-147946000D01*
X102734000Y-147546000D01*
X103134000Y-147546000D01*
G37*
G36*
X103934000Y-147546000D02*
G01*
X103934000Y-147946000D01*
X103534000Y-147946000D01*
X103534000Y-147546000D01*
X103934000Y-147546000D01*
G37*
G36*
X104734000Y-147546000D02*
G01*
X104734000Y-147946000D01*
X104334000Y-147946000D01*
X104334000Y-147546000D01*
X104734000Y-147546000D01*
G37*
G36*
X105134000Y-147546000D02*
G01*
X105134000Y-147946000D01*
X104734000Y-147946000D01*
X104734000Y-147546000D01*
X105134000Y-147546000D01*
G37*
G36*
X105534000Y-147546000D02*
G01*
X105534000Y-147946000D01*
X105134000Y-147946000D01*
X105134000Y-147546000D01*
X105534000Y-147546000D01*
G37*
G36*
X106334000Y-147546000D02*
G01*
X106334000Y-147946000D01*
X105934000Y-147946000D01*
X105934000Y-147546000D01*
X106334000Y-147546000D01*
G37*
G36*
X107134000Y-147546000D02*
G01*
X107134000Y-147946000D01*
X106734000Y-147946000D01*
X106734000Y-147546000D01*
X107134000Y-147546000D01*
G37*
G36*
X108334000Y-147546000D02*
G01*
X108334000Y-147946000D01*
X107934000Y-147946000D01*
X107934000Y-147546000D01*
X108334000Y-147546000D01*
G37*
G36*
X108734000Y-147546000D02*
G01*
X108734000Y-147946000D01*
X108334000Y-147946000D01*
X108334000Y-147546000D01*
X108734000Y-147546000D01*
G37*
G36*
X109134000Y-147546000D02*
G01*
X109134000Y-147946000D01*
X108734000Y-147946000D01*
X108734000Y-147546000D01*
X109134000Y-147546000D01*
G37*
G36*
X110334000Y-147546000D02*
G01*
X110334000Y-147946000D01*
X109934000Y-147946000D01*
X109934000Y-147546000D01*
X110334000Y-147546000D01*
G37*
G36*
X111934000Y-147546000D02*
G01*
X111934000Y-147946000D01*
X111534000Y-147946000D01*
X111534000Y-147546000D01*
X111934000Y-147546000D01*
G37*
G36*
X100734000Y-147146000D02*
G01*
X100734000Y-147546000D01*
X100334000Y-147546000D01*
X100334000Y-147146000D01*
X100734000Y-147146000D01*
G37*
G36*
X101534000Y-147146000D02*
G01*
X101534000Y-147546000D01*
X101134000Y-147546000D01*
X101134000Y-147146000D01*
X101534000Y-147146000D01*
G37*
G36*
X101934000Y-147146000D02*
G01*
X101934000Y-147546000D01*
X101534000Y-147546000D01*
X101534000Y-147146000D01*
X101934000Y-147146000D01*
G37*
G36*
X102334000Y-147146000D02*
G01*
X102334000Y-147546000D01*
X101934000Y-147546000D01*
X101934000Y-147146000D01*
X102334000Y-147146000D01*
G37*
G36*
X103134000Y-147146000D02*
G01*
X103134000Y-147546000D01*
X102734000Y-147546000D01*
X102734000Y-147146000D01*
X103134000Y-147146000D01*
G37*
G36*
X104334000Y-147146000D02*
G01*
X104334000Y-147546000D01*
X103934000Y-147546000D01*
X103934000Y-147146000D01*
X104334000Y-147146000D01*
G37*
G36*
X104734000Y-147146000D02*
G01*
X104734000Y-147546000D01*
X104334000Y-147546000D01*
X104334000Y-147146000D01*
X104734000Y-147146000D01*
G37*
G36*
X106334000Y-147146000D02*
G01*
X106334000Y-147546000D01*
X105934000Y-147546000D01*
X105934000Y-147146000D01*
X106334000Y-147146000D01*
G37*
G36*
X106734000Y-147146000D02*
G01*
X106734000Y-147546000D01*
X106334000Y-147546000D01*
X106334000Y-147146000D01*
X106734000Y-147146000D01*
G37*
G36*
X107134000Y-147146000D02*
G01*
X107134000Y-147546000D01*
X106734000Y-147546000D01*
X106734000Y-147146000D01*
X107134000Y-147146000D01*
G37*
G36*
X108734000Y-147146000D02*
G01*
X108734000Y-147546000D01*
X108334000Y-147546000D01*
X108334000Y-147146000D01*
X108734000Y-147146000D01*
G37*
G36*
X109134000Y-147146000D02*
G01*
X109134000Y-147546000D01*
X108734000Y-147546000D01*
X108734000Y-147146000D01*
X109134000Y-147146000D01*
G37*
G36*
X109534000Y-147146000D02*
G01*
X109534000Y-147546000D01*
X109134000Y-147546000D01*
X109134000Y-147146000D01*
X109534000Y-147146000D01*
G37*
G36*
X110334000Y-147146000D02*
G01*
X110334000Y-147546000D01*
X109934000Y-147546000D01*
X109934000Y-147146000D01*
X110334000Y-147146000D01*
G37*
G36*
X110734000Y-147146000D02*
G01*
X110734000Y-147546000D01*
X110334000Y-147546000D01*
X110334000Y-147146000D01*
X110734000Y-147146000D01*
G37*
G36*
X111134000Y-147146000D02*
G01*
X111134000Y-147546000D01*
X110734000Y-147546000D01*
X110734000Y-147146000D01*
X111134000Y-147146000D01*
G37*
G36*
X111534000Y-147146000D02*
G01*
X111534000Y-147546000D01*
X111134000Y-147546000D01*
X111134000Y-147146000D01*
X111534000Y-147146000D01*
G37*
G36*
X111934000Y-147146000D02*
G01*
X111934000Y-147546000D01*
X111534000Y-147546000D01*
X111534000Y-147146000D01*
X111934000Y-147146000D01*
G37*
G36*
X112334000Y-147146000D02*
G01*
X112334000Y-147546000D01*
X111934000Y-147546000D01*
X111934000Y-147146000D01*
X112334000Y-147146000D01*
G37*
G36*
X113134000Y-147146000D02*
G01*
X113134000Y-147546000D01*
X112734000Y-147546000D01*
X112734000Y-147146000D01*
X113134000Y-147146000D01*
G37*
G36*
X100734000Y-146746000D02*
G01*
X100734000Y-147146000D01*
X100334000Y-147146000D01*
X100334000Y-146746000D01*
X100734000Y-146746000D01*
G37*
G36*
X101534000Y-146746000D02*
G01*
X101534000Y-147146000D01*
X101134000Y-147146000D01*
X101134000Y-146746000D01*
X101534000Y-146746000D01*
G37*
G36*
X101934000Y-146746000D02*
G01*
X101934000Y-147146000D01*
X101534000Y-147146000D01*
X101534000Y-146746000D01*
X101934000Y-146746000D01*
G37*
G36*
X102334000Y-146746000D02*
G01*
X102334000Y-147146000D01*
X101934000Y-147146000D01*
X101934000Y-146746000D01*
X102334000Y-146746000D01*
G37*
G36*
X103134000Y-146746000D02*
G01*
X103134000Y-147146000D01*
X102734000Y-147146000D01*
X102734000Y-146746000D01*
X103134000Y-146746000D01*
G37*
G36*
X103934000Y-146746000D02*
G01*
X103934000Y-147146000D01*
X103534000Y-147146000D01*
X103534000Y-146746000D01*
X103934000Y-146746000D01*
G37*
G36*
X105134000Y-146746000D02*
G01*
X105134000Y-147146000D01*
X104734000Y-147146000D01*
X104734000Y-146746000D01*
X105134000Y-146746000D01*
G37*
G36*
X106734000Y-146746000D02*
G01*
X106734000Y-147146000D01*
X106334000Y-147146000D01*
X106334000Y-146746000D01*
X106734000Y-146746000D01*
G37*
G36*
X109534000Y-146746000D02*
G01*
X109534000Y-147146000D01*
X109134000Y-147146000D01*
X109134000Y-146746000D01*
X109534000Y-146746000D01*
G37*
G36*
X109934000Y-146746000D02*
G01*
X109934000Y-147146000D01*
X109534000Y-147146000D01*
X109534000Y-146746000D01*
X109934000Y-146746000D01*
G37*
G36*
X111134000Y-146746000D02*
G01*
X111134000Y-147146000D01*
X110734000Y-147146000D01*
X110734000Y-146746000D01*
X111134000Y-146746000D01*
G37*
G36*
X111934000Y-146746000D02*
G01*
X111934000Y-147146000D01*
X111534000Y-147146000D01*
X111534000Y-146746000D01*
X111934000Y-146746000D01*
G37*
G36*
X100734000Y-146346000D02*
G01*
X100734000Y-146746000D01*
X100334000Y-146746000D01*
X100334000Y-146346000D01*
X100734000Y-146346000D01*
G37*
G36*
X101534000Y-146346000D02*
G01*
X101534000Y-146746000D01*
X101134000Y-146746000D01*
X101134000Y-146346000D01*
X101534000Y-146346000D01*
G37*
G36*
X101934000Y-146346000D02*
G01*
X101934000Y-146746000D01*
X101534000Y-146746000D01*
X101534000Y-146346000D01*
X101934000Y-146346000D01*
G37*
G36*
X102334000Y-146346000D02*
G01*
X102334000Y-146746000D01*
X101934000Y-146746000D01*
X101934000Y-146346000D01*
X102334000Y-146346000D01*
G37*
G36*
X103134000Y-146346000D02*
G01*
X103134000Y-146746000D01*
X102734000Y-146746000D01*
X102734000Y-146346000D01*
X103134000Y-146346000D01*
G37*
G36*
X104734000Y-146346000D02*
G01*
X104734000Y-146746000D01*
X104334000Y-146746000D01*
X104334000Y-146346000D01*
X104734000Y-146346000D01*
G37*
G36*
X105134000Y-146346000D02*
G01*
X105134000Y-146746000D01*
X104734000Y-146746000D01*
X104734000Y-146346000D01*
X105134000Y-146346000D01*
G37*
G36*
X107534000Y-146346000D02*
G01*
X107534000Y-146746000D01*
X107134000Y-146746000D01*
X107134000Y-146346000D01*
X107534000Y-146346000D01*
G37*
G36*
X107934000Y-146346000D02*
G01*
X107934000Y-146746000D01*
X107534000Y-146746000D01*
X107534000Y-146346000D01*
X107934000Y-146346000D01*
G37*
G36*
X109134000Y-146346000D02*
G01*
X109134000Y-146746000D01*
X108734000Y-146746000D01*
X108734000Y-146346000D01*
X109134000Y-146346000D01*
G37*
G36*
X111934000Y-146346000D02*
G01*
X111934000Y-146746000D01*
X111534000Y-146746000D01*
X111534000Y-146346000D01*
X111934000Y-146346000D01*
G37*
G36*
X112734000Y-146346000D02*
G01*
X112734000Y-146746000D01*
X112334000Y-146746000D01*
X112334000Y-146346000D01*
X112734000Y-146346000D01*
G37*
G36*
X113534000Y-146346000D02*
G01*
X113534000Y-146746000D01*
X113134000Y-146746000D01*
X113134000Y-146346000D01*
X113534000Y-146346000D01*
G37*
G36*
X100734000Y-145946000D02*
G01*
X100734000Y-146346000D01*
X100334000Y-146346000D01*
X100334000Y-145946000D01*
X100734000Y-145946000D01*
G37*
G36*
X103134000Y-145946000D02*
G01*
X103134000Y-146346000D01*
X102734000Y-146346000D01*
X102734000Y-145946000D01*
X103134000Y-145946000D01*
G37*
G36*
X104334000Y-145946000D02*
G01*
X104334000Y-146346000D01*
X103934000Y-146346000D01*
X103934000Y-145946000D01*
X104334000Y-145946000D01*
G37*
G36*
X104734000Y-145946000D02*
G01*
X104734000Y-146346000D01*
X104334000Y-146346000D01*
X104334000Y-145946000D01*
X104734000Y-145946000D01*
G37*
G36*
X105534000Y-145946000D02*
G01*
X105534000Y-146346000D01*
X105134000Y-146346000D01*
X105134000Y-145946000D01*
X105534000Y-145946000D01*
G37*
G36*
X105934000Y-145946000D02*
G01*
X105934000Y-146346000D01*
X105534000Y-146346000D01*
X105534000Y-145946000D01*
X105934000Y-145946000D01*
G37*
G36*
X106734000Y-145946000D02*
G01*
X106734000Y-146346000D01*
X106334000Y-146346000D01*
X106334000Y-145946000D01*
X106734000Y-145946000D01*
G37*
G36*
X107134000Y-145946000D02*
G01*
X107134000Y-146346000D01*
X106734000Y-146346000D01*
X106734000Y-145946000D01*
X107134000Y-145946000D01*
G37*
G36*
X107534000Y-145946000D02*
G01*
X107534000Y-146346000D01*
X107134000Y-146346000D01*
X107134000Y-145946000D01*
X107534000Y-145946000D01*
G37*
G36*
X107934000Y-145946000D02*
G01*
X107934000Y-146346000D01*
X107534000Y-146346000D01*
X107534000Y-145946000D01*
X107934000Y-145946000D01*
G37*
G36*
X108334000Y-145946000D02*
G01*
X108334000Y-146346000D01*
X107934000Y-146346000D01*
X107934000Y-145946000D01*
X108334000Y-145946000D01*
G37*
G36*
X109134000Y-145946000D02*
G01*
X109134000Y-146346000D01*
X108734000Y-146346000D01*
X108734000Y-145946000D01*
X109134000Y-145946000D01*
G37*
G36*
X110334000Y-145946000D02*
G01*
X110334000Y-146346000D01*
X109934000Y-146346000D01*
X109934000Y-145946000D01*
X110334000Y-145946000D01*
G37*
G36*
X110734000Y-145946000D02*
G01*
X110734000Y-146346000D01*
X110334000Y-146346000D01*
X110334000Y-145946000D01*
X110734000Y-145946000D01*
G37*
G36*
X111134000Y-145946000D02*
G01*
X111134000Y-146346000D01*
X110734000Y-146346000D01*
X110734000Y-145946000D01*
X111134000Y-145946000D01*
G37*
G36*
X100734000Y-145546000D02*
G01*
X100734000Y-145946000D01*
X100334000Y-145946000D01*
X100334000Y-145546000D01*
X100734000Y-145546000D01*
G37*
G36*
X101134000Y-145546000D02*
G01*
X101134000Y-145946000D01*
X100734000Y-145946000D01*
X100734000Y-145546000D01*
X101134000Y-145546000D01*
G37*
G36*
X101534000Y-145546000D02*
G01*
X101534000Y-145946000D01*
X101134000Y-145946000D01*
X101134000Y-145546000D01*
X101534000Y-145546000D01*
G37*
G36*
X101934000Y-145546000D02*
G01*
X101934000Y-145946000D01*
X101534000Y-145946000D01*
X101534000Y-145546000D01*
X101934000Y-145546000D01*
G37*
G36*
X102334000Y-145546000D02*
G01*
X102334000Y-145946000D01*
X101934000Y-145946000D01*
X101934000Y-145546000D01*
X102334000Y-145546000D01*
G37*
G36*
X102734000Y-145546000D02*
G01*
X102734000Y-145946000D01*
X102334000Y-145946000D01*
X102334000Y-145546000D01*
X102734000Y-145546000D01*
G37*
G36*
X103134000Y-145546000D02*
G01*
X103134000Y-145946000D01*
X102734000Y-145946000D01*
X102734000Y-145546000D01*
X103134000Y-145546000D01*
G37*
G36*
X103934000Y-145546000D02*
G01*
X103934000Y-145946000D01*
X103534000Y-145946000D01*
X103534000Y-145546000D01*
X103934000Y-145546000D01*
G37*
G36*
X104734000Y-145546000D02*
G01*
X104734000Y-145946000D01*
X104334000Y-145946000D01*
X104334000Y-145546000D01*
X104734000Y-145546000D01*
G37*
G36*
X105134000Y-145546000D02*
G01*
X105134000Y-145946000D01*
X104734000Y-145946000D01*
X104734000Y-145546000D01*
X105134000Y-145546000D01*
G37*
G36*
X105534000Y-145546000D02*
G01*
X105534000Y-145946000D01*
X105134000Y-145946000D01*
X105134000Y-145546000D01*
X105534000Y-145546000D01*
G37*
G36*
X107134000Y-145546000D02*
G01*
X107134000Y-145946000D01*
X106734000Y-145946000D01*
X106734000Y-145546000D01*
X107134000Y-145546000D01*
G37*
G36*
X107934000Y-145546000D02*
G01*
X107934000Y-145946000D01*
X107534000Y-145946000D01*
X107534000Y-145546000D01*
X107934000Y-145546000D01*
G37*
G36*
X109134000Y-145546000D02*
G01*
X109134000Y-145946000D01*
X108734000Y-145946000D01*
X108734000Y-145546000D01*
X109134000Y-145546000D01*
G37*
G36*
X110334000Y-145546000D02*
G01*
X110334000Y-145946000D01*
X109934000Y-145946000D01*
X109934000Y-145546000D01*
X110334000Y-145546000D01*
G37*
G36*
X111934000Y-145546000D02*
G01*
X111934000Y-145946000D01*
X111534000Y-145946000D01*
X111534000Y-145546000D01*
X111934000Y-145546000D01*
G37*
G36*
X113134000Y-145546000D02*
G01*
X113134000Y-145946000D01*
X112734000Y-145946000D01*
X112734000Y-145546000D01*
X113134000Y-145546000D01*
G37*
D11*
X132482000Y-125822064D02*
X132482000Y-124367936D01*
X130662000Y-125822064D02*
X130662000Y-124367936D01*
X131672936Y-113051000D02*
X133127064Y-113051000D01*
X131672936Y-111231000D02*
X133127064Y-111231000D01*
X131733936Y-110003000D02*
X133188064Y-110003000D01*
X131733936Y-108183000D02*
X133188064Y-108183000D01*
X132482000Y-81626064D02*
X132482000Y-80171936D01*
X130662000Y-81626064D02*
X130662000Y-80171936D01*
X132482000Y-67467564D02*
X132482000Y-66013436D01*
X130662000Y-67467564D02*
X130662000Y-66013436D01*
X145309000Y-120996064D02*
X145309000Y-119541936D01*
X143489000Y-120996064D02*
X143489000Y-119541936D01*
X138464936Y-119782000D02*
X139919064Y-119782000D01*
X138464936Y-117962000D02*
X139919064Y-117962000D01*
X145436000Y-129505064D02*
X145436000Y-128050936D01*
X143616000Y-129505064D02*
X143616000Y-128050936D01*
X138652936Y-130958000D02*
X140107064Y-130958000D01*
X138652936Y-129138000D02*
X140107064Y-129138000D01*
X145309000Y-143094064D02*
X145309000Y-141639936D01*
X143489000Y-143094064D02*
X143489000Y-141639936D01*
X138718936Y-141880000D02*
X140173064Y-141880000D01*
X138718936Y-140060000D02*
X140173064Y-140060000D01*
X140732000Y-66356000D02*
X140732000Y-67756000D01*
X141432000Y-68456000D02*
X142032000Y-68456000D01*
X142732000Y-67756000D02*
X142732000Y-66356000D01*
X142032000Y-65656000D02*
X141432000Y-65656000D01*
X141432000Y-65656000D02*
G75*
G03*
X140732000Y-66356000I0J-700000D01*
G01*
X142732000Y-66356000D02*
G75*
G03*
X142032000Y-65656000I-700000J0D01*
G01*
X142032000Y-68456000D02*
G75*
G03*
X142732000Y-67756000I0J700000D01*
G01*
X140732000Y-67756000D02*
G75*
G03*
X141432000Y-68456000I700000J0D01*
G01*
X130685000Y-105593000D02*
X132145000Y-105593000D01*
X130685000Y-102433000D02*
X132845000Y-102433000D01*
X130685000Y-102433000D02*
X130685000Y-103363000D01*
X130685000Y-105593000D02*
X130685000Y-104663000D01*
X131742000Y-95469064D02*
X131742000Y-94014936D01*
X133562000Y-95469064D02*
X133562000Y-94014936D01*
X141443064Y-110003000D02*
X139988936Y-110003000D01*
X141443064Y-108183000D02*
X139988936Y-108183000D01*
X139877748Y-69575000D02*
X141300252Y-69575000D01*
X139877748Y-71395000D02*
X141300252Y-71395000D01*
X139880758Y-83841000D02*
X141551242Y-83841000D01*
X139880758Y-82021000D02*
X141551242Y-82021000D01*
X139880758Y-86508000D02*
X141551242Y-86508000D01*
X139880758Y-84688000D02*
X141551242Y-84688000D01*
X141363252Y-89831500D02*
X139940748Y-89831500D01*
X141363252Y-91651500D02*
X139940748Y-91651500D01*
X141379064Y-73935000D02*
X139924936Y-73935000D01*
X141379064Y-72115000D02*
X139924936Y-72115000D01*
X140356000Y-66295748D02*
X140356000Y-67718252D01*
X138536000Y-66295748D02*
X138536000Y-67718252D01*
X141363252Y-96795000D02*
X139940748Y-96795000D01*
X141363252Y-94975000D02*
X139940748Y-94975000D01*
X141378252Y-94191500D02*
X139955748Y-94191500D01*
X141378252Y-92371500D02*
X139955748Y-92371500D01*
X141378252Y-89111500D02*
X139955748Y-89111500D01*
X141378252Y-87291500D02*
X139955748Y-87291500D01*
D10*
X142827619Y-114220761D02*
X142780000Y-114125523D01*
X142684761Y-114030285D01*
X142541904Y-113887428D01*
X142494285Y-113792190D01*
X142494285Y-113696952D01*
X142732380Y-113744571D02*
X142684761Y-113649333D01*
X142589523Y-113554095D01*
X142399047Y-113506476D01*
X142065714Y-113506476D01*
X141875238Y-113554095D01*
X141780000Y-113649333D01*
X141732380Y-113744571D01*
X141732380Y-113935047D01*
X141780000Y-114030285D01*
X141875238Y-114125523D01*
X142065714Y-114173142D01*
X142399047Y-114173142D01*
X142589523Y-114125523D01*
X142684761Y-114030285D01*
X142732380Y-113935047D01*
X142732380Y-113744571D01*
X142160952Y-114744571D02*
X142113333Y-114649333D01*
X142065714Y-114601714D01*
X141970476Y-114554095D01*
X141922857Y-114554095D01*
X141827619Y-114601714D01*
X141780000Y-114649333D01*
X141732380Y-114744571D01*
X141732380Y-114935047D01*
X141780000Y-115030285D01*
X141827619Y-115077904D01*
X141922857Y-115125523D01*
X141970476Y-115125523D01*
X142065714Y-115077904D01*
X142113333Y-115030285D01*
X142160952Y-114935047D01*
X142160952Y-114744571D01*
X142208571Y-114649333D01*
X142256190Y-114601714D01*
X142351428Y-114554095D01*
X142541904Y-114554095D01*
X142637142Y-114601714D01*
X142684761Y-114649333D01*
X142732380Y-114744571D01*
X142732380Y-114935047D01*
X142684761Y-115030285D01*
X142637142Y-115077904D01*
X142541904Y-115125523D01*
X142351428Y-115125523D01*
X142256190Y-115077904D01*
X142208571Y-115030285D01*
X142160952Y-114935047D01*
X147700619Y-133365761D02*
X147653000Y-133270523D01*
X147557761Y-133175285D01*
X147414904Y-133032428D01*
X147367285Y-132937190D01*
X147367285Y-132841952D01*
X147605380Y-132889571D02*
X147557761Y-132794333D01*
X147462523Y-132699095D01*
X147272047Y-132651476D01*
X146938714Y-132651476D01*
X146748238Y-132699095D01*
X146653000Y-132794333D01*
X146605380Y-132889571D01*
X146605380Y-133080047D01*
X146653000Y-133175285D01*
X146748238Y-133270523D01*
X146938714Y-133318142D01*
X147272047Y-133318142D01*
X147462523Y-133270523D01*
X147557761Y-133175285D01*
X147605380Y-133080047D01*
X147605380Y-132889571D01*
X146605380Y-133651476D02*
X146605380Y-134318142D01*
X147605380Y-133889571D01*
X130968238Y-159170666D02*
X130492047Y-159170666D01*
X131063476Y-159456380D02*
X130730142Y-158456380D01*
X130396809Y-159456380D01*
X129920619Y-159456380D02*
X130015857Y-159408761D01*
X130063476Y-159313523D01*
X130063476Y-158456380D01*
X129682523Y-158789714D02*
X129301571Y-158789714D01*
X129539666Y-158456380D02*
X129539666Y-159313523D01*
X129492047Y-159408761D01*
X129396809Y-159456380D01*
X129301571Y-159456380D01*
X128539666Y-159456380D02*
X128539666Y-158932571D01*
X128587285Y-158837333D01*
X128682523Y-158789714D01*
X128873000Y-158789714D01*
X128968238Y-158837333D01*
X128539666Y-159408761D02*
X128634904Y-159456380D01*
X128873000Y-159456380D01*
X128968238Y-159408761D01*
X129015857Y-159313523D01*
X129015857Y-159218285D01*
X128968238Y-159123047D01*
X128873000Y-159075428D01*
X128634904Y-159075428D01*
X128539666Y-159027809D01*
X128206333Y-158456380D02*
X127634904Y-158456380D01*
X127920619Y-159456380D02*
X127920619Y-158456380D01*
X126920619Y-159408761D02*
X127015857Y-159456380D01*
X127206333Y-159456380D01*
X127301571Y-159408761D01*
X127349190Y-159313523D01*
X127349190Y-158932571D01*
X127301571Y-158837333D01*
X127206333Y-158789714D01*
X127015857Y-158789714D01*
X126920619Y-158837333D01*
X126873000Y-158932571D01*
X126873000Y-159027809D01*
X127349190Y-159123047D01*
X126444428Y-158789714D02*
X126444428Y-159456380D01*
X126444428Y-158884952D02*
X126396809Y-158837333D01*
X126301571Y-158789714D01*
X126158714Y-158789714D01*
X126063476Y-158837333D01*
X126015857Y-158932571D01*
X126015857Y-159456380D01*
X125587285Y-159408761D02*
X125492047Y-159456380D01*
X125301571Y-159456380D01*
X125206333Y-159408761D01*
X125158714Y-159313523D01*
X125158714Y-159265904D01*
X125206333Y-159170666D01*
X125301571Y-159123047D01*
X125444428Y-159123047D01*
X125539666Y-159075428D01*
X125587285Y-158980190D01*
X125587285Y-158932571D01*
X125539666Y-158837333D01*
X125444428Y-158789714D01*
X125301571Y-158789714D01*
X125206333Y-158837333D01*
X124730142Y-159456380D02*
X124730142Y-158789714D01*
X124730142Y-158456380D02*
X124777761Y-158504000D01*
X124730142Y-158551619D01*
X124682523Y-158504000D01*
X124730142Y-158456380D01*
X124730142Y-158551619D01*
X124111095Y-159456380D02*
X124206333Y-159408761D01*
X124253952Y-159361142D01*
X124301571Y-159265904D01*
X124301571Y-158980190D01*
X124253952Y-158884952D01*
X124206333Y-158837333D01*
X124111095Y-158789714D01*
X123968238Y-158789714D01*
X123873000Y-158837333D01*
X123825380Y-158884952D01*
X123777761Y-158980190D01*
X123777761Y-159265904D01*
X123825380Y-159361142D01*
X123873000Y-159408761D01*
X123968238Y-159456380D01*
X124111095Y-159456380D01*
X123349190Y-158789714D02*
X123349190Y-159456380D01*
X123349190Y-158884952D02*
X123301571Y-158837333D01*
X123206333Y-158789714D01*
X123063476Y-158789714D01*
X122968238Y-158837333D01*
X122920619Y-158932571D01*
X122920619Y-159456380D01*
X122063476Y-159408761D02*
X122158714Y-159456380D01*
X122349190Y-159456380D01*
X122444428Y-159408761D01*
X122492047Y-159313523D01*
X122492047Y-158932571D01*
X122444428Y-158837333D01*
X122349190Y-158789714D01*
X122158714Y-158789714D01*
X122063476Y-158837333D01*
X122015857Y-158932571D01*
X122015857Y-159027809D01*
X122492047Y-159123047D01*
X108957809Y-144893619D02*
X109053047Y-144846000D01*
X109148285Y-144750761D01*
X109291142Y-144607904D01*
X109386380Y-144560285D01*
X109481619Y-144560285D01*
X109434000Y-144798380D02*
X109529238Y-144750761D01*
X109624476Y-144655523D01*
X109672095Y-144465047D01*
X109672095Y-144131714D01*
X109624476Y-143941238D01*
X109529238Y-143846000D01*
X109434000Y-143798380D01*
X109243523Y-143798380D01*
X109148285Y-143846000D01*
X109053047Y-143941238D01*
X109005428Y-144131714D01*
X109005428Y-144465047D01*
X109053047Y-144655523D01*
X109148285Y-144750761D01*
X109243523Y-144798380D01*
X109434000Y-144798380D01*
X108005428Y-144798380D02*
X108338761Y-144322190D01*
X108576857Y-144798380D02*
X108576857Y-143798380D01*
X108195904Y-143798380D01*
X108100666Y-143846000D01*
X108053047Y-143893619D01*
X108005428Y-143988857D01*
X108005428Y-144131714D01*
X108053047Y-144226952D01*
X108100666Y-144274571D01*
X108195904Y-144322190D01*
X108576857Y-144322190D01*
X107434000Y-143798380D02*
X107434000Y-144036476D01*
X107672095Y-143941238D02*
X107434000Y-144036476D01*
X107195904Y-143941238D01*
X107576857Y-144226952D02*
X107434000Y-144036476D01*
X107291142Y-144226952D01*
X106672095Y-143798380D02*
X106672095Y-144036476D01*
X106910190Y-143941238D02*
X106672095Y-144036476D01*
X106434000Y-143941238D01*
X106814952Y-144226952D02*
X106672095Y-144036476D01*
X106529238Y-144226952D01*
X105910190Y-143798380D02*
X105910190Y-144036476D01*
X106148285Y-143941238D02*
X105910190Y-144036476D01*
X105672095Y-143941238D01*
X106053047Y-144226952D02*
X105910190Y-144036476D01*
X105767333Y-144226952D01*
X105148285Y-143798380D02*
X105148285Y-144036476D01*
X105386380Y-143941238D02*
X105148285Y-144036476D01*
X104910190Y-143941238D01*
X105291142Y-144226952D02*
X105148285Y-144036476D01*
X105005428Y-144226952D01*
X104386380Y-143798380D02*
X104386380Y-144036476D01*
X104624476Y-143941238D02*
X104386380Y-144036476D01*
X104148285Y-143941238D01*
X104529238Y-144226952D02*
X104386380Y-144036476D01*
X104243523Y-144226952D01*
X133844380Y-124452142D02*
X133368190Y-124118809D01*
X133844380Y-123880714D02*
X132844380Y-123880714D01*
X132844380Y-124261666D01*
X132892000Y-124356904D01*
X132939619Y-124404523D01*
X133034857Y-124452142D01*
X133177714Y-124452142D01*
X133272952Y-124404523D01*
X133320571Y-124356904D01*
X133368190Y-124261666D01*
X133368190Y-123880714D01*
X133844380Y-125404523D02*
X133844380Y-124833095D01*
X133844380Y-125118809D02*
X132844380Y-125118809D01*
X132987238Y-125023571D01*
X133082476Y-124928333D01*
X133130095Y-124833095D01*
X132844380Y-125737857D02*
X132844380Y-126404523D01*
X133844380Y-125975952D01*
X133042857Y-114413380D02*
X133376190Y-113937190D01*
X133614285Y-114413380D02*
X133614285Y-113413380D01*
X133233333Y-113413380D01*
X133138095Y-113461000D01*
X133090476Y-113508619D01*
X133042857Y-113603857D01*
X133042857Y-113746714D01*
X133090476Y-113841952D01*
X133138095Y-113889571D01*
X133233333Y-113937190D01*
X133614285Y-113937190D01*
X132090476Y-114413380D02*
X132661904Y-114413380D01*
X132376190Y-114413380D02*
X132376190Y-113413380D01*
X132471428Y-113556238D01*
X132566666Y-113651476D01*
X132661904Y-113699095D01*
X131233333Y-113413380D02*
X131423809Y-113413380D01*
X131519047Y-113461000D01*
X131566666Y-113508619D01*
X131661904Y-113651476D01*
X131709523Y-113841952D01*
X131709523Y-114222904D01*
X131661904Y-114318142D01*
X131614285Y-114365761D01*
X131519047Y-114413380D01*
X131328571Y-114413380D01*
X131233333Y-114365761D01*
X131185714Y-114318142D01*
X131138095Y-114222904D01*
X131138095Y-113984809D01*
X131185714Y-113889571D01*
X131233333Y-113841952D01*
X131328571Y-113794333D01*
X131519047Y-113794333D01*
X131614285Y-113841952D01*
X131661904Y-113889571D01*
X131709523Y-113984809D01*
X133103857Y-111365380D02*
X133437190Y-110889190D01*
X133675285Y-111365380D02*
X133675285Y-110365380D01*
X133294333Y-110365380D01*
X133199095Y-110413000D01*
X133151476Y-110460619D01*
X133103857Y-110555857D01*
X133103857Y-110698714D01*
X133151476Y-110793952D01*
X133199095Y-110841571D01*
X133294333Y-110889190D01*
X133675285Y-110889190D01*
X132151476Y-111365380D02*
X132722904Y-111365380D01*
X132437190Y-111365380D02*
X132437190Y-110365380D01*
X132532428Y-110508238D01*
X132627666Y-110603476D01*
X132722904Y-110651095D01*
X131246714Y-110365380D02*
X131722904Y-110365380D01*
X131770523Y-110841571D01*
X131722904Y-110793952D01*
X131627666Y-110746333D01*
X131389571Y-110746333D01*
X131294333Y-110793952D01*
X131246714Y-110841571D01*
X131199095Y-110936809D01*
X131199095Y-111174904D01*
X131246714Y-111270142D01*
X131294333Y-111317761D01*
X131389571Y-111365380D01*
X131627666Y-111365380D01*
X131722904Y-111317761D01*
X131770523Y-111270142D01*
X133844380Y-80256142D02*
X133368190Y-79922809D01*
X133844380Y-79684714D02*
X132844380Y-79684714D01*
X132844380Y-80065666D01*
X132892000Y-80160904D01*
X132939619Y-80208523D01*
X133034857Y-80256142D01*
X133177714Y-80256142D01*
X133272952Y-80208523D01*
X133320571Y-80160904D01*
X133368190Y-80065666D01*
X133368190Y-79684714D01*
X133844380Y-81208523D02*
X133844380Y-80637095D01*
X133844380Y-80922809D02*
X132844380Y-80922809D01*
X132987238Y-80827571D01*
X133082476Y-80732333D01*
X133130095Y-80637095D01*
X133177714Y-82065666D02*
X133844380Y-82065666D01*
X132796761Y-81827571D02*
X133511047Y-81589476D01*
X133511047Y-82208523D01*
X133844380Y-66097642D02*
X133368190Y-65764309D01*
X133844380Y-65526214D02*
X132844380Y-65526214D01*
X132844380Y-65907166D01*
X132892000Y-66002404D01*
X132939619Y-66050023D01*
X133034857Y-66097642D01*
X133177714Y-66097642D01*
X133272952Y-66050023D01*
X133320571Y-66002404D01*
X133368190Y-65907166D01*
X133368190Y-65526214D01*
X133844380Y-67050023D02*
X133844380Y-66478595D01*
X133844380Y-66764309D02*
X132844380Y-66764309D01*
X132987238Y-66669071D01*
X133082476Y-66573833D01*
X133130095Y-66478595D01*
X132844380Y-67383357D02*
X132844380Y-68002404D01*
X133225333Y-67669071D01*
X133225333Y-67811928D01*
X133272952Y-67907166D01*
X133320571Y-67954785D01*
X133415809Y-68002404D01*
X133653904Y-68002404D01*
X133749142Y-67954785D01*
X133796761Y-67907166D01*
X133844380Y-67811928D01*
X133844380Y-67526214D01*
X133796761Y-67430976D01*
X133749142Y-67383357D01*
X146671380Y-119626142D02*
X146195190Y-119292809D01*
X146671380Y-119054714D02*
X145671380Y-119054714D01*
X145671380Y-119435666D01*
X145719000Y-119530904D01*
X145766619Y-119578523D01*
X145861857Y-119626142D01*
X146004714Y-119626142D01*
X146099952Y-119578523D01*
X146147571Y-119530904D01*
X146195190Y-119435666D01*
X146195190Y-119054714D01*
X146671380Y-120578523D02*
X146671380Y-120007095D01*
X146671380Y-120292809D02*
X145671380Y-120292809D01*
X145814238Y-120197571D01*
X145909476Y-120102333D01*
X145957095Y-120007095D01*
X146671380Y-121530904D02*
X146671380Y-120959476D01*
X146671380Y-121245190D02*
X145671380Y-121245190D01*
X145814238Y-121149952D01*
X145909476Y-121054714D01*
X145957095Y-120959476D01*
X139834857Y-121144380D02*
X140168190Y-120668190D01*
X140406285Y-121144380D02*
X140406285Y-120144380D01*
X140025333Y-120144380D01*
X139930095Y-120192000D01*
X139882476Y-120239619D01*
X139834857Y-120334857D01*
X139834857Y-120477714D01*
X139882476Y-120572952D01*
X139930095Y-120620571D01*
X140025333Y-120668190D01*
X140406285Y-120668190D01*
X138882476Y-121144380D02*
X139453904Y-121144380D01*
X139168190Y-121144380D02*
X139168190Y-120144380D01*
X139263428Y-120287238D01*
X139358666Y-120382476D01*
X139453904Y-120430095D01*
X138263428Y-120144380D02*
X138168190Y-120144380D01*
X138072952Y-120192000D01*
X138025333Y-120239619D01*
X137977714Y-120334857D01*
X137930095Y-120525333D01*
X137930095Y-120763428D01*
X137977714Y-120953904D01*
X138025333Y-121049142D01*
X138072952Y-121096761D01*
X138168190Y-121144380D01*
X138263428Y-121144380D01*
X138358666Y-121096761D01*
X138406285Y-121049142D01*
X138453904Y-120953904D01*
X138501523Y-120763428D01*
X138501523Y-120525333D01*
X138453904Y-120334857D01*
X138406285Y-120239619D01*
X138358666Y-120192000D01*
X138263428Y-120144380D01*
X146798380Y-128611333D02*
X146322190Y-128278000D01*
X146798380Y-128039904D02*
X145798380Y-128039904D01*
X145798380Y-128420857D01*
X145846000Y-128516095D01*
X145893619Y-128563714D01*
X145988857Y-128611333D01*
X146131714Y-128611333D01*
X146226952Y-128563714D01*
X146274571Y-128516095D01*
X146322190Y-128420857D01*
X146322190Y-128039904D01*
X146226952Y-129182761D02*
X146179333Y-129087523D01*
X146131714Y-129039904D01*
X146036476Y-128992285D01*
X145988857Y-128992285D01*
X145893619Y-129039904D01*
X145846000Y-129087523D01*
X145798380Y-129182761D01*
X145798380Y-129373238D01*
X145846000Y-129468476D01*
X145893619Y-129516095D01*
X145988857Y-129563714D01*
X146036476Y-129563714D01*
X146131714Y-129516095D01*
X146179333Y-129468476D01*
X146226952Y-129373238D01*
X146226952Y-129182761D01*
X146274571Y-129087523D01*
X146322190Y-129039904D01*
X146417428Y-128992285D01*
X146607904Y-128992285D01*
X146703142Y-129039904D01*
X146750761Y-129087523D01*
X146798380Y-129182761D01*
X146798380Y-129373238D01*
X146750761Y-129468476D01*
X146703142Y-129516095D01*
X146607904Y-129563714D01*
X146417428Y-129563714D01*
X146322190Y-129516095D01*
X146274571Y-129468476D01*
X146226952Y-129373238D01*
X139546666Y-132320380D02*
X139880000Y-131844190D01*
X140118095Y-132320380D02*
X140118095Y-131320380D01*
X139737142Y-131320380D01*
X139641904Y-131368000D01*
X139594285Y-131415619D01*
X139546666Y-131510857D01*
X139546666Y-131653714D01*
X139594285Y-131748952D01*
X139641904Y-131796571D01*
X139737142Y-131844190D01*
X140118095Y-131844190D01*
X139213333Y-131320380D02*
X138546666Y-131320380D01*
X138975238Y-132320380D01*
X146671380Y-142200333D02*
X146195190Y-141867000D01*
X146671380Y-141628904D02*
X145671380Y-141628904D01*
X145671380Y-142009857D01*
X145719000Y-142105095D01*
X145766619Y-142152714D01*
X145861857Y-142200333D01*
X146004714Y-142200333D01*
X146099952Y-142152714D01*
X146147571Y-142105095D01*
X146195190Y-142009857D01*
X146195190Y-141628904D01*
X145671380Y-143105095D02*
X145671380Y-142628904D01*
X146147571Y-142581285D01*
X146099952Y-142628904D01*
X146052333Y-142724142D01*
X146052333Y-142962238D01*
X146099952Y-143057476D01*
X146147571Y-143105095D01*
X146242809Y-143152714D01*
X146480904Y-143152714D01*
X146576142Y-143105095D01*
X146623761Y-143057476D01*
X146671380Y-142962238D01*
X146671380Y-142724142D01*
X146623761Y-142628904D01*
X146576142Y-142581285D01*
X139612666Y-143242380D02*
X139946000Y-142766190D01*
X140184095Y-143242380D02*
X140184095Y-142242380D01*
X139803142Y-142242380D01*
X139707904Y-142290000D01*
X139660285Y-142337619D01*
X139612666Y-142432857D01*
X139612666Y-142575714D01*
X139660285Y-142670952D01*
X139707904Y-142718571D01*
X139803142Y-142766190D01*
X140184095Y-142766190D01*
X138755523Y-142575714D02*
X138755523Y-143242380D01*
X138993619Y-142194761D02*
X139231714Y-142909047D01*
X138612666Y-142909047D01*
X140336761Y-63008380D02*
X140384380Y-63151238D01*
X140384380Y-63389333D01*
X140336761Y-63484571D01*
X140289142Y-63532190D01*
X140193904Y-63579809D01*
X140098666Y-63579809D01*
X140003428Y-63532190D01*
X139955809Y-63484571D01*
X139908190Y-63389333D01*
X139860571Y-63198857D01*
X139812952Y-63103619D01*
X139765333Y-63056000D01*
X139670095Y-63008380D01*
X139574857Y-63008380D01*
X139479619Y-63056000D01*
X139432000Y-63103619D01*
X139384380Y-63198857D01*
X139384380Y-63436952D01*
X139432000Y-63579809D01*
X140384380Y-64151238D02*
X140336761Y-64056000D01*
X140241523Y-64008380D01*
X139384380Y-64008380D01*
X140384380Y-64675047D02*
X140336761Y-64579809D01*
X140289142Y-64532190D01*
X140193904Y-64484571D01*
X139908190Y-64484571D01*
X139812952Y-64532190D01*
X139765333Y-64579809D01*
X139717714Y-64675047D01*
X139717714Y-64817904D01*
X139765333Y-64913142D01*
X139812952Y-64960761D01*
X139908190Y-65008380D01*
X140193904Y-65008380D01*
X140289142Y-64960761D01*
X140336761Y-64913142D01*
X140384380Y-64817904D01*
X140384380Y-64675047D01*
X139717714Y-65341714D02*
X140384380Y-65532190D01*
X139908190Y-65722666D01*
X140384380Y-65913142D01*
X139717714Y-66103619D01*
X140384380Y-67056000D02*
X139908190Y-66722666D01*
X140384380Y-66484571D02*
X139384380Y-66484571D01*
X139384380Y-66865523D01*
X139432000Y-66960761D01*
X139479619Y-67008380D01*
X139574857Y-67056000D01*
X139717714Y-67056000D01*
X139812952Y-67008380D01*
X139860571Y-66960761D01*
X139908190Y-66865523D01*
X139908190Y-66484571D01*
X140336761Y-67865523D02*
X140384380Y-67770285D01*
X140384380Y-67579809D01*
X140336761Y-67484571D01*
X140241523Y-67436952D01*
X139860571Y-67436952D01*
X139765333Y-67484571D01*
X139717714Y-67579809D01*
X139717714Y-67770285D01*
X139765333Y-67865523D01*
X139860571Y-67913142D01*
X139955809Y-67913142D01*
X140051047Y-67436952D01*
X140336761Y-68294095D02*
X140384380Y-68389333D01*
X140384380Y-68579809D01*
X140336761Y-68675047D01*
X140241523Y-68722666D01*
X140193904Y-68722666D01*
X140098666Y-68675047D01*
X140051047Y-68579809D01*
X140051047Y-68436952D01*
X140003428Y-68341714D01*
X139908190Y-68294095D01*
X139860571Y-68294095D01*
X139765333Y-68341714D01*
X139717714Y-68436952D01*
X139717714Y-68579809D01*
X139765333Y-68675047D01*
X140336761Y-69532190D02*
X140384380Y-69436952D01*
X140384380Y-69246476D01*
X140336761Y-69151238D01*
X140241523Y-69103619D01*
X139860571Y-69103619D01*
X139765333Y-69151238D01*
X139717714Y-69246476D01*
X139717714Y-69436952D01*
X139765333Y-69532190D01*
X139860571Y-69579809D01*
X139955809Y-69579809D01*
X140051047Y-69103619D01*
X139717714Y-69865523D02*
X139717714Y-70246476D01*
X139384380Y-70008380D02*
X140241523Y-70008380D01*
X140336761Y-70056000D01*
X140384380Y-70151238D01*
X140384380Y-70246476D01*
X140384380Y-71103619D02*
X140384380Y-70532190D01*
X140384380Y-70817904D02*
X139384380Y-70817904D01*
X139527238Y-70722666D01*
X139622476Y-70627428D01*
X139670095Y-70532190D01*
X132302238Y-102060619D02*
X132397476Y-102013000D01*
X132492714Y-101917761D01*
X132635571Y-101774904D01*
X132730809Y-101727285D01*
X132826047Y-101727285D01*
X132778428Y-101965380D02*
X132873666Y-101917761D01*
X132968904Y-101822523D01*
X133016523Y-101632047D01*
X133016523Y-101298714D01*
X132968904Y-101108238D01*
X132873666Y-101013000D01*
X132778428Y-100965380D01*
X132587952Y-100965380D01*
X132492714Y-101013000D01*
X132397476Y-101108238D01*
X132349857Y-101298714D01*
X132349857Y-101632047D01*
X132397476Y-101822523D01*
X132492714Y-101917761D01*
X132587952Y-101965380D01*
X132778428Y-101965380D01*
X132016523Y-100965380D02*
X131397476Y-100965380D01*
X131730809Y-101346333D01*
X131587952Y-101346333D01*
X131492714Y-101393952D01*
X131445095Y-101441571D01*
X131397476Y-101536809D01*
X131397476Y-101774904D01*
X131445095Y-101870142D01*
X131492714Y-101917761D01*
X131587952Y-101965380D01*
X131873666Y-101965380D01*
X131968904Y-101917761D01*
X132016523Y-101870142D01*
X134924380Y-94575333D02*
X134448190Y-94242000D01*
X134924380Y-94003904D02*
X133924380Y-94003904D01*
X133924380Y-94384857D01*
X133972000Y-94480095D01*
X134019619Y-94527714D01*
X134114857Y-94575333D01*
X134257714Y-94575333D01*
X134352952Y-94527714D01*
X134400571Y-94480095D01*
X134448190Y-94384857D01*
X134448190Y-94003904D01*
X133924380Y-94908666D02*
X133924380Y-95527714D01*
X134305333Y-95194380D01*
X134305333Y-95337238D01*
X134352952Y-95432476D01*
X134400571Y-95480095D01*
X134495809Y-95527714D01*
X134733904Y-95527714D01*
X134829142Y-95480095D01*
X134876761Y-95432476D01*
X134924380Y-95337238D01*
X134924380Y-95051523D01*
X134876761Y-94956285D01*
X134829142Y-94908666D01*
D13*
X140799333Y-110906690D02*
X140966000Y-110668595D01*
X141085047Y-110906690D02*
X141085047Y-110406690D01*
X140894571Y-110406690D01*
X140846952Y-110430500D01*
X140823142Y-110454309D01*
X140799333Y-110501928D01*
X140799333Y-110573357D01*
X140823142Y-110620976D01*
X140846952Y-110644785D01*
X140894571Y-110668595D01*
X141085047Y-110668595D01*
X140608857Y-110454309D02*
X140585047Y-110430500D01*
X140537428Y-110406690D01*
X140418380Y-110406690D01*
X140370761Y-110430500D01*
X140346952Y-110454309D01*
X140323142Y-110501928D01*
X140323142Y-110549547D01*
X140346952Y-110620976D01*
X140632666Y-110906690D01*
X140323142Y-110906690D01*
D10*
X140755666Y-72692142D02*
X140803285Y-72739761D01*
X140946142Y-72787380D01*
X141041380Y-72787380D01*
X141184238Y-72739761D01*
X141279476Y-72644523D01*
X141327095Y-72549285D01*
X141374714Y-72358809D01*
X141374714Y-72215952D01*
X141327095Y-72025476D01*
X141279476Y-71930238D01*
X141184238Y-71835000D01*
X141041380Y-71787380D01*
X140946142Y-71787380D01*
X140803285Y-71835000D01*
X140755666Y-71882619D01*
X139898523Y-71787380D02*
X140089000Y-71787380D01*
X140184238Y-71835000D01*
X140231857Y-71882619D01*
X140327095Y-72025476D01*
X140374714Y-72215952D01*
X140374714Y-72596904D01*
X140327095Y-72692142D01*
X140279476Y-72739761D01*
X140184238Y-72787380D01*
X139993761Y-72787380D01*
X139898523Y-72739761D01*
X139850904Y-72692142D01*
X139803285Y-72596904D01*
X139803285Y-72358809D01*
X139850904Y-72263571D01*
X139898523Y-72215952D01*
X139993761Y-72168333D01*
X140184238Y-72168333D01*
X140279476Y-72215952D01*
X140327095Y-72263571D01*
X140374714Y-72358809D01*
D13*
X138005333Y-82204690D02*
X138243428Y-82204690D01*
X138243428Y-81704690D01*
X137862476Y-81752309D02*
X137838666Y-81728500D01*
X137791047Y-81704690D01*
X137672000Y-81704690D01*
X137624380Y-81728500D01*
X137600571Y-81752309D01*
X137576761Y-81799928D01*
X137576761Y-81847547D01*
X137600571Y-81918976D01*
X137886285Y-82204690D01*
X137576761Y-82204690D01*
X138005333Y-84744690D02*
X138243428Y-84744690D01*
X138243428Y-84244690D01*
X137576761Y-84744690D02*
X137862476Y-84744690D01*
X137719619Y-84744690D02*
X137719619Y-84244690D01*
X137767238Y-84316119D01*
X137814857Y-84363738D01*
X137862476Y-84387547D01*
X138068333Y-89904071D02*
X138092142Y-89927880D01*
X138163571Y-89951690D01*
X138211190Y-89951690D01*
X138282619Y-89927880D01*
X138330238Y-89880261D01*
X138354047Y-89832642D01*
X138377857Y-89737404D01*
X138377857Y-89665976D01*
X138354047Y-89570738D01*
X138330238Y-89523119D01*
X138282619Y-89475500D01*
X138211190Y-89451690D01*
X138163571Y-89451690D01*
X138092142Y-89475500D01*
X138068333Y-89499309D01*
X137615952Y-89451690D02*
X137854047Y-89451690D01*
X137877857Y-89689785D01*
X137854047Y-89665976D01*
X137806428Y-89642166D01*
X137687380Y-89642166D01*
X137639761Y-89665976D01*
X137615952Y-89689785D01*
X137592142Y-89737404D01*
X137592142Y-89856452D01*
X137615952Y-89904071D01*
X137639761Y-89927880D01*
X137687380Y-89951690D01*
X137806428Y-89951690D01*
X137854047Y-89927880D01*
X137877857Y-89904071D01*
X138004833Y-71981190D02*
X138171500Y-71743095D01*
X138290547Y-71981190D02*
X138290547Y-71481190D01*
X138100071Y-71481190D01*
X138052452Y-71505000D01*
X138028642Y-71528809D01*
X138004833Y-71576428D01*
X138004833Y-71647857D01*
X138028642Y-71695476D01*
X138052452Y-71719285D01*
X138100071Y-71743095D01*
X138290547Y-71743095D01*
X137528642Y-71981190D02*
X137814357Y-71981190D01*
X137671500Y-71981190D02*
X137671500Y-71481190D01*
X137719119Y-71552619D01*
X137766738Y-71600238D01*
X137814357Y-71624047D01*
X139465833Y-64504071D02*
X139489642Y-64527880D01*
X139561071Y-64551690D01*
X139608690Y-64551690D01*
X139680119Y-64527880D01*
X139727738Y-64480261D01*
X139751547Y-64432642D01*
X139775357Y-64337404D01*
X139775357Y-64265976D01*
X139751547Y-64170738D01*
X139727738Y-64123119D01*
X139680119Y-64075500D01*
X139608690Y-64051690D01*
X139561071Y-64051690D01*
X139489642Y-64075500D01*
X139465833Y-64099309D01*
X139037261Y-64218357D02*
X139037261Y-64551690D01*
X139156309Y-64027880D02*
X139275357Y-64385023D01*
X138965833Y-64385023D01*
X138068333Y-95047571D02*
X138092142Y-95071380D01*
X138163571Y-95095190D01*
X138211190Y-95095190D01*
X138282619Y-95071380D01*
X138330238Y-95023761D01*
X138354047Y-94976142D01*
X138377857Y-94880904D01*
X138377857Y-94809476D01*
X138354047Y-94714238D01*
X138330238Y-94666619D01*
X138282619Y-94619000D01*
X138211190Y-94595190D01*
X138163571Y-94595190D01*
X138092142Y-94619000D01*
X138068333Y-94642809D01*
X137901666Y-94595190D02*
X137592142Y-94595190D01*
X137758809Y-94785666D01*
X137687380Y-94785666D01*
X137639761Y-94809476D01*
X137615952Y-94833285D01*
X137592142Y-94880904D01*
X137592142Y-94999952D01*
X137615952Y-95047571D01*
X137639761Y-95071380D01*
X137687380Y-95095190D01*
X137830238Y-95095190D01*
X137877857Y-95071380D01*
X137901666Y-95047571D01*
X138068833Y-92444071D02*
X138092642Y-92467880D01*
X138164071Y-92491690D01*
X138211690Y-92491690D01*
X138283119Y-92467880D01*
X138330738Y-92420261D01*
X138354547Y-92372642D01*
X138378357Y-92277404D01*
X138378357Y-92205976D01*
X138354547Y-92110738D01*
X138330738Y-92063119D01*
X138283119Y-92015500D01*
X138211690Y-91991690D01*
X138164071Y-91991690D01*
X138092642Y-92015500D01*
X138068833Y-92039309D01*
X137878357Y-92039309D02*
X137854547Y-92015500D01*
X137806928Y-91991690D01*
X137687880Y-91991690D01*
X137640261Y-92015500D01*
X137616452Y-92039309D01*
X137592642Y-92086928D01*
X137592642Y-92134547D01*
X137616452Y-92205976D01*
X137902166Y-92491690D01*
X137592642Y-92491690D01*
X138005333Y-87237071D02*
X138029142Y-87260880D01*
X138100571Y-87284690D01*
X138148190Y-87284690D01*
X138219619Y-87260880D01*
X138267238Y-87213261D01*
X138291047Y-87165642D01*
X138314857Y-87070404D01*
X138314857Y-86998976D01*
X138291047Y-86903738D01*
X138267238Y-86856119D01*
X138219619Y-86808500D01*
X138148190Y-86784690D01*
X138100571Y-86784690D01*
X138029142Y-86808500D01*
X138005333Y-86832309D01*
X137529142Y-87284690D02*
X137814857Y-87284690D01*
X137672000Y-87284690D02*
X137672000Y-86784690D01*
X137719619Y-86856119D01*
X137767238Y-86903738D01*
X137814857Y-86927547D01*
%LPC*%
D14*
X144780000Y-115316000D03*
X145730000Y-113316000D03*
X143830000Y-113316000D03*
X144653000Y-132461000D03*
X143703000Y-134461000D03*
X145603000Y-134461000D03*
G36*
G01*
X132197001Y-124195000D02*
X130946999Y-124195000D01*
G75*
G02*
X130697000Y-123945001I0J249999D01*
G01*
X130697000Y-123319999D01*
G75*
G02*
X130946999Y-123070000I249999J0D01*
G01*
X132197001Y-123070000D01*
G75*
G02*
X132447000Y-123319999I0J-249999D01*
G01*
X132447000Y-123945001D01*
G75*
G02*
X132197001Y-124195000I-249999J0D01*
G01*
G37*
G36*
G01*
X132197001Y-127120000D02*
X130946999Y-127120000D01*
G75*
G02*
X130697000Y-126870001I0J249999D01*
G01*
X130697000Y-126244999D01*
G75*
G02*
X130946999Y-125995000I249999J0D01*
G01*
X132197001Y-125995000D01*
G75*
G02*
X132447000Y-126244999I0J-249999D01*
G01*
X132447000Y-126870001D01*
G75*
G02*
X132197001Y-127120000I-249999J0D01*
G01*
G37*
G36*
G01*
X133300000Y-112766001D02*
X133300000Y-111515999D01*
G75*
G02*
X133549999Y-111266000I249999J0D01*
G01*
X134175001Y-111266000D01*
G75*
G02*
X134425000Y-111515999I0J-249999D01*
G01*
X134425000Y-112766001D01*
G75*
G02*
X134175001Y-113016000I-249999J0D01*
G01*
X133549999Y-113016000D01*
G75*
G02*
X133300000Y-112766001I0J249999D01*
G01*
G37*
G36*
G01*
X130375000Y-112766001D02*
X130375000Y-111515999D01*
G75*
G02*
X130624999Y-111266000I249999J0D01*
G01*
X131250001Y-111266000D01*
G75*
G02*
X131500000Y-111515999I0J-249999D01*
G01*
X131500000Y-112766001D01*
G75*
G02*
X131250001Y-113016000I-249999J0D01*
G01*
X130624999Y-113016000D01*
G75*
G02*
X130375000Y-112766001I0J249999D01*
G01*
G37*
G36*
G01*
X133361000Y-109718001D02*
X133361000Y-108467999D01*
G75*
G02*
X133610999Y-108218000I249999J0D01*
G01*
X134236001Y-108218000D01*
G75*
G02*
X134486000Y-108467999I0J-249999D01*
G01*
X134486000Y-109718001D01*
G75*
G02*
X134236001Y-109968000I-249999J0D01*
G01*
X133610999Y-109968000D01*
G75*
G02*
X133361000Y-109718001I0J249999D01*
G01*
G37*
G36*
G01*
X130436000Y-109718001D02*
X130436000Y-108467999D01*
G75*
G02*
X130685999Y-108218000I249999J0D01*
G01*
X131311001Y-108218000D01*
G75*
G02*
X131561000Y-108467999I0J-249999D01*
G01*
X131561000Y-109718001D01*
G75*
G02*
X131311001Y-109968000I-249999J0D01*
G01*
X130685999Y-109968000D01*
G75*
G02*
X130436000Y-109718001I0J249999D01*
G01*
G37*
G36*
G01*
X132197001Y-79999000D02*
X130946999Y-79999000D01*
G75*
G02*
X130697000Y-79749001I0J249999D01*
G01*
X130697000Y-79123999D01*
G75*
G02*
X130946999Y-78874000I249999J0D01*
G01*
X132197001Y-78874000D01*
G75*
G02*
X132447000Y-79123999I0J-249999D01*
G01*
X132447000Y-79749001D01*
G75*
G02*
X132197001Y-79999000I-249999J0D01*
G01*
G37*
G36*
G01*
X132197001Y-82924000D02*
X130946999Y-82924000D01*
G75*
G02*
X130697000Y-82674001I0J249999D01*
G01*
X130697000Y-82048999D01*
G75*
G02*
X130946999Y-81799000I249999J0D01*
G01*
X132197001Y-81799000D01*
G75*
G02*
X132447000Y-82048999I0J-249999D01*
G01*
X132447000Y-82674001D01*
G75*
G02*
X132197001Y-82924000I-249999J0D01*
G01*
G37*
G36*
G01*
X132197001Y-65840500D02*
X130946999Y-65840500D01*
G75*
G02*
X130697000Y-65590501I0J249999D01*
G01*
X130697000Y-64965499D01*
G75*
G02*
X130946999Y-64715500I249999J0D01*
G01*
X132197001Y-64715500D01*
G75*
G02*
X132447000Y-64965499I0J-249999D01*
G01*
X132447000Y-65590501D01*
G75*
G02*
X132197001Y-65840500I-249999J0D01*
G01*
G37*
G36*
G01*
X132197001Y-68765500D02*
X130946999Y-68765500D01*
G75*
G02*
X130697000Y-68515501I0J249999D01*
G01*
X130697000Y-67890499D01*
G75*
G02*
X130946999Y-67640500I249999J0D01*
G01*
X132197001Y-67640500D01*
G75*
G02*
X132447000Y-67890499I0J-249999D01*
G01*
X132447000Y-68515501D01*
G75*
G02*
X132197001Y-68765500I-249999J0D01*
G01*
G37*
D15*
X96901000Y-162941000D03*
D16*
X99526000Y-162941000D03*
X98757155Y-164797155D03*
X96901000Y-165566000D03*
X95044845Y-164797155D03*
X94276000Y-162941000D03*
X95044845Y-161084845D03*
X96901000Y-160316000D03*
X98757155Y-161084845D03*
X153826155Y-161162845D03*
X151970000Y-160394000D03*
X150113845Y-161162845D03*
X149345000Y-163019000D03*
X150113845Y-164875155D03*
X151970000Y-165644000D03*
X153826155Y-164875155D03*
X154595000Y-163019000D03*
D15*
X151970000Y-163019000D03*
X151892000Y-58420000D03*
D16*
X154517000Y-58420000D03*
X153748155Y-60276155D03*
X151892000Y-61045000D03*
X150035845Y-60276155D03*
X149267000Y-58420000D03*
X150035845Y-56563845D03*
X151892000Y-55795000D03*
X153748155Y-56563845D03*
X98757155Y-56436845D03*
X96901000Y-55668000D03*
X95044845Y-56436845D03*
X94276000Y-58293000D03*
X95044845Y-60149155D03*
X96901000Y-60918000D03*
X98757155Y-60149155D03*
X99526000Y-58293000D03*
D15*
X96901000Y-58293000D03*
D17*
X152146000Y-92837000D03*
X152146000Y-95377000D03*
X152146000Y-97917000D03*
X152146000Y-100457000D03*
X152146000Y-102997000D03*
D18*
X152146000Y-105537000D03*
D17*
X143637000Y-56515000D03*
X141097000Y-56515000D03*
X138557000Y-56515000D03*
D18*
X136017000Y-56515000D03*
D17*
X129413000Y-56515000D03*
X126873000Y-56515000D03*
X124333000Y-56515000D03*
D18*
X121793000Y-56515000D03*
D17*
X152019000Y-74041000D03*
X152019000Y-71501000D03*
X152019000Y-68961000D03*
D18*
X152019000Y-66421000D03*
D17*
X152146000Y-87122000D03*
X152146000Y-84582000D03*
X152146000Y-82042000D03*
D18*
X152146000Y-79502000D03*
D19*
X147066000Y-153035000D03*
X152146000Y-153035000D03*
X141986000Y-153035000D03*
D20*
X139446000Y-153035000D03*
D21*
X151130000Y-117348000D03*
G36*
G01*
X149580000Y-111368000D02*
X152680000Y-111368000D01*
G75*
G02*
X152930000Y-111618000I0J-250000D01*
G01*
X152930000Y-112918000D01*
G75*
G02*
X152680000Y-113168000I-250000J0D01*
G01*
X149580000Y-113168000D01*
G75*
G02*
X149330000Y-112918000I0J250000D01*
G01*
X149330000Y-111618000D01*
G75*
G02*
X149580000Y-111368000I250000J0D01*
G01*
G37*
X151130000Y-130683000D03*
G36*
G01*
X149580000Y-124703000D02*
X152680000Y-124703000D01*
G75*
G02*
X152930000Y-124953000I0J-250000D01*
G01*
X152930000Y-126253000D01*
G75*
G02*
X152680000Y-126503000I-250000J0D01*
G01*
X149580000Y-126503000D01*
G75*
G02*
X149330000Y-126253000I0J250000D01*
G01*
X149330000Y-124953000D01*
G75*
G02*
X149580000Y-124703000I250000J0D01*
G01*
G37*
X151130000Y-143891000D03*
G36*
G01*
X149580000Y-137911000D02*
X152680000Y-137911000D01*
G75*
G02*
X152930000Y-138161000I0J-250000D01*
G01*
X152930000Y-139461000D01*
G75*
G02*
X152680000Y-139711000I-250000J0D01*
G01*
X149580000Y-139711000D01*
G75*
G02*
X149330000Y-139461000I0J250000D01*
G01*
X149330000Y-138161000D01*
G75*
G02*
X149580000Y-137911000I250000J0D01*
G01*
G37*
D22*
X140589000Y-123825000D03*
X138049000Y-116205000D03*
X138049000Y-123825000D03*
D23*
X140589000Y-116205000D03*
D22*
X140589000Y-134874000D03*
X138049000Y-127254000D03*
X138049000Y-134874000D03*
D23*
X140589000Y-127254000D03*
D22*
X140589000Y-145796000D03*
X138049000Y-138176000D03*
X138049000Y-145796000D03*
D23*
X140589000Y-138176000D03*
G36*
G01*
X145024001Y-119369000D02*
X143773999Y-119369000D01*
G75*
G02*
X143524000Y-119119001I0J249999D01*
G01*
X143524000Y-118493999D01*
G75*
G02*
X143773999Y-118244000I249999J0D01*
G01*
X145024001Y-118244000D01*
G75*
G02*
X145274000Y-118493999I0J-249999D01*
G01*
X145274000Y-119119001D01*
G75*
G02*
X145024001Y-119369000I-249999J0D01*
G01*
G37*
G36*
G01*
X145024001Y-122294000D02*
X143773999Y-122294000D01*
G75*
G02*
X143524000Y-122044001I0J249999D01*
G01*
X143524000Y-121418999D01*
G75*
G02*
X143773999Y-121169000I249999J0D01*
G01*
X145024001Y-121169000D01*
G75*
G02*
X145274000Y-121418999I0J-249999D01*
G01*
X145274000Y-122044001D01*
G75*
G02*
X145024001Y-122294000I-249999J0D01*
G01*
G37*
G36*
G01*
X140092000Y-119497001D02*
X140092000Y-118246999D01*
G75*
G02*
X140341999Y-117997000I249999J0D01*
G01*
X140967001Y-117997000D01*
G75*
G02*
X141217000Y-118246999I0J-249999D01*
G01*
X141217000Y-119497001D01*
G75*
G02*
X140967001Y-119747000I-249999J0D01*
G01*
X140341999Y-119747000D01*
G75*
G02*
X140092000Y-119497001I0J249999D01*
G01*
G37*
G36*
G01*
X137167000Y-119497001D02*
X137167000Y-118246999D01*
G75*
G02*
X137416999Y-117997000I249999J0D01*
G01*
X138042001Y-117997000D01*
G75*
G02*
X138292000Y-118246999I0J-249999D01*
G01*
X138292000Y-119497001D01*
G75*
G02*
X138042001Y-119747000I-249999J0D01*
G01*
X137416999Y-119747000D01*
G75*
G02*
X137167000Y-119497001I0J249999D01*
G01*
G37*
G36*
G01*
X145151001Y-127878000D02*
X143900999Y-127878000D01*
G75*
G02*
X143651000Y-127628001I0J249999D01*
G01*
X143651000Y-127002999D01*
G75*
G02*
X143900999Y-126753000I249999J0D01*
G01*
X145151001Y-126753000D01*
G75*
G02*
X145401000Y-127002999I0J-249999D01*
G01*
X145401000Y-127628001D01*
G75*
G02*
X145151001Y-127878000I-249999J0D01*
G01*
G37*
G36*
G01*
X145151001Y-130803000D02*
X143900999Y-130803000D01*
G75*
G02*
X143651000Y-130553001I0J249999D01*
G01*
X143651000Y-129927999D01*
G75*
G02*
X143900999Y-129678000I249999J0D01*
G01*
X145151001Y-129678000D01*
G75*
G02*
X145401000Y-129927999I0J-249999D01*
G01*
X145401000Y-130553001D01*
G75*
G02*
X145151001Y-130803000I-249999J0D01*
G01*
G37*
G36*
G01*
X140280000Y-130673001D02*
X140280000Y-129422999D01*
G75*
G02*
X140529999Y-129173000I249999J0D01*
G01*
X141155001Y-129173000D01*
G75*
G02*
X141405000Y-129422999I0J-249999D01*
G01*
X141405000Y-130673001D01*
G75*
G02*
X141155001Y-130923000I-249999J0D01*
G01*
X140529999Y-130923000D01*
G75*
G02*
X140280000Y-130673001I0J249999D01*
G01*
G37*
G36*
G01*
X137355000Y-130673001D02*
X137355000Y-129422999D01*
G75*
G02*
X137604999Y-129173000I249999J0D01*
G01*
X138230001Y-129173000D01*
G75*
G02*
X138480000Y-129422999I0J-249999D01*
G01*
X138480000Y-130673001D01*
G75*
G02*
X138230001Y-130923000I-249999J0D01*
G01*
X137604999Y-130923000D01*
G75*
G02*
X137355000Y-130673001I0J249999D01*
G01*
G37*
G36*
G01*
X145024001Y-141467000D02*
X143773999Y-141467000D01*
G75*
G02*
X143524000Y-141217001I0J249999D01*
G01*
X143524000Y-140591999D01*
G75*
G02*
X143773999Y-140342000I249999J0D01*
G01*
X145024001Y-140342000D01*
G75*
G02*
X145274000Y-140591999I0J-249999D01*
G01*
X145274000Y-141217001D01*
G75*
G02*
X145024001Y-141467000I-249999J0D01*
G01*
G37*
G36*
G01*
X145024001Y-144392000D02*
X143773999Y-144392000D01*
G75*
G02*
X143524000Y-144142001I0J249999D01*
G01*
X143524000Y-143516999D01*
G75*
G02*
X143773999Y-143267000I249999J0D01*
G01*
X145024001Y-143267000D01*
G75*
G02*
X145274000Y-143516999I0J-249999D01*
G01*
X145274000Y-144142001D01*
G75*
G02*
X145024001Y-144392000I-249999J0D01*
G01*
G37*
G36*
G01*
X140346000Y-141595001D02*
X140346000Y-140344999D01*
G75*
G02*
X140595999Y-140095000I249999J0D01*
G01*
X141221001Y-140095000D01*
G75*
G02*
X141471000Y-140344999I0J-249999D01*
G01*
X141471000Y-141595001D01*
G75*
G02*
X141221001Y-141845000I-249999J0D01*
G01*
X140595999Y-141845000D01*
G75*
G02*
X140346000Y-141595001I0J249999D01*
G01*
G37*
G36*
G01*
X137421000Y-141595001D02*
X137421000Y-140344999D01*
G75*
G02*
X137670999Y-140095000I249999J0D01*
G01*
X138296001Y-140095000D01*
G75*
G02*
X138546000Y-140344999I0J-249999D01*
G01*
X138546000Y-141595001D01*
G75*
G02*
X138296001Y-141845000I-249999J0D01*
G01*
X137670999Y-141845000D01*
G75*
G02*
X137421000Y-141595001I0J249999D01*
G01*
G37*
D24*
X131064000Y-141478000D03*
X128524000Y-141478000D03*
X125984000Y-141478000D03*
X109474000Y-141478000D03*
D25*
X104394000Y-141478000D03*
D13*
G36*
X142481398Y-67706000D02*
G01*
X142481398Y-67730534D01*
X142476588Y-67779365D01*
X142467016Y-67827490D01*
X142452772Y-67874445D01*
X142433995Y-67919778D01*
X142410864Y-67963051D01*
X142383604Y-68003850D01*
X142352476Y-68041779D01*
X142317779Y-68076476D01*
X142279850Y-68107604D01*
X142239051Y-68134864D01*
X142195778Y-68157995D01*
X142150445Y-68176772D01*
X142103490Y-68191016D01*
X142055365Y-68200588D01*
X142006534Y-68205398D01*
X141982000Y-68205398D01*
X141982000Y-68206000D01*
X141482000Y-68206000D01*
X141482000Y-68205398D01*
X141457466Y-68205398D01*
X141408635Y-68200588D01*
X141360510Y-68191016D01*
X141313555Y-68176772D01*
X141268222Y-68157995D01*
X141224949Y-68134864D01*
X141184150Y-68107604D01*
X141146221Y-68076476D01*
X141111524Y-68041779D01*
X141080396Y-68003850D01*
X141053136Y-67963051D01*
X141030005Y-67919778D01*
X141011228Y-67874445D01*
X140996984Y-67827490D01*
X140987412Y-67779365D01*
X140982602Y-67730534D01*
X140982602Y-67706000D01*
X140982000Y-67706000D01*
X140982000Y-67206000D01*
X142482000Y-67206000D01*
X142482000Y-67706000D01*
X142481398Y-67706000D01*
G37*
G36*
X140982000Y-66906000D02*
G01*
X140982000Y-66406000D01*
X140982602Y-66406000D01*
X140982602Y-66381466D01*
X140987412Y-66332635D01*
X140996984Y-66284510D01*
X141011228Y-66237555D01*
X141030005Y-66192222D01*
X141053136Y-66148949D01*
X141080396Y-66108150D01*
X141111524Y-66070221D01*
X141146221Y-66035524D01*
X141184150Y-66004396D01*
X141224949Y-65977136D01*
X141268222Y-65954005D01*
X141313555Y-65935228D01*
X141360510Y-65920984D01*
X141408635Y-65911412D01*
X141457466Y-65906602D01*
X141482000Y-65906602D01*
X141482000Y-65906000D01*
X141982000Y-65906000D01*
X141982000Y-65906602D01*
X142006534Y-65906602D01*
X142055365Y-65911412D01*
X142103490Y-65920984D01*
X142150445Y-65935228D01*
X142195778Y-65954005D01*
X142239051Y-65977136D01*
X142279850Y-66004396D01*
X142317779Y-66035524D01*
X142352476Y-66070221D01*
X142383604Y-66108150D01*
X142410864Y-66148949D01*
X142433995Y-66192222D01*
X142452772Y-66237555D01*
X142467016Y-66284510D01*
X142476588Y-66332635D01*
X142481398Y-66381466D01*
X142481398Y-66406000D01*
X142482000Y-66406000D01*
X142482000Y-66906000D01*
X140982000Y-66906000D01*
G37*
D21*
X94615000Y-140843000D03*
X94615000Y-137033000D03*
X94615000Y-133223000D03*
G36*
G01*
X93065000Y-128513000D02*
X96165000Y-128513000D01*
G75*
G02*
X96415000Y-128763000I0J-250000D01*
G01*
X96415000Y-130063000D01*
G75*
G02*
X96165000Y-130313000I-250000J0D01*
G01*
X93065000Y-130313000D01*
G75*
G02*
X92815000Y-130063000I0J250000D01*
G01*
X92815000Y-128763000D01*
G75*
G02*
X93065000Y-128513000I250000J0D01*
G01*
G37*
X94742000Y-113284000D03*
X94742000Y-109474000D03*
X94742000Y-105664000D03*
G36*
G01*
X93192000Y-100954000D02*
X96292000Y-100954000D01*
G75*
G02*
X96542000Y-101204000I0J-250000D01*
G01*
X96542000Y-102504000D01*
G75*
G02*
X96292000Y-102754000I-250000J0D01*
G01*
X93192000Y-102754000D01*
G75*
G02*
X92942000Y-102504000I0J250000D01*
G01*
X92942000Y-101204000D01*
G75*
G02*
X93192000Y-100954000I250000J0D01*
G01*
G37*
X94742000Y-84201000D03*
X94742000Y-80391000D03*
X94742000Y-76581000D03*
G36*
G01*
X93192000Y-71871000D02*
X96292000Y-71871000D01*
G75*
G02*
X96542000Y-72121000I0J-250000D01*
G01*
X96542000Y-73421000D01*
G75*
G02*
X96292000Y-73671000I-250000J0D01*
G01*
X93192000Y-73671000D01*
G75*
G02*
X92942000Y-73421000I0J250000D01*
G01*
X92942000Y-72121000D01*
G75*
G02*
X93192000Y-71871000I250000J0D01*
G01*
G37*
D26*
X130445000Y-104013000D03*
X132445000Y-104963000D03*
X132445000Y-103063000D03*
D27*
X101025000Y-125730000D03*
X106065000Y-133230000D03*
X111105000Y-125730000D03*
X111105000Y-133230000D03*
X101025000Y-133230000D03*
X106065000Y-125730000D03*
D28*
X126365000Y-133230000D03*
D29*
X126365000Y-125730000D03*
D27*
X101025000Y-111125000D03*
X106065000Y-118625000D03*
X111105000Y-111125000D03*
X111105000Y-118625000D03*
X101025000Y-118625000D03*
X106065000Y-111125000D03*
D28*
X126365000Y-118625000D03*
D29*
X126365000Y-111125000D03*
D27*
X101000000Y-96520000D03*
X106040000Y-104020000D03*
X111080000Y-96520000D03*
X111080000Y-104020000D03*
X101000000Y-104020000D03*
X106040000Y-96520000D03*
D28*
X126340000Y-104020000D03*
D29*
X126340000Y-96520000D03*
D27*
X100898000Y-81915000D03*
X105938000Y-89415000D03*
X110978000Y-81915000D03*
X110978000Y-89415000D03*
X100898000Y-89415000D03*
X105938000Y-81915000D03*
D28*
X126238000Y-89415000D03*
D29*
X126238000Y-81915000D03*
D27*
X100898000Y-67430000D03*
X105938000Y-74930000D03*
X110978000Y-67430000D03*
X110978000Y-74930000D03*
X100898000Y-74930000D03*
X105938000Y-67430000D03*
D28*
X126238000Y-74930000D03*
D29*
X126238000Y-67430000D03*
G36*
G01*
X133277001Y-93842000D02*
X132026999Y-93842000D01*
G75*
G02*
X131777000Y-93592001I0J249999D01*
G01*
X131777000Y-92966999D01*
G75*
G02*
X132026999Y-92717000I249999J0D01*
G01*
X133277001Y-92717000D01*
G75*
G02*
X133527000Y-92966999I0J-249999D01*
G01*
X133527000Y-93592001D01*
G75*
G02*
X133277001Y-93842000I-249999J0D01*
G01*
G37*
G36*
G01*
X133277001Y-96767000D02*
X132026999Y-96767000D01*
G75*
G02*
X131777000Y-96517001I0J249999D01*
G01*
X131777000Y-95891999D01*
G75*
G02*
X132026999Y-95642000I249999J0D01*
G01*
X133277001Y-95642000D01*
G75*
G02*
X133527000Y-95891999I0J-249999D01*
G01*
X133527000Y-96517001D01*
G75*
G02*
X133277001Y-96767000I-249999J0D01*
G01*
G37*
G36*
G01*
X139816000Y-108467999D02*
X139816000Y-109718001D01*
G75*
G02*
X139566001Y-109968000I-249999J0D01*
G01*
X138940999Y-109968000D01*
G75*
G02*
X138691000Y-109718001I0J249999D01*
G01*
X138691000Y-108467999D01*
G75*
G02*
X138940999Y-108218000I249999J0D01*
G01*
X139566001Y-108218000D01*
G75*
G02*
X139816000Y-108467999I0J-249999D01*
G01*
G37*
G36*
G01*
X142741000Y-108467999D02*
X142741000Y-109718001D01*
G75*
G02*
X142491001Y-109968000I-249999J0D01*
G01*
X141865999Y-109968000D01*
G75*
G02*
X141616000Y-109718001I0J249999D01*
G01*
X141616000Y-108467999D01*
G75*
G02*
X141865999Y-108218000I249999J0D01*
G01*
X142491001Y-108218000D01*
G75*
G02*
X142741000Y-108467999I0J-249999D01*
G01*
G37*
G36*
G01*
X141489000Y-71135001D02*
X141489000Y-69834999D01*
G75*
G02*
X141738999Y-69585000I249999J0D01*
G01*
X142389001Y-69585000D01*
G75*
G02*
X142639000Y-69834999I0J-249999D01*
G01*
X142639000Y-71135001D01*
G75*
G02*
X142389001Y-71385000I-249999J0D01*
G01*
X141738999Y-71385000D01*
G75*
G02*
X141489000Y-71135001I0J249999D01*
G01*
G37*
G36*
G01*
X138539000Y-71135001D02*
X138539000Y-69834999D01*
G75*
G02*
X138788999Y-69585000I249999J0D01*
G01*
X139439001Y-69585000D01*
G75*
G02*
X139689000Y-69834999I0J-249999D01*
G01*
X139689000Y-71135001D01*
G75*
G02*
X139439001Y-71385000I-249999J0D01*
G01*
X138788999Y-71385000D01*
G75*
G02*
X138539000Y-71135001I0J249999D01*
G01*
G37*
D30*
X132652000Y-97145500D03*
X132652000Y-92265500D03*
G36*
G01*
X141766000Y-83631001D02*
X141766000Y-82230999D01*
G75*
G02*
X142015999Y-81981000I249999J0D01*
G01*
X142566001Y-81981000D01*
G75*
G02*
X142816000Y-82230999I0J-249999D01*
G01*
X142816000Y-83631001D01*
G75*
G02*
X142566001Y-83881000I-249999J0D01*
G01*
X142015999Y-83881000D01*
G75*
G02*
X141766000Y-83631001I0J249999D01*
G01*
G37*
G36*
G01*
X138616000Y-83631001D02*
X138616000Y-82230999D01*
G75*
G02*
X138865999Y-81981000I249999J0D01*
G01*
X139416001Y-81981000D01*
G75*
G02*
X139666000Y-82230999I0J-249999D01*
G01*
X139666000Y-83631001D01*
G75*
G02*
X139416001Y-83881000I-249999J0D01*
G01*
X138865999Y-83881000D01*
G75*
G02*
X138616000Y-83631001I0J249999D01*
G01*
G37*
G36*
G01*
X141766000Y-86298001D02*
X141766000Y-84897999D01*
G75*
G02*
X142015999Y-84648000I249999J0D01*
G01*
X142566001Y-84648000D01*
G75*
G02*
X142816000Y-84897999I0J-249999D01*
G01*
X142816000Y-86298001D01*
G75*
G02*
X142566001Y-86548000I-249999J0D01*
G01*
X142015999Y-86548000D01*
G75*
G02*
X141766000Y-86298001I0J249999D01*
G01*
G37*
G36*
G01*
X138616000Y-86298001D02*
X138616000Y-84897999D01*
G75*
G02*
X138865999Y-84648000I249999J0D01*
G01*
X139416001Y-84648000D01*
G75*
G02*
X139666000Y-84897999I0J-249999D01*
G01*
X139666000Y-86298001D01*
G75*
G02*
X139416001Y-86548000I-249999J0D01*
G01*
X138865999Y-86548000D01*
G75*
G02*
X138616000Y-86298001I0J249999D01*
G01*
G37*
G36*
G01*
X139752000Y-90091499D02*
X139752000Y-91391501D01*
G75*
G02*
X139502001Y-91641500I-249999J0D01*
G01*
X138851999Y-91641500D01*
G75*
G02*
X138602000Y-91391501I0J249999D01*
G01*
X138602000Y-90091499D01*
G75*
G02*
X138851999Y-89841500I249999J0D01*
G01*
X139502001Y-89841500D01*
G75*
G02*
X139752000Y-90091499I0J-249999D01*
G01*
G37*
G36*
G01*
X142702000Y-90091499D02*
X142702000Y-91391501D01*
G75*
G02*
X142452001Y-91641500I-249999J0D01*
G01*
X141801999Y-91641500D01*
G75*
G02*
X141552000Y-91391501I0J249999D01*
G01*
X141552000Y-90091499D01*
G75*
G02*
X141801999Y-89841500I249999J0D01*
G01*
X142452001Y-89841500D01*
G75*
G02*
X142702000Y-90091499I0J-249999D01*
G01*
G37*
D22*
X144468000Y-72980500D03*
X136848000Y-106000500D03*
X144468000Y-75520500D03*
X136848000Y-103460500D03*
X144468000Y-78060500D03*
X136848000Y-100920500D03*
X144468000Y-80600500D03*
X136848000Y-98380500D03*
X144468000Y-83140500D03*
X136848000Y-95840500D03*
X144468000Y-85680500D03*
X136848000Y-93300500D03*
X144468000Y-88220500D03*
X136848000Y-90760500D03*
X144468000Y-90760500D03*
X136848000Y-88220500D03*
X144468000Y-93300500D03*
X136848000Y-85680500D03*
X144468000Y-95840500D03*
X136848000Y-83140500D03*
X144468000Y-98380500D03*
X136848000Y-80600500D03*
X144468000Y-100920500D03*
X136848000Y-78060500D03*
X144468000Y-103460500D03*
X136848000Y-75520500D03*
X144468000Y-106000500D03*
D23*
X136848000Y-72980500D03*
D31*
X137328000Y-69278500D03*
X137328000Y-64778500D03*
X143828000Y-69278500D03*
X143828000Y-64778500D03*
G36*
G01*
X139752000Y-72399999D02*
X139752000Y-73650001D01*
G75*
G02*
X139502001Y-73900000I-249999J0D01*
G01*
X138876999Y-73900000D01*
G75*
G02*
X138627000Y-73650001I0J249999D01*
G01*
X138627000Y-72399999D01*
G75*
G02*
X138876999Y-72150000I249999J0D01*
G01*
X139502001Y-72150000D01*
G75*
G02*
X139752000Y-72399999I0J-249999D01*
G01*
G37*
G36*
G01*
X142677000Y-72399999D02*
X142677000Y-73650001D01*
G75*
G02*
X142427001Y-73900000I-249999J0D01*
G01*
X141801999Y-73900000D01*
G75*
G02*
X141552000Y-73650001I0J249999D01*
G01*
X141552000Y-72399999D01*
G75*
G02*
X141801999Y-72150000I249999J0D01*
G01*
X142427001Y-72150000D01*
G75*
G02*
X142677000Y-72399999I0J-249999D01*
G01*
G37*
G36*
G01*
X138795999Y-67907000D02*
X140096001Y-67907000D01*
G75*
G02*
X140346000Y-68156999I0J-249999D01*
G01*
X140346000Y-68807001D01*
G75*
G02*
X140096001Y-69057000I-249999J0D01*
G01*
X138795999Y-69057000D01*
G75*
G02*
X138546000Y-68807001I0J249999D01*
G01*
X138546000Y-68156999D01*
G75*
G02*
X138795999Y-67907000I249999J0D01*
G01*
G37*
G36*
G01*
X138795999Y-64957000D02*
X140096001Y-64957000D01*
G75*
G02*
X140346000Y-65206999I0J-249999D01*
G01*
X140346000Y-65857001D01*
G75*
G02*
X140096001Y-66107000I-249999J0D01*
G01*
X138795999Y-66107000D01*
G75*
G02*
X138546000Y-65857001I0J249999D01*
G01*
X138546000Y-65206999D01*
G75*
G02*
X138795999Y-64957000I249999J0D01*
G01*
G37*
G36*
G01*
X139752000Y-95234999D02*
X139752000Y-96535001D01*
G75*
G02*
X139502001Y-96785000I-249999J0D01*
G01*
X138851999Y-96785000D01*
G75*
G02*
X138602000Y-96535001I0J249999D01*
G01*
X138602000Y-95234999D01*
G75*
G02*
X138851999Y-94985000I249999J0D01*
G01*
X139502001Y-94985000D01*
G75*
G02*
X139752000Y-95234999I0J-249999D01*
G01*
G37*
G36*
G01*
X142702000Y-95234999D02*
X142702000Y-96535001D01*
G75*
G02*
X142452001Y-96785000I-249999J0D01*
G01*
X141801999Y-96785000D01*
G75*
G02*
X141552000Y-96535001I0J249999D01*
G01*
X141552000Y-95234999D01*
G75*
G02*
X141801999Y-94985000I249999J0D01*
G01*
X142452001Y-94985000D01*
G75*
G02*
X142702000Y-95234999I0J-249999D01*
G01*
G37*
G36*
G01*
X139767000Y-92631499D02*
X139767000Y-93931501D01*
G75*
G02*
X139517001Y-94181500I-249999J0D01*
G01*
X138866999Y-94181500D01*
G75*
G02*
X138617000Y-93931501I0J249999D01*
G01*
X138617000Y-92631499D01*
G75*
G02*
X138866999Y-92381500I249999J0D01*
G01*
X139517001Y-92381500D01*
G75*
G02*
X139767000Y-92631499I0J-249999D01*
G01*
G37*
G36*
G01*
X142717000Y-92631499D02*
X142717000Y-93931501D01*
G75*
G02*
X142467001Y-94181500I-249999J0D01*
G01*
X141816999Y-94181500D01*
G75*
G02*
X141567000Y-93931501I0J249999D01*
G01*
X141567000Y-92631499D01*
G75*
G02*
X141816999Y-92381500I249999J0D01*
G01*
X142467001Y-92381500D01*
G75*
G02*
X142717000Y-92631499I0J-249999D01*
G01*
G37*
G36*
G01*
X139767000Y-87551499D02*
X139767000Y-88851501D01*
G75*
G02*
X139517001Y-89101500I-249999J0D01*
G01*
X138866999Y-89101500D01*
G75*
G02*
X138617000Y-88851501I0J249999D01*
G01*
X138617000Y-87551499D01*
G75*
G02*
X138866999Y-87301500I249999J0D01*
G01*
X139517001Y-87301500D01*
G75*
G02*
X139767000Y-87551499I0J-249999D01*
G01*
G37*
G36*
G01*
X142717000Y-87551499D02*
X142717000Y-88851501D01*
G75*
G02*
X142467001Y-89101500I-249999J0D01*
G01*
X141816999Y-89101500D01*
G75*
G02*
X141567000Y-88851501I0J249999D01*
G01*
X141567000Y-87551499D01*
G75*
G02*
X141816999Y-87301500I249999J0D01*
G01*
X142467001Y-87301500D01*
G75*
G02*
X142717000Y-87551499I0J-249999D01*
G01*
G37*
M02*
