%TF.GenerationSoftware,KiCad,Pcbnew,(6.0.0)*%
%TF.CreationDate,2022-01-21T00:33:54+01:00*%
%TF.ProjectId,LuciCameraLettoRoma,4c756369-4361-46d6-9572-614c6574746f,rev?*%
%TF.SameCoordinates,Original*%
%TF.FileFunction,Paste,Top*%
%TF.FilePolarity,Positive*%
%FSLAX46Y46*%
G04 Gerber Fmt 4.6, Leading zero omitted, Abs format (unit mm)*
G04 Created by KiCad (PCBNEW (6.0.0)) date 2022-01-21 00:33:54*
%MOMM*%
%LPD*%
G01*
G04 APERTURE LIST*
G04 Aperture macros list*
%AMRoundRect*
0 Rectangle with rounded corners*
0 $1 Rounding radius*
0 $2 $3 $4 $5 $6 $7 $8 $9 X,Y pos of 4 corners*
0 Add a 4 corners polygon primitive as box body*
4,1,4,$2,$3,$4,$5,$6,$7,$8,$9,$2,$3,0*
0 Add four circle primitives for the rounded corners*
1,1,$1+$1,$2,$3*
1,1,$1+$1,$4,$5*
1,1,$1+$1,$6,$7*
1,1,$1+$1,$8,$9*
0 Add four rect primitives between the rounded corners*
20,1,$1+$1,$2,$3,$4,$5,0*
20,1,$1+$1,$4,$5,$6,$7,0*
20,1,$1+$1,$6,$7,$8,$9,0*
20,1,$1+$1,$8,$9,$2,$3,0*%
G04 Aperture macros list end*
%ADD10RoundRect,0.249999X0.625001X-0.312501X0.625001X0.312501X-0.625001X0.312501X-0.625001X-0.312501X0*%
%ADD11RoundRect,0.250000X0.375000X0.625000X-0.375000X0.625000X-0.375000X-0.625000X0.375000X-0.625000X0*%
%ADD12R,0.900000X0.800000*%
%ADD13R,0.800000X0.900000*%
%ADD14RoundRect,0.249999X-0.325001X-0.650001X0.325001X-0.650001X0.325001X0.650001X-0.325001X0.650001X0*%
%ADD15RoundRect,0.250000X0.625000X-0.375000X0.625000X0.375000X-0.625000X0.375000X-0.625000X-0.375000X0*%
%ADD16RoundRect,0.250000X-0.625000X0.375000X-0.625000X-0.375000X0.625000X-0.375000X0.625000X0.375000X0*%
%ADD17RoundRect,0.249999X-0.625001X0.312501X-0.625001X-0.312501X0.625001X-0.312501X0.625001X0.312501X0*%
%ADD18RoundRect,0.249999X-0.312501X-0.625001X0.312501X-0.625001X0.312501X0.625001X-0.312501X0.625001X0*%
G04 APERTURE END LIST*
D10*
X147828000Y-69981000D03*
X147828000Y-67056000D03*
D11*
X142119000Y-109093000D03*
X139319000Y-109093000D03*
D12*
X132715000Y-75880000D03*
X132715000Y-73980000D03*
X130715000Y-74930000D03*
X132715000Y-86675000D03*
X132715000Y-84775000D03*
X130715000Y-85725000D03*
D13*
X131384000Y-117316000D03*
X133284000Y-117316000D03*
X132334000Y-115316000D03*
X132395000Y-132223000D03*
X130495000Y-132223000D03*
X131445000Y-134223000D03*
D10*
X134747000Y-135066500D03*
X134747000Y-132141500D03*
X134747000Y-124017500D03*
X134747000Y-121092500D03*
X134747000Y-145734500D03*
X134747000Y-142809500D03*
D14*
X143637000Y-149606000D03*
X146587000Y-149606000D03*
D15*
X149606000Y-132975000D03*
X149606000Y-130175000D03*
X149606000Y-124974000D03*
X149606000Y-122174000D03*
D16*
X149606000Y-110992000D03*
X149606000Y-113792000D03*
D13*
X140269000Y-148098000D03*
X138369000Y-148098000D03*
X139319000Y-150098000D03*
X146111000Y-108855000D03*
X144211000Y-108855000D03*
X145161000Y-110855000D03*
D17*
X144526000Y-133473500D03*
X144526000Y-136398500D03*
X144526000Y-121153500D03*
X144526000Y-124078500D03*
D18*
X139319500Y-112522000D03*
X142244500Y-112522000D03*
D15*
X131572000Y-68202000D03*
X131572000Y-65402000D03*
X131572000Y-82302000D03*
X131572000Y-79502000D03*
X131572000Y-106178000D03*
X131572000Y-103378000D03*
X131572000Y-111763000D03*
X131572000Y-108963000D03*
X131572000Y-126495000D03*
X131572000Y-123695000D03*
M02*
