M48
; DRILL file {KiCad (5.1.10)-1} date 12/06/21 14:16:13
; FORMAT={-:-/ absolute / metric / decimal}
; #@! TF.CreationDate,2021-12-06T14:16:13+01:00
; #@! TF.GenerationSoftware,Kicad,Pcbnew,(5.1.10)-1
; #@! TF.FileFunction,Plated,1,2,PTH
FMAT,2
METRIC
T1C0.400
T2C0.500
T3C0.800
T4C0.900
T5C1.000
T6C1.100
T7C1.200
T8C1.300
T9C3.500
%
G90
G05
T1
X129.286Y-83.502
X131.0Y-89.789
X131.157Y-78.272
X131.572Y-64.096
X131.572Y-122.454
X132.308Y-110.21
X132.715Y-99.441
X132.773Y-107.258
X133.794Y-82.74
X140.562Y-109.093
X143.452Y-114.829
X144.327Y-131.407
T2
X94.276Y-58.293
X94.276Y-162.941
X95.045Y-56.437
X95.045Y-60.149
X95.045Y-161.085
X95.045Y-164.797
X96.901Y-55.668
X96.901Y-60.918
X96.901Y-160.316
X96.901Y-165.566
X98.757Y-56.437
X98.757Y-60.149
X98.757Y-161.085
X98.757Y-164.797
X99.526Y-58.293
X99.526Y-162.941
X149.267Y-58.42
X149.345Y-163.019
X150.036Y-56.564
X150.036Y-60.276
X150.114Y-161.163
X150.114Y-164.875
X151.892Y-55.795
X151.892Y-61.045
X151.97Y-160.394
X151.97Y-165.644
X153.748Y-56.564
X153.748Y-60.276
X153.826Y-161.163
X153.826Y-164.875
X154.517Y-58.42
X154.595Y-163.019
T3
X132.652Y-92.265
X132.652Y-97.145
X136.848Y-72.98
X136.848Y-75.52
X136.848Y-78.06
X136.848Y-80.6
X136.848Y-83.141
X136.848Y-85.68
X136.848Y-88.221
X136.848Y-90.76
X136.848Y-93.3
X136.848Y-95.84
X136.848Y-98.38
X136.848Y-100.92
X136.848Y-103.46
X136.848Y-106.0
X138.049Y-116.205
X138.049Y-123.825
X138.049Y-127.254
X138.049Y-134.874
X138.049Y-138.176
X138.049Y-145.796
X140.589Y-116.205
X140.589Y-123.825
X140.589Y-127.254
X140.589Y-134.874
X140.589Y-138.176
X140.589Y-145.796
X144.468Y-72.98
X144.468Y-75.52
X144.468Y-78.06
X144.468Y-80.6
X144.468Y-83.141
X144.468Y-85.68
X144.468Y-88.221
X144.468Y-90.76
X144.468Y-93.3
X144.468Y-95.84
X144.468Y-98.38
X144.468Y-100.92
X144.468Y-103.46
X144.468Y-106.0
T4
X104.394Y-141.478
X109.474Y-141.478
X125.984Y-141.478
X128.524Y-141.478
X131.064Y-141.478
T5
X121.793Y-56.515
X124.333Y-56.515
X126.873Y-56.515
X129.413Y-56.515
X136.017Y-56.515
X138.557Y-56.515
X139.446Y-153.035
X141.097Y-56.515
X141.986Y-153.035
X143.637Y-56.515
X147.066Y-153.035
X152.019Y-66.421
X152.019Y-68.961
X152.019Y-71.501
X152.019Y-74.041
X152.146Y-79.502
X152.146Y-82.042
X152.146Y-84.582
X152.146Y-87.122
X152.146Y-92.837
X152.146Y-95.377
X152.146Y-97.917
X152.146Y-100.457
X152.146Y-102.997
X152.146Y-105.537
X152.146Y-153.035
T6
X137.328Y-64.778
X137.328Y-69.278
X143.828Y-64.778
X143.828Y-69.278
T7
X94.615Y-129.413
X94.615Y-133.223
X94.615Y-137.033
X94.615Y-140.843
X94.742Y-72.771
X94.742Y-76.581
X94.742Y-80.391
X94.742Y-84.201
X94.742Y-101.854
X94.742Y-105.664
X94.742Y-109.474
X94.742Y-113.284
X151.13Y-112.268
X151.13Y-117.348
X151.13Y-125.603
X151.13Y-130.683
X151.13Y-138.811
X151.13Y-143.891
T8
X100.898Y-67.43
X100.898Y-74.93
X100.898Y-81.915
X100.898Y-89.415
X101.0Y-96.52
X101.0Y-104.02
X101.025Y-111.125
X101.025Y-118.625
X101.025Y-125.73
X101.025Y-133.23
X105.938Y-67.43
X105.938Y-74.93
X105.938Y-81.915
X105.938Y-89.415
X106.04Y-96.52
X106.04Y-104.02
X106.065Y-111.125
X106.065Y-118.625
X106.065Y-125.73
X106.065Y-133.23
X110.978Y-67.43
X110.978Y-74.93
X110.978Y-81.915
X110.978Y-89.415
X111.08Y-96.52
X111.08Y-104.02
X111.105Y-111.125
X111.105Y-118.625
X111.105Y-125.73
X111.105Y-133.23
X126.238Y-67.43
X126.238Y-74.93
X126.238Y-81.915
X126.238Y-89.415
X126.34Y-96.52
X126.34Y-104.02
X126.365Y-111.125
X126.365Y-118.625
X126.365Y-125.73
X126.365Y-133.23
T9
X96.901Y-58.293
X96.901Y-162.941
X151.892Y-58.42
X151.97Y-163.019
T0
M30
