G04 #@! TF.GenerationSoftware,KiCad,Pcbnew,(5.1.10)-1*
G04 #@! TF.CreationDate,2021-12-06T14:15:13+01:00*
G04 #@! TF.ProjectId,LuciCameraLettoRoma,4c756369-4361-46d6-9572-614c6574746f,rev?*
G04 #@! TF.SameCoordinates,Original*
G04 #@! TF.FileFunction,Paste,Top*
G04 #@! TF.FilePolarity,Positive*
%FSLAX46Y46*%
G04 Gerber Fmt 4.6, Leading zero omitted, Abs format (unit mm)*
G04 Created by KiCad (PCBNEW (5.1.10)-1) date 2021-12-06 14:15:13*
%MOMM*%
%LPD*%
G01*
G04 APERTURE LIST*
%ADD10R,0.800000X0.900000*%
%ADD11R,0.900000X0.800000*%
G04 APERTURE END LIST*
G36*
G01*
X141682000Y-113147001D02*
X141682000Y-111896999D01*
G75*
G02*
X141931999Y-111647000I249999J0D01*
G01*
X142557001Y-111647000D01*
G75*
G02*
X142807000Y-111896999I0J-249999D01*
G01*
X142807000Y-113147001D01*
G75*
G02*
X142557001Y-113397000I-249999J0D01*
G01*
X141931999Y-113397000D01*
G75*
G02*
X141682000Y-113147001I0J249999D01*
G01*
G37*
G36*
G01*
X138757000Y-113147001D02*
X138757000Y-111896999D01*
G75*
G02*
X139006999Y-111647000I249999J0D01*
G01*
X139632001Y-111647000D01*
G75*
G02*
X139882000Y-111896999I0J-249999D01*
G01*
X139882000Y-113147001D01*
G75*
G02*
X139632001Y-113397000I-249999J0D01*
G01*
X139006999Y-113397000D01*
G75*
G02*
X138757000Y-113147001I0J249999D01*
G01*
G37*
G36*
G01*
X143900999Y-123516000D02*
X145151001Y-123516000D01*
G75*
G02*
X145401000Y-123765999I0J-249999D01*
G01*
X145401000Y-124391001D01*
G75*
G02*
X145151001Y-124641000I-249999J0D01*
G01*
X143900999Y-124641000D01*
G75*
G02*
X143651000Y-124391001I0J249999D01*
G01*
X143651000Y-123765999D01*
G75*
G02*
X143900999Y-123516000I249999J0D01*
G01*
G37*
G36*
G01*
X143900999Y-120591000D02*
X145151001Y-120591000D01*
G75*
G02*
X145401000Y-120840999I0J-249999D01*
G01*
X145401000Y-121466001D01*
G75*
G02*
X145151001Y-121716000I-249999J0D01*
G01*
X143900999Y-121716000D01*
G75*
G02*
X143651000Y-121466001I0J249999D01*
G01*
X143651000Y-120840999D01*
G75*
G02*
X143900999Y-120591000I249999J0D01*
G01*
G37*
G36*
G01*
X143900999Y-135836000D02*
X145151001Y-135836000D01*
G75*
G02*
X145401000Y-136085999I0J-249999D01*
G01*
X145401000Y-136711001D01*
G75*
G02*
X145151001Y-136961000I-249999J0D01*
G01*
X143900999Y-136961000D01*
G75*
G02*
X143651000Y-136711001I0J249999D01*
G01*
X143651000Y-136085999D01*
G75*
G02*
X143900999Y-135836000I249999J0D01*
G01*
G37*
G36*
G01*
X143900999Y-132911000D02*
X145151001Y-132911000D01*
G75*
G02*
X145401000Y-133160999I0J-249999D01*
G01*
X145401000Y-133786001D01*
G75*
G02*
X145151001Y-134036000I-249999J0D01*
G01*
X143900999Y-134036000D01*
G75*
G02*
X143651000Y-133786001I0J249999D01*
G01*
X143651000Y-133160999D01*
G75*
G02*
X143900999Y-132911000I249999J0D01*
G01*
G37*
D10*
X144587000Y-146209000D03*
X145537000Y-148209000D03*
X143637000Y-148209000D03*
G36*
G01*
X145151000Y-113903000D02*
X143901000Y-113903000D01*
G75*
G02*
X143651000Y-113653000I0J250000D01*
G01*
X143651000Y-112903000D01*
G75*
G02*
X143901000Y-112653000I250000J0D01*
G01*
X145151000Y-112653000D01*
G75*
G02*
X145401000Y-112903000I0J-250000D01*
G01*
X145401000Y-113653000D01*
G75*
G02*
X145151000Y-113903000I-250000J0D01*
G01*
G37*
G36*
G01*
X145151000Y-116703000D02*
X143901000Y-116703000D01*
G75*
G02*
X143651000Y-116453000I0J250000D01*
G01*
X143651000Y-115703000D01*
G75*
G02*
X143901000Y-115453000I250000J0D01*
G01*
X145151000Y-115453000D01*
G75*
G02*
X145401000Y-115703000I0J-250000D01*
G01*
X145401000Y-116453000D01*
G75*
G02*
X145151000Y-116703000I-250000J0D01*
G01*
G37*
G36*
G01*
X145151000Y-126987000D02*
X143901000Y-126987000D01*
G75*
G02*
X143651000Y-126737000I0J250000D01*
G01*
X143651000Y-125987000D01*
G75*
G02*
X143901000Y-125737000I250000J0D01*
G01*
X145151000Y-125737000D01*
G75*
G02*
X145401000Y-125987000I0J-250000D01*
G01*
X145401000Y-126737000D01*
G75*
G02*
X145151000Y-126987000I-250000J0D01*
G01*
G37*
G36*
G01*
X145151000Y-129787000D02*
X143901000Y-129787000D01*
G75*
G02*
X143651000Y-129537000I0J250000D01*
G01*
X143651000Y-128787000D01*
G75*
G02*
X143901000Y-128537000I250000J0D01*
G01*
X145151000Y-128537000D01*
G75*
G02*
X145401000Y-128787000I0J-250000D01*
G01*
X145401000Y-129537000D01*
G75*
G02*
X145151000Y-129787000I-250000J0D01*
G01*
G37*
G36*
G01*
X145151000Y-140576000D02*
X143901000Y-140576000D01*
G75*
G02*
X143651000Y-140326000I0J250000D01*
G01*
X143651000Y-139576000D01*
G75*
G02*
X143901000Y-139326000I250000J0D01*
G01*
X145151000Y-139326000D01*
G75*
G02*
X145401000Y-139576000I0J-250000D01*
G01*
X145401000Y-140326000D01*
G75*
G02*
X145151000Y-140576000I-250000J0D01*
G01*
G37*
G36*
G01*
X145151000Y-143376000D02*
X143901000Y-143376000D01*
G75*
G02*
X143651000Y-143126000I0J250000D01*
G01*
X143651000Y-142376000D01*
G75*
G02*
X143901000Y-142126000I250000J0D01*
G01*
X145151000Y-142126000D01*
G75*
G02*
X145401000Y-142376000I0J-250000D01*
G01*
X145401000Y-143126000D01*
G75*
G02*
X145151000Y-143376000I-250000J0D01*
G01*
G37*
G36*
G01*
X150682000Y-149240001D02*
X150682000Y-147939999D01*
G75*
G02*
X150931999Y-147690000I249999J0D01*
G01*
X151582001Y-147690000D01*
G75*
G02*
X151832000Y-147939999I0J-249999D01*
G01*
X151832000Y-149240001D01*
G75*
G02*
X151582001Y-149490000I-249999J0D01*
G01*
X150931999Y-149490000D01*
G75*
G02*
X150682000Y-149240001I0J249999D01*
G01*
G37*
G36*
G01*
X147732000Y-149240001D02*
X147732000Y-147939999D01*
G75*
G02*
X147981999Y-147690000I249999J0D01*
G01*
X148632001Y-147690000D01*
G75*
G02*
X148882000Y-147939999I0J-249999D01*
G01*
X148882000Y-149240001D01*
G75*
G02*
X148632001Y-149490000I-249999J0D01*
G01*
X147981999Y-149490000D01*
G75*
G02*
X147732000Y-149240001I0J249999D01*
G01*
G37*
G36*
G01*
X132197000Y-124320000D02*
X130947000Y-124320000D01*
G75*
G02*
X130697000Y-124070000I0J250000D01*
G01*
X130697000Y-123320000D01*
G75*
G02*
X130947000Y-123070000I250000J0D01*
G01*
X132197000Y-123070000D01*
G75*
G02*
X132447000Y-123320000I0J-250000D01*
G01*
X132447000Y-124070000D01*
G75*
G02*
X132197000Y-124320000I-250000J0D01*
G01*
G37*
G36*
G01*
X132197000Y-127120000D02*
X130947000Y-127120000D01*
G75*
G02*
X130697000Y-126870000I0J250000D01*
G01*
X130697000Y-126120000D01*
G75*
G02*
X130947000Y-125870000I250000J0D01*
G01*
X132197000Y-125870000D01*
G75*
G02*
X132447000Y-126120000I0J-250000D01*
G01*
X132447000Y-126870000D01*
G75*
G02*
X132197000Y-127120000I-250000J0D01*
G01*
G37*
G36*
G01*
X132197000Y-109588000D02*
X130947000Y-109588000D01*
G75*
G02*
X130697000Y-109338000I0J250000D01*
G01*
X130697000Y-108588000D01*
G75*
G02*
X130947000Y-108338000I250000J0D01*
G01*
X132197000Y-108338000D01*
G75*
G02*
X132447000Y-108588000I0J-250000D01*
G01*
X132447000Y-109338000D01*
G75*
G02*
X132197000Y-109588000I-250000J0D01*
G01*
G37*
G36*
G01*
X132197000Y-112388000D02*
X130947000Y-112388000D01*
G75*
G02*
X130697000Y-112138000I0J250000D01*
G01*
X130697000Y-111388000D01*
G75*
G02*
X130947000Y-111138000I250000J0D01*
G01*
X132197000Y-111138000D01*
G75*
G02*
X132447000Y-111388000I0J-250000D01*
G01*
X132447000Y-112138000D01*
G75*
G02*
X132197000Y-112388000I-250000J0D01*
G01*
G37*
G36*
G01*
X132197000Y-104003000D02*
X130947000Y-104003000D01*
G75*
G02*
X130697000Y-103753000I0J250000D01*
G01*
X130697000Y-103003000D01*
G75*
G02*
X130947000Y-102753000I250000J0D01*
G01*
X132197000Y-102753000D01*
G75*
G02*
X132447000Y-103003000I0J-250000D01*
G01*
X132447000Y-103753000D01*
G75*
G02*
X132197000Y-104003000I-250000J0D01*
G01*
G37*
G36*
G01*
X132197000Y-106803000D02*
X130947000Y-106803000D01*
G75*
G02*
X130697000Y-106553000I0J250000D01*
G01*
X130697000Y-105803000D01*
G75*
G02*
X130947000Y-105553000I250000J0D01*
G01*
X132197000Y-105553000D01*
G75*
G02*
X132447000Y-105803000I0J-250000D01*
G01*
X132447000Y-106553000D01*
G75*
G02*
X132197000Y-106803000I-250000J0D01*
G01*
G37*
G36*
G01*
X132197000Y-80127000D02*
X130947000Y-80127000D01*
G75*
G02*
X130697000Y-79877000I0J250000D01*
G01*
X130697000Y-79127000D01*
G75*
G02*
X130947000Y-78877000I250000J0D01*
G01*
X132197000Y-78877000D01*
G75*
G02*
X132447000Y-79127000I0J-250000D01*
G01*
X132447000Y-79877000D01*
G75*
G02*
X132197000Y-80127000I-250000J0D01*
G01*
G37*
G36*
G01*
X132197000Y-82927000D02*
X130947000Y-82927000D01*
G75*
G02*
X130697000Y-82677000I0J250000D01*
G01*
X130697000Y-81927000D01*
G75*
G02*
X130947000Y-81677000I250000J0D01*
G01*
X132197000Y-81677000D01*
G75*
G02*
X132447000Y-81927000I0J-250000D01*
G01*
X132447000Y-82677000D01*
G75*
G02*
X132197000Y-82927000I-250000J0D01*
G01*
G37*
G36*
G01*
X132197000Y-66027000D02*
X130947000Y-66027000D01*
G75*
G02*
X130697000Y-65777000I0J250000D01*
G01*
X130697000Y-65027000D01*
G75*
G02*
X130947000Y-64777000I250000J0D01*
G01*
X132197000Y-64777000D01*
G75*
G02*
X132447000Y-65027000I0J-250000D01*
G01*
X132447000Y-65777000D01*
G75*
G02*
X132197000Y-66027000I-250000J0D01*
G01*
G37*
G36*
G01*
X132197000Y-68827000D02*
X130947000Y-68827000D01*
G75*
G02*
X130697000Y-68577000I0J250000D01*
G01*
X130697000Y-67827000D01*
G75*
G02*
X130947000Y-67577000I250000J0D01*
G01*
X132197000Y-67577000D01*
G75*
G02*
X132447000Y-67827000I0J-250000D01*
G01*
X132447000Y-68577000D01*
G75*
G02*
X132197000Y-68827000I-250000J0D01*
G01*
G37*
G36*
G01*
X135372001Y-132704000D02*
X134121999Y-132704000D01*
G75*
G02*
X133872000Y-132454001I0J249999D01*
G01*
X133872000Y-131828999D01*
G75*
G02*
X134121999Y-131579000I249999J0D01*
G01*
X135372001Y-131579000D01*
G75*
G02*
X135622000Y-131828999I0J-249999D01*
G01*
X135622000Y-132454001D01*
G75*
G02*
X135372001Y-132704000I-249999J0D01*
G01*
G37*
G36*
G01*
X135372001Y-135629000D02*
X134121999Y-135629000D01*
G75*
G02*
X133872000Y-135379001I0J249999D01*
G01*
X133872000Y-134753999D01*
G75*
G02*
X134121999Y-134504000I249999J0D01*
G01*
X135372001Y-134504000D01*
G75*
G02*
X135622000Y-134753999I0J-249999D01*
G01*
X135622000Y-135379001D01*
G75*
G02*
X135372001Y-135629000I-249999J0D01*
G01*
G37*
G36*
G01*
X135372001Y-121655000D02*
X134121999Y-121655000D01*
G75*
G02*
X133872000Y-121405001I0J249999D01*
G01*
X133872000Y-120779999D01*
G75*
G02*
X134121999Y-120530000I249999J0D01*
G01*
X135372001Y-120530000D01*
G75*
G02*
X135622000Y-120779999I0J-249999D01*
G01*
X135622000Y-121405001D01*
G75*
G02*
X135372001Y-121655000I-249999J0D01*
G01*
G37*
G36*
G01*
X135372001Y-124580000D02*
X134121999Y-124580000D01*
G75*
G02*
X133872000Y-124330001I0J249999D01*
G01*
X133872000Y-123704999D01*
G75*
G02*
X134121999Y-123455000I249999J0D01*
G01*
X135372001Y-123455000D01*
G75*
G02*
X135622000Y-123704999I0J-249999D01*
G01*
X135622000Y-124330001D01*
G75*
G02*
X135372001Y-124580000I-249999J0D01*
G01*
G37*
G36*
G01*
X135372001Y-143372000D02*
X134121999Y-143372000D01*
G75*
G02*
X133872000Y-143122001I0J249999D01*
G01*
X133872000Y-142496999D01*
G75*
G02*
X134121999Y-142247000I249999J0D01*
G01*
X135372001Y-142247000D01*
G75*
G02*
X135622000Y-142496999I0J-249999D01*
G01*
X135622000Y-143122001D01*
G75*
G02*
X135372001Y-143372000I-249999J0D01*
G01*
G37*
G36*
G01*
X135372001Y-146297000D02*
X134121999Y-146297000D01*
G75*
G02*
X133872000Y-146047001I0J249999D01*
G01*
X133872000Y-145421999D01*
G75*
G02*
X134121999Y-145172000I249999J0D01*
G01*
X135372001Y-145172000D01*
G75*
G02*
X135622000Y-145421999I0J-249999D01*
G01*
X135622000Y-146047001D01*
G75*
G02*
X135372001Y-146297000I-249999J0D01*
G01*
G37*
D11*
X130445000Y-133223000D03*
X132445000Y-132273000D03*
X132445000Y-134173000D03*
X130445000Y-118618000D03*
X132445000Y-117668000D03*
X132445000Y-119568000D03*
X130429000Y-85725000D03*
X132429000Y-84775000D03*
X132429000Y-86675000D03*
X130445000Y-74930000D03*
X132445000Y-73980000D03*
X132445000Y-75880000D03*
G36*
G01*
X139944000Y-108468000D02*
X139944000Y-109718000D01*
G75*
G02*
X139694000Y-109968000I-250000J0D01*
G01*
X138944000Y-109968000D01*
G75*
G02*
X138694000Y-109718000I0J250000D01*
G01*
X138694000Y-108468000D01*
G75*
G02*
X138944000Y-108218000I250000J0D01*
G01*
X139694000Y-108218000D01*
G75*
G02*
X139944000Y-108468000I0J-250000D01*
G01*
G37*
G36*
G01*
X142744000Y-108468000D02*
X142744000Y-109718000D01*
G75*
G02*
X142494000Y-109968000I-250000J0D01*
G01*
X141744000Y-109968000D01*
G75*
G02*
X141494000Y-109718000I0J250000D01*
G01*
X141494000Y-108468000D01*
G75*
G02*
X141744000Y-108218000I250000J0D01*
G01*
X142494000Y-108218000D01*
G75*
G02*
X142744000Y-108468000I0J-250000D01*
G01*
G37*
M02*
