%FSLAX45Y45*%
G04 Gerber Fmt 4.5, Leading zero omitted, Abs format (unit mm)*
G04 Created by KiCad (PCBNEW (5.1.10)-1) date 2021-12-06 14:16:19*
%MOMM*%
%LPD*%
G01*
G04 APERTURE LIST*
%TA.AperFunction,Profile*%
%ADD10C,0.050000*%
%TD*%
%ADD11C,0.200000*%
%ADD12C,0.300000*%
G04 APERTURE END LIST*
D10*
X9017000Y-16776700D02*
X9017000Y-5308600D01*
X15748000Y-16764000D02*
X9017000Y-16776700D01*
X15748000Y-5308600D02*
X15748000Y-16764000D01*
X9017000Y-5308600D02*
X15748000Y-5308600D01*
X12014200Y-14897100D02*
X12014200Y-6438900D01*
X11811000Y-6438900D02*
X11811000Y-14897100D01*
X12014200Y-14897100D02*
G75*
G02*
X11811000Y-14897100I-101600J0D01*
G01*
X11811000Y-6438900D02*
G75*
G02*
X12014200Y-6438900I101600J0D01*
G01*
D11*
X12908600Y-8330250D02*
X12948600Y-8370250D01*
X12948600Y-8330250D02*
X12908600Y-8370250D01*
X13080050Y-8958900D02*
X13120050Y-8998900D01*
X13120050Y-8958900D02*
X13080050Y-8998900D01*
X13095710Y-7807160D02*
X13135710Y-7847160D01*
X13135710Y-7807160D02*
X13095710Y-7847160D01*
X13137200Y-6389590D02*
X13177200Y-6429590D01*
X13177200Y-6389590D02*
X13137200Y-6429590D01*
X13137200Y-12225450D02*
X13177200Y-12265450D01*
X13177200Y-12225450D02*
X13137200Y-12265450D01*
X13210760Y-11000960D02*
X13250760Y-11040960D01*
X13250760Y-11000960D02*
X13210760Y-11040960D01*
X13251500Y-9924100D02*
X13291500Y-9964100D01*
X13291500Y-9924100D02*
X13251500Y-9964100D01*
X13257340Y-10705810D02*
X13297340Y-10745810D01*
X13297340Y-10705810D02*
X13257340Y-10745810D01*
X13359450Y-8254050D02*
X13399450Y-8294050D01*
X13399450Y-8254050D02*
X13359450Y-8294050D01*
X14036170Y-10889300D02*
X14076170Y-10929300D01*
X14076170Y-10889300D02*
X14036170Y-10929300D01*
X14325200Y-11462870D02*
X14365200Y-11502870D01*
X14365200Y-11462870D02*
X14325200Y-11502870D01*
X14412700Y-13120750D02*
X14452700Y-13160750D01*
X14452700Y-13120750D02*
X14412700Y-13160750D01*
X9452600Y-5829300D02*
G75*
G03*
X9452600Y-5829300I-25000J0D01*
G01*
X9452600Y-16294100D02*
G75*
G03*
X9452600Y-16294100I-25000J0D01*
G01*
X9529485Y-5643684D02*
G75*
G03*
X9529485Y-5643684I-25000J0D01*
G01*
X9529485Y-6014915D02*
G75*
G03*
X9529485Y-6014915I-25000J0D01*
G01*
X9529485Y-16108484D02*
G75*
G03*
X9529485Y-16108484I-25000J0D01*
G01*
X9529485Y-16479715D02*
G75*
G03*
X9529485Y-16479715I-25000J0D01*
G01*
X9715100Y-5566800D02*
G75*
G03*
X9715100Y-5566800I-25000J0D01*
G01*
X9715100Y-6091800D02*
G75*
G03*
X9715100Y-6091800I-25000J0D01*
G01*
X9715100Y-16031600D02*
G75*
G03*
X9715100Y-16031600I-25000J0D01*
G01*
X9715100Y-16556600D02*
G75*
G03*
X9715100Y-16556600I-25000J0D01*
G01*
X9900716Y-5643684D02*
G75*
G03*
X9900716Y-5643684I-25000J0D01*
G01*
X9900716Y-6014915D02*
G75*
G03*
X9900716Y-6014915I-25000J0D01*
G01*
X9900716Y-16108484D02*
G75*
G03*
X9900716Y-16108484I-25000J0D01*
G01*
X9900716Y-16479715D02*
G75*
G03*
X9900716Y-16479715I-25000J0D01*
G01*
X9977600Y-5829300D02*
G75*
G03*
X9977600Y-5829300I-25000J0D01*
G01*
X9977600Y-16294100D02*
G75*
G03*
X9977600Y-16294100I-25000J0D01*
G01*
X14951700Y-5842000D02*
G75*
G03*
X14951700Y-5842000I-25000J0D01*
G01*
X14959500Y-16301900D02*
G75*
G03*
X14959500Y-16301900I-25000J0D01*
G01*
X15028584Y-5656384D02*
G75*
G03*
X15028584Y-5656384I-25000J0D01*
G01*
X15028584Y-6027615D02*
G75*
G03*
X15028584Y-6027615I-25000J0D01*
G01*
X15036384Y-16116284D02*
G75*
G03*
X15036384Y-16116284I-25000J0D01*
G01*
X15036384Y-16487515D02*
G75*
G03*
X15036384Y-16487515I-25000J0D01*
G01*
X15214200Y-5579500D02*
G75*
G03*
X15214200Y-5579500I-25000J0D01*
G01*
X15214200Y-6104500D02*
G75*
G03*
X15214200Y-6104500I-25000J0D01*
G01*
X15222000Y-16039400D02*
G75*
G03*
X15222000Y-16039400I-25000J0D01*
G01*
X15222000Y-16564400D02*
G75*
G03*
X15222000Y-16564400I-25000J0D01*
G01*
X15399815Y-5656384D02*
G75*
G03*
X15399815Y-5656384I-25000J0D01*
G01*
X15399815Y-6027615D02*
G75*
G03*
X15399815Y-6027615I-25000J0D01*
G01*
X15407615Y-16116284D02*
G75*
G03*
X15407615Y-16116284I-25000J0D01*
G01*
X15407615Y-16487515D02*
G75*
G03*
X15407615Y-16487515I-25000J0D01*
G01*
X15476700Y-5842000D02*
G75*
G03*
X15476700Y-5842000I-25000J0D01*
G01*
X15484500Y-16301900D02*
G75*
G03*
X15484500Y-16301900I-25000J0D01*
G01*
X13265200Y-9186550D02*
X13265200Y-9266550D01*
X13225200Y-9226550D02*
X13305200Y-9226550D01*
X13265200Y-9674550D02*
X13265200Y-9754550D01*
X13225200Y-9714550D02*
X13305200Y-9714550D01*
X13684800Y-7258050D02*
X13684800Y-7338050D01*
X13644800Y-7298050D02*
X13724800Y-7298050D01*
X13684800Y-7512050D02*
X13684800Y-7592050D01*
X13644800Y-7552050D02*
X13724800Y-7552050D01*
X13684800Y-7766050D02*
X13684800Y-7846050D01*
X13644800Y-7806050D02*
X13724800Y-7806050D01*
X13684800Y-8020050D02*
X13684800Y-8100050D01*
X13644800Y-8060050D02*
X13724800Y-8060050D01*
X13684800Y-8274050D02*
X13684800Y-8354050D01*
X13644800Y-8314050D02*
X13724800Y-8314050D01*
X13684800Y-8528050D02*
X13684800Y-8608050D01*
X13644800Y-8568050D02*
X13724800Y-8568050D01*
X13684800Y-8782050D02*
X13684800Y-8862050D01*
X13644800Y-8822050D02*
X13724800Y-8822050D01*
X13684800Y-9036050D02*
X13684800Y-9116050D01*
X13644800Y-9076050D02*
X13724800Y-9076050D01*
X13684800Y-9290050D02*
X13684800Y-9370050D01*
X13644800Y-9330050D02*
X13724800Y-9330050D01*
X13684800Y-9544050D02*
X13684800Y-9624050D01*
X13644800Y-9584050D02*
X13724800Y-9584050D01*
X13684800Y-9798050D02*
X13684800Y-9878050D01*
X13644800Y-9838050D02*
X13724800Y-9838050D01*
X13684800Y-10052050D02*
X13684800Y-10132050D01*
X13644800Y-10092050D02*
X13724800Y-10092050D01*
X13684800Y-10306050D02*
X13684800Y-10386050D01*
X13644800Y-10346050D02*
X13724800Y-10346050D01*
X13684800Y-10560050D02*
X13684800Y-10640050D01*
X13644800Y-10600050D02*
X13724800Y-10600050D01*
X13804900Y-11580500D02*
X13804900Y-11660500D01*
X13764900Y-11620500D02*
X13844900Y-11620500D01*
X13804900Y-12342500D02*
X13804900Y-12422500D01*
X13764900Y-12382500D02*
X13844900Y-12382500D01*
X13804900Y-12685400D02*
X13804900Y-12765400D01*
X13764900Y-12725400D02*
X13844900Y-12725400D01*
X13804900Y-13447400D02*
X13804900Y-13527400D01*
X13764900Y-13487400D02*
X13844900Y-13487400D01*
X13804900Y-13777600D02*
X13804900Y-13857600D01*
X13764900Y-13817600D02*
X13844900Y-13817600D01*
X13804900Y-14539600D02*
X13804900Y-14619600D01*
X13764900Y-14579600D02*
X13844900Y-14579600D01*
X14058900Y-11580500D02*
X14058900Y-11660500D01*
X14018900Y-11620500D02*
X14098900Y-11620500D01*
X14058900Y-12342500D02*
X14058900Y-12422500D01*
X14018900Y-12382500D02*
X14098900Y-12382500D01*
X14058900Y-12685400D02*
X14058900Y-12765400D01*
X14018900Y-12725400D02*
X14098900Y-12725400D01*
X14058900Y-13447400D02*
X14058900Y-13527400D01*
X14018900Y-13487400D02*
X14098900Y-13487400D01*
X14058900Y-13777600D02*
X14058900Y-13857600D01*
X14018900Y-13817600D02*
X14098900Y-13817600D01*
X14058900Y-14539600D02*
X14058900Y-14619600D01*
X14018900Y-14579600D02*
X14098900Y-14579600D01*
X14446800Y-7258050D02*
X14446800Y-7338050D01*
X14406800Y-7298050D02*
X14486800Y-7298050D01*
X14446800Y-7512050D02*
X14446800Y-7592050D01*
X14406800Y-7552050D02*
X14486800Y-7552050D01*
X14446800Y-7766050D02*
X14446800Y-7846050D01*
X14406800Y-7806050D02*
X14486800Y-7806050D01*
X14446800Y-8020050D02*
X14446800Y-8100050D01*
X14406800Y-8060050D02*
X14486800Y-8060050D01*
X14446800Y-8274050D02*
X14446800Y-8354050D01*
X14406800Y-8314050D02*
X14486800Y-8314050D01*
X14446800Y-8528050D02*
X14446800Y-8608050D01*
X14406800Y-8568050D02*
X14486800Y-8568050D01*
X14446800Y-8782050D02*
X14446800Y-8862050D01*
X14406800Y-8822050D02*
X14486800Y-8822050D01*
X14446800Y-9036050D02*
X14446800Y-9116050D01*
X14406800Y-9076050D02*
X14486800Y-9076050D01*
X14446800Y-9290050D02*
X14446800Y-9370050D01*
X14406800Y-9330050D02*
X14486800Y-9330050D01*
X14446800Y-9544050D02*
X14446800Y-9624050D01*
X14406800Y-9584050D02*
X14486800Y-9584050D01*
X14446800Y-9798050D02*
X14446800Y-9878050D01*
X14406800Y-9838050D02*
X14486800Y-9838050D01*
X14446800Y-10052050D02*
X14446800Y-10132050D01*
X14406800Y-10092050D02*
X14486800Y-10092050D01*
X14446800Y-10306050D02*
X14446800Y-10386050D01*
X14406800Y-10346050D02*
X14486800Y-10346050D01*
X14446800Y-10560050D02*
X14446800Y-10640050D01*
X14406800Y-10600050D02*
X14486800Y-10600050D01*
X10471220Y-14179620D02*
X10471220Y-14115980D01*
X10407580Y-14115980D01*
X10407580Y-14179620D01*
X10471220Y-14179620D01*
X10979220Y-14179620D02*
X10979220Y-14115980D01*
X10915580Y-14115980D01*
X10915580Y-14179620D01*
X10979220Y-14179620D01*
X12630220Y-14179620D02*
X12630220Y-14115980D01*
X12566580Y-14115980D01*
X12566580Y-14179620D01*
X12630220Y-14179620D01*
X12884220Y-14179620D02*
X12884220Y-14115980D01*
X12820580Y-14115980D01*
X12820580Y-14179620D01*
X12884220Y-14179620D01*
X13138220Y-14179620D02*
X13138220Y-14115980D01*
X13074580Y-14115980D01*
X13074580Y-14179620D01*
X13138220Y-14179620D01*
X12179300Y-5701500D02*
X12229300Y-5651500D01*
X12179300Y-5601500D01*
X12129300Y-5651500D01*
X12179300Y-5701500D01*
X12433300Y-5701500D02*
X12483300Y-5651500D01*
X12433300Y-5601500D01*
X12383300Y-5651500D01*
X12433300Y-5701500D01*
X12687300Y-5701500D02*
X12737300Y-5651500D01*
X12687300Y-5601500D01*
X12637300Y-5651500D01*
X12687300Y-5701500D01*
X12941300Y-5701500D02*
X12991300Y-5651500D01*
X12941300Y-5601500D01*
X12891300Y-5651500D01*
X12941300Y-5701500D01*
X13601700Y-5701500D02*
X13651700Y-5651500D01*
X13601700Y-5601500D01*
X13551700Y-5651500D01*
X13601700Y-5701500D01*
X13855700Y-5701500D02*
X13905700Y-5651500D01*
X13855700Y-5601500D01*
X13805700Y-5651500D01*
X13855700Y-5701500D01*
X13944600Y-15353500D02*
X13994600Y-15303500D01*
X13944600Y-15253500D01*
X13894600Y-15303500D01*
X13944600Y-15353500D01*
X14109700Y-5701500D02*
X14159700Y-5651500D01*
X14109700Y-5601500D01*
X14059700Y-5651500D01*
X14109700Y-5701500D01*
X14198600Y-15353500D02*
X14248600Y-15303500D01*
X14198600Y-15253500D01*
X14148600Y-15303500D01*
X14198600Y-15353500D01*
X14363700Y-5701500D02*
X14413700Y-5651500D01*
X14363700Y-5601500D01*
X14313700Y-5651500D01*
X14363700Y-5701500D01*
X14706600Y-15353500D02*
X14756600Y-15303500D01*
X14706600Y-15253500D01*
X14656600Y-15303500D01*
X14706600Y-15353500D01*
X15201900Y-6692100D02*
X15251900Y-6642100D01*
X15201900Y-6592100D01*
X15151900Y-6642100D01*
X15201900Y-6692100D01*
X15201900Y-6946100D02*
X15251900Y-6896100D01*
X15201900Y-6846100D01*
X15151900Y-6896100D01*
X15201900Y-6946100D01*
X15201900Y-7200100D02*
X15251900Y-7150100D01*
X15201900Y-7100100D01*
X15151900Y-7150100D01*
X15201900Y-7200100D01*
X15201900Y-7454100D02*
X15251900Y-7404100D01*
X15201900Y-7354100D01*
X15151900Y-7404100D01*
X15201900Y-7454100D01*
X15214600Y-8000200D02*
X15264600Y-7950200D01*
X15214600Y-7900200D01*
X15164600Y-7950200D01*
X15214600Y-8000200D01*
X15214600Y-8254200D02*
X15264600Y-8204200D01*
X15214600Y-8154200D01*
X15164600Y-8204200D01*
X15214600Y-8254200D01*
X15214600Y-8508200D02*
X15264600Y-8458200D01*
X15214600Y-8408200D01*
X15164600Y-8458200D01*
X15214600Y-8508200D01*
X15214600Y-8762200D02*
X15264600Y-8712200D01*
X15214600Y-8662200D01*
X15164600Y-8712200D01*
X15214600Y-8762200D01*
X15214600Y-9333700D02*
X15264600Y-9283700D01*
X15214600Y-9233700D01*
X15164600Y-9283700D01*
X15214600Y-9333700D01*
X15214600Y-9587700D02*
X15264600Y-9537700D01*
X15214600Y-9487700D01*
X15164600Y-9537700D01*
X15214600Y-9587700D01*
X15214600Y-9841700D02*
X15264600Y-9791700D01*
X15214600Y-9741700D01*
X15164600Y-9791700D01*
X15214600Y-9841700D01*
X15214600Y-10095700D02*
X15264600Y-10045700D01*
X15214600Y-9995700D01*
X15164600Y-10045700D01*
X15214600Y-10095700D01*
X15214600Y-10349700D02*
X15264600Y-10299700D01*
X15214600Y-10249700D01*
X15164600Y-10299700D01*
X15214600Y-10349700D01*
X15214600Y-10603700D02*
X15264600Y-10553700D01*
X15214600Y-10503700D01*
X15164600Y-10553700D01*
X15214600Y-10603700D01*
X15214600Y-15353500D02*
X15264600Y-15303500D01*
X15214600Y-15253500D01*
X15164600Y-15303500D01*
X15214600Y-15353500D01*
X13677800Y-6422850D02*
X13787800Y-6532850D01*
X13787800Y-6422850D02*
X13677800Y-6532850D01*
X13787800Y-6477850D02*
G75*
G03*
X13787800Y-6477850I-55000J0D01*
G01*
X13677800Y-6872850D02*
X13787800Y-6982850D01*
X13787800Y-6872850D02*
X13677800Y-6982850D01*
X13787800Y-6927850D02*
G75*
G03*
X13787800Y-6927850I-55000J0D01*
G01*
X14327800Y-6422850D02*
X14437800Y-6532850D01*
X14437800Y-6422850D02*
X14327800Y-6532850D01*
X14437800Y-6477850D02*
G75*
G03*
X14437800Y-6477850I-55000J0D01*
G01*
X14327800Y-6872850D02*
X14437800Y-6982850D01*
X14437800Y-6872850D02*
X14327800Y-6982850D01*
X14437800Y-6927850D02*
G75*
G03*
X14437800Y-6927850I-55000J0D01*
G01*
X9401500Y-12881300D02*
X9521500Y-13001300D01*
X9521500Y-12881300D02*
X9401500Y-13001300D01*
X9461500Y-12881300D02*
X9461500Y-13001300D01*
X9401500Y-12941300D02*
X9521500Y-12941300D01*
X9401500Y-13262300D02*
X9521500Y-13382300D01*
X9521500Y-13262300D02*
X9401500Y-13382300D01*
X9461500Y-13262300D02*
X9461500Y-13382300D01*
X9401500Y-13322300D02*
X9521500Y-13322300D01*
X9401500Y-13643300D02*
X9521500Y-13763300D01*
X9521500Y-13643300D02*
X9401500Y-13763300D01*
X9461500Y-13643300D02*
X9461500Y-13763300D01*
X9401500Y-13703300D02*
X9521500Y-13703300D01*
X9401500Y-14024300D02*
X9521500Y-14144300D01*
X9521500Y-14024300D02*
X9401500Y-14144300D01*
X9461500Y-14024300D02*
X9461500Y-14144300D01*
X9401500Y-14084300D02*
X9521500Y-14084300D01*
X9414200Y-7217100D02*
X9534200Y-7337100D01*
X9534200Y-7217100D02*
X9414200Y-7337100D01*
X9474200Y-7217100D02*
X9474200Y-7337100D01*
X9414200Y-7277100D02*
X9534200Y-7277100D01*
X9414200Y-7598100D02*
X9534200Y-7718100D01*
X9534200Y-7598100D02*
X9414200Y-7718100D01*
X9474200Y-7598100D02*
X9474200Y-7718100D01*
X9414200Y-7658100D02*
X9534200Y-7658100D01*
X9414200Y-7979100D02*
X9534200Y-8099100D01*
X9534200Y-7979100D02*
X9414200Y-8099100D01*
X9474200Y-7979100D02*
X9474200Y-8099100D01*
X9414200Y-8039100D02*
X9534200Y-8039100D01*
X9414200Y-8360100D02*
X9534200Y-8480100D01*
X9534200Y-8360100D02*
X9414200Y-8480100D01*
X9474200Y-8360100D02*
X9474200Y-8480100D01*
X9414200Y-8420100D02*
X9534200Y-8420100D01*
X9414200Y-10125400D02*
X9534200Y-10245400D01*
X9534200Y-10125400D02*
X9414200Y-10245400D01*
X9474200Y-10125400D02*
X9474200Y-10245400D01*
X9414200Y-10185400D02*
X9534200Y-10185400D01*
X9414200Y-10506400D02*
X9534200Y-10626400D01*
X9534200Y-10506400D02*
X9414200Y-10626400D01*
X9474200Y-10506400D02*
X9474200Y-10626400D01*
X9414200Y-10566400D02*
X9534200Y-10566400D01*
X9414200Y-10887400D02*
X9534200Y-11007400D01*
X9534200Y-10887400D02*
X9414200Y-11007400D01*
X9474200Y-10887400D02*
X9474200Y-11007400D01*
X9414200Y-10947400D02*
X9534200Y-10947400D01*
X9414200Y-11268400D02*
X9534200Y-11388400D01*
X9534200Y-11268400D02*
X9414200Y-11388400D01*
X9474200Y-11268400D02*
X9474200Y-11388400D01*
X9414200Y-11328400D02*
X9534200Y-11328400D01*
X15053000Y-11166800D02*
X15173000Y-11286800D01*
X15173000Y-11166800D02*
X15053000Y-11286800D01*
X15113000Y-11166800D02*
X15113000Y-11286800D01*
X15053000Y-11226800D02*
X15173000Y-11226800D01*
X15053000Y-11674800D02*
X15173000Y-11794800D01*
X15173000Y-11674800D02*
X15053000Y-11794800D01*
X15113000Y-11674800D02*
X15113000Y-11794800D01*
X15053000Y-11734800D02*
X15173000Y-11734800D01*
X15053000Y-12500300D02*
X15173000Y-12620300D01*
X15173000Y-12500300D02*
X15053000Y-12620300D01*
X15113000Y-12500300D02*
X15113000Y-12620300D01*
X15053000Y-12560300D02*
X15173000Y-12560300D01*
X15053000Y-13008300D02*
X15173000Y-13128300D01*
X15173000Y-13008300D02*
X15053000Y-13128300D01*
X15113000Y-13008300D02*
X15113000Y-13128300D01*
X15053000Y-13068300D02*
X15173000Y-13068300D01*
X15053000Y-13821100D02*
X15173000Y-13941100D01*
X15173000Y-13821100D02*
X15053000Y-13941100D01*
X15113000Y-13821100D02*
X15113000Y-13941100D01*
X15053000Y-13881100D02*
X15173000Y-13881100D01*
X15053000Y-14329100D02*
X15173000Y-14449100D01*
X15173000Y-14329100D02*
X15053000Y-14449100D01*
X15113000Y-14329100D02*
X15113000Y-14449100D01*
X15053000Y-14389100D02*
X15173000Y-14389100D01*
X10024800Y-6678000D02*
X10154800Y-6808000D01*
X10154800Y-6678000D02*
X10024800Y-6808000D01*
X10135762Y-6788962D02*
X10135762Y-6697038D01*
X10043838Y-6697038D01*
X10043838Y-6788962D01*
X10135762Y-6788962D01*
X10024800Y-7428000D02*
X10154800Y-7558000D01*
X10154800Y-7428000D02*
X10024800Y-7558000D01*
X10135762Y-7538962D02*
X10135762Y-7447038D01*
X10043838Y-7447038D01*
X10043838Y-7538962D01*
X10135762Y-7538962D01*
X10024800Y-8126500D02*
X10154800Y-8256500D01*
X10154800Y-8126500D02*
X10024800Y-8256500D01*
X10135762Y-8237462D02*
X10135762Y-8145538D01*
X10043838Y-8145538D01*
X10043838Y-8237462D01*
X10135762Y-8237462D01*
X10024800Y-8876500D02*
X10154800Y-9006500D01*
X10154800Y-8876500D02*
X10024800Y-9006500D01*
X10135762Y-8987462D02*
X10135762Y-8895538D01*
X10043838Y-8895538D01*
X10043838Y-8987462D01*
X10135762Y-8987462D01*
X10035000Y-9587000D02*
X10165000Y-9717000D01*
X10165000Y-9587000D02*
X10035000Y-9717000D01*
X10145962Y-9697962D02*
X10145962Y-9606038D01*
X10054038Y-9606038D01*
X10054038Y-9697962D01*
X10145962Y-9697962D01*
X10035000Y-10337000D02*
X10165000Y-10467000D01*
X10165000Y-10337000D02*
X10035000Y-10467000D01*
X10145962Y-10447962D02*
X10145962Y-10356038D01*
X10054038Y-10356038D01*
X10054038Y-10447962D01*
X10145962Y-10447962D01*
X10037500Y-11047500D02*
X10167500Y-11177500D01*
X10167500Y-11047500D02*
X10037500Y-11177500D01*
X10148462Y-11158462D02*
X10148462Y-11066538D01*
X10056538Y-11066538D01*
X10056538Y-11158462D01*
X10148462Y-11158462D01*
X10037500Y-11797500D02*
X10167500Y-11927500D01*
X10167500Y-11797500D02*
X10037500Y-11927500D01*
X10148462Y-11908462D02*
X10148462Y-11816538D01*
X10056538Y-11816538D01*
X10056538Y-11908462D01*
X10148462Y-11908462D01*
X10037500Y-12508000D02*
X10167500Y-12638000D01*
X10167500Y-12508000D02*
X10037500Y-12638000D01*
X10148462Y-12618962D02*
X10148462Y-12527038D01*
X10056538Y-12527038D01*
X10056538Y-12618962D01*
X10148462Y-12618962D01*
X10037500Y-13258000D02*
X10167500Y-13388000D01*
X10167500Y-13258000D02*
X10037500Y-13388000D01*
X10148462Y-13368962D02*
X10148462Y-13277038D01*
X10056538Y-13277038D01*
X10056538Y-13368962D01*
X10148462Y-13368962D01*
X10528800Y-6678000D02*
X10658800Y-6808000D01*
X10658800Y-6678000D02*
X10528800Y-6808000D01*
X10639762Y-6788962D02*
X10639762Y-6697038D01*
X10547838Y-6697038D01*
X10547838Y-6788962D01*
X10639762Y-6788962D01*
X10528800Y-7428000D02*
X10658800Y-7558000D01*
X10658800Y-7428000D02*
X10528800Y-7558000D01*
X10639762Y-7538962D02*
X10639762Y-7447038D01*
X10547838Y-7447038D01*
X10547838Y-7538962D01*
X10639762Y-7538962D01*
X10528800Y-8126500D02*
X10658800Y-8256500D01*
X10658800Y-8126500D02*
X10528800Y-8256500D01*
X10639762Y-8237462D02*
X10639762Y-8145538D01*
X10547838Y-8145538D01*
X10547838Y-8237462D01*
X10639762Y-8237462D01*
X10528800Y-8876500D02*
X10658800Y-9006500D01*
X10658800Y-8876500D02*
X10528800Y-9006500D01*
X10639762Y-8987462D02*
X10639762Y-8895538D01*
X10547838Y-8895538D01*
X10547838Y-8987462D01*
X10639762Y-8987462D01*
X10539000Y-9587000D02*
X10669000Y-9717000D01*
X10669000Y-9587000D02*
X10539000Y-9717000D01*
X10649962Y-9697962D02*
X10649962Y-9606038D01*
X10558038Y-9606038D01*
X10558038Y-9697962D01*
X10649962Y-9697962D01*
X10539000Y-10337000D02*
X10669000Y-10467000D01*
X10669000Y-10337000D02*
X10539000Y-10467000D01*
X10649962Y-10447962D02*
X10649962Y-10356038D01*
X10558038Y-10356038D01*
X10558038Y-10447962D01*
X10649962Y-10447962D01*
X10541500Y-11047500D02*
X10671500Y-11177500D01*
X10671500Y-11047500D02*
X10541500Y-11177500D01*
X10652462Y-11158462D02*
X10652462Y-11066538D01*
X10560538Y-11066538D01*
X10560538Y-11158462D01*
X10652462Y-11158462D01*
X10541500Y-11797500D02*
X10671500Y-11927500D01*
X10671500Y-11797500D02*
X10541500Y-11927500D01*
X10652462Y-11908462D02*
X10652462Y-11816538D01*
X10560538Y-11816538D01*
X10560538Y-11908462D01*
X10652462Y-11908462D01*
X10541500Y-12508000D02*
X10671500Y-12638000D01*
X10671500Y-12508000D02*
X10541500Y-12638000D01*
X10652462Y-12618962D02*
X10652462Y-12527038D01*
X10560538Y-12527038D01*
X10560538Y-12618962D01*
X10652462Y-12618962D01*
X10541500Y-13258000D02*
X10671500Y-13388000D01*
X10671500Y-13258000D02*
X10541500Y-13388000D01*
X10652462Y-13368962D02*
X10652462Y-13277038D01*
X10560538Y-13277038D01*
X10560538Y-13368962D01*
X10652462Y-13368962D01*
X11032800Y-6678000D02*
X11162800Y-6808000D01*
X11162800Y-6678000D02*
X11032800Y-6808000D01*
X11143762Y-6788962D02*
X11143762Y-6697038D01*
X11051838Y-6697038D01*
X11051838Y-6788962D01*
X11143762Y-6788962D01*
X11032800Y-7428000D02*
X11162800Y-7558000D01*
X11162800Y-7428000D02*
X11032800Y-7558000D01*
X11143762Y-7538962D02*
X11143762Y-7447038D01*
X11051838Y-7447038D01*
X11051838Y-7538962D01*
X11143762Y-7538962D01*
X11032800Y-8126500D02*
X11162800Y-8256500D01*
X11162800Y-8126500D02*
X11032800Y-8256500D01*
X11143762Y-8237462D02*
X11143762Y-8145538D01*
X11051838Y-8145538D01*
X11051838Y-8237462D01*
X11143762Y-8237462D01*
X11032800Y-8876500D02*
X11162800Y-9006500D01*
X11162800Y-8876500D02*
X11032800Y-9006500D01*
X11143762Y-8987462D02*
X11143762Y-8895538D01*
X11051838Y-8895538D01*
X11051838Y-8987462D01*
X11143762Y-8987462D01*
X11043000Y-9587000D02*
X11173000Y-9717000D01*
X11173000Y-9587000D02*
X11043000Y-9717000D01*
X11153962Y-9697962D02*
X11153962Y-9606038D01*
X11062038Y-9606038D01*
X11062038Y-9697962D01*
X11153962Y-9697962D01*
X11043000Y-10337000D02*
X11173000Y-10467000D01*
X11173000Y-10337000D02*
X11043000Y-10467000D01*
X11153962Y-10447962D02*
X11153962Y-10356038D01*
X11062038Y-10356038D01*
X11062038Y-10447962D01*
X11153962Y-10447962D01*
X11045500Y-11047500D02*
X11175500Y-11177500D01*
X11175500Y-11047500D02*
X11045500Y-11177500D01*
X11156462Y-11158462D02*
X11156462Y-11066538D01*
X11064538Y-11066538D01*
X11064538Y-11158462D01*
X11156462Y-11158462D01*
X11045500Y-11797500D02*
X11175500Y-11927500D01*
X11175500Y-11797500D02*
X11045500Y-11927500D01*
X11156462Y-11908462D02*
X11156462Y-11816538D01*
X11064538Y-11816538D01*
X11064538Y-11908462D01*
X11156462Y-11908462D01*
X11045500Y-12508000D02*
X11175500Y-12638000D01*
X11175500Y-12508000D02*
X11045500Y-12638000D01*
X11156462Y-12618962D02*
X11156462Y-12527038D01*
X11064538Y-12527038D01*
X11064538Y-12618962D01*
X11156462Y-12618962D01*
X11045500Y-13258000D02*
X11175500Y-13388000D01*
X11175500Y-13258000D02*
X11045500Y-13388000D01*
X11156462Y-13368962D02*
X11156462Y-13277038D01*
X11064538Y-13277038D01*
X11064538Y-13368962D01*
X11156462Y-13368962D01*
X12558800Y-6678000D02*
X12688800Y-6808000D01*
X12688800Y-6678000D02*
X12558800Y-6808000D01*
X12669762Y-6788962D02*
X12669762Y-6697038D01*
X12577838Y-6697038D01*
X12577838Y-6788962D01*
X12669762Y-6788962D01*
X12558800Y-7428000D02*
X12688800Y-7558000D01*
X12688800Y-7428000D02*
X12558800Y-7558000D01*
X12669762Y-7538962D02*
X12669762Y-7447038D01*
X12577838Y-7447038D01*
X12577838Y-7538962D01*
X12669762Y-7538962D01*
X12558800Y-8126500D02*
X12688800Y-8256500D01*
X12688800Y-8126500D02*
X12558800Y-8256500D01*
X12669762Y-8237462D02*
X12669762Y-8145538D01*
X12577838Y-8145538D01*
X12577838Y-8237462D01*
X12669762Y-8237462D01*
X12558800Y-8876500D02*
X12688800Y-9006500D01*
X12688800Y-8876500D02*
X12558800Y-9006500D01*
X12669762Y-8987462D02*
X12669762Y-8895538D01*
X12577838Y-8895538D01*
X12577838Y-8987462D01*
X12669762Y-8987462D01*
X12569000Y-9587000D02*
X12699000Y-9717000D01*
X12699000Y-9587000D02*
X12569000Y-9717000D01*
X12679962Y-9697962D02*
X12679962Y-9606038D01*
X12588038Y-9606038D01*
X12588038Y-9697962D01*
X12679962Y-9697962D01*
X12569000Y-10337000D02*
X12699000Y-10467000D01*
X12699000Y-10337000D02*
X12569000Y-10467000D01*
X12679962Y-10447962D02*
X12679962Y-10356038D01*
X12588038Y-10356038D01*
X12588038Y-10447962D01*
X12679962Y-10447962D01*
X12571500Y-11047500D02*
X12701500Y-11177500D01*
X12701500Y-11047500D02*
X12571500Y-11177500D01*
X12682462Y-11158462D02*
X12682462Y-11066538D01*
X12590538Y-11066538D01*
X12590538Y-11158462D01*
X12682462Y-11158462D01*
X12571500Y-11797500D02*
X12701500Y-11927500D01*
X12701500Y-11797500D02*
X12571500Y-11927500D01*
X12682462Y-11908462D02*
X12682462Y-11816538D01*
X12590538Y-11816538D01*
X12590538Y-11908462D01*
X12682462Y-11908462D01*
X12571500Y-12508000D02*
X12701500Y-12638000D01*
X12701500Y-12508000D02*
X12571500Y-12638000D01*
X12682462Y-12618962D02*
X12682462Y-12527038D01*
X12590538Y-12527038D01*
X12590538Y-12618962D01*
X12682462Y-12618962D01*
X12571500Y-13258000D02*
X12701500Y-13388000D01*
X12701500Y-13258000D02*
X12571500Y-13388000D01*
X12682462Y-13368962D02*
X12682462Y-13277038D01*
X12590538Y-13277038D01*
X12590538Y-13368962D01*
X12682462Y-13368962D01*
X9515100Y-5654300D02*
X9865100Y-6004300D01*
X9865100Y-5654300D02*
X9515100Y-6004300D01*
X9690100Y-6004300D02*
X9865100Y-5829300D01*
X9690100Y-5654300D01*
X9515100Y-5829300D01*
X9690100Y-6004300D01*
X9515100Y-16119100D02*
X9865100Y-16469100D01*
X9865100Y-16119100D02*
X9515100Y-16469100D01*
X9690100Y-16469100D02*
X9865100Y-16294100D01*
X9690100Y-16119100D01*
X9515100Y-16294100D01*
X9690100Y-16469100D01*
X15014200Y-5667000D02*
X15364200Y-6017000D01*
X15364200Y-5667000D02*
X15014200Y-6017000D01*
X15189200Y-6017000D02*
X15364200Y-5842000D01*
X15189200Y-5667000D01*
X15014200Y-5842000D01*
X15189200Y-6017000D01*
X15022000Y-16126900D02*
X15372000Y-16476900D01*
X15372000Y-16126900D02*
X15022000Y-16476900D01*
X15197000Y-16476900D02*
X15372000Y-16301900D01*
X15197000Y-16126900D01*
X15022000Y-16301900D01*
X15197000Y-16476900D01*
D12*
X9300928Y-17244914D02*
X9300928Y-16944914D01*
X9372357Y-16944914D01*
X9415214Y-16959200D01*
X9443786Y-16987772D01*
X9458071Y-17016343D01*
X9472357Y-17073486D01*
X9472357Y-17116343D01*
X9458071Y-17173486D01*
X9443786Y-17202057D01*
X9415214Y-17230629D01*
X9372357Y-17244914D01*
X9300928Y-17244914D01*
X9600928Y-17244914D02*
X9600928Y-17044914D01*
X9600928Y-17102057D02*
X9615214Y-17073486D01*
X9629500Y-17059200D01*
X9658071Y-17044914D01*
X9686643Y-17044914D01*
X9786643Y-17244914D02*
X9786643Y-17044914D01*
X9786643Y-16944914D02*
X9772357Y-16959200D01*
X9786643Y-16973486D01*
X9800928Y-16959200D01*
X9786643Y-16944914D01*
X9786643Y-16973486D01*
X9972357Y-17244914D02*
X9943786Y-17230629D01*
X9929500Y-17202057D01*
X9929500Y-16944914D01*
X10129500Y-17244914D02*
X10100928Y-17230629D01*
X10086643Y-17202057D01*
X10086643Y-16944914D01*
X10472357Y-17244914D02*
X10472357Y-16944914D01*
X10572357Y-17159200D01*
X10672357Y-16944914D01*
X10672357Y-17244914D01*
X10943786Y-17244914D02*
X10943786Y-17087772D01*
X10929500Y-17059200D01*
X10900928Y-17044914D01*
X10843786Y-17044914D01*
X10815214Y-17059200D01*
X10943786Y-17230629D02*
X10915214Y-17244914D01*
X10843786Y-17244914D01*
X10815214Y-17230629D01*
X10800928Y-17202057D01*
X10800928Y-17173486D01*
X10815214Y-17144914D01*
X10843786Y-17130629D01*
X10915214Y-17130629D01*
X10943786Y-17116343D01*
X11086643Y-17044914D02*
X11086643Y-17344914D01*
X11086643Y-17059200D02*
X11115214Y-17044914D01*
X11172357Y-17044914D01*
X11200928Y-17059200D01*
X11215214Y-17073486D01*
X11229500Y-17102057D01*
X11229500Y-17187772D01*
X11215214Y-17216343D01*
X11200928Y-17230629D01*
X11172357Y-17244914D01*
X11115214Y-17244914D01*
X11086643Y-17230629D01*
X11358071Y-17216343D02*
X11372357Y-17230629D01*
X11358071Y-17244914D01*
X11343786Y-17230629D01*
X11358071Y-17216343D01*
X11358071Y-17244914D01*
X11358071Y-17059200D02*
X11372357Y-17073486D01*
X11358071Y-17087772D01*
X11343786Y-17073486D01*
X11358071Y-17059200D01*
X11358071Y-17087772D01*
X8974500Y-17719200D02*
X9014500Y-17759200D01*
X9014500Y-17719200D02*
X8974500Y-17759200D01*
X9358071Y-17574914D02*
X9386643Y-17574914D01*
X9415214Y-17589200D01*
X9429500Y-17603486D01*
X9443786Y-17632057D01*
X9458071Y-17689200D01*
X9458071Y-17760629D01*
X9443786Y-17817772D01*
X9429500Y-17846343D01*
X9415214Y-17860629D01*
X9386643Y-17874914D01*
X9358071Y-17874914D01*
X9329500Y-17860629D01*
X9315214Y-17846343D01*
X9300928Y-17817772D01*
X9286643Y-17760629D01*
X9286643Y-17689200D01*
X9300928Y-17632057D01*
X9315214Y-17603486D01*
X9329500Y-17589200D01*
X9358071Y-17574914D01*
X9586643Y-17846343D02*
X9600928Y-17860629D01*
X9586643Y-17874914D01*
X9572357Y-17860629D01*
X9586643Y-17846343D01*
X9586643Y-17874914D01*
X9858071Y-17674914D02*
X9858071Y-17874914D01*
X9786643Y-17560629D02*
X9715214Y-17774914D01*
X9900928Y-17774914D01*
X10072357Y-17574914D02*
X10100928Y-17574914D01*
X10129500Y-17589200D01*
X10143786Y-17603486D01*
X10158071Y-17632057D01*
X10172357Y-17689200D01*
X10172357Y-17760629D01*
X10158071Y-17817772D01*
X10143786Y-17846343D01*
X10129500Y-17860629D01*
X10100928Y-17874914D01*
X10072357Y-17874914D01*
X10043786Y-17860629D01*
X10029500Y-17846343D01*
X10015214Y-17817772D01*
X10000928Y-17760629D01*
X10000928Y-17689200D01*
X10015214Y-17632057D01*
X10029500Y-17603486D01*
X10043786Y-17589200D01*
X10072357Y-17574914D01*
X10358071Y-17574914D02*
X10386643Y-17574914D01*
X10415214Y-17589200D01*
X10429500Y-17603486D01*
X10443786Y-17632057D01*
X10458071Y-17689200D01*
X10458071Y-17760629D01*
X10443786Y-17817772D01*
X10429500Y-17846343D01*
X10415214Y-17860629D01*
X10386643Y-17874914D01*
X10358071Y-17874914D01*
X10329500Y-17860629D01*
X10315214Y-17846343D01*
X10300928Y-17817772D01*
X10286643Y-17760629D01*
X10286643Y-17689200D01*
X10300928Y-17632057D01*
X10315214Y-17603486D01*
X10329500Y-17589200D01*
X10358071Y-17574914D01*
X10586643Y-17874914D02*
X10586643Y-17674914D01*
X10586643Y-17703486D02*
X10600928Y-17689200D01*
X10629500Y-17674914D01*
X10672357Y-17674914D01*
X10700928Y-17689200D01*
X10715214Y-17717772D01*
X10715214Y-17874914D01*
X10715214Y-17717772D02*
X10729500Y-17689200D01*
X10758071Y-17674914D01*
X10800928Y-17674914D01*
X10829500Y-17689200D01*
X10843786Y-17717772D01*
X10843786Y-17874914D01*
X10986643Y-17874914D02*
X10986643Y-17674914D01*
X10986643Y-17703486D02*
X11000928Y-17689200D01*
X11029500Y-17674914D01*
X11072357Y-17674914D01*
X11100928Y-17689200D01*
X11115214Y-17717772D01*
X11115214Y-17874914D01*
X11115214Y-17717772D02*
X11129500Y-17689200D01*
X11158071Y-17674914D01*
X11200928Y-17674914D01*
X11229500Y-17689200D01*
X11243786Y-17717772D01*
X11243786Y-17874914D01*
X11829500Y-17560629D02*
X11572357Y-17946343D01*
X12215214Y-17574914D02*
X12243786Y-17574914D01*
X12272357Y-17589200D01*
X12286643Y-17603486D01*
X12300928Y-17632057D01*
X12315214Y-17689200D01*
X12315214Y-17760629D01*
X12300928Y-17817772D01*
X12286643Y-17846343D01*
X12272357Y-17860629D01*
X12243786Y-17874914D01*
X12215214Y-17874914D01*
X12186643Y-17860629D01*
X12172357Y-17846343D01*
X12158071Y-17817772D01*
X12143786Y-17760629D01*
X12143786Y-17689200D01*
X12158071Y-17632057D01*
X12172357Y-17603486D01*
X12186643Y-17589200D01*
X12215214Y-17574914D01*
X12443786Y-17846343D02*
X12458071Y-17860629D01*
X12443786Y-17874914D01*
X12429500Y-17860629D01*
X12443786Y-17846343D01*
X12443786Y-17874914D01*
X12643786Y-17574914D02*
X12672357Y-17574914D01*
X12700928Y-17589200D01*
X12715214Y-17603486D01*
X12729500Y-17632057D01*
X12743786Y-17689200D01*
X12743786Y-17760629D01*
X12729500Y-17817772D01*
X12715214Y-17846343D01*
X12700928Y-17860629D01*
X12672357Y-17874914D01*
X12643786Y-17874914D01*
X12615214Y-17860629D01*
X12600928Y-17846343D01*
X12586643Y-17817772D01*
X12572357Y-17760629D01*
X12572357Y-17689200D01*
X12586643Y-17632057D01*
X12600928Y-17603486D01*
X12615214Y-17589200D01*
X12643786Y-17574914D01*
X13029500Y-17874914D02*
X12858071Y-17874914D01*
X12943786Y-17874914D02*
X12943786Y-17574914D01*
X12915214Y-17617772D01*
X12886643Y-17646343D01*
X12858071Y-17660629D01*
X13300928Y-17574914D02*
X13158071Y-17574914D01*
X13143786Y-17717772D01*
X13158071Y-17703486D01*
X13186643Y-17689200D01*
X13258071Y-17689200D01*
X13286643Y-17703486D01*
X13300928Y-17717772D01*
X13315214Y-17746343D01*
X13315214Y-17817772D01*
X13300928Y-17846343D01*
X13286643Y-17860629D01*
X13258071Y-17874914D01*
X13186643Y-17874914D01*
X13158071Y-17860629D01*
X13143786Y-17846343D01*
X13415214Y-17574914D02*
X13615214Y-17574914D01*
X13486643Y-17874914D01*
X13715214Y-17574914D02*
X13715214Y-17632057D01*
X13829500Y-17574914D02*
X13829500Y-17632057D01*
X14272357Y-17989200D02*
X14258071Y-17974914D01*
X14229500Y-17932057D01*
X14215214Y-17903486D01*
X14200928Y-17860629D01*
X14186643Y-17789200D01*
X14186643Y-17732057D01*
X14200928Y-17660629D01*
X14215214Y-17617772D01*
X14229500Y-17589200D01*
X14258071Y-17546343D01*
X14272357Y-17532057D01*
X14543786Y-17874914D02*
X14372357Y-17874914D01*
X14458071Y-17874914D02*
X14458071Y-17574914D01*
X14429500Y-17617772D01*
X14400928Y-17646343D01*
X14372357Y-17660629D01*
X14658071Y-17603486D02*
X14672357Y-17589200D01*
X14700928Y-17574914D01*
X14772357Y-17574914D01*
X14800928Y-17589200D01*
X14815214Y-17603486D01*
X14829500Y-17632057D01*
X14829500Y-17660629D01*
X14815214Y-17703486D01*
X14643786Y-17874914D01*
X14829500Y-17874914D01*
X15186643Y-17874914D02*
X15186643Y-17574914D01*
X15315214Y-17874914D02*
X15315214Y-17717772D01*
X15300928Y-17689200D01*
X15272357Y-17674914D01*
X15229500Y-17674914D01*
X15200928Y-17689200D01*
X15186643Y-17703486D01*
X15500928Y-17874914D02*
X15472357Y-17860629D01*
X15458071Y-17846343D01*
X15443786Y-17817772D01*
X15443786Y-17732057D01*
X15458071Y-17703486D01*
X15472357Y-17689200D01*
X15500928Y-17674914D01*
X15543786Y-17674914D01*
X15572357Y-17689200D01*
X15586643Y-17703486D01*
X15600928Y-17732057D01*
X15600928Y-17817772D01*
X15586643Y-17846343D01*
X15572357Y-17860629D01*
X15543786Y-17874914D01*
X15500928Y-17874914D01*
X15772357Y-17874914D02*
X15743786Y-17860629D01*
X15729500Y-17832057D01*
X15729500Y-17574914D01*
X16000928Y-17860629D02*
X15972357Y-17874914D01*
X15915214Y-17874914D01*
X15886643Y-17860629D01*
X15872357Y-17832057D01*
X15872357Y-17717772D01*
X15886643Y-17689200D01*
X15915214Y-17674914D01*
X15972357Y-17674914D01*
X16000928Y-17689200D01*
X16015214Y-17717772D01*
X16015214Y-17746343D01*
X15872357Y-17774914D01*
X16129500Y-17860629D02*
X16158071Y-17874914D01*
X16215214Y-17874914D01*
X16243786Y-17860629D01*
X16258071Y-17832057D01*
X16258071Y-17817772D01*
X16243786Y-17789200D01*
X16215214Y-17774914D01*
X16172357Y-17774914D01*
X16143786Y-17760629D01*
X16129500Y-17732057D01*
X16129500Y-17717772D01*
X16143786Y-17689200D01*
X16172357Y-17674914D01*
X16215214Y-17674914D01*
X16243786Y-17689200D01*
X16358071Y-17989200D02*
X16372357Y-17974914D01*
X16400928Y-17932057D01*
X16415214Y-17903486D01*
X16429500Y-17860629D01*
X16443786Y-17789200D01*
X16443786Y-17732057D01*
X16429500Y-17660629D01*
X16415214Y-17617772D01*
X16400928Y-17589200D01*
X16372357Y-17546343D01*
X16358071Y-17532057D01*
X9014500Y-18135200D02*
G75*
G03*
X9014500Y-18135200I-25000J0D01*
G01*
X9358071Y-17970914D02*
X9386643Y-17970914D01*
X9415214Y-17985200D01*
X9429500Y-17999486D01*
X9443786Y-18028057D01*
X9458071Y-18085200D01*
X9458071Y-18156629D01*
X9443786Y-18213772D01*
X9429500Y-18242343D01*
X9415214Y-18256629D01*
X9386643Y-18270914D01*
X9358071Y-18270914D01*
X9329500Y-18256629D01*
X9315214Y-18242343D01*
X9300928Y-18213772D01*
X9286643Y-18156629D01*
X9286643Y-18085200D01*
X9300928Y-18028057D01*
X9315214Y-17999486D01*
X9329500Y-17985200D01*
X9358071Y-17970914D01*
X9586643Y-18242343D02*
X9600928Y-18256629D01*
X9586643Y-18270914D01*
X9572357Y-18256629D01*
X9586643Y-18242343D01*
X9586643Y-18270914D01*
X9872357Y-17970914D02*
X9729500Y-17970914D01*
X9715214Y-18113772D01*
X9729500Y-18099486D01*
X9758071Y-18085200D01*
X9829500Y-18085200D01*
X9858071Y-18099486D01*
X9872357Y-18113772D01*
X9886643Y-18142343D01*
X9886643Y-18213772D01*
X9872357Y-18242343D01*
X9858071Y-18256629D01*
X9829500Y-18270914D01*
X9758071Y-18270914D01*
X9729500Y-18256629D01*
X9715214Y-18242343D01*
X10072357Y-17970914D02*
X10100928Y-17970914D01*
X10129500Y-17985200D01*
X10143786Y-17999486D01*
X10158071Y-18028057D01*
X10172357Y-18085200D01*
X10172357Y-18156629D01*
X10158071Y-18213772D01*
X10143786Y-18242343D01*
X10129500Y-18256629D01*
X10100928Y-18270914D01*
X10072357Y-18270914D01*
X10043786Y-18256629D01*
X10029500Y-18242343D01*
X10015214Y-18213772D01*
X10000928Y-18156629D01*
X10000928Y-18085200D01*
X10015214Y-18028057D01*
X10029500Y-17999486D01*
X10043786Y-17985200D01*
X10072357Y-17970914D01*
X10358071Y-17970914D02*
X10386643Y-17970914D01*
X10415214Y-17985200D01*
X10429500Y-17999486D01*
X10443786Y-18028057D01*
X10458071Y-18085200D01*
X10458071Y-18156629D01*
X10443786Y-18213772D01*
X10429500Y-18242343D01*
X10415214Y-18256629D01*
X10386643Y-18270914D01*
X10358071Y-18270914D01*
X10329500Y-18256629D01*
X10315214Y-18242343D01*
X10300928Y-18213772D01*
X10286643Y-18156629D01*
X10286643Y-18085200D01*
X10300928Y-18028057D01*
X10315214Y-17999486D01*
X10329500Y-17985200D01*
X10358071Y-17970914D01*
X10586643Y-18270914D02*
X10586643Y-18070914D01*
X10586643Y-18099486D02*
X10600928Y-18085200D01*
X10629500Y-18070914D01*
X10672357Y-18070914D01*
X10700928Y-18085200D01*
X10715214Y-18113772D01*
X10715214Y-18270914D01*
X10715214Y-18113772D02*
X10729500Y-18085200D01*
X10758071Y-18070914D01*
X10800928Y-18070914D01*
X10829500Y-18085200D01*
X10843786Y-18113772D01*
X10843786Y-18270914D01*
X10986643Y-18270914D02*
X10986643Y-18070914D01*
X10986643Y-18099486D02*
X11000928Y-18085200D01*
X11029500Y-18070914D01*
X11072357Y-18070914D01*
X11100928Y-18085200D01*
X11115214Y-18113772D01*
X11115214Y-18270914D01*
X11115214Y-18113772D02*
X11129500Y-18085200D01*
X11158071Y-18070914D01*
X11200928Y-18070914D01*
X11229500Y-18085200D01*
X11243786Y-18113772D01*
X11243786Y-18270914D01*
X11829500Y-17956629D02*
X11572357Y-18342343D01*
X12215214Y-17970914D02*
X12243786Y-17970914D01*
X12272357Y-17985200D01*
X12286643Y-17999486D01*
X12300928Y-18028057D01*
X12315214Y-18085200D01*
X12315214Y-18156629D01*
X12300928Y-18213772D01*
X12286643Y-18242343D01*
X12272357Y-18256629D01*
X12243786Y-18270914D01*
X12215214Y-18270914D01*
X12186643Y-18256629D01*
X12172357Y-18242343D01*
X12158071Y-18213772D01*
X12143786Y-18156629D01*
X12143786Y-18085200D01*
X12158071Y-18028057D01*
X12172357Y-17999486D01*
X12186643Y-17985200D01*
X12215214Y-17970914D01*
X12443786Y-18242343D02*
X12458071Y-18256629D01*
X12443786Y-18270914D01*
X12429500Y-18256629D01*
X12443786Y-18242343D01*
X12443786Y-18270914D01*
X12643786Y-17970914D02*
X12672357Y-17970914D01*
X12700928Y-17985200D01*
X12715214Y-17999486D01*
X12729500Y-18028057D01*
X12743786Y-18085200D01*
X12743786Y-18156629D01*
X12729500Y-18213772D01*
X12715214Y-18242343D01*
X12700928Y-18256629D01*
X12672357Y-18270914D01*
X12643786Y-18270914D01*
X12615214Y-18256629D01*
X12600928Y-18242343D01*
X12586643Y-18213772D01*
X12572357Y-18156629D01*
X12572357Y-18085200D01*
X12586643Y-18028057D01*
X12600928Y-17999486D01*
X12615214Y-17985200D01*
X12643786Y-17970914D01*
X13029500Y-18270914D02*
X12858071Y-18270914D01*
X12943786Y-18270914D02*
X12943786Y-17970914D01*
X12915214Y-18013772D01*
X12886643Y-18042343D01*
X12858071Y-18056629D01*
X13172357Y-18270914D02*
X13229500Y-18270914D01*
X13258071Y-18256629D01*
X13272357Y-18242343D01*
X13300928Y-18199486D01*
X13315214Y-18142343D01*
X13315214Y-18028057D01*
X13300928Y-17999486D01*
X13286643Y-17985200D01*
X13258071Y-17970914D01*
X13200928Y-17970914D01*
X13172357Y-17985200D01*
X13158071Y-17999486D01*
X13143786Y-18028057D01*
X13143786Y-18099486D01*
X13158071Y-18128057D01*
X13172357Y-18142343D01*
X13200928Y-18156629D01*
X13258071Y-18156629D01*
X13286643Y-18142343D01*
X13300928Y-18128057D01*
X13315214Y-18099486D01*
X13415214Y-17970914D02*
X13615214Y-17970914D01*
X13486643Y-18270914D01*
X13715214Y-17970914D02*
X13715214Y-18028057D01*
X13829500Y-17970914D02*
X13829500Y-18028057D01*
X14272357Y-18385200D02*
X14258071Y-18370914D01*
X14229500Y-18328057D01*
X14215214Y-18299486D01*
X14200928Y-18256629D01*
X14186643Y-18185200D01*
X14186643Y-18128057D01*
X14200928Y-18056629D01*
X14215214Y-18013772D01*
X14229500Y-17985200D01*
X14258071Y-17942343D01*
X14272357Y-17928057D01*
X14358071Y-17970914D02*
X14543786Y-17970914D01*
X14443786Y-18085200D01*
X14486643Y-18085200D01*
X14515214Y-18099486D01*
X14529500Y-18113772D01*
X14543786Y-18142343D01*
X14543786Y-18213772D01*
X14529500Y-18242343D01*
X14515214Y-18256629D01*
X14486643Y-18270914D01*
X14400928Y-18270914D01*
X14372357Y-18256629D01*
X14358071Y-18242343D01*
X14658071Y-17999486D02*
X14672357Y-17985200D01*
X14700928Y-17970914D01*
X14772357Y-17970914D01*
X14800928Y-17985200D01*
X14815214Y-17999486D01*
X14829500Y-18028057D01*
X14829500Y-18056629D01*
X14815214Y-18099486D01*
X14643786Y-18270914D01*
X14829500Y-18270914D01*
X15186643Y-18270914D02*
X15186643Y-17970914D01*
X15315214Y-18270914D02*
X15315214Y-18113772D01*
X15300928Y-18085200D01*
X15272357Y-18070914D01*
X15229500Y-18070914D01*
X15200928Y-18085200D01*
X15186643Y-18099486D01*
X15500928Y-18270914D02*
X15472357Y-18256629D01*
X15458071Y-18242343D01*
X15443786Y-18213772D01*
X15443786Y-18128057D01*
X15458071Y-18099486D01*
X15472357Y-18085200D01*
X15500928Y-18070914D01*
X15543786Y-18070914D01*
X15572357Y-18085200D01*
X15586643Y-18099486D01*
X15600928Y-18128057D01*
X15600928Y-18213772D01*
X15586643Y-18242343D01*
X15572357Y-18256629D01*
X15543786Y-18270914D01*
X15500928Y-18270914D01*
X15772357Y-18270914D02*
X15743786Y-18256629D01*
X15729500Y-18228057D01*
X15729500Y-17970914D01*
X16000928Y-18256629D02*
X15972357Y-18270914D01*
X15915214Y-18270914D01*
X15886643Y-18256629D01*
X15872357Y-18228057D01*
X15872357Y-18113772D01*
X15886643Y-18085200D01*
X15915214Y-18070914D01*
X15972357Y-18070914D01*
X16000928Y-18085200D01*
X16015214Y-18113772D01*
X16015214Y-18142343D01*
X15872357Y-18170914D01*
X16129500Y-18256629D02*
X16158071Y-18270914D01*
X16215214Y-18270914D01*
X16243786Y-18256629D01*
X16258071Y-18228057D01*
X16258071Y-18213772D01*
X16243786Y-18185200D01*
X16215214Y-18170914D01*
X16172357Y-18170914D01*
X16143786Y-18156629D01*
X16129500Y-18128057D01*
X16129500Y-18113772D01*
X16143786Y-18085200D01*
X16172357Y-18070914D01*
X16215214Y-18070914D01*
X16243786Y-18085200D01*
X16358071Y-18385200D02*
X16372357Y-18370914D01*
X16400928Y-18328057D01*
X16415214Y-18299486D01*
X16429500Y-18256629D01*
X16443786Y-18185200D01*
X16443786Y-18128057D01*
X16429500Y-18056629D01*
X16415214Y-18013772D01*
X16400928Y-17985200D01*
X16372357Y-17942343D01*
X16358071Y-17928057D01*
X8974500Y-18491200D02*
X8974500Y-18571200D01*
X8934500Y-18531200D02*
X9014500Y-18531200D01*
X9358071Y-18366914D02*
X9386643Y-18366914D01*
X9415214Y-18381200D01*
X9429500Y-18395486D01*
X9443786Y-18424057D01*
X9458071Y-18481200D01*
X9458071Y-18552629D01*
X9443786Y-18609772D01*
X9429500Y-18638343D01*
X9415214Y-18652629D01*
X9386643Y-18666914D01*
X9358071Y-18666914D01*
X9329500Y-18652629D01*
X9315214Y-18638343D01*
X9300928Y-18609772D01*
X9286643Y-18552629D01*
X9286643Y-18481200D01*
X9300928Y-18424057D01*
X9315214Y-18395486D01*
X9329500Y-18381200D01*
X9358071Y-18366914D01*
X9586643Y-18638343D02*
X9600928Y-18652629D01*
X9586643Y-18666914D01*
X9572357Y-18652629D01*
X9586643Y-18638343D01*
X9586643Y-18666914D01*
X9772357Y-18495486D02*
X9743786Y-18481200D01*
X9729500Y-18466914D01*
X9715214Y-18438343D01*
X9715214Y-18424057D01*
X9729500Y-18395486D01*
X9743786Y-18381200D01*
X9772357Y-18366914D01*
X9829500Y-18366914D01*
X9858071Y-18381200D01*
X9872357Y-18395486D01*
X9886643Y-18424057D01*
X9886643Y-18438343D01*
X9872357Y-18466914D01*
X9858071Y-18481200D01*
X9829500Y-18495486D01*
X9772357Y-18495486D01*
X9743786Y-18509772D01*
X9729500Y-18524057D01*
X9715214Y-18552629D01*
X9715214Y-18609772D01*
X9729500Y-18638343D01*
X9743786Y-18652629D01*
X9772357Y-18666914D01*
X9829500Y-18666914D01*
X9858071Y-18652629D01*
X9872357Y-18638343D01*
X9886643Y-18609772D01*
X9886643Y-18552629D01*
X9872357Y-18524057D01*
X9858071Y-18509772D01*
X9829500Y-18495486D01*
X10072357Y-18366914D02*
X10100928Y-18366914D01*
X10129500Y-18381200D01*
X10143786Y-18395486D01*
X10158071Y-18424057D01*
X10172357Y-18481200D01*
X10172357Y-18552629D01*
X10158071Y-18609772D01*
X10143786Y-18638343D01*
X10129500Y-18652629D01*
X10100928Y-18666914D01*
X10072357Y-18666914D01*
X10043786Y-18652629D01*
X10029500Y-18638343D01*
X10015214Y-18609772D01*
X10000928Y-18552629D01*
X10000928Y-18481200D01*
X10015214Y-18424057D01*
X10029500Y-18395486D01*
X10043786Y-18381200D01*
X10072357Y-18366914D01*
X10358071Y-18366914D02*
X10386643Y-18366914D01*
X10415214Y-18381200D01*
X10429500Y-18395486D01*
X10443786Y-18424057D01*
X10458071Y-18481200D01*
X10458071Y-18552629D01*
X10443786Y-18609772D01*
X10429500Y-18638343D01*
X10415214Y-18652629D01*
X10386643Y-18666914D01*
X10358071Y-18666914D01*
X10329500Y-18652629D01*
X10315214Y-18638343D01*
X10300928Y-18609772D01*
X10286643Y-18552629D01*
X10286643Y-18481200D01*
X10300928Y-18424057D01*
X10315214Y-18395486D01*
X10329500Y-18381200D01*
X10358071Y-18366914D01*
X10586643Y-18666914D02*
X10586643Y-18466914D01*
X10586643Y-18495486D02*
X10600928Y-18481200D01*
X10629500Y-18466914D01*
X10672357Y-18466914D01*
X10700928Y-18481200D01*
X10715214Y-18509772D01*
X10715214Y-18666914D01*
X10715214Y-18509772D02*
X10729500Y-18481200D01*
X10758071Y-18466914D01*
X10800928Y-18466914D01*
X10829500Y-18481200D01*
X10843786Y-18509772D01*
X10843786Y-18666914D01*
X10986643Y-18666914D02*
X10986643Y-18466914D01*
X10986643Y-18495486D02*
X11000928Y-18481200D01*
X11029500Y-18466914D01*
X11072357Y-18466914D01*
X11100928Y-18481200D01*
X11115214Y-18509772D01*
X11115214Y-18666914D01*
X11115214Y-18509772D02*
X11129500Y-18481200D01*
X11158071Y-18466914D01*
X11200928Y-18466914D01*
X11229500Y-18481200D01*
X11243786Y-18509772D01*
X11243786Y-18666914D01*
X11829500Y-18352629D02*
X11572357Y-18738343D01*
X12215214Y-18366914D02*
X12243786Y-18366914D01*
X12272357Y-18381200D01*
X12286643Y-18395486D01*
X12300928Y-18424057D01*
X12315214Y-18481200D01*
X12315214Y-18552629D01*
X12300928Y-18609772D01*
X12286643Y-18638343D01*
X12272357Y-18652629D01*
X12243786Y-18666914D01*
X12215214Y-18666914D01*
X12186643Y-18652629D01*
X12172357Y-18638343D01*
X12158071Y-18609772D01*
X12143786Y-18552629D01*
X12143786Y-18481200D01*
X12158071Y-18424057D01*
X12172357Y-18395486D01*
X12186643Y-18381200D01*
X12215214Y-18366914D01*
X12443786Y-18638343D02*
X12458071Y-18652629D01*
X12443786Y-18666914D01*
X12429500Y-18652629D01*
X12443786Y-18638343D01*
X12443786Y-18666914D01*
X12643786Y-18366914D02*
X12672357Y-18366914D01*
X12700928Y-18381200D01*
X12715214Y-18395486D01*
X12729500Y-18424057D01*
X12743786Y-18481200D01*
X12743786Y-18552629D01*
X12729500Y-18609772D01*
X12715214Y-18638343D01*
X12700928Y-18652629D01*
X12672357Y-18666914D01*
X12643786Y-18666914D01*
X12615214Y-18652629D01*
X12600928Y-18638343D01*
X12586643Y-18609772D01*
X12572357Y-18552629D01*
X12572357Y-18481200D01*
X12586643Y-18424057D01*
X12600928Y-18395486D01*
X12615214Y-18381200D01*
X12643786Y-18366914D01*
X12843786Y-18366914D02*
X13029500Y-18366914D01*
X12929500Y-18481200D01*
X12972357Y-18481200D01*
X13000928Y-18495486D01*
X13015214Y-18509772D01*
X13029500Y-18538343D01*
X13029500Y-18609772D01*
X13015214Y-18638343D01*
X13000928Y-18652629D01*
X12972357Y-18666914D01*
X12886643Y-18666914D01*
X12858071Y-18652629D01*
X12843786Y-18638343D01*
X13315214Y-18666914D02*
X13143786Y-18666914D01*
X13229500Y-18666914D02*
X13229500Y-18366914D01*
X13200928Y-18409772D01*
X13172357Y-18438343D01*
X13143786Y-18452629D01*
X13586643Y-18366914D02*
X13443786Y-18366914D01*
X13429500Y-18509772D01*
X13443786Y-18495486D01*
X13472357Y-18481200D01*
X13543786Y-18481200D01*
X13572357Y-18495486D01*
X13586643Y-18509772D01*
X13600928Y-18538343D01*
X13600928Y-18609772D01*
X13586643Y-18638343D01*
X13572357Y-18652629D01*
X13543786Y-18666914D01*
X13472357Y-18666914D01*
X13443786Y-18652629D01*
X13429500Y-18638343D01*
X13715214Y-18366914D02*
X13715214Y-18424057D01*
X13829500Y-18366914D02*
X13829500Y-18424057D01*
X14272357Y-18781200D02*
X14258071Y-18766914D01*
X14229500Y-18724057D01*
X14215214Y-18695486D01*
X14200928Y-18652629D01*
X14186643Y-18581200D01*
X14186643Y-18524057D01*
X14200928Y-18452629D01*
X14215214Y-18409772D01*
X14229500Y-18381200D01*
X14258071Y-18338343D01*
X14272357Y-18324057D01*
X14515214Y-18466914D02*
X14515214Y-18666914D01*
X14443786Y-18352629D02*
X14372357Y-18566914D01*
X14558071Y-18566914D01*
X14658071Y-18395486D02*
X14672357Y-18381200D01*
X14700928Y-18366914D01*
X14772357Y-18366914D01*
X14800928Y-18381200D01*
X14815214Y-18395486D01*
X14829500Y-18424057D01*
X14829500Y-18452629D01*
X14815214Y-18495486D01*
X14643786Y-18666914D01*
X14829500Y-18666914D01*
X15186643Y-18666914D02*
X15186643Y-18366914D01*
X15315214Y-18666914D02*
X15315214Y-18509772D01*
X15300928Y-18481200D01*
X15272357Y-18466914D01*
X15229500Y-18466914D01*
X15200928Y-18481200D01*
X15186643Y-18495486D01*
X15500928Y-18666914D02*
X15472357Y-18652629D01*
X15458071Y-18638343D01*
X15443786Y-18609772D01*
X15443786Y-18524057D01*
X15458071Y-18495486D01*
X15472357Y-18481200D01*
X15500928Y-18466914D01*
X15543786Y-18466914D01*
X15572357Y-18481200D01*
X15586643Y-18495486D01*
X15600928Y-18524057D01*
X15600928Y-18609772D01*
X15586643Y-18638343D01*
X15572357Y-18652629D01*
X15543786Y-18666914D01*
X15500928Y-18666914D01*
X15772357Y-18666914D02*
X15743786Y-18652629D01*
X15729500Y-18624057D01*
X15729500Y-18366914D01*
X16000928Y-18652629D02*
X15972357Y-18666914D01*
X15915214Y-18666914D01*
X15886643Y-18652629D01*
X15872357Y-18624057D01*
X15872357Y-18509772D01*
X15886643Y-18481200D01*
X15915214Y-18466914D01*
X15972357Y-18466914D01*
X16000928Y-18481200D01*
X16015214Y-18509772D01*
X16015214Y-18538343D01*
X15872357Y-18566914D01*
X16129500Y-18652629D02*
X16158071Y-18666914D01*
X16215214Y-18666914D01*
X16243786Y-18652629D01*
X16258071Y-18624057D01*
X16258071Y-18609772D01*
X16243786Y-18581200D01*
X16215214Y-18566914D01*
X16172357Y-18566914D01*
X16143786Y-18552629D01*
X16129500Y-18524057D01*
X16129500Y-18509772D01*
X16143786Y-18481200D01*
X16172357Y-18466914D01*
X16215214Y-18466914D01*
X16243786Y-18481200D01*
X16358071Y-18781200D02*
X16372357Y-18766914D01*
X16400928Y-18724057D01*
X16415214Y-18695486D01*
X16429500Y-18652629D01*
X16443786Y-18581200D01*
X16443786Y-18524057D01*
X16429500Y-18452629D01*
X16415214Y-18409772D01*
X16400928Y-18381200D01*
X16372357Y-18338343D01*
X16358071Y-18324057D01*
X9001320Y-18959020D02*
X9001320Y-18895380D01*
X8937680Y-18895380D01*
X8937680Y-18959020D01*
X9001320Y-18959020D01*
X9358071Y-18762914D02*
X9386643Y-18762914D01*
X9415214Y-18777200D01*
X9429500Y-18791486D01*
X9443786Y-18820057D01*
X9458071Y-18877200D01*
X9458071Y-18948629D01*
X9443786Y-19005772D01*
X9429500Y-19034343D01*
X9415214Y-19048629D01*
X9386643Y-19062914D01*
X9358071Y-19062914D01*
X9329500Y-19048629D01*
X9315214Y-19034343D01*
X9300928Y-19005772D01*
X9286643Y-18948629D01*
X9286643Y-18877200D01*
X9300928Y-18820057D01*
X9315214Y-18791486D01*
X9329500Y-18777200D01*
X9358071Y-18762914D01*
X9586643Y-19034343D02*
X9600928Y-19048629D01*
X9586643Y-19062914D01*
X9572357Y-19048629D01*
X9586643Y-19034343D01*
X9586643Y-19062914D01*
X9743786Y-19062914D02*
X9800928Y-19062914D01*
X9829500Y-19048629D01*
X9843786Y-19034343D01*
X9872357Y-18991486D01*
X9886643Y-18934343D01*
X9886643Y-18820057D01*
X9872357Y-18791486D01*
X9858071Y-18777200D01*
X9829500Y-18762914D01*
X9772357Y-18762914D01*
X9743786Y-18777200D01*
X9729500Y-18791486D01*
X9715214Y-18820057D01*
X9715214Y-18891486D01*
X9729500Y-18920057D01*
X9743786Y-18934343D01*
X9772357Y-18948629D01*
X9829500Y-18948629D01*
X9858071Y-18934343D01*
X9872357Y-18920057D01*
X9886643Y-18891486D01*
X10072357Y-18762914D02*
X10100928Y-18762914D01*
X10129500Y-18777200D01*
X10143786Y-18791486D01*
X10158071Y-18820057D01*
X10172357Y-18877200D01*
X10172357Y-18948629D01*
X10158071Y-19005772D01*
X10143786Y-19034343D01*
X10129500Y-19048629D01*
X10100928Y-19062914D01*
X10072357Y-19062914D01*
X10043786Y-19048629D01*
X10029500Y-19034343D01*
X10015214Y-19005772D01*
X10000928Y-18948629D01*
X10000928Y-18877200D01*
X10015214Y-18820057D01*
X10029500Y-18791486D01*
X10043786Y-18777200D01*
X10072357Y-18762914D01*
X10358071Y-18762914D02*
X10386643Y-18762914D01*
X10415214Y-18777200D01*
X10429500Y-18791486D01*
X10443786Y-18820057D01*
X10458071Y-18877200D01*
X10458071Y-18948629D01*
X10443786Y-19005772D01*
X10429500Y-19034343D01*
X10415214Y-19048629D01*
X10386643Y-19062914D01*
X10358071Y-19062914D01*
X10329500Y-19048629D01*
X10315214Y-19034343D01*
X10300928Y-19005772D01*
X10286643Y-18948629D01*
X10286643Y-18877200D01*
X10300928Y-18820057D01*
X10315214Y-18791486D01*
X10329500Y-18777200D01*
X10358071Y-18762914D01*
X10586643Y-19062914D02*
X10586643Y-18862914D01*
X10586643Y-18891486D02*
X10600928Y-18877200D01*
X10629500Y-18862914D01*
X10672357Y-18862914D01*
X10700928Y-18877200D01*
X10715214Y-18905772D01*
X10715214Y-19062914D01*
X10715214Y-18905772D02*
X10729500Y-18877200D01*
X10758071Y-18862914D01*
X10800928Y-18862914D01*
X10829500Y-18877200D01*
X10843786Y-18905772D01*
X10843786Y-19062914D01*
X10986643Y-19062914D02*
X10986643Y-18862914D01*
X10986643Y-18891486D02*
X11000928Y-18877200D01*
X11029500Y-18862914D01*
X11072357Y-18862914D01*
X11100928Y-18877200D01*
X11115214Y-18905772D01*
X11115214Y-19062914D01*
X11115214Y-18905772D02*
X11129500Y-18877200D01*
X11158071Y-18862914D01*
X11200928Y-18862914D01*
X11229500Y-18877200D01*
X11243786Y-18905772D01*
X11243786Y-19062914D01*
X11829500Y-18748629D02*
X11572357Y-19134343D01*
X12215214Y-18762914D02*
X12243786Y-18762914D01*
X12272357Y-18777200D01*
X12286643Y-18791486D01*
X12300928Y-18820057D01*
X12315214Y-18877200D01*
X12315214Y-18948629D01*
X12300928Y-19005772D01*
X12286643Y-19034343D01*
X12272357Y-19048629D01*
X12243786Y-19062914D01*
X12215214Y-19062914D01*
X12186643Y-19048629D01*
X12172357Y-19034343D01*
X12158071Y-19005772D01*
X12143786Y-18948629D01*
X12143786Y-18877200D01*
X12158071Y-18820057D01*
X12172357Y-18791486D01*
X12186643Y-18777200D01*
X12215214Y-18762914D01*
X12443786Y-19034343D02*
X12458071Y-19048629D01*
X12443786Y-19062914D01*
X12429500Y-19048629D01*
X12443786Y-19034343D01*
X12443786Y-19062914D01*
X12643786Y-18762914D02*
X12672357Y-18762914D01*
X12700928Y-18777200D01*
X12715214Y-18791486D01*
X12729500Y-18820057D01*
X12743786Y-18877200D01*
X12743786Y-18948629D01*
X12729500Y-19005772D01*
X12715214Y-19034343D01*
X12700928Y-19048629D01*
X12672357Y-19062914D01*
X12643786Y-19062914D01*
X12615214Y-19048629D01*
X12600928Y-19034343D01*
X12586643Y-19005772D01*
X12572357Y-18948629D01*
X12572357Y-18877200D01*
X12586643Y-18820057D01*
X12600928Y-18791486D01*
X12615214Y-18777200D01*
X12643786Y-18762914D01*
X12843786Y-18762914D02*
X13029500Y-18762914D01*
X12929500Y-18877200D01*
X12972357Y-18877200D01*
X13000928Y-18891486D01*
X13015214Y-18905772D01*
X13029500Y-18934343D01*
X13029500Y-19005772D01*
X13015214Y-19034343D01*
X13000928Y-19048629D01*
X12972357Y-19062914D01*
X12886643Y-19062914D01*
X12858071Y-19048629D01*
X12843786Y-19034343D01*
X13300928Y-18762914D02*
X13158071Y-18762914D01*
X13143786Y-18905772D01*
X13158071Y-18891486D01*
X13186643Y-18877200D01*
X13258071Y-18877200D01*
X13286643Y-18891486D01*
X13300928Y-18905772D01*
X13315214Y-18934343D01*
X13315214Y-19005772D01*
X13300928Y-19034343D01*
X13286643Y-19048629D01*
X13258071Y-19062914D01*
X13186643Y-19062914D01*
X13158071Y-19048629D01*
X13143786Y-19034343D01*
X13572357Y-18862914D02*
X13572357Y-19062914D01*
X13500928Y-18748629D02*
X13429500Y-18962914D01*
X13615214Y-18962914D01*
X13715214Y-18762914D02*
X13715214Y-18820057D01*
X13829500Y-18762914D02*
X13829500Y-18820057D01*
X14272357Y-19177200D02*
X14258071Y-19162914D01*
X14229500Y-19120057D01*
X14215214Y-19091486D01*
X14200928Y-19048629D01*
X14186643Y-18977200D01*
X14186643Y-18920057D01*
X14200928Y-18848629D01*
X14215214Y-18805772D01*
X14229500Y-18777200D01*
X14258071Y-18734343D01*
X14272357Y-18720057D01*
X14529500Y-18762914D02*
X14386643Y-18762914D01*
X14372357Y-18905772D01*
X14386643Y-18891486D01*
X14415214Y-18877200D01*
X14486643Y-18877200D01*
X14515214Y-18891486D01*
X14529500Y-18905772D01*
X14543786Y-18934343D01*
X14543786Y-19005772D01*
X14529500Y-19034343D01*
X14515214Y-19048629D01*
X14486643Y-19062914D01*
X14415214Y-19062914D01*
X14386643Y-19048629D01*
X14372357Y-19034343D01*
X14900928Y-19062914D02*
X14900928Y-18762914D01*
X15029500Y-19062914D02*
X15029500Y-18905772D01*
X15015214Y-18877200D01*
X14986643Y-18862914D01*
X14943786Y-18862914D01*
X14915214Y-18877200D01*
X14900928Y-18891486D01*
X15215214Y-19062914D02*
X15186643Y-19048629D01*
X15172357Y-19034343D01*
X15158071Y-19005772D01*
X15158071Y-18920057D01*
X15172357Y-18891486D01*
X15186643Y-18877200D01*
X15215214Y-18862914D01*
X15258071Y-18862914D01*
X15286643Y-18877200D01*
X15300928Y-18891486D01*
X15315214Y-18920057D01*
X15315214Y-19005772D01*
X15300928Y-19034343D01*
X15286643Y-19048629D01*
X15258071Y-19062914D01*
X15215214Y-19062914D01*
X15486643Y-19062914D02*
X15458071Y-19048629D01*
X15443786Y-19020057D01*
X15443786Y-18762914D01*
X15715214Y-19048629D02*
X15686643Y-19062914D01*
X15629500Y-19062914D01*
X15600928Y-19048629D01*
X15586643Y-19020057D01*
X15586643Y-18905772D01*
X15600928Y-18877200D01*
X15629500Y-18862914D01*
X15686643Y-18862914D01*
X15715214Y-18877200D01*
X15729500Y-18905772D01*
X15729500Y-18934343D01*
X15586643Y-18962914D01*
X15843786Y-19048629D02*
X15872357Y-19062914D01*
X15929500Y-19062914D01*
X15958071Y-19048629D01*
X15972357Y-19020057D01*
X15972357Y-19005772D01*
X15958071Y-18977200D01*
X15929500Y-18962914D01*
X15886643Y-18962914D01*
X15858071Y-18948629D01*
X15843786Y-18920057D01*
X15843786Y-18905772D01*
X15858071Y-18877200D01*
X15886643Y-18862914D01*
X15929500Y-18862914D01*
X15958071Y-18877200D01*
X16072357Y-19177200D02*
X16086643Y-19162914D01*
X16115214Y-19120057D01*
X16129500Y-19091486D01*
X16143786Y-19048629D01*
X16158071Y-18977200D01*
X16158071Y-18920057D01*
X16143786Y-18848629D01*
X16129500Y-18805772D01*
X16115214Y-18777200D01*
X16086643Y-18734343D01*
X16072357Y-18720057D01*
X8964500Y-19373200D02*
X9014500Y-19323200D01*
X8964500Y-19273200D01*
X8914500Y-19323200D01*
X8964500Y-19373200D01*
X9458071Y-19458914D02*
X9286643Y-19458914D01*
X9372357Y-19458914D02*
X9372357Y-19158914D01*
X9343786Y-19201772D01*
X9315214Y-19230343D01*
X9286643Y-19244629D01*
X9586643Y-19430343D02*
X9600928Y-19444629D01*
X9586643Y-19458914D01*
X9572357Y-19444629D01*
X9586643Y-19430343D01*
X9586643Y-19458914D01*
X9786643Y-19158914D02*
X9815214Y-19158914D01*
X9843786Y-19173200D01*
X9858071Y-19187486D01*
X9872357Y-19216057D01*
X9886643Y-19273200D01*
X9886643Y-19344629D01*
X9872357Y-19401772D01*
X9858071Y-19430343D01*
X9843786Y-19444629D01*
X9815214Y-19458914D01*
X9786643Y-19458914D01*
X9758071Y-19444629D01*
X9743786Y-19430343D01*
X9729500Y-19401772D01*
X9715214Y-19344629D01*
X9715214Y-19273200D01*
X9729500Y-19216057D01*
X9743786Y-19187486D01*
X9758071Y-19173200D01*
X9786643Y-19158914D01*
X10072357Y-19158914D02*
X10100928Y-19158914D01*
X10129500Y-19173200D01*
X10143786Y-19187486D01*
X10158071Y-19216057D01*
X10172357Y-19273200D01*
X10172357Y-19344629D01*
X10158071Y-19401772D01*
X10143786Y-19430343D01*
X10129500Y-19444629D01*
X10100928Y-19458914D01*
X10072357Y-19458914D01*
X10043786Y-19444629D01*
X10029500Y-19430343D01*
X10015214Y-19401772D01*
X10000928Y-19344629D01*
X10000928Y-19273200D01*
X10015214Y-19216057D01*
X10029500Y-19187486D01*
X10043786Y-19173200D01*
X10072357Y-19158914D01*
X10358071Y-19158914D02*
X10386643Y-19158914D01*
X10415214Y-19173200D01*
X10429500Y-19187486D01*
X10443786Y-19216057D01*
X10458071Y-19273200D01*
X10458071Y-19344629D01*
X10443786Y-19401772D01*
X10429500Y-19430343D01*
X10415214Y-19444629D01*
X10386643Y-19458914D01*
X10358071Y-19458914D01*
X10329500Y-19444629D01*
X10315214Y-19430343D01*
X10300928Y-19401772D01*
X10286643Y-19344629D01*
X10286643Y-19273200D01*
X10300928Y-19216057D01*
X10315214Y-19187486D01*
X10329500Y-19173200D01*
X10358071Y-19158914D01*
X10586643Y-19458914D02*
X10586643Y-19258914D01*
X10586643Y-19287486D02*
X10600928Y-19273200D01*
X10629500Y-19258914D01*
X10672357Y-19258914D01*
X10700928Y-19273200D01*
X10715214Y-19301772D01*
X10715214Y-19458914D01*
X10715214Y-19301772D02*
X10729500Y-19273200D01*
X10758071Y-19258914D01*
X10800928Y-19258914D01*
X10829500Y-19273200D01*
X10843786Y-19301772D01*
X10843786Y-19458914D01*
X10986643Y-19458914D02*
X10986643Y-19258914D01*
X10986643Y-19287486D02*
X11000928Y-19273200D01*
X11029500Y-19258914D01*
X11072357Y-19258914D01*
X11100928Y-19273200D01*
X11115214Y-19301772D01*
X11115214Y-19458914D01*
X11115214Y-19301772D02*
X11129500Y-19273200D01*
X11158071Y-19258914D01*
X11200928Y-19258914D01*
X11229500Y-19273200D01*
X11243786Y-19301772D01*
X11243786Y-19458914D01*
X11829500Y-19144629D02*
X11572357Y-19530343D01*
X12215214Y-19158914D02*
X12243786Y-19158914D01*
X12272357Y-19173200D01*
X12286643Y-19187486D01*
X12300928Y-19216057D01*
X12315214Y-19273200D01*
X12315214Y-19344629D01*
X12300928Y-19401772D01*
X12286643Y-19430343D01*
X12272357Y-19444629D01*
X12243786Y-19458914D01*
X12215214Y-19458914D01*
X12186643Y-19444629D01*
X12172357Y-19430343D01*
X12158071Y-19401772D01*
X12143786Y-19344629D01*
X12143786Y-19273200D01*
X12158071Y-19216057D01*
X12172357Y-19187486D01*
X12186643Y-19173200D01*
X12215214Y-19158914D01*
X12443786Y-19430343D02*
X12458071Y-19444629D01*
X12443786Y-19458914D01*
X12429500Y-19444629D01*
X12443786Y-19430343D01*
X12443786Y-19458914D01*
X12643786Y-19158914D02*
X12672357Y-19158914D01*
X12700928Y-19173200D01*
X12715214Y-19187486D01*
X12729500Y-19216057D01*
X12743786Y-19273200D01*
X12743786Y-19344629D01*
X12729500Y-19401772D01*
X12715214Y-19430343D01*
X12700928Y-19444629D01*
X12672357Y-19458914D01*
X12643786Y-19458914D01*
X12615214Y-19444629D01*
X12600928Y-19430343D01*
X12586643Y-19401772D01*
X12572357Y-19344629D01*
X12572357Y-19273200D01*
X12586643Y-19216057D01*
X12600928Y-19187486D01*
X12615214Y-19173200D01*
X12643786Y-19158914D01*
X12843786Y-19158914D02*
X13029500Y-19158914D01*
X12929500Y-19273200D01*
X12972357Y-19273200D01*
X13000928Y-19287486D01*
X13015214Y-19301772D01*
X13029500Y-19330343D01*
X13029500Y-19401772D01*
X13015214Y-19430343D01*
X13000928Y-19444629D01*
X12972357Y-19458914D01*
X12886643Y-19458914D01*
X12858071Y-19444629D01*
X12843786Y-19430343D01*
X13172357Y-19458914D02*
X13229500Y-19458914D01*
X13258071Y-19444629D01*
X13272357Y-19430343D01*
X13300928Y-19387486D01*
X13315214Y-19330343D01*
X13315214Y-19216057D01*
X13300928Y-19187486D01*
X13286643Y-19173200D01*
X13258071Y-19158914D01*
X13200928Y-19158914D01*
X13172357Y-19173200D01*
X13158071Y-19187486D01*
X13143786Y-19216057D01*
X13143786Y-19287486D01*
X13158071Y-19316057D01*
X13172357Y-19330343D01*
X13200928Y-19344629D01*
X13258071Y-19344629D01*
X13286643Y-19330343D01*
X13300928Y-19316057D01*
X13315214Y-19287486D01*
X13572357Y-19258914D02*
X13572357Y-19458914D01*
X13500928Y-19144629D02*
X13429500Y-19358914D01*
X13615214Y-19358914D01*
X13715214Y-19158914D02*
X13715214Y-19216057D01*
X13829500Y-19158914D02*
X13829500Y-19216057D01*
X14272357Y-19573200D02*
X14258071Y-19558914D01*
X14229500Y-19516057D01*
X14215214Y-19487486D01*
X14200928Y-19444629D01*
X14186643Y-19373200D01*
X14186643Y-19316057D01*
X14200928Y-19244629D01*
X14215214Y-19201772D01*
X14229500Y-19173200D01*
X14258071Y-19130343D01*
X14272357Y-19116057D01*
X14372357Y-19187486D02*
X14386643Y-19173200D01*
X14415214Y-19158914D01*
X14486643Y-19158914D01*
X14515214Y-19173200D01*
X14529500Y-19187486D01*
X14543786Y-19216057D01*
X14543786Y-19244629D01*
X14529500Y-19287486D01*
X14358071Y-19458914D01*
X14543786Y-19458914D01*
X14800928Y-19158914D02*
X14743786Y-19158914D01*
X14715214Y-19173200D01*
X14700928Y-19187486D01*
X14672357Y-19230343D01*
X14658071Y-19287486D01*
X14658071Y-19401772D01*
X14672357Y-19430343D01*
X14686643Y-19444629D01*
X14715214Y-19458914D01*
X14772357Y-19458914D01*
X14800928Y-19444629D01*
X14815214Y-19430343D01*
X14829500Y-19401772D01*
X14829500Y-19330343D01*
X14815214Y-19301772D01*
X14800928Y-19287486D01*
X14772357Y-19273200D01*
X14715214Y-19273200D01*
X14686643Y-19287486D01*
X14672357Y-19301772D01*
X14658071Y-19330343D01*
X15186643Y-19458914D02*
X15186643Y-19158914D01*
X15315214Y-19458914D02*
X15315214Y-19301772D01*
X15300928Y-19273200D01*
X15272357Y-19258914D01*
X15229500Y-19258914D01*
X15200928Y-19273200D01*
X15186643Y-19287486D01*
X15500928Y-19458914D02*
X15472357Y-19444629D01*
X15458071Y-19430343D01*
X15443786Y-19401772D01*
X15443786Y-19316057D01*
X15458071Y-19287486D01*
X15472357Y-19273200D01*
X15500928Y-19258914D01*
X15543786Y-19258914D01*
X15572357Y-19273200D01*
X15586643Y-19287486D01*
X15600928Y-19316057D01*
X15600928Y-19401772D01*
X15586643Y-19430343D01*
X15572357Y-19444629D01*
X15543786Y-19458914D01*
X15500928Y-19458914D01*
X15772357Y-19458914D02*
X15743786Y-19444629D01*
X15729500Y-19416057D01*
X15729500Y-19158914D01*
X16000928Y-19444629D02*
X15972357Y-19458914D01*
X15915214Y-19458914D01*
X15886643Y-19444629D01*
X15872357Y-19416057D01*
X15872357Y-19301772D01*
X15886643Y-19273200D01*
X15915214Y-19258914D01*
X15972357Y-19258914D01*
X16000928Y-19273200D01*
X16015214Y-19301772D01*
X16015214Y-19330343D01*
X15872357Y-19358914D01*
X16129500Y-19444629D02*
X16158071Y-19458914D01*
X16215214Y-19458914D01*
X16243786Y-19444629D01*
X16258071Y-19416057D01*
X16258071Y-19401772D01*
X16243786Y-19373200D01*
X16215214Y-19358914D01*
X16172357Y-19358914D01*
X16143786Y-19344629D01*
X16129500Y-19316057D01*
X16129500Y-19301772D01*
X16143786Y-19273200D01*
X16172357Y-19258914D01*
X16215214Y-19258914D01*
X16243786Y-19273200D01*
X16358071Y-19573200D02*
X16372357Y-19558914D01*
X16400928Y-19516057D01*
X16415214Y-19487486D01*
X16429500Y-19444629D01*
X16443786Y-19373200D01*
X16443786Y-19316057D01*
X16429500Y-19244629D01*
X16415214Y-19201772D01*
X16400928Y-19173200D01*
X16372357Y-19130343D01*
X16358071Y-19116057D01*
X8904500Y-19664200D02*
X9014500Y-19774200D01*
X9014500Y-19664200D02*
X8904500Y-19774200D01*
X9014500Y-19719200D02*
G75*
G03*
X9014500Y-19719200I-55000J0D01*
G01*
X9458071Y-19854914D02*
X9286643Y-19854914D01*
X9372357Y-19854914D02*
X9372357Y-19554914D01*
X9343786Y-19597772D01*
X9315214Y-19626343D01*
X9286643Y-19640629D01*
X9586643Y-19826343D02*
X9600928Y-19840629D01*
X9586643Y-19854914D01*
X9572357Y-19840629D01*
X9586643Y-19826343D01*
X9586643Y-19854914D01*
X9886643Y-19854914D02*
X9715214Y-19854914D01*
X9800928Y-19854914D02*
X9800928Y-19554914D01*
X9772357Y-19597772D01*
X9743786Y-19626343D01*
X9715214Y-19640629D01*
X10072357Y-19554914D02*
X10100928Y-19554914D01*
X10129500Y-19569200D01*
X10143786Y-19583486D01*
X10158071Y-19612057D01*
X10172357Y-19669200D01*
X10172357Y-19740629D01*
X10158071Y-19797772D01*
X10143786Y-19826343D01*
X10129500Y-19840629D01*
X10100928Y-19854914D01*
X10072357Y-19854914D01*
X10043786Y-19840629D01*
X10029500Y-19826343D01*
X10015214Y-19797772D01*
X10000928Y-19740629D01*
X10000928Y-19669200D01*
X10015214Y-19612057D01*
X10029500Y-19583486D01*
X10043786Y-19569200D01*
X10072357Y-19554914D01*
X10358071Y-19554914D02*
X10386643Y-19554914D01*
X10415214Y-19569200D01*
X10429500Y-19583486D01*
X10443786Y-19612057D01*
X10458071Y-19669200D01*
X10458071Y-19740629D01*
X10443786Y-19797772D01*
X10429500Y-19826343D01*
X10415214Y-19840629D01*
X10386643Y-19854914D01*
X10358071Y-19854914D01*
X10329500Y-19840629D01*
X10315214Y-19826343D01*
X10300928Y-19797772D01*
X10286643Y-19740629D01*
X10286643Y-19669200D01*
X10300928Y-19612057D01*
X10315214Y-19583486D01*
X10329500Y-19569200D01*
X10358071Y-19554914D01*
X10586643Y-19854914D02*
X10586643Y-19654914D01*
X10586643Y-19683486D02*
X10600928Y-19669200D01*
X10629500Y-19654914D01*
X10672357Y-19654914D01*
X10700928Y-19669200D01*
X10715214Y-19697772D01*
X10715214Y-19854914D01*
X10715214Y-19697772D02*
X10729500Y-19669200D01*
X10758071Y-19654914D01*
X10800928Y-19654914D01*
X10829500Y-19669200D01*
X10843786Y-19697772D01*
X10843786Y-19854914D01*
X10986643Y-19854914D02*
X10986643Y-19654914D01*
X10986643Y-19683486D02*
X11000928Y-19669200D01*
X11029500Y-19654914D01*
X11072357Y-19654914D01*
X11100928Y-19669200D01*
X11115214Y-19697772D01*
X11115214Y-19854914D01*
X11115214Y-19697772D02*
X11129500Y-19669200D01*
X11158071Y-19654914D01*
X11200928Y-19654914D01*
X11229500Y-19669200D01*
X11243786Y-19697772D01*
X11243786Y-19854914D01*
X11829500Y-19540629D02*
X11572357Y-19926343D01*
X12215214Y-19554914D02*
X12243786Y-19554914D01*
X12272357Y-19569200D01*
X12286643Y-19583486D01*
X12300928Y-19612057D01*
X12315214Y-19669200D01*
X12315214Y-19740629D01*
X12300928Y-19797772D01*
X12286643Y-19826343D01*
X12272357Y-19840629D01*
X12243786Y-19854914D01*
X12215214Y-19854914D01*
X12186643Y-19840629D01*
X12172357Y-19826343D01*
X12158071Y-19797772D01*
X12143786Y-19740629D01*
X12143786Y-19669200D01*
X12158071Y-19612057D01*
X12172357Y-19583486D01*
X12186643Y-19569200D01*
X12215214Y-19554914D01*
X12443786Y-19826343D02*
X12458071Y-19840629D01*
X12443786Y-19854914D01*
X12429500Y-19840629D01*
X12443786Y-19826343D01*
X12443786Y-19854914D01*
X12643786Y-19554914D02*
X12672357Y-19554914D01*
X12700928Y-19569200D01*
X12715214Y-19583486D01*
X12729500Y-19612057D01*
X12743786Y-19669200D01*
X12743786Y-19740629D01*
X12729500Y-19797772D01*
X12715214Y-19826343D01*
X12700928Y-19840629D01*
X12672357Y-19854914D01*
X12643786Y-19854914D01*
X12615214Y-19840629D01*
X12600928Y-19826343D01*
X12586643Y-19797772D01*
X12572357Y-19740629D01*
X12572357Y-19669200D01*
X12586643Y-19612057D01*
X12600928Y-19583486D01*
X12615214Y-19569200D01*
X12643786Y-19554914D01*
X13000928Y-19654914D02*
X13000928Y-19854914D01*
X12929500Y-19540629D02*
X12858071Y-19754914D01*
X13043786Y-19754914D01*
X13129500Y-19554914D02*
X13315214Y-19554914D01*
X13215214Y-19669200D01*
X13258071Y-19669200D01*
X13286643Y-19683486D01*
X13300928Y-19697772D01*
X13315214Y-19726343D01*
X13315214Y-19797772D01*
X13300928Y-19826343D01*
X13286643Y-19840629D01*
X13258071Y-19854914D01*
X13172357Y-19854914D01*
X13143786Y-19840629D01*
X13129500Y-19826343D01*
X13415214Y-19554914D02*
X13600928Y-19554914D01*
X13500928Y-19669200D01*
X13543786Y-19669200D01*
X13572357Y-19683486D01*
X13586643Y-19697772D01*
X13600928Y-19726343D01*
X13600928Y-19797772D01*
X13586643Y-19826343D01*
X13572357Y-19840629D01*
X13543786Y-19854914D01*
X13458071Y-19854914D01*
X13429500Y-19840629D01*
X13415214Y-19826343D01*
X13715214Y-19554914D02*
X13715214Y-19612057D01*
X13829500Y-19554914D02*
X13829500Y-19612057D01*
X14272357Y-19969200D02*
X14258071Y-19954914D01*
X14229500Y-19912057D01*
X14215214Y-19883486D01*
X14200928Y-19840629D01*
X14186643Y-19769200D01*
X14186643Y-19712057D01*
X14200928Y-19640629D01*
X14215214Y-19597772D01*
X14229500Y-19569200D01*
X14258071Y-19526343D01*
X14272357Y-19512057D01*
X14515214Y-19654914D02*
X14515214Y-19854914D01*
X14443786Y-19540629D02*
X14372357Y-19754914D01*
X14558071Y-19754914D01*
X14900928Y-19854914D02*
X14900928Y-19554914D01*
X15029500Y-19854914D02*
X15029500Y-19697772D01*
X15015214Y-19669200D01*
X14986643Y-19654914D01*
X14943786Y-19654914D01*
X14915214Y-19669200D01*
X14900928Y-19683486D01*
X15215214Y-19854914D02*
X15186643Y-19840629D01*
X15172357Y-19826343D01*
X15158071Y-19797772D01*
X15158071Y-19712057D01*
X15172357Y-19683486D01*
X15186643Y-19669200D01*
X15215214Y-19654914D01*
X15258071Y-19654914D01*
X15286643Y-19669200D01*
X15300928Y-19683486D01*
X15315214Y-19712057D01*
X15315214Y-19797772D01*
X15300928Y-19826343D01*
X15286643Y-19840629D01*
X15258071Y-19854914D01*
X15215214Y-19854914D01*
X15486643Y-19854914D02*
X15458071Y-19840629D01*
X15443786Y-19812057D01*
X15443786Y-19554914D01*
X15715214Y-19840629D02*
X15686643Y-19854914D01*
X15629500Y-19854914D01*
X15600928Y-19840629D01*
X15586643Y-19812057D01*
X15586643Y-19697772D01*
X15600928Y-19669200D01*
X15629500Y-19654914D01*
X15686643Y-19654914D01*
X15715214Y-19669200D01*
X15729500Y-19697772D01*
X15729500Y-19726343D01*
X15586643Y-19754914D01*
X15843786Y-19840629D02*
X15872357Y-19854914D01*
X15929500Y-19854914D01*
X15958071Y-19840629D01*
X15972357Y-19812057D01*
X15972357Y-19797772D01*
X15958071Y-19769200D01*
X15929500Y-19754914D01*
X15886643Y-19754914D01*
X15858071Y-19740629D01*
X15843786Y-19712057D01*
X15843786Y-19697772D01*
X15858071Y-19669200D01*
X15886643Y-19654914D01*
X15929500Y-19654914D01*
X15958071Y-19669200D01*
X16072357Y-19969200D02*
X16086643Y-19954914D01*
X16115214Y-19912057D01*
X16129500Y-19883486D01*
X16143786Y-19840629D01*
X16158071Y-19769200D01*
X16158071Y-19712057D01*
X16143786Y-19640629D01*
X16129500Y-19597772D01*
X16115214Y-19569200D01*
X16086643Y-19526343D01*
X16072357Y-19512057D01*
X8894500Y-20055200D02*
X9014500Y-20175200D01*
X9014500Y-20055200D02*
X8894500Y-20175200D01*
X8954500Y-20055200D02*
X8954500Y-20175200D01*
X8894500Y-20115200D02*
X9014500Y-20115200D01*
X9458071Y-20250914D02*
X9286643Y-20250914D01*
X9372357Y-20250914D02*
X9372357Y-19950914D01*
X9343786Y-19993772D01*
X9315214Y-20022343D01*
X9286643Y-20036629D01*
X9586643Y-20222343D02*
X9600928Y-20236629D01*
X9586643Y-20250914D01*
X9572357Y-20236629D01*
X9586643Y-20222343D01*
X9586643Y-20250914D01*
X9715214Y-19979486D02*
X9729500Y-19965200D01*
X9758071Y-19950914D01*
X9829500Y-19950914D01*
X9858071Y-19965200D01*
X9872357Y-19979486D01*
X9886643Y-20008057D01*
X9886643Y-20036629D01*
X9872357Y-20079486D01*
X9700928Y-20250914D01*
X9886643Y-20250914D01*
X10072357Y-19950914D02*
X10100928Y-19950914D01*
X10129500Y-19965200D01*
X10143786Y-19979486D01*
X10158071Y-20008057D01*
X10172357Y-20065200D01*
X10172357Y-20136629D01*
X10158071Y-20193772D01*
X10143786Y-20222343D01*
X10129500Y-20236629D01*
X10100928Y-20250914D01*
X10072357Y-20250914D01*
X10043786Y-20236629D01*
X10029500Y-20222343D01*
X10015214Y-20193772D01*
X10000928Y-20136629D01*
X10000928Y-20065200D01*
X10015214Y-20008057D01*
X10029500Y-19979486D01*
X10043786Y-19965200D01*
X10072357Y-19950914D01*
X10358071Y-19950914D02*
X10386643Y-19950914D01*
X10415214Y-19965200D01*
X10429500Y-19979486D01*
X10443786Y-20008057D01*
X10458071Y-20065200D01*
X10458071Y-20136629D01*
X10443786Y-20193772D01*
X10429500Y-20222343D01*
X10415214Y-20236629D01*
X10386643Y-20250914D01*
X10358071Y-20250914D01*
X10329500Y-20236629D01*
X10315214Y-20222343D01*
X10300928Y-20193772D01*
X10286643Y-20136629D01*
X10286643Y-20065200D01*
X10300928Y-20008057D01*
X10315214Y-19979486D01*
X10329500Y-19965200D01*
X10358071Y-19950914D01*
X10586643Y-20250914D02*
X10586643Y-20050914D01*
X10586643Y-20079486D02*
X10600928Y-20065200D01*
X10629500Y-20050914D01*
X10672357Y-20050914D01*
X10700928Y-20065200D01*
X10715214Y-20093772D01*
X10715214Y-20250914D01*
X10715214Y-20093772D02*
X10729500Y-20065200D01*
X10758071Y-20050914D01*
X10800928Y-20050914D01*
X10829500Y-20065200D01*
X10843786Y-20093772D01*
X10843786Y-20250914D01*
X10986643Y-20250914D02*
X10986643Y-20050914D01*
X10986643Y-20079486D02*
X11000928Y-20065200D01*
X11029500Y-20050914D01*
X11072357Y-20050914D01*
X11100928Y-20065200D01*
X11115214Y-20093772D01*
X11115214Y-20250914D01*
X11115214Y-20093772D02*
X11129500Y-20065200D01*
X11158071Y-20050914D01*
X11200928Y-20050914D01*
X11229500Y-20065200D01*
X11243786Y-20093772D01*
X11243786Y-20250914D01*
X11829500Y-19936629D02*
X11572357Y-20322343D01*
X12215214Y-19950914D02*
X12243786Y-19950914D01*
X12272357Y-19965200D01*
X12286643Y-19979486D01*
X12300928Y-20008057D01*
X12315214Y-20065200D01*
X12315214Y-20136629D01*
X12300928Y-20193772D01*
X12286643Y-20222343D01*
X12272357Y-20236629D01*
X12243786Y-20250914D01*
X12215214Y-20250914D01*
X12186643Y-20236629D01*
X12172357Y-20222343D01*
X12158071Y-20193772D01*
X12143786Y-20136629D01*
X12143786Y-20065200D01*
X12158071Y-20008057D01*
X12172357Y-19979486D01*
X12186643Y-19965200D01*
X12215214Y-19950914D01*
X12443786Y-20222343D02*
X12458071Y-20236629D01*
X12443786Y-20250914D01*
X12429500Y-20236629D01*
X12443786Y-20222343D01*
X12443786Y-20250914D01*
X12643786Y-19950914D02*
X12672357Y-19950914D01*
X12700928Y-19965200D01*
X12715214Y-19979486D01*
X12729500Y-20008057D01*
X12743786Y-20065200D01*
X12743786Y-20136629D01*
X12729500Y-20193772D01*
X12715214Y-20222343D01*
X12700928Y-20236629D01*
X12672357Y-20250914D01*
X12643786Y-20250914D01*
X12615214Y-20236629D01*
X12600928Y-20222343D01*
X12586643Y-20193772D01*
X12572357Y-20136629D01*
X12572357Y-20065200D01*
X12586643Y-20008057D01*
X12600928Y-19979486D01*
X12615214Y-19965200D01*
X12643786Y-19950914D01*
X13000928Y-20050914D02*
X13000928Y-20250914D01*
X12929500Y-19936629D02*
X12858071Y-20150914D01*
X13043786Y-20150914D01*
X13129500Y-19950914D02*
X13329500Y-19950914D01*
X13200928Y-20250914D01*
X13429500Y-19979486D02*
X13443786Y-19965200D01*
X13472357Y-19950914D01*
X13543786Y-19950914D01*
X13572357Y-19965200D01*
X13586643Y-19979486D01*
X13600928Y-20008057D01*
X13600928Y-20036629D01*
X13586643Y-20079486D01*
X13415214Y-20250914D01*
X13600928Y-20250914D01*
X13715214Y-19950914D02*
X13715214Y-20008057D01*
X13829500Y-19950914D02*
X13829500Y-20008057D01*
X14272357Y-20365200D02*
X14258071Y-20350914D01*
X14229500Y-20308057D01*
X14215214Y-20279486D01*
X14200928Y-20236629D01*
X14186643Y-20165200D01*
X14186643Y-20108057D01*
X14200928Y-20036629D01*
X14215214Y-19993772D01*
X14229500Y-19965200D01*
X14258071Y-19922343D01*
X14272357Y-19908057D01*
X14543786Y-20250914D02*
X14372357Y-20250914D01*
X14458071Y-20250914D02*
X14458071Y-19950914D01*
X14429500Y-19993772D01*
X14400928Y-20022343D01*
X14372357Y-20036629D01*
X14715214Y-20079486D02*
X14686643Y-20065200D01*
X14672357Y-20050914D01*
X14658071Y-20022343D01*
X14658071Y-20008057D01*
X14672357Y-19979486D01*
X14686643Y-19965200D01*
X14715214Y-19950914D01*
X14772357Y-19950914D01*
X14800928Y-19965200D01*
X14815214Y-19979486D01*
X14829500Y-20008057D01*
X14829500Y-20022343D01*
X14815214Y-20050914D01*
X14800928Y-20065200D01*
X14772357Y-20079486D01*
X14715214Y-20079486D01*
X14686643Y-20093772D01*
X14672357Y-20108057D01*
X14658071Y-20136629D01*
X14658071Y-20193772D01*
X14672357Y-20222343D01*
X14686643Y-20236629D01*
X14715214Y-20250914D01*
X14772357Y-20250914D01*
X14800928Y-20236629D01*
X14815214Y-20222343D01*
X14829500Y-20193772D01*
X14829500Y-20136629D01*
X14815214Y-20108057D01*
X14800928Y-20093772D01*
X14772357Y-20079486D01*
X15186643Y-20250914D02*
X15186643Y-19950914D01*
X15315214Y-20250914D02*
X15315214Y-20093772D01*
X15300928Y-20065200D01*
X15272357Y-20050914D01*
X15229500Y-20050914D01*
X15200928Y-20065200D01*
X15186643Y-20079486D01*
X15500928Y-20250914D02*
X15472357Y-20236629D01*
X15458071Y-20222343D01*
X15443786Y-20193772D01*
X15443786Y-20108057D01*
X15458071Y-20079486D01*
X15472357Y-20065200D01*
X15500928Y-20050914D01*
X15543786Y-20050914D01*
X15572357Y-20065200D01*
X15586643Y-20079486D01*
X15600928Y-20108057D01*
X15600928Y-20193772D01*
X15586643Y-20222343D01*
X15572357Y-20236629D01*
X15543786Y-20250914D01*
X15500928Y-20250914D01*
X15772357Y-20250914D02*
X15743786Y-20236629D01*
X15729500Y-20208057D01*
X15729500Y-19950914D01*
X16000928Y-20236629D02*
X15972357Y-20250914D01*
X15915214Y-20250914D01*
X15886643Y-20236629D01*
X15872357Y-20208057D01*
X15872357Y-20093772D01*
X15886643Y-20065200D01*
X15915214Y-20050914D01*
X15972357Y-20050914D01*
X16000928Y-20065200D01*
X16015214Y-20093772D01*
X16015214Y-20122343D01*
X15872357Y-20150914D01*
X16129500Y-20236629D02*
X16158071Y-20250914D01*
X16215214Y-20250914D01*
X16243786Y-20236629D01*
X16258071Y-20208057D01*
X16258071Y-20193772D01*
X16243786Y-20165200D01*
X16215214Y-20150914D01*
X16172357Y-20150914D01*
X16143786Y-20136629D01*
X16129500Y-20108057D01*
X16129500Y-20093772D01*
X16143786Y-20065200D01*
X16172357Y-20050914D01*
X16215214Y-20050914D01*
X16243786Y-20065200D01*
X16358071Y-20365200D02*
X16372357Y-20350914D01*
X16400928Y-20308057D01*
X16415214Y-20279486D01*
X16429500Y-20236629D01*
X16443786Y-20165200D01*
X16443786Y-20108057D01*
X16429500Y-20036629D01*
X16415214Y-19993772D01*
X16400928Y-19965200D01*
X16372357Y-19922343D01*
X16358071Y-19908057D01*
X8884500Y-20446200D02*
X9014500Y-20576200D01*
X9014500Y-20446200D02*
X8884500Y-20576200D01*
X8995462Y-20557163D02*
X8995462Y-20465238D01*
X8903538Y-20465238D01*
X8903538Y-20557163D01*
X8995462Y-20557163D01*
X9458071Y-20646914D02*
X9286643Y-20646914D01*
X9372357Y-20646914D02*
X9372357Y-20346914D01*
X9343786Y-20389772D01*
X9315214Y-20418343D01*
X9286643Y-20432629D01*
X9586643Y-20618343D02*
X9600928Y-20632629D01*
X9586643Y-20646914D01*
X9572357Y-20632629D01*
X9586643Y-20618343D01*
X9586643Y-20646914D01*
X9700928Y-20346914D02*
X9886643Y-20346914D01*
X9786643Y-20461200D01*
X9829500Y-20461200D01*
X9858071Y-20475486D01*
X9872357Y-20489772D01*
X9886643Y-20518343D01*
X9886643Y-20589772D01*
X9872357Y-20618343D01*
X9858071Y-20632629D01*
X9829500Y-20646914D01*
X9743786Y-20646914D01*
X9715214Y-20632629D01*
X9700928Y-20618343D01*
X10072357Y-20346914D02*
X10100928Y-20346914D01*
X10129500Y-20361200D01*
X10143786Y-20375486D01*
X10158071Y-20404057D01*
X10172357Y-20461200D01*
X10172357Y-20532629D01*
X10158071Y-20589772D01*
X10143786Y-20618343D01*
X10129500Y-20632629D01*
X10100928Y-20646914D01*
X10072357Y-20646914D01*
X10043786Y-20632629D01*
X10029500Y-20618343D01*
X10015214Y-20589772D01*
X10000928Y-20532629D01*
X10000928Y-20461200D01*
X10015214Y-20404057D01*
X10029500Y-20375486D01*
X10043786Y-20361200D01*
X10072357Y-20346914D01*
X10358071Y-20346914D02*
X10386643Y-20346914D01*
X10415214Y-20361200D01*
X10429500Y-20375486D01*
X10443786Y-20404057D01*
X10458071Y-20461200D01*
X10458071Y-20532629D01*
X10443786Y-20589772D01*
X10429500Y-20618343D01*
X10415214Y-20632629D01*
X10386643Y-20646914D01*
X10358071Y-20646914D01*
X10329500Y-20632629D01*
X10315214Y-20618343D01*
X10300928Y-20589772D01*
X10286643Y-20532629D01*
X10286643Y-20461200D01*
X10300928Y-20404057D01*
X10315214Y-20375486D01*
X10329500Y-20361200D01*
X10358071Y-20346914D01*
X10586643Y-20646914D02*
X10586643Y-20446914D01*
X10586643Y-20475486D02*
X10600928Y-20461200D01*
X10629500Y-20446914D01*
X10672357Y-20446914D01*
X10700928Y-20461200D01*
X10715214Y-20489772D01*
X10715214Y-20646914D01*
X10715214Y-20489772D02*
X10729500Y-20461200D01*
X10758071Y-20446914D01*
X10800928Y-20446914D01*
X10829500Y-20461200D01*
X10843786Y-20489772D01*
X10843786Y-20646914D01*
X10986643Y-20646914D02*
X10986643Y-20446914D01*
X10986643Y-20475486D02*
X11000928Y-20461200D01*
X11029500Y-20446914D01*
X11072357Y-20446914D01*
X11100928Y-20461200D01*
X11115214Y-20489772D01*
X11115214Y-20646914D01*
X11115214Y-20489772D02*
X11129500Y-20461200D01*
X11158071Y-20446914D01*
X11200928Y-20446914D01*
X11229500Y-20461200D01*
X11243786Y-20489772D01*
X11243786Y-20646914D01*
X11829500Y-20332629D02*
X11572357Y-20718343D01*
X12215214Y-20346914D02*
X12243786Y-20346914D01*
X12272357Y-20361200D01*
X12286643Y-20375486D01*
X12300928Y-20404057D01*
X12315214Y-20461200D01*
X12315214Y-20532629D01*
X12300928Y-20589772D01*
X12286643Y-20618343D01*
X12272357Y-20632629D01*
X12243786Y-20646914D01*
X12215214Y-20646914D01*
X12186643Y-20632629D01*
X12172357Y-20618343D01*
X12158071Y-20589772D01*
X12143786Y-20532629D01*
X12143786Y-20461200D01*
X12158071Y-20404057D01*
X12172357Y-20375486D01*
X12186643Y-20361200D01*
X12215214Y-20346914D01*
X12443786Y-20618343D02*
X12458071Y-20632629D01*
X12443786Y-20646914D01*
X12429500Y-20632629D01*
X12443786Y-20618343D01*
X12443786Y-20646914D01*
X12643786Y-20346914D02*
X12672357Y-20346914D01*
X12700928Y-20361200D01*
X12715214Y-20375486D01*
X12729500Y-20404057D01*
X12743786Y-20461200D01*
X12743786Y-20532629D01*
X12729500Y-20589772D01*
X12715214Y-20618343D01*
X12700928Y-20632629D01*
X12672357Y-20646914D01*
X12643786Y-20646914D01*
X12615214Y-20632629D01*
X12600928Y-20618343D01*
X12586643Y-20589772D01*
X12572357Y-20532629D01*
X12572357Y-20461200D01*
X12586643Y-20404057D01*
X12600928Y-20375486D01*
X12615214Y-20361200D01*
X12643786Y-20346914D01*
X13015214Y-20346914D02*
X12872357Y-20346914D01*
X12858071Y-20489772D01*
X12872357Y-20475486D01*
X12900928Y-20461200D01*
X12972357Y-20461200D01*
X13000928Y-20475486D01*
X13015214Y-20489772D01*
X13029500Y-20518343D01*
X13029500Y-20589772D01*
X13015214Y-20618343D01*
X13000928Y-20632629D01*
X12972357Y-20646914D01*
X12900928Y-20646914D01*
X12872357Y-20632629D01*
X12858071Y-20618343D01*
X13315214Y-20646914D02*
X13143786Y-20646914D01*
X13229500Y-20646914D02*
X13229500Y-20346914D01*
X13200928Y-20389772D01*
X13172357Y-20418343D01*
X13143786Y-20432629D01*
X13429500Y-20375486D02*
X13443786Y-20361200D01*
X13472357Y-20346914D01*
X13543786Y-20346914D01*
X13572357Y-20361200D01*
X13586643Y-20375486D01*
X13600928Y-20404057D01*
X13600928Y-20432629D01*
X13586643Y-20475486D01*
X13415214Y-20646914D01*
X13600928Y-20646914D01*
X13715214Y-20346914D02*
X13715214Y-20404057D01*
X13829500Y-20346914D02*
X13829500Y-20404057D01*
X14272357Y-20761200D02*
X14258071Y-20746914D01*
X14229500Y-20704057D01*
X14215214Y-20675486D01*
X14200928Y-20632629D01*
X14186643Y-20561200D01*
X14186643Y-20504057D01*
X14200928Y-20432629D01*
X14215214Y-20389772D01*
X14229500Y-20361200D01*
X14258071Y-20318343D01*
X14272357Y-20304057D01*
X14515214Y-20446914D02*
X14515214Y-20646914D01*
X14443786Y-20332629D02*
X14372357Y-20546914D01*
X14558071Y-20546914D01*
X14729500Y-20346914D02*
X14758071Y-20346914D01*
X14786643Y-20361200D01*
X14800928Y-20375486D01*
X14815214Y-20404057D01*
X14829500Y-20461200D01*
X14829500Y-20532629D01*
X14815214Y-20589772D01*
X14800928Y-20618343D01*
X14786643Y-20632629D01*
X14758071Y-20646914D01*
X14729500Y-20646914D01*
X14700928Y-20632629D01*
X14686643Y-20618343D01*
X14672357Y-20589772D01*
X14658071Y-20532629D01*
X14658071Y-20461200D01*
X14672357Y-20404057D01*
X14686643Y-20375486D01*
X14700928Y-20361200D01*
X14729500Y-20346914D01*
X15186643Y-20646914D02*
X15186643Y-20346914D01*
X15315214Y-20646914D02*
X15315214Y-20489772D01*
X15300928Y-20461200D01*
X15272357Y-20446914D01*
X15229500Y-20446914D01*
X15200928Y-20461200D01*
X15186643Y-20475486D01*
X15500928Y-20646914D02*
X15472357Y-20632629D01*
X15458071Y-20618343D01*
X15443786Y-20589772D01*
X15443786Y-20504057D01*
X15458071Y-20475486D01*
X15472357Y-20461200D01*
X15500928Y-20446914D01*
X15543786Y-20446914D01*
X15572357Y-20461200D01*
X15586643Y-20475486D01*
X15600928Y-20504057D01*
X15600928Y-20589772D01*
X15586643Y-20618343D01*
X15572357Y-20632629D01*
X15543786Y-20646914D01*
X15500928Y-20646914D01*
X15772357Y-20646914D02*
X15743786Y-20632629D01*
X15729500Y-20604057D01*
X15729500Y-20346914D01*
X16000928Y-20632629D02*
X15972357Y-20646914D01*
X15915214Y-20646914D01*
X15886643Y-20632629D01*
X15872357Y-20604057D01*
X15872357Y-20489772D01*
X15886643Y-20461200D01*
X15915214Y-20446914D01*
X15972357Y-20446914D01*
X16000928Y-20461200D01*
X16015214Y-20489772D01*
X16015214Y-20518343D01*
X15872357Y-20546914D01*
X16129500Y-20632629D02*
X16158071Y-20646914D01*
X16215214Y-20646914D01*
X16243786Y-20632629D01*
X16258071Y-20604057D01*
X16258071Y-20589772D01*
X16243786Y-20561200D01*
X16215214Y-20546914D01*
X16172357Y-20546914D01*
X16143786Y-20532629D01*
X16129500Y-20504057D01*
X16129500Y-20489772D01*
X16143786Y-20461200D01*
X16172357Y-20446914D01*
X16215214Y-20446914D01*
X16243786Y-20461200D01*
X16358071Y-20761200D02*
X16372357Y-20746914D01*
X16400928Y-20704057D01*
X16415214Y-20675486D01*
X16429500Y-20632629D01*
X16443786Y-20561200D01*
X16443786Y-20504057D01*
X16429500Y-20432629D01*
X16415214Y-20389772D01*
X16400928Y-20361200D01*
X16372357Y-20318343D01*
X16358071Y-20304057D01*
X8664500Y-20732200D02*
X9014500Y-21082200D01*
X9014500Y-20732200D02*
X8664500Y-21082200D01*
X8839500Y-21082200D02*
X9014500Y-20907200D01*
X8839500Y-20732200D01*
X8664500Y-20907200D01*
X8839500Y-21082200D01*
X9272357Y-20742914D02*
X9458071Y-20742914D01*
X9358071Y-20857200D01*
X9400928Y-20857200D01*
X9429500Y-20871486D01*
X9443786Y-20885772D01*
X9458071Y-20914343D01*
X9458071Y-20985772D01*
X9443786Y-21014343D01*
X9429500Y-21028629D01*
X9400928Y-21042914D01*
X9315214Y-21042914D01*
X9286643Y-21028629D01*
X9272357Y-21014343D01*
X9586643Y-21014343D02*
X9600928Y-21028629D01*
X9586643Y-21042914D01*
X9572357Y-21028629D01*
X9586643Y-21014343D01*
X9586643Y-21042914D01*
X9872357Y-20742914D02*
X9729500Y-20742914D01*
X9715214Y-20885772D01*
X9729500Y-20871486D01*
X9758071Y-20857200D01*
X9829500Y-20857200D01*
X9858071Y-20871486D01*
X9872357Y-20885772D01*
X9886643Y-20914343D01*
X9886643Y-20985772D01*
X9872357Y-21014343D01*
X9858071Y-21028629D01*
X9829500Y-21042914D01*
X9758071Y-21042914D01*
X9729500Y-21028629D01*
X9715214Y-21014343D01*
X10072357Y-20742914D02*
X10100928Y-20742914D01*
X10129500Y-20757200D01*
X10143786Y-20771486D01*
X10158071Y-20800057D01*
X10172357Y-20857200D01*
X10172357Y-20928629D01*
X10158071Y-20985772D01*
X10143786Y-21014343D01*
X10129500Y-21028629D01*
X10100928Y-21042914D01*
X10072357Y-21042914D01*
X10043786Y-21028629D01*
X10029500Y-21014343D01*
X10015214Y-20985772D01*
X10000928Y-20928629D01*
X10000928Y-20857200D01*
X10015214Y-20800057D01*
X10029500Y-20771486D01*
X10043786Y-20757200D01*
X10072357Y-20742914D01*
X10358071Y-20742914D02*
X10386643Y-20742914D01*
X10415214Y-20757200D01*
X10429500Y-20771486D01*
X10443786Y-20800057D01*
X10458071Y-20857200D01*
X10458071Y-20928629D01*
X10443786Y-20985772D01*
X10429500Y-21014343D01*
X10415214Y-21028629D01*
X10386643Y-21042914D01*
X10358071Y-21042914D01*
X10329500Y-21028629D01*
X10315214Y-21014343D01*
X10300928Y-20985772D01*
X10286643Y-20928629D01*
X10286643Y-20857200D01*
X10300928Y-20800057D01*
X10315214Y-20771486D01*
X10329500Y-20757200D01*
X10358071Y-20742914D01*
X10586643Y-21042914D02*
X10586643Y-20842914D01*
X10586643Y-20871486D02*
X10600928Y-20857200D01*
X10629500Y-20842914D01*
X10672357Y-20842914D01*
X10700928Y-20857200D01*
X10715214Y-20885772D01*
X10715214Y-21042914D01*
X10715214Y-20885772D02*
X10729500Y-20857200D01*
X10758071Y-20842914D01*
X10800928Y-20842914D01*
X10829500Y-20857200D01*
X10843786Y-20885772D01*
X10843786Y-21042914D01*
X10986643Y-21042914D02*
X10986643Y-20842914D01*
X10986643Y-20871486D02*
X11000928Y-20857200D01*
X11029500Y-20842914D01*
X11072357Y-20842914D01*
X11100928Y-20857200D01*
X11115214Y-20885772D01*
X11115214Y-21042914D01*
X11115214Y-20885772D02*
X11129500Y-20857200D01*
X11158071Y-20842914D01*
X11200928Y-20842914D01*
X11229500Y-20857200D01*
X11243786Y-20885772D01*
X11243786Y-21042914D01*
X11829500Y-20728629D02*
X11572357Y-21114343D01*
X12215214Y-20742914D02*
X12243786Y-20742914D01*
X12272357Y-20757200D01*
X12286643Y-20771486D01*
X12300928Y-20800057D01*
X12315214Y-20857200D01*
X12315214Y-20928629D01*
X12300928Y-20985772D01*
X12286643Y-21014343D01*
X12272357Y-21028629D01*
X12243786Y-21042914D01*
X12215214Y-21042914D01*
X12186643Y-21028629D01*
X12172357Y-21014343D01*
X12158071Y-20985772D01*
X12143786Y-20928629D01*
X12143786Y-20857200D01*
X12158071Y-20800057D01*
X12172357Y-20771486D01*
X12186643Y-20757200D01*
X12215214Y-20742914D01*
X12443786Y-21014343D02*
X12458071Y-21028629D01*
X12443786Y-21042914D01*
X12429500Y-21028629D01*
X12443786Y-21014343D01*
X12443786Y-21042914D01*
X12743786Y-21042914D02*
X12572357Y-21042914D01*
X12658071Y-21042914D02*
X12658071Y-20742914D01*
X12629500Y-20785772D01*
X12600928Y-20814343D01*
X12572357Y-20828629D01*
X12843786Y-20742914D02*
X13029500Y-20742914D01*
X12929500Y-20857200D01*
X12972357Y-20857200D01*
X13000928Y-20871486D01*
X13015214Y-20885772D01*
X13029500Y-20914343D01*
X13029500Y-20985772D01*
X13015214Y-21014343D01*
X13000928Y-21028629D01*
X12972357Y-21042914D01*
X12886643Y-21042914D01*
X12858071Y-21028629D01*
X12843786Y-21014343D01*
X13129500Y-20742914D02*
X13329500Y-20742914D01*
X13200928Y-21042914D01*
X13486643Y-20871486D02*
X13458071Y-20857200D01*
X13443786Y-20842914D01*
X13429500Y-20814343D01*
X13429500Y-20800057D01*
X13443786Y-20771486D01*
X13458071Y-20757200D01*
X13486643Y-20742914D01*
X13543786Y-20742914D01*
X13572357Y-20757200D01*
X13586643Y-20771486D01*
X13600928Y-20800057D01*
X13600928Y-20814343D01*
X13586643Y-20842914D01*
X13572357Y-20857200D01*
X13543786Y-20871486D01*
X13486643Y-20871486D01*
X13458071Y-20885772D01*
X13443786Y-20900057D01*
X13429500Y-20928629D01*
X13429500Y-20985772D01*
X13443786Y-21014343D01*
X13458071Y-21028629D01*
X13486643Y-21042914D01*
X13543786Y-21042914D01*
X13572357Y-21028629D01*
X13586643Y-21014343D01*
X13600928Y-20985772D01*
X13600928Y-20928629D01*
X13586643Y-20900057D01*
X13572357Y-20885772D01*
X13543786Y-20871486D01*
X13715214Y-20742914D02*
X13715214Y-20800057D01*
X13829500Y-20742914D02*
X13829500Y-20800057D01*
X14272357Y-21157200D02*
X14258071Y-21142914D01*
X14229500Y-21100057D01*
X14215214Y-21071486D01*
X14200928Y-21028629D01*
X14186643Y-20957200D01*
X14186643Y-20900057D01*
X14200928Y-20828629D01*
X14215214Y-20785772D01*
X14229500Y-20757200D01*
X14258071Y-20714343D01*
X14272357Y-20700057D01*
X14515214Y-20842914D02*
X14515214Y-21042914D01*
X14443786Y-20728629D02*
X14372357Y-20942914D01*
X14558071Y-20942914D01*
X14900928Y-21042914D02*
X14900928Y-20742914D01*
X15029500Y-21042914D02*
X15029500Y-20885772D01*
X15015214Y-20857200D01*
X14986643Y-20842914D01*
X14943786Y-20842914D01*
X14915214Y-20857200D01*
X14900928Y-20871486D01*
X15215214Y-21042914D02*
X15186643Y-21028629D01*
X15172357Y-21014343D01*
X15158071Y-20985772D01*
X15158071Y-20900057D01*
X15172357Y-20871486D01*
X15186643Y-20857200D01*
X15215214Y-20842914D01*
X15258071Y-20842914D01*
X15286643Y-20857200D01*
X15300928Y-20871486D01*
X15315214Y-20900057D01*
X15315214Y-20985772D01*
X15300928Y-21014343D01*
X15286643Y-21028629D01*
X15258071Y-21042914D01*
X15215214Y-21042914D01*
X15486643Y-21042914D02*
X15458071Y-21028629D01*
X15443786Y-21000057D01*
X15443786Y-20742914D01*
X15715214Y-21028629D02*
X15686643Y-21042914D01*
X15629500Y-21042914D01*
X15600928Y-21028629D01*
X15586643Y-21000057D01*
X15586643Y-20885772D01*
X15600928Y-20857200D01*
X15629500Y-20842914D01*
X15686643Y-20842914D01*
X15715214Y-20857200D01*
X15729500Y-20885772D01*
X15729500Y-20914343D01*
X15586643Y-20942914D01*
X15843786Y-21028629D02*
X15872357Y-21042914D01*
X15929500Y-21042914D01*
X15958071Y-21028629D01*
X15972357Y-21000057D01*
X15972357Y-20985772D01*
X15958071Y-20957200D01*
X15929500Y-20942914D01*
X15886643Y-20942914D01*
X15858071Y-20928629D01*
X15843786Y-20900057D01*
X15843786Y-20885772D01*
X15858071Y-20857200D01*
X15886643Y-20842914D01*
X15929500Y-20842914D01*
X15958071Y-20857200D01*
X16072357Y-21157200D02*
X16086643Y-21142914D01*
X16115214Y-21100057D01*
X16129500Y-21071486D01*
X16143786Y-21028629D01*
X16158071Y-20957200D01*
X16158071Y-20900057D01*
X16143786Y-20828629D01*
X16129500Y-20785772D01*
X16115214Y-20757200D01*
X16086643Y-20714343D01*
X16072357Y-20700057D01*
M02*
