M48
; DRILL file {KiCad (6.0.0)} date Fri Jan 21 00:34:06 2022
; FORMAT={-:-/ absolute / metric / decimal}
; #@! TF.CreationDate,2022-01-21T00:34:06+01:00
; #@! TF.GenerationSoftware,Kicad,Pcbnew,(6.0.0)
; #@! TF.FileFunction,Plated,1,2,PTH
FMAT,2
METRIC
; #@! TA.AperFunction,Plated,PTH,ViaDrill
T1C0.400
; #@! TA.AperFunction,Plated,PTH,ComponentDrill
T2C0.500
; #@! TA.AperFunction,Plated,PTH,ComponentDrill
T3C0.800
; #@! TA.AperFunction,Plated,PTH,ComponentDrill
T4C1.000
; #@! TA.AperFunction,Plated,PTH,ComponentDrill
T5C1.100
; #@! TA.AperFunction,Plated,PTH,ComponentDrill
T6C1.300
; #@! TA.AperFunction,Plated,PTH,ComponentDrill
T7C3.500
%
G90
G05
T1
X131.572Y-64.167
X131.572Y-78.269
X131.572Y-122.455
X131.572Y-129.079
X132.001Y-110.279
X133.045Y-107.788
X140.559Y-109.171
X144.553Y-131.407
X146.304Y-70.629
T2
X92.32Y-58.268
X92.32Y-163.043
X93.089Y-56.411
X93.089Y-60.124
X93.089Y-161.186
X93.089Y-164.899
X94.945Y-55.643
X94.945Y-60.893
X94.945Y-160.418
X94.945Y-165.668
X96.801Y-56.411
X96.801Y-60.124
X96.801Y-161.186
X96.801Y-164.899
X97.57Y-58.268
X97.57Y-163.043
X149.542Y-163.019
X149.546Y-58.191
X150.311Y-161.163
X150.311Y-164.875
X150.315Y-56.335
X150.315Y-60.048
X152.167Y-160.394
X152.167Y-165.644
X152.171Y-55.566
X152.171Y-60.816
X154.023Y-161.163
X154.023Y-164.875
X154.028Y-56.335
X154.028Y-60.048
X154.792Y-163.019
X154.796Y-58.191
T3
X132.652Y-92.265
X132.652Y-97.145
X136.848Y-72.98
X136.848Y-75.52
X136.848Y-78.06
X136.848Y-80.6
X136.848Y-83.141
X136.848Y-85.68
X136.848Y-88.221
X136.848Y-90.76
X136.848Y-93.3
X136.848Y-95.84
X136.848Y-98.38
X136.848Y-100.92
X136.848Y-103.46
X136.848Y-106.0
X138.049Y-116.205
X138.049Y-123.825
X138.049Y-127.254
X138.049Y-134.874
X138.049Y-138.176
X138.049Y-145.796
X140.589Y-116.205
X140.589Y-123.825
X140.589Y-127.254
X140.589Y-134.874
X140.589Y-138.176
X140.589Y-145.796
X144.468Y-72.98
X144.468Y-75.52
X144.468Y-78.06
X144.468Y-80.6
X144.468Y-83.141
X144.468Y-85.68
X144.468Y-88.221
X144.468Y-90.76
X144.468Y-93.3
X144.468Y-95.84
X144.468Y-98.38
X144.468Y-100.92
X144.468Y-103.46
X144.468Y-106.0
T4
X93.11Y-122.002
X100.539Y-135.352
X100.539Y-137.892
X100.711Y-67.183
X100.711Y-69.723
X100.711Y-72.263
X100.711Y-74.803
X100.711Y-77.343
X100.711Y-79.883
X100.711Y-82.423
X100.711Y-84.963
X100.711Y-87.503
X100.711Y-90.043
X105.11Y-122.002
X107.459Y-164.482
X113.459Y-130.882
X119.459Y-130.882
X121.793Y-56.515
X124.279Y-77.897
X124.279Y-89.897
X124.288Y-61.38
X124.288Y-73.38
X124.333Y-56.515
X124.39Y-94.534
X124.39Y-106.534
X124.406Y-111.171
X124.406Y-123.171
X125.459Y-164.482
X126.873Y-56.515
X129.413Y-56.515
X133.832Y-154.392
X136.017Y-56.515
X136.371Y-154.392
X138.557Y-56.515
X141.097Y-56.515
X141.451Y-154.392
X143.637Y-56.515
X146.531Y-154.392
X149.524Y-138.089
X149.524Y-140.629
X149.524Y-143.169
X149.524Y-145.709
X152.019Y-66.421
X152.019Y-68.961
X152.019Y-71.501
X152.019Y-74.041
X152.019Y-79.756
X152.019Y-82.296
X152.019Y-84.836
X152.019Y-87.376
X152.146Y-92.837
X152.146Y-95.377
X152.146Y-97.917
X152.146Y-100.457
X152.146Y-102.997
X152.146Y-105.537
T5
X137.328Y-64.778
X137.328Y-69.278
X143.828Y-64.778
X143.828Y-69.278
T6
X93.06Y-109.752
X99.06Y-123.952
X105.11Y-109.802
X112.029Y-89.947
X112.038Y-73.43
X112.079Y-77.897
X112.088Y-61.38
X112.14Y-106.584
X112.156Y-123.221
X112.19Y-94.534
X112.206Y-111.171
X126.229Y-83.947
X126.238Y-67.43
X126.34Y-100.584
X126.356Y-117.221
T7
X94.945Y-58.268
X94.945Y-163.043
X152.167Y-163.019
X152.171Y-58.191
T0
M30
