G04 #@! TF.GenerationSoftware,KiCad,Pcbnew,(5.1.10)-1*
G04 #@! TF.CreationDate,2021-12-06T14:15:14+01:00*
G04 #@! TF.ProjectId,LuciCameraLettoRoma,4c756369-4361-46d6-9572-614c6574746f,rev?*
G04 #@! TF.SameCoordinates,Original*
G04 #@! TF.FileFunction,Soldermask,Bot*
G04 #@! TF.FilePolarity,Negative*
%FSLAX46Y46*%
G04 Gerber Fmt 4.6, Leading zero omitted, Abs format (unit mm)*
G04 Created by KiCad (PCBNEW (5.1.10)-1) date 2021-12-06 14:15:14*
%MOMM*%
%LPD*%
G01*
G04 APERTURE LIST*
%ADD10R,0.800000X0.900000*%
%ADD11C,7.000000*%
%ADD12C,0.800000*%
%ADD13O,1.700000X1.700000*%
%ADD14R,1.700000X1.700000*%
%ADD15O,1.500000X3.000000*%
%ADD16R,1.500000X3.000000*%
%ADD17O,3.600000X1.800000*%
%ADD18O,1.600000X1.600000*%
%ADD19R,1.600000X1.600000*%
%ADD20O,1.524000X2.000000*%
%ADD21R,1.524000X2.000000*%
%ADD22C,0.100000*%
%ADD23R,0.900000X0.800000*%
%ADD24O,2.000000X3.000000*%
%ADD25O,3.000000X2.000000*%
%ADD26R,3.000000X2.000000*%
%ADD27C,1.500000*%
%ADD28C,2.000000*%
G04 APERTURE END LIST*
D10*
X144780000Y-115316000D03*
X145730000Y-113316000D03*
X143830000Y-113316000D03*
X144653000Y-132461000D03*
X143703000Y-134461000D03*
X145603000Y-134461000D03*
G36*
G01*
X132197001Y-124195000D02*
X130946999Y-124195000D01*
G75*
G02*
X130697000Y-123945001I0J249999D01*
G01*
X130697000Y-123319999D01*
G75*
G02*
X130946999Y-123070000I249999J0D01*
G01*
X132197001Y-123070000D01*
G75*
G02*
X132447000Y-123319999I0J-249999D01*
G01*
X132447000Y-123945001D01*
G75*
G02*
X132197001Y-124195000I-249999J0D01*
G01*
G37*
G36*
G01*
X132197001Y-127120000D02*
X130946999Y-127120000D01*
G75*
G02*
X130697000Y-126870001I0J249999D01*
G01*
X130697000Y-126244999D01*
G75*
G02*
X130946999Y-125995000I249999J0D01*
G01*
X132197001Y-125995000D01*
G75*
G02*
X132447000Y-126244999I0J-249999D01*
G01*
X132447000Y-126870001D01*
G75*
G02*
X132197001Y-127120000I-249999J0D01*
G01*
G37*
G36*
G01*
X133300000Y-112766001D02*
X133300000Y-111515999D01*
G75*
G02*
X133549999Y-111266000I249999J0D01*
G01*
X134175001Y-111266000D01*
G75*
G02*
X134425000Y-111515999I0J-249999D01*
G01*
X134425000Y-112766001D01*
G75*
G02*
X134175001Y-113016000I-249999J0D01*
G01*
X133549999Y-113016000D01*
G75*
G02*
X133300000Y-112766001I0J249999D01*
G01*
G37*
G36*
G01*
X130375000Y-112766001D02*
X130375000Y-111515999D01*
G75*
G02*
X130624999Y-111266000I249999J0D01*
G01*
X131250001Y-111266000D01*
G75*
G02*
X131500000Y-111515999I0J-249999D01*
G01*
X131500000Y-112766001D01*
G75*
G02*
X131250001Y-113016000I-249999J0D01*
G01*
X130624999Y-113016000D01*
G75*
G02*
X130375000Y-112766001I0J249999D01*
G01*
G37*
G36*
G01*
X133361000Y-109718001D02*
X133361000Y-108467999D01*
G75*
G02*
X133610999Y-108218000I249999J0D01*
G01*
X134236001Y-108218000D01*
G75*
G02*
X134486000Y-108467999I0J-249999D01*
G01*
X134486000Y-109718001D01*
G75*
G02*
X134236001Y-109968000I-249999J0D01*
G01*
X133610999Y-109968000D01*
G75*
G02*
X133361000Y-109718001I0J249999D01*
G01*
G37*
G36*
G01*
X130436000Y-109718001D02*
X130436000Y-108467999D01*
G75*
G02*
X130685999Y-108218000I249999J0D01*
G01*
X131311001Y-108218000D01*
G75*
G02*
X131561000Y-108467999I0J-249999D01*
G01*
X131561000Y-109718001D01*
G75*
G02*
X131311001Y-109968000I-249999J0D01*
G01*
X130685999Y-109968000D01*
G75*
G02*
X130436000Y-109718001I0J249999D01*
G01*
G37*
G36*
G01*
X132197001Y-79999000D02*
X130946999Y-79999000D01*
G75*
G02*
X130697000Y-79749001I0J249999D01*
G01*
X130697000Y-79123999D01*
G75*
G02*
X130946999Y-78874000I249999J0D01*
G01*
X132197001Y-78874000D01*
G75*
G02*
X132447000Y-79123999I0J-249999D01*
G01*
X132447000Y-79749001D01*
G75*
G02*
X132197001Y-79999000I-249999J0D01*
G01*
G37*
G36*
G01*
X132197001Y-82924000D02*
X130946999Y-82924000D01*
G75*
G02*
X130697000Y-82674001I0J249999D01*
G01*
X130697000Y-82048999D01*
G75*
G02*
X130946999Y-81799000I249999J0D01*
G01*
X132197001Y-81799000D01*
G75*
G02*
X132447000Y-82048999I0J-249999D01*
G01*
X132447000Y-82674001D01*
G75*
G02*
X132197001Y-82924000I-249999J0D01*
G01*
G37*
G36*
G01*
X132197001Y-65840500D02*
X130946999Y-65840500D01*
G75*
G02*
X130697000Y-65590501I0J249999D01*
G01*
X130697000Y-64965499D01*
G75*
G02*
X130946999Y-64715500I249999J0D01*
G01*
X132197001Y-64715500D01*
G75*
G02*
X132447000Y-64965499I0J-249999D01*
G01*
X132447000Y-65590501D01*
G75*
G02*
X132197001Y-65840500I-249999J0D01*
G01*
G37*
G36*
G01*
X132197001Y-68765500D02*
X130946999Y-68765500D01*
G75*
G02*
X130697000Y-68515501I0J249999D01*
G01*
X130697000Y-67890499D01*
G75*
G02*
X130946999Y-67640500I249999J0D01*
G01*
X132197001Y-67640500D01*
G75*
G02*
X132447000Y-67890499I0J-249999D01*
G01*
X132447000Y-68515501D01*
G75*
G02*
X132197001Y-68765500I-249999J0D01*
G01*
G37*
D11*
X96901000Y-162941000D03*
D12*
X99526000Y-162941000D03*
X98757155Y-164797155D03*
X96901000Y-165566000D03*
X95044845Y-164797155D03*
X94276000Y-162941000D03*
X95044845Y-161084845D03*
X96901000Y-160316000D03*
X98757155Y-161084845D03*
X153826155Y-161162845D03*
X151970000Y-160394000D03*
X150113845Y-161162845D03*
X149345000Y-163019000D03*
X150113845Y-164875155D03*
X151970000Y-165644000D03*
X153826155Y-164875155D03*
X154595000Y-163019000D03*
D11*
X151970000Y-163019000D03*
X151892000Y-58420000D03*
D12*
X154517000Y-58420000D03*
X153748155Y-60276155D03*
X151892000Y-61045000D03*
X150035845Y-60276155D03*
X149267000Y-58420000D03*
X150035845Y-56563845D03*
X151892000Y-55795000D03*
X153748155Y-56563845D03*
X98757155Y-56436845D03*
X96901000Y-55668000D03*
X95044845Y-56436845D03*
X94276000Y-58293000D03*
X95044845Y-60149155D03*
X96901000Y-60918000D03*
X98757155Y-60149155D03*
X99526000Y-58293000D03*
D11*
X96901000Y-58293000D03*
D13*
X152146000Y-92837000D03*
X152146000Y-95377000D03*
X152146000Y-97917000D03*
X152146000Y-100457000D03*
X152146000Y-102997000D03*
D14*
X152146000Y-105537000D03*
D13*
X143637000Y-56515000D03*
X141097000Y-56515000D03*
X138557000Y-56515000D03*
D14*
X136017000Y-56515000D03*
D13*
X129413000Y-56515000D03*
X126873000Y-56515000D03*
X124333000Y-56515000D03*
D14*
X121793000Y-56515000D03*
D13*
X152019000Y-74041000D03*
X152019000Y-71501000D03*
X152019000Y-68961000D03*
D14*
X152019000Y-66421000D03*
D13*
X152146000Y-87122000D03*
X152146000Y-84582000D03*
X152146000Y-82042000D03*
D14*
X152146000Y-79502000D03*
D15*
X147066000Y-153035000D03*
X152146000Y-153035000D03*
X141986000Y-153035000D03*
D16*
X139446000Y-153035000D03*
D17*
X151130000Y-117348000D03*
G36*
G01*
X149580000Y-111368000D02*
X152680000Y-111368000D01*
G75*
G02*
X152930000Y-111618000I0J-250000D01*
G01*
X152930000Y-112918000D01*
G75*
G02*
X152680000Y-113168000I-250000J0D01*
G01*
X149580000Y-113168000D01*
G75*
G02*
X149330000Y-112918000I0J250000D01*
G01*
X149330000Y-111618000D01*
G75*
G02*
X149580000Y-111368000I250000J0D01*
G01*
G37*
X151130000Y-130683000D03*
G36*
G01*
X149580000Y-124703000D02*
X152680000Y-124703000D01*
G75*
G02*
X152930000Y-124953000I0J-250000D01*
G01*
X152930000Y-126253000D01*
G75*
G02*
X152680000Y-126503000I-250000J0D01*
G01*
X149580000Y-126503000D01*
G75*
G02*
X149330000Y-126253000I0J250000D01*
G01*
X149330000Y-124953000D01*
G75*
G02*
X149580000Y-124703000I250000J0D01*
G01*
G37*
X151130000Y-143891000D03*
G36*
G01*
X149580000Y-137911000D02*
X152680000Y-137911000D01*
G75*
G02*
X152930000Y-138161000I0J-250000D01*
G01*
X152930000Y-139461000D01*
G75*
G02*
X152680000Y-139711000I-250000J0D01*
G01*
X149580000Y-139711000D01*
G75*
G02*
X149330000Y-139461000I0J250000D01*
G01*
X149330000Y-138161000D01*
G75*
G02*
X149580000Y-137911000I250000J0D01*
G01*
G37*
D18*
X140589000Y-123825000D03*
X138049000Y-116205000D03*
X138049000Y-123825000D03*
D19*
X140589000Y-116205000D03*
D18*
X140589000Y-134874000D03*
X138049000Y-127254000D03*
X138049000Y-134874000D03*
D19*
X140589000Y-127254000D03*
D18*
X140589000Y-145796000D03*
X138049000Y-138176000D03*
X138049000Y-145796000D03*
D19*
X140589000Y-138176000D03*
G36*
G01*
X145024001Y-119369000D02*
X143773999Y-119369000D01*
G75*
G02*
X143524000Y-119119001I0J249999D01*
G01*
X143524000Y-118493999D01*
G75*
G02*
X143773999Y-118244000I249999J0D01*
G01*
X145024001Y-118244000D01*
G75*
G02*
X145274000Y-118493999I0J-249999D01*
G01*
X145274000Y-119119001D01*
G75*
G02*
X145024001Y-119369000I-249999J0D01*
G01*
G37*
G36*
G01*
X145024001Y-122294000D02*
X143773999Y-122294000D01*
G75*
G02*
X143524000Y-122044001I0J249999D01*
G01*
X143524000Y-121418999D01*
G75*
G02*
X143773999Y-121169000I249999J0D01*
G01*
X145024001Y-121169000D01*
G75*
G02*
X145274000Y-121418999I0J-249999D01*
G01*
X145274000Y-122044001D01*
G75*
G02*
X145024001Y-122294000I-249999J0D01*
G01*
G37*
G36*
G01*
X140092000Y-119497001D02*
X140092000Y-118246999D01*
G75*
G02*
X140341999Y-117997000I249999J0D01*
G01*
X140967001Y-117997000D01*
G75*
G02*
X141217000Y-118246999I0J-249999D01*
G01*
X141217000Y-119497001D01*
G75*
G02*
X140967001Y-119747000I-249999J0D01*
G01*
X140341999Y-119747000D01*
G75*
G02*
X140092000Y-119497001I0J249999D01*
G01*
G37*
G36*
G01*
X137167000Y-119497001D02*
X137167000Y-118246999D01*
G75*
G02*
X137416999Y-117997000I249999J0D01*
G01*
X138042001Y-117997000D01*
G75*
G02*
X138292000Y-118246999I0J-249999D01*
G01*
X138292000Y-119497001D01*
G75*
G02*
X138042001Y-119747000I-249999J0D01*
G01*
X137416999Y-119747000D01*
G75*
G02*
X137167000Y-119497001I0J249999D01*
G01*
G37*
G36*
G01*
X145151001Y-127878000D02*
X143900999Y-127878000D01*
G75*
G02*
X143651000Y-127628001I0J249999D01*
G01*
X143651000Y-127002999D01*
G75*
G02*
X143900999Y-126753000I249999J0D01*
G01*
X145151001Y-126753000D01*
G75*
G02*
X145401000Y-127002999I0J-249999D01*
G01*
X145401000Y-127628001D01*
G75*
G02*
X145151001Y-127878000I-249999J0D01*
G01*
G37*
G36*
G01*
X145151001Y-130803000D02*
X143900999Y-130803000D01*
G75*
G02*
X143651000Y-130553001I0J249999D01*
G01*
X143651000Y-129927999D01*
G75*
G02*
X143900999Y-129678000I249999J0D01*
G01*
X145151001Y-129678000D01*
G75*
G02*
X145401000Y-129927999I0J-249999D01*
G01*
X145401000Y-130553001D01*
G75*
G02*
X145151001Y-130803000I-249999J0D01*
G01*
G37*
G36*
G01*
X140280000Y-130673001D02*
X140280000Y-129422999D01*
G75*
G02*
X140529999Y-129173000I249999J0D01*
G01*
X141155001Y-129173000D01*
G75*
G02*
X141405000Y-129422999I0J-249999D01*
G01*
X141405000Y-130673001D01*
G75*
G02*
X141155001Y-130923000I-249999J0D01*
G01*
X140529999Y-130923000D01*
G75*
G02*
X140280000Y-130673001I0J249999D01*
G01*
G37*
G36*
G01*
X137355000Y-130673001D02*
X137355000Y-129422999D01*
G75*
G02*
X137604999Y-129173000I249999J0D01*
G01*
X138230001Y-129173000D01*
G75*
G02*
X138480000Y-129422999I0J-249999D01*
G01*
X138480000Y-130673001D01*
G75*
G02*
X138230001Y-130923000I-249999J0D01*
G01*
X137604999Y-130923000D01*
G75*
G02*
X137355000Y-130673001I0J249999D01*
G01*
G37*
G36*
G01*
X145024001Y-141467000D02*
X143773999Y-141467000D01*
G75*
G02*
X143524000Y-141217001I0J249999D01*
G01*
X143524000Y-140591999D01*
G75*
G02*
X143773999Y-140342000I249999J0D01*
G01*
X145024001Y-140342000D01*
G75*
G02*
X145274000Y-140591999I0J-249999D01*
G01*
X145274000Y-141217001D01*
G75*
G02*
X145024001Y-141467000I-249999J0D01*
G01*
G37*
G36*
G01*
X145024001Y-144392000D02*
X143773999Y-144392000D01*
G75*
G02*
X143524000Y-144142001I0J249999D01*
G01*
X143524000Y-143516999D01*
G75*
G02*
X143773999Y-143267000I249999J0D01*
G01*
X145024001Y-143267000D01*
G75*
G02*
X145274000Y-143516999I0J-249999D01*
G01*
X145274000Y-144142001D01*
G75*
G02*
X145024001Y-144392000I-249999J0D01*
G01*
G37*
G36*
G01*
X140346000Y-141595001D02*
X140346000Y-140344999D01*
G75*
G02*
X140595999Y-140095000I249999J0D01*
G01*
X141221001Y-140095000D01*
G75*
G02*
X141471000Y-140344999I0J-249999D01*
G01*
X141471000Y-141595001D01*
G75*
G02*
X141221001Y-141845000I-249999J0D01*
G01*
X140595999Y-141845000D01*
G75*
G02*
X140346000Y-141595001I0J249999D01*
G01*
G37*
G36*
G01*
X137421000Y-141595001D02*
X137421000Y-140344999D01*
G75*
G02*
X137670999Y-140095000I249999J0D01*
G01*
X138296001Y-140095000D01*
G75*
G02*
X138546000Y-140344999I0J-249999D01*
G01*
X138546000Y-141595001D01*
G75*
G02*
X138296001Y-141845000I-249999J0D01*
G01*
X137670999Y-141845000D01*
G75*
G02*
X137421000Y-141595001I0J249999D01*
G01*
G37*
D20*
X131064000Y-141478000D03*
X128524000Y-141478000D03*
X125984000Y-141478000D03*
X109474000Y-141478000D03*
D21*
X104394000Y-141478000D03*
D22*
G36*
X142481398Y-67706000D02*
G01*
X142481398Y-67730534D01*
X142476588Y-67779365D01*
X142467016Y-67827490D01*
X142452772Y-67874445D01*
X142433995Y-67919778D01*
X142410864Y-67963051D01*
X142383604Y-68003850D01*
X142352476Y-68041779D01*
X142317779Y-68076476D01*
X142279850Y-68107604D01*
X142239051Y-68134864D01*
X142195778Y-68157995D01*
X142150445Y-68176772D01*
X142103490Y-68191016D01*
X142055365Y-68200588D01*
X142006534Y-68205398D01*
X141982000Y-68205398D01*
X141982000Y-68206000D01*
X141482000Y-68206000D01*
X141482000Y-68205398D01*
X141457466Y-68205398D01*
X141408635Y-68200588D01*
X141360510Y-68191016D01*
X141313555Y-68176772D01*
X141268222Y-68157995D01*
X141224949Y-68134864D01*
X141184150Y-68107604D01*
X141146221Y-68076476D01*
X141111524Y-68041779D01*
X141080396Y-68003850D01*
X141053136Y-67963051D01*
X141030005Y-67919778D01*
X141011228Y-67874445D01*
X140996984Y-67827490D01*
X140987412Y-67779365D01*
X140982602Y-67730534D01*
X140982602Y-67706000D01*
X140982000Y-67706000D01*
X140982000Y-67206000D01*
X142482000Y-67206000D01*
X142482000Y-67706000D01*
X142481398Y-67706000D01*
G37*
G36*
X140982000Y-66906000D02*
G01*
X140982000Y-66406000D01*
X140982602Y-66406000D01*
X140982602Y-66381466D01*
X140987412Y-66332635D01*
X140996984Y-66284510D01*
X141011228Y-66237555D01*
X141030005Y-66192222D01*
X141053136Y-66148949D01*
X141080396Y-66108150D01*
X141111524Y-66070221D01*
X141146221Y-66035524D01*
X141184150Y-66004396D01*
X141224949Y-65977136D01*
X141268222Y-65954005D01*
X141313555Y-65935228D01*
X141360510Y-65920984D01*
X141408635Y-65911412D01*
X141457466Y-65906602D01*
X141482000Y-65906602D01*
X141482000Y-65906000D01*
X141982000Y-65906000D01*
X141982000Y-65906602D01*
X142006534Y-65906602D01*
X142055365Y-65911412D01*
X142103490Y-65920984D01*
X142150445Y-65935228D01*
X142195778Y-65954005D01*
X142239051Y-65977136D01*
X142279850Y-66004396D01*
X142317779Y-66035524D01*
X142352476Y-66070221D01*
X142383604Y-66108150D01*
X142410864Y-66148949D01*
X142433995Y-66192222D01*
X142452772Y-66237555D01*
X142467016Y-66284510D01*
X142476588Y-66332635D01*
X142481398Y-66381466D01*
X142481398Y-66406000D01*
X142482000Y-66406000D01*
X142482000Y-66906000D01*
X140982000Y-66906000D01*
G37*
D17*
X94615000Y-140843000D03*
X94615000Y-137033000D03*
X94615000Y-133223000D03*
G36*
G01*
X93065000Y-128513000D02*
X96165000Y-128513000D01*
G75*
G02*
X96415000Y-128763000I0J-250000D01*
G01*
X96415000Y-130063000D01*
G75*
G02*
X96165000Y-130313000I-250000J0D01*
G01*
X93065000Y-130313000D01*
G75*
G02*
X92815000Y-130063000I0J250000D01*
G01*
X92815000Y-128763000D01*
G75*
G02*
X93065000Y-128513000I250000J0D01*
G01*
G37*
X94742000Y-113284000D03*
X94742000Y-109474000D03*
X94742000Y-105664000D03*
G36*
G01*
X93192000Y-100954000D02*
X96292000Y-100954000D01*
G75*
G02*
X96542000Y-101204000I0J-250000D01*
G01*
X96542000Y-102504000D01*
G75*
G02*
X96292000Y-102754000I-250000J0D01*
G01*
X93192000Y-102754000D01*
G75*
G02*
X92942000Y-102504000I0J250000D01*
G01*
X92942000Y-101204000D01*
G75*
G02*
X93192000Y-100954000I250000J0D01*
G01*
G37*
X94742000Y-84201000D03*
X94742000Y-80391000D03*
X94742000Y-76581000D03*
G36*
G01*
X93192000Y-71871000D02*
X96292000Y-71871000D01*
G75*
G02*
X96542000Y-72121000I0J-250000D01*
G01*
X96542000Y-73421000D01*
G75*
G02*
X96292000Y-73671000I-250000J0D01*
G01*
X93192000Y-73671000D01*
G75*
G02*
X92942000Y-73421000I0J250000D01*
G01*
X92942000Y-72121000D01*
G75*
G02*
X93192000Y-71871000I250000J0D01*
G01*
G37*
D23*
X130445000Y-104013000D03*
X132445000Y-104963000D03*
X132445000Y-103063000D03*
D24*
X101025000Y-125730000D03*
X106065000Y-133230000D03*
X111105000Y-125730000D03*
X111105000Y-133230000D03*
X101025000Y-133230000D03*
X106065000Y-125730000D03*
D25*
X126365000Y-133230000D03*
D26*
X126365000Y-125730000D03*
D24*
X101025000Y-111125000D03*
X106065000Y-118625000D03*
X111105000Y-111125000D03*
X111105000Y-118625000D03*
X101025000Y-118625000D03*
X106065000Y-111125000D03*
D25*
X126365000Y-118625000D03*
D26*
X126365000Y-111125000D03*
D24*
X101000000Y-96520000D03*
X106040000Y-104020000D03*
X111080000Y-96520000D03*
X111080000Y-104020000D03*
X101000000Y-104020000D03*
X106040000Y-96520000D03*
D25*
X126340000Y-104020000D03*
D26*
X126340000Y-96520000D03*
D24*
X100898000Y-81915000D03*
X105938000Y-89415000D03*
X110978000Y-81915000D03*
X110978000Y-89415000D03*
X100898000Y-89415000D03*
X105938000Y-81915000D03*
D25*
X126238000Y-89415000D03*
D26*
X126238000Y-81915000D03*
D24*
X100898000Y-67430000D03*
X105938000Y-74930000D03*
X110978000Y-67430000D03*
X110978000Y-74930000D03*
X100898000Y-74930000D03*
X105938000Y-67430000D03*
D25*
X126238000Y-74930000D03*
D26*
X126238000Y-67430000D03*
G36*
G01*
X133277001Y-93842000D02*
X132026999Y-93842000D01*
G75*
G02*
X131777000Y-93592001I0J249999D01*
G01*
X131777000Y-92966999D01*
G75*
G02*
X132026999Y-92717000I249999J0D01*
G01*
X133277001Y-92717000D01*
G75*
G02*
X133527000Y-92966999I0J-249999D01*
G01*
X133527000Y-93592001D01*
G75*
G02*
X133277001Y-93842000I-249999J0D01*
G01*
G37*
G36*
G01*
X133277001Y-96767000D02*
X132026999Y-96767000D01*
G75*
G02*
X131777000Y-96517001I0J249999D01*
G01*
X131777000Y-95891999D01*
G75*
G02*
X132026999Y-95642000I249999J0D01*
G01*
X133277001Y-95642000D01*
G75*
G02*
X133527000Y-95891999I0J-249999D01*
G01*
X133527000Y-96517001D01*
G75*
G02*
X133277001Y-96767000I-249999J0D01*
G01*
G37*
G36*
G01*
X139816000Y-108467999D02*
X139816000Y-109718001D01*
G75*
G02*
X139566001Y-109968000I-249999J0D01*
G01*
X138940999Y-109968000D01*
G75*
G02*
X138691000Y-109718001I0J249999D01*
G01*
X138691000Y-108467999D01*
G75*
G02*
X138940999Y-108218000I249999J0D01*
G01*
X139566001Y-108218000D01*
G75*
G02*
X139816000Y-108467999I0J-249999D01*
G01*
G37*
G36*
G01*
X142741000Y-108467999D02*
X142741000Y-109718001D01*
G75*
G02*
X142491001Y-109968000I-249999J0D01*
G01*
X141865999Y-109968000D01*
G75*
G02*
X141616000Y-109718001I0J249999D01*
G01*
X141616000Y-108467999D01*
G75*
G02*
X141865999Y-108218000I249999J0D01*
G01*
X142491001Y-108218000D01*
G75*
G02*
X142741000Y-108467999I0J-249999D01*
G01*
G37*
G36*
G01*
X141489000Y-71135001D02*
X141489000Y-69834999D01*
G75*
G02*
X141738999Y-69585000I249999J0D01*
G01*
X142389001Y-69585000D01*
G75*
G02*
X142639000Y-69834999I0J-249999D01*
G01*
X142639000Y-71135001D01*
G75*
G02*
X142389001Y-71385000I-249999J0D01*
G01*
X141738999Y-71385000D01*
G75*
G02*
X141489000Y-71135001I0J249999D01*
G01*
G37*
G36*
G01*
X138539000Y-71135001D02*
X138539000Y-69834999D01*
G75*
G02*
X138788999Y-69585000I249999J0D01*
G01*
X139439001Y-69585000D01*
G75*
G02*
X139689000Y-69834999I0J-249999D01*
G01*
X139689000Y-71135001D01*
G75*
G02*
X139439001Y-71385000I-249999J0D01*
G01*
X138788999Y-71385000D01*
G75*
G02*
X138539000Y-71135001I0J249999D01*
G01*
G37*
D27*
X132652000Y-97145500D03*
X132652000Y-92265500D03*
G36*
G01*
X141766000Y-83631001D02*
X141766000Y-82230999D01*
G75*
G02*
X142015999Y-81981000I249999J0D01*
G01*
X142566001Y-81981000D01*
G75*
G02*
X142816000Y-82230999I0J-249999D01*
G01*
X142816000Y-83631001D01*
G75*
G02*
X142566001Y-83881000I-249999J0D01*
G01*
X142015999Y-83881000D01*
G75*
G02*
X141766000Y-83631001I0J249999D01*
G01*
G37*
G36*
G01*
X138616000Y-83631001D02*
X138616000Y-82230999D01*
G75*
G02*
X138865999Y-81981000I249999J0D01*
G01*
X139416001Y-81981000D01*
G75*
G02*
X139666000Y-82230999I0J-249999D01*
G01*
X139666000Y-83631001D01*
G75*
G02*
X139416001Y-83881000I-249999J0D01*
G01*
X138865999Y-83881000D01*
G75*
G02*
X138616000Y-83631001I0J249999D01*
G01*
G37*
G36*
G01*
X141766000Y-86298001D02*
X141766000Y-84897999D01*
G75*
G02*
X142015999Y-84648000I249999J0D01*
G01*
X142566001Y-84648000D01*
G75*
G02*
X142816000Y-84897999I0J-249999D01*
G01*
X142816000Y-86298001D01*
G75*
G02*
X142566001Y-86548000I-249999J0D01*
G01*
X142015999Y-86548000D01*
G75*
G02*
X141766000Y-86298001I0J249999D01*
G01*
G37*
G36*
G01*
X138616000Y-86298001D02*
X138616000Y-84897999D01*
G75*
G02*
X138865999Y-84648000I249999J0D01*
G01*
X139416001Y-84648000D01*
G75*
G02*
X139666000Y-84897999I0J-249999D01*
G01*
X139666000Y-86298001D01*
G75*
G02*
X139416001Y-86548000I-249999J0D01*
G01*
X138865999Y-86548000D01*
G75*
G02*
X138616000Y-86298001I0J249999D01*
G01*
G37*
G36*
G01*
X139752000Y-90091499D02*
X139752000Y-91391501D01*
G75*
G02*
X139502001Y-91641500I-249999J0D01*
G01*
X138851999Y-91641500D01*
G75*
G02*
X138602000Y-91391501I0J249999D01*
G01*
X138602000Y-90091499D01*
G75*
G02*
X138851999Y-89841500I249999J0D01*
G01*
X139502001Y-89841500D01*
G75*
G02*
X139752000Y-90091499I0J-249999D01*
G01*
G37*
G36*
G01*
X142702000Y-90091499D02*
X142702000Y-91391501D01*
G75*
G02*
X142452001Y-91641500I-249999J0D01*
G01*
X141801999Y-91641500D01*
G75*
G02*
X141552000Y-91391501I0J249999D01*
G01*
X141552000Y-90091499D01*
G75*
G02*
X141801999Y-89841500I249999J0D01*
G01*
X142452001Y-89841500D01*
G75*
G02*
X142702000Y-90091499I0J-249999D01*
G01*
G37*
D18*
X144468000Y-72980500D03*
X136848000Y-106000500D03*
X144468000Y-75520500D03*
X136848000Y-103460500D03*
X144468000Y-78060500D03*
X136848000Y-100920500D03*
X144468000Y-80600500D03*
X136848000Y-98380500D03*
X144468000Y-83140500D03*
X136848000Y-95840500D03*
X144468000Y-85680500D03*
X136848000Y-93300500D03*
X144468000Y-88220500D03*
X136848000Y-90760500D03*
X144468000Y-90760500D03*
X136848000Y-88220500D03*
X144468000Y-93300500D03*
X136848000Y-85680500D03*
X144468000Y-95840500D03*
X136848000Y-83140500D03*
X144468000Y-98380500D03*
X136848000Y-80600500D03*
X144468000Y-100920500D03*
X136848000Y-78060500D03*
X144468000Y-103460500D03*
X136848000Y-75520500D03*
X144468000Y-106000500D03*
D19*
X136848000Y-72980500D03*
D28*
X137328000Y-69278500D03*
X137328000Y-64778500D03*
X143828000Y-69278500D03*
X143828000Y-64778500D03*
G36*
G01*
X139752000Y-72399999D02*
X139752000Y-73650001D01*
G75*
G02*
X139502001Y-73900000I-249999J0D01*
G01*
X138876999Y-73900000D01*
G75*
G02*
X138627000Y-73650001I0J249999D01*
G01*
X138627000Y-72399999D01*
G75*
G02*
X138876999Y-72150000I249999J0D01*
G01*
X139502001Y-72150000D01*
G75*
G02*
X139752000Y-72399999I0J-249999D01*
G01*
G37*
G36*
G01*
X142677000Y-72399999D02*
X142677000Y-73650001D01*
G75*
G02*
X142427001Y-73900000I-249999J0D01*
G01*
X141801999Y-73900000D01*
G75*
G02*
X141552000Y-73650001I0J249999D01*
G01*
X141552000Y-72399999D01*
G75*
G02*
X141801999Y-72150000I249999J0D01*
G01*
X142427001Y-72150000D01*
G75*
G02*
X142677000Y-72399999I0J-249999D01*
G01*
G37*
G36*
G01*
X138795999Y-67907000D02*
X140096001Y-67907000D01*
G75*
G02*
X140346000Y-68156999I0J-249999D01*
G01*
X140346000Y-68807001D01*
G75*
G02*
X140096001Y-69057000I-249999J0D01*
G01*
X138795999Y-69057000D01*
G75*
G02*
X138546000Y-68807001I0J249999D01*
G01*
X138546000Y-68156999D01*
G75*
G02*
X138795999Y-67907000I249999J0D01*
G01*
G37*
G36*
G01*
X138795999Y-64957000D02*
X140096001Y-64957000D01*
G75*
G02*
X140346000Y-65206999I0J-249999D01*
G01*
X140346000Y-65857001D01*
G75*
G02*
X140096001Y-66107000I-249999J0D01*
G01*
X138795999Y-66107000D01*
G75*
G02*
X138546000Y-65857001I0J249999D01*
G01*
X138546000Y-65206999D01*
G75*
G02*
X138795999Y-64957000I249999J0D01*
G01*
G37*
G36*
G01*
X139752000Y-95234999D02*
X139752000Y-96535001D01*
G75*
G02*
X139502001Y-96785000I-249999J0D01*
G01*
X138851999Y-96785000D01*
G75*
G02*
X138602000Y-96535001I0J249999D01*
G01*
X138602000Y-95234999D01*
G75*
G02*
X138851999Y-94985000I249999J0D01*
G01*
X139502001Y-94985000D01*
G75*
G02*
X139752000Y-95234999I0J-249999D01*
G01*
G37*
G36*
G01*
X142702000Y-95234999D02*
X142702000Y-96535001D01*
G75*
G02*
X142452001Y-96785000I-249999J0D01*
G01*
X141801999Y-96785000D01*
G75*
G02*
X141552000Y-96535001I0J249999D01*
G01*
X141552000Y-95234999D01*
G75*
G02*
X141801999Y-94985000I249999J0D01*
G01*
X142452001Y-94985000D01*
G75*
G02*
X142702000Y-95234999I0J-249999D01*
G01*
G37*
G36*
G01*
X139767000Y-92631499D02*
X139767000Y-93931501D01*
G75*
G02*
X139517001Y-94181500I-249999J0D01*
G01*
X138866999Y-94181500D01*
G75*
G02*
X138617000Y-93931501I0J249999D01*
G01*
X138617000Y-92631499D01*
G75*
G02*
X138866999Y-92381500I249999J0D01*
G01*
X139517001Y-92381500D01*
G75*
G02*
X139767000Y-92631499I0J-249999D01*
G01*
G37*
G36*
G01*
X142717000Y-92631499D02*
X142717000Y-93931501D01*
G75*
G02*
X142467001Y-94181500I-249999J0D01*
G01*
X141816999Y-94181500D01*
G75*
G02*
X141567000Y-93931501I0J249999D01*
G01*
X141567000Y-92631499D01*
G75*
G02*
X141816999Y-92381500I249999J0D01*
G01*
X142467001Y-92381500D01*
G75*
G02*
X142717000Y-92631499I0J-249999D01*
G01*
G37*
G36*
G01*
X139767000Y-87551499D02*
X139767000Y-88851501D01*
G75*
G02*
X139517001Y-89101500I-249999J0D01*
G01*
X138866999Y-89101500D01*
G75*
G02*
X138617000Y-88851501I0J249999D01*
G01*
X138617000Y-87551499D01*
G75*
G02*
X138866999Y-87301500I249999J0D01*
G01*
X139517001Y-87301500D01*
G75*
G02*
X139767000Y-87551499I0J-249999D01*
G01*
G37*
G36*
G01*
X142717000Y-87551499D02*
X142717000Y-88851501D01*
G75*
G02*
X142467001Y-89101500I-249999J0D01*
G01*
X141816999Y-89101500D01*
G75*
G02*
X141567000Y-88851501I0J249999D01*
G01*
X141567000Y-87551499D01*
G75*
G02*
X141816999Y-87301500I249999J0D01*
G01*
X142467001Y-87301500D01*
G75*
G02*
X142717000Y-87551499I0J-249999D01*
G01*
G37*
M02*
