%TF.GenerationSoftware,KiCad,Pcbnew,(6.0.0)*%
%TF.CreationDate,2022-01-21T00:33:54+01:00*%
%TF.ProjectId,LuciCameraLettoRoma,4c756369-4361-46d6-9572-614c6574746f,rev?*%
%TF.SameCoordinates,Original*%
%TF.FileFunction,Soldermask,Bot*%
%TF.FilePolarity,Negative*%
%FSLAX46Y46*%
G04 Gerber Fmt 4.6, Leading zero omitted, Abs format (unit mm)*
G04 Created by KiCad (PCBNEW (6.0.0)) date 2022-01-21 00:33:54*
%MOMM*%
%LPD*%
G01*
G04 APERTURE LIST*
G04 Aperture macros list*
%AMRoundRect*
0 Rectangle with rounded corners*
0 $1 Rounding radius*
0 $2 $3 $4 $5 $6 $7 $8 $9 X,Y pos of 4 corners*
0 Add a 4 corners polygon primitive as box body*
4,1,4,$2,$3,$4,$5,$6,$7,$8,$9,$2,$3,0*
0 Add four circle primitives for the rounded corners*
1,1,$1+$1,$2,$3*
1,1,$1+$1,$4,$5*
1,1,$1+$1,$6,$7*
1,1,$1+$1,$8,$9*
0 Add four rect primitives between the rounded corners*
20,1,$1+$1,$2,$3,$4,$5,0*
20,1,$1+$1,$4,$5,$6,$7,0*
20,1,$1+$1,$6,$7,$8,$9,0*
20,1,$1+$1,$8,$9,$2,$3,0*%
%AMFreePoly0*
4,1,22,0.500000,-0.750000,0.000000,-0.750000,0.000000,-0.745033,-0.079941,-0.743568,-0.215256,-0.701293,-0.333266,-0.622738,-0.424486,-0.514219,-0.481581,-0.384460,-0.499164,-0.250000,-0.500000,-0.250000,-0.500000,0.250000,-0.499164,0.250000,-0.499963,0.256109,-0.478152,0.396186,-0.417904,0.524511,-0.324060,0.630769,-0.204165,0.706417,-0.067858,0.745374,0.000000,0.744959,0.000000,0.750000,
0.500000,0.750000,0.500000,-0.750000,0.500000,-0.750000,$1*%
%AMFreePoly1*
4,1,20,0.000000,0.744959,0.073905,0.744508,0.209726,0.703889,0.328688,0.626782,0.421226,0.519385,0.479903,0.390333,0.500000,0.250000,0.500000,-0.250000,0.499851,-0.262216,0.476331,-0.402017,0.414519,-0.529596,0.319384,-0.634700,0.198574,-0.708877,0.061801,-0.746166,0.000000,-0.745033,0.000000,-0.750000,-0.500000,-0.750000,-0.500000,0.750000,0.000000,0.750000,0.000000,0.744959,
0.000000,0.744959,$1*%
G04 Aperture macros list end*
%ADD10C,2.000000*%
%ADD11R,1.600000X1.600000*%
%ADD12O,1.600000X1.600000*%
%ADD13C,1.500000*%
%ADD14C,3.000000*%
%ADD15C,2.500000*%
%ADD16O,1.500000X3.000000*%
%ADD17R,1.500000X3.000000*%
%ADD18R,1.700000X1.700000*%
%ADD19O,1.700000X1.700000*%
%ADD20R,1.500000X1.500000*%
%ADD21C,7.000000*%
%ADD22C,0.800000*%
%ADD23RoundRect,0.249999X0.325001X0.650001X-0.325001X0.650001X-0.325001X-0.650001X0.325001X-0.650001X0*%
%ADD24RoundRect,0.249999X-0.325001X-0.650001X0.325001X-0.650001X0.325001X0.650001X-0.325001X0.650001X0*%
%ADD25RoundRect,0.249999X-0.650001X0.325001X-0.650001X-0.325001X0.650001X-0.325001X0.650001X0.325001X0*%
%ADD26RoundRect,0.249999X-0.275001X-0.700001X0.275001X-0.700001X0.275001X0.700001X-0.275001X0.700001X0*%
%ADD27RoundRect,0.249999X-0.700001X0.275001X-0.700001X-0.275001X0.700001X-0.275001X0.700001X0.275001X0*%
%ADD28RoundRect,0.249999X0.312501X0.625001X-0.312501X0.625001X-0.312501X-0.625001X0.312501X-0.625001X0*%
%ADD29RoundRect,0.249999X0.625001X-0.312501X0.625001X0.312501X-0.625001X0.312501X-0.625001X-0.312501X0*%
%ADD30R,0.900000X0.800000*%
%ADD31FreePoly0,270.000000*%
%ADD32FreePoly1,270.000000*%
%ADD33RoundRect,0.249999X-0.312501X-0.625001X0.312501X-0.625001X0.312501X0.625001X-0.312501X0.625001X0*%
%ADD34R,0.800000X0.900000*%
G04 APERTURE END LIST*
D10*
X143828000Y-69278500D03*
X137328000Y-69278500D03*
X143828000Y-64778500D03*
X137328000Y-64778500D03*
D11*
X136848000Y-72980500D03*
D12*
X136848000Y-75520500D03*
X136848000Y-78060500D03*
X136848000Y-80600500D03*
X136848000Y-83140500D03*
X136848000Y-85680500D03*
X136848000Y-88220500D03*
X136848000Y-90760500D03*
X136848000Y-93300500D03*
X136848000Y-95840500D03*
X136848000Y-98380500D03*
X136848000Y-100920500D03*
X136848000Y-103460500D03*
X136848000Y-106000500D03*
X144468000Y-106000500D03*
X144468000Y-103460500D03*
X144468000Y-100920500D03*
X144468000Y-98380500D03*
X144468000Y-95840500D03*
X144468000Y-93300500D03*
X144468000Y-90760500D03*
X144468000Y-88220500D03*
X144468000Y-85680500D03*
X144468000Y-83140500D03*
X144468000Y-80600500D03*
X144468000Y-78060500D03*
X144468000Y-75520500D03*
X144468000Y-72980500D03*
D13*
X132652000Y-92265500D03*
X132652000Y-97145500D03*
D14*
X126238000Y-67430000D03*
D15*
X124288000Y-61380000D03*
D14*
X112088000Y-61380000D03*
X112038000Y-73430000D03*
D15*
X124288000Y-73380000D03*
D14*
X126229000Y-83947000D03*
D15*
X124279000Y-77897000D03*
D14*
X112079000Y-77897000D03*
X112029000Y-89947000D03*
D15*
X124279000Y-89897000D03*
D14*
X126340000Y-100584000D03*
D15*
X124390000Y-94534000D03*
D14*
X112190000Y-94534000D03*
X112140000Y-106584000D03*
D15*
X124390000Y-106534000D03*
D14*
X126356000Y-117221000D03*
D15*
X124406000Y-111171000D03*
D14*
X112206000Y-111171000D03*
X112156000Y-123221000D03*
D15*
X124406000Y-123171000D03*
D14*
X99060000Y-123952000D03*
D15*
X105110000Y-122002000D03*
D14*
X105110000Y-109802000D03*
X93060000Y-109752000D03*
D15*
X93110000Y-122002000D03*
D16*
X136371500Y-154392000D03*
D17*
X133831500Y-154392000D03*
D16*
X141451500Y-154392000D03*
X146531500Y-154392000D03*
D11*
X140589000Y-138176000D03*
D12*
X138049000Y-138176000D03*
X138049000Y-145796000D03*
X140589000Y-145796000D03*
D11*
X140589000Y-116205000D03*
D12*
X138049000Y-116205000D03*
X138049000Y-123825000D03*
X140589000Y-123825000D03*
D11*
X140589000Y-127254000D03*
D12*
X138049000Y-127254000D03*
X138049000Y-134874000D03*
X140589000Y-134874000D03*
D18*
X149524000Y-145709000D03*
D19*
X149524000Y-143169000D03*
X149524000Y-140629000D03*
X149524000Y-138089000D03*
D20*
X119459000Y-130882500D03*
D13*
X113459000Y-130882500D03*
X125459000Y-164482500D03*
X107459000Y-164482500D03*
D18*
X152019000Y-87376000D03*
D19*
X152019000Y-84836000D03*
X152019000Y-82296000D03*
X152019000Y-79756000D03*
D18*
X152019000Y-66421000D03*
D19*
X152019000Y-68961000D03*
X152019000Y-71501000D03*
X152019000Y-74041000D03*
D18*
X121793000Y-56515000D03*
D19*
X124333000Y-56515000D03*
X126873000Y-56515000D03*
X129413000Y-56515000D03*
D18*
X152146000Y-105537000D03*
D19*
X152146000Y-102997000D03*
X152146000Y-100457000D03*
X152146000Y-97917000D03*
X152146000Y-95377000D03*
X152146000Y-92837000D03*
D18*
X136017000Y-56515000D03*
D19*
X138557000Y-56515000D03*
X141097000Y-56515000D03*
X143637000Y-56515000D03*
D21*
X94945200Y-58267600D03*
D22*
X96801355Y-60123755D03*
X93089045Y-60123755D03*
X96801355Y-56411445D03*
X92320200Y-58267600D03*
X94945200Y-60892600D03*
X93089045Y-56411445D03*
X97570200Y-58267600D03*
X94945200Y-55642600D03*
X152171400Y-60816400D03*
X149546400Y-58191400D03*
X154796400Y-58191400D03*
X150315245Y-56335245D03*
X152171400Y-55566400D03*
X154027555Y-60047555D03*
X150315245Y-60047555D03*
X154027555Y-56335245D03*
D21*
X152171400Y-58191400D03*
X152167000Y-163019000D03*
D22*
X154792000Y-163019000D03*
X150310845Y-164875155D03*
X154023155Y-161162845D03*
X154023155Y-164875155D03*
X152167000Y-160394000D03*
X149542000Y-163019000D03*
X150310845Y-161162845D03*
X152167000Y-165644000D03*
X96801355Y-161186445D03*
X93089045Y-164898755D03*
X93089045Y-161186445D03*
X92320200Y-163042600D03*
D21*
X94945200Y-163042600D03*
D22*
X96801355Y-164898755D03*
X97570200Y-163042600D03*
X94945200Y-160417600D03*
X94945200Y-165667600D03*
D18*
X100539000Y-135352000D03*
D19*
X100539000Y-137892000D03*
D18*
X100711000Y-67183000D03*
D19*
X100711000Y-69723000D03*
X100711000Y-72263000D03*
X100711000Y-74803000D03*
X100711000Y-77343000D03*
X100711000Y-79883000D03*
X100711000Y-82423000D03*
X100711000Y-84963000D03*
X100711000Y-87503000D03*
X100711000Y-90043000D03*
D23*
X142142000Y-88201500D03*
X139192000Y-88201500D03*
X142142000Y-93281500D03*
X139192000Y-93281500D03*
X142127000Y-95885000D03*
X139177000Y-95885000D03*
D24*
X138860000Y-61976000D03*
X141810000Y-61976000D03*
D25*
X147701000Y-88187000D03*
X147701000Y-91137000D03*
D26*
X139141000Y-85598000D03*
X142291000Y-85598000D03*
D27*
X147701000Y-93116000D03*
X147701000Y-96266000D03*
D24*
X138860000Y-59563000D03*
X141810000Y-59563000D03*
D28*
X142178500Y-109093000D03*
X139253500Y-109093000D03*
D29*
X132652000Y-96204500D03*
X132652000Y-93279500D03*
D30*
X132445000Y-103063000D03*
X132445000Y-104963000D03*
X130445000Y-104013000D03*
D31*
X147828000Y-63470000D03*
D32*
X147828000Y-64770000D03*
D33*
X137729500Y-118872000D03*
X140654500Y-118872000D03*
D29*
X144399000Y-121731500D03*
X144399000Y-118806500D03*
X144526000Y-130240500D03*
X144526000Y-127315500D03*
D33*
X137917500Y-130048000D03*
X140842500Y-130048000D03*
D29*
X144399000Y-143829500D03*
X144399000Y-140904500D03*
D33*
X137983500Y-140970000D03*
X140908500Y-140970000D03*
D34*
X145603000Y-134461000D03*
X143703000Y-134461000D03*
X144653000Y-132461000D03*
D29*
X131572000Y-68264500D03*
X131572000Y-65339500D03*
X131572000Y-82361500D03*
X131572000Y-79436500D03*
D33*
X130998500Y-109093000D03*
X133923500Y-109093000D03*
X130937500Y-112141000D03*
X133862500Y-112141000D03*
D29*
X131572000Y-126557500D03*
X131572000Y-123632500D03*
M02*
