%FSLAX45Y45*%
G04 Gerber Fmt 4.5, Leading zero omitted, Abs format (unit mm)*
G04 Created by KiCad (PCBNEW (5.1.10)-1) date 2021-12-06 14:16:19*
%MOMM*%
%LPD*%
G01*
G04 APERTURE LIST*
%TA.AperFunction,Profile*%
%ADD10C,0.050000*%
%TD*%
%ADD11C,0.200000*%
%ADD12C,0.300000*%
G04 APERTURE END LIST*
D10*
X9017000Y-16776700D02*
X9017000Y-5308600D01*
X15748000Y-16764000D02*
X9017000Y-16776700D01*
X15748000Y-5308600D02*
X15748000Y-16764000D01*
X9017000Y-5308600D02*
X15748000Y-5308600D01*
X12014200Y-14897100D02*
X12014200Y-6438900D01*
X11811000Y-6438900D02*
X11811000Y-14897100D01*
X12014200Y-14897100D02*
G75*
G02*
X11811000Y-14897100I-101600J0D01*
G01*
X11811000Y-6438900D02*
G75*
G02*
X12014200Y-6438900I101600J0D01*
G01*
D11*
D12*
X9300928Y-17244914D02*
X9300928Y-16944914D01*
X9372357Y-16944914D01*
X9415214Y-16959200D01*
X9443786Y-16987772D01*
X9458071Y-17016343D01*
X9472357Y-17073486D01*
X9472357Y-17116343D01*
X9458071Y-17173486D01*
X9443786Y-17202057D01*
X9415214Y-17230629D01*
X9372357Y-17244914D01*
X9300928Y-17244914D01*
X9600928Y-17244914D02*
X9600928Y-17044914D01*
X9600928Y-17102057D02*
X9615214Y-17073486D01*
X9629500Y-17059200D01*
X9658071Y-17044914D01*
X9686643Y-17044914D01*
X9786643Y-17244914D02*
X9786643Y-17044914D01*
X9786643Y-16944914D02*
X9772357Y-16959200D01*
X9786643Y-16973486D01*
X9800928Y-16959200D01*
X9786643Y-16944914D01*
X9786643Y-16973486D01*
X9972357Y-17244914D02*
X9943786Y-17230629D01*
X9929500Y-17202057D01*
X9929500Y-16944914D01*
X10129500Y-17244914D02*
X10100928Y-17230629D01*
X10086643Y-17202057D01*
X10086643Y-16944914D01*
X10472357Y-17244914D02*
X10472357Y-16944914D01*
X10572357Y-17159200D01*
X10672357Y-16944914D01*
X10672357Y-17244914D01*
X10943786Y-17244914D02*
X10943786Y-17087772D01*
X10929500Y-17059200D01*
X10900928Y-17044914D01*
X10843786Y-17044914D01*
X10815214Y-17059200D01*
X10943786Y-17230629D02*
X10915214Y-17244914D01*
X10843786Y-17244914D01*
X10815214Y-17230629D01*
X10800928Y-17202057D01*
X10800928Y-17173486D01*
X10815214Y-17144914D01*
X10843786Y-17130629D01*
X10915214Y-17130629D01*
X10943786Y-17116343D01*
X11086643Y-17044914D02*
X11086643Y-17344914D01*
X11086643Y-17059200D02*
X11115214Y-17044914D01*
X11172357Y-17044914D01*
X11200928Y-17059200D01*
X11215214Y-17073486D01*
X11229500Y-17102057D01*
X11229500Y-17187772D01*
X11215214Y-17216343D01*
X11200928Y-17230629D01*
X11172357Y-17244914D01*
X11115214Y-17244914D01*
X11086643Y-17230629D01*
X11358071Y-17216343D02*
X11372357Y-17230629D01*
X11358071Y-17244914D01*
X11343786Y-17230629D01*
X11358071Y-17216343D01*
X11358071Y-17244914D01*
X11358071Y-17059200D02*
X11372357Y-17073486D01*
X11358071Y-17087772D01*
X11343786Y-17073486D01*
X11358071Y-17059200D01*
X11358071Y-17087772D01*
M02*
